<svg width="38" height="38" viewBox="0 0 38 38" fill="none" xmlns="http://www.w3.org/2000/svg">
<path d="M18.8754 0.621094C8.84196 0.621094 0.632812 8.83024 0.632812 18.8636C0.632812 28.897 8.84196 37.1062 18.8754 37.1062C28.9088 37.1062 37.1179 28.897 37.1179 18.8636V18.8636C37.1179 18.3172 36.3997 18.0963 36.0848 18.5429C35.426 19.4773 34.7888 20.3433 34.215 21.141C34.0841 21.323 33.997 21.5323 33.9522 21.7521C33.2963 24.9745 31.6947 27.8287 29.4376 30.0245C28.7687 30.6753 27.7445 30.3296 27.4494 29.4443V29.4443C27.3542 29.0635 27.2589 28.6826 27.1378 28.3018C26.9105 27.5872 26.657 26.8792 26.4182 26.1684C26.3676 26.018 26.3126 25.872 26.2511 25.7325C26.1034 25.3974 25.9057 25.1467 25.5871 24.9662V24.9662C25.2879 24.7968 24.9124 24.6446 24.5715 24.6002C23.3922 24.4467 22.0422 24.7201 21.2469 23.6067V23.6067C20.557 22.5718 21.2867 21.1755 21.9766 20.1406V20.1406V20.1406C22.7749 18.5439 22.489 16.7672 21.5956 15.2217C20.728 13.7209 19.9606 12.1497 19.4773 10.6459C19.4441 10.5427 19.3486 10.4721 19.2402 10.4721V10.4721C19.0578 10.4721 19.0578 10.4721 18.8754 10.2896C18.7857 10.2 18.7071 10.0773 18.6421 9.93506C18.2282 9.02831 18.5989 7.97058 18.8404 7.0035C18.8983 6.77158 18.9315 6.53069 18.9011 6.25849C18.8888 6.14836 18.879 6.11296 18.8702 6.0025V6.0025C18.8023 5.15656 17.6254 4.76521 17.4138 3.94335C17.3866 3.83782 17.3839 3.71039 17.4127 3.55653C17.4148 3.54578 17.416 3.5344 17.416 3.52347V3.52347C17.416 3.43179 17.4903 3.35748 17.5819 3.35748H18.8754H18.9381C19.4453 3.35748 19.9098 2.97591 20.1441 2.52601V2.52601C20.5927 1.66467 20.0434 0.621094 19.0723 0.621094H18.8754ZM29.8209 0.621094C25.8075 0.621094 22.5239 3.90475 22.5239 7.91811C22.5239 8.40565 22.6316 8.96318 22.8208 9.56651C24.8763 16.1213 34.7655 16.1213 36.821 9.56651C37.0102 8.96318 37.1179 8.40565 37.1179 7.91811C37.1179 3.90475 33.8343 0.621094 29.8209 0.621094ZM29.8209 5.18173C31.2803 5.18173 32.5573 6.45871 32.5573 7.91811C32.5573 9.37752 31.2803 10.6545 29.8209 10.6545C28.3615 10.6545 27.0845 9.37752 27.0845 7.91811C27.0845 6.45871 28.3615 5.18173 29.8209 5.18173ZM11.5783 6.27628C12.308 6.27628 12.8553 6.27628 13.4026 6.45871C13.9499 6.64114 14.4972 7.00599 14.862 7.37084C15.2269 7.73569 15.7741 8.28297 15.7741 8.83024V8.83024C15.7741 9.12813 15.4727 9.358 15.1753 9.37502C15.1317 9.37752 15.0881 9.37752 15.0444 9.37752C14.9407 9.37752 14.837 9.37752 14.7345 9.37628C13.9577 9.36686 13.3677 8.81282 12.6729 8.46539V8.46539C11.7608 8.10054 10.1189 10.4721 9.93651 11.2018C9.82878 11.525 9.78467 12.1027 9.95449 12.5592C10.1887 13.1886 11.0185 13.1704 11.5753 12.795C11.8923 12.5812 12.2185 12.3196 12.4739 12.0986C12.7334 11.8742 13.0149 11.673 13.3003 11.4828V11.4828C13.6013 11.2822 13.9538 11.1561 14.3128 11.2009C15.4969 11.3486 16.3684 12.4609 16.6863 13.5733C16.9835 14.7622 15.3436 15.709 14.1337 16.2164C13.6537 16.4177 13.1589 16.3733 12.6431 16.4433C12.5955 16.4498 12.545 16.4648 12.4905 16.4921C11.5783 16.857 10.4838 18.1339 10.4838 19.0461C10.4838 19.8677 10.3358 20.6893 10.1731 21.5109C10.1418 21.6688 9.93469 21.7484 9.80885 21.6479V21.6479C9.73884 21.592 9.75409 21.5497 9.75409 21.4601V21.2352C9.75409 20.7672 9.62071 20.2993 9.23992 19.9454C9.10884 19.8235 8.93688 19.759 8.79937 19.6445V19.6445C8.7245 19.5821 8.61188 19.579 8.52226 19.5408C8.02074 19.3271 7.51922 18.9094 7.01771 19.4109C6.65285 19.7758 6.288 20.3231 6.288 20.8703V20.8703C6.288 21.2652 6.66229 21.5359 7.05338 21.4813C7.22391 21.4575 7.39445 21.4176 7.56498 21.4176V21.4176C8.09072 21.4176 8.24155 22.1955 8.4821 22.663C8.68922 23.0655 8.9316 23.4243 9.38924 23.4243H10.6662H12.0475C12.7034 23.4243 13.3626 23.5056 13.9858 23.71C14.0793 23.7407 14.1714 23.7729 14.2597 23.8073C14.6915 23.9754 14.9566 24.3679 15.0736 24.8162V24.8162C15.1503 25.11 15.3123 25.3811 15.5496 25.5705C16.1038 26.0129 16.8427 26.1507 17.5739 26.321C18.0808 26.4391 18.738 26.5574 18.8553 27.0645C18.8687 27.1222 18.8754 27.1854 18.8754 27.2552C18.8754 27.8025 18.6929 28.5322 18.5105 29.0795C18.3281 29.6268 18.1457 30.3565 17.7808 30.7213C17.416 31.0862 17.0511 31.2686 16.6863 31.451C15.9805 31.8039 15.6161 32.498 15.2629 33.0383C15.239 33.0747 15.2415 33.0643 15.2217 33.103V33.103C15.0532 33.4312 14.6421 33.5885 14.2882 33.4842C13.1517 33.1493 12.1172 32.6808 11.0903 31.9841C10.9374 31.8804 10.8486 31.7062 10.8486 31.5214V31.5214C10.8486 31.4747 10.8429 31.428 10.8314 31.3827C10.6547 30.6869 10.4781 30.1568 10.3014 29.6268C10.0682 29.0438 9.76047 28.3863 9.52112 27.7495C9.26626 27.0715 9.23667 26.3435 9.236 25.6192C9.23551 25.0916 9.16911 24.5902 8.84196 24.154C8.43749 23.4799 7.53482 23.304 6.72306 23.0371C6.17286 22.8563 5.71677 22.4867 5.29197 22.0931C5.04676 21.8658 4.79382 21.634 4.54356 21.3922C3.86409 20.7358 3.55162 19.8084 3.55162 18.8636V18.8636C3.55162 14.6589 5.2799 10.8529 8.05551 8.0133C8.99788 7.04919 10.2302 6.27628 11.5783 6.27628V6.27628Z" fill="#4A83E7"/>
</svg>
