<svg width="46" height="62" viewBox="0 0 46 62" fill="none" xmlns="http://www.w3.org/2000/svg">
<path d="M22.3687 11.5C19.5581 13.4768 16.3725 15.7174 14.6658 19.4243C11.7012 25.8911 20.7321 32.9455 21.1181 33.2427C21.2078 33.3119 21.3151 33.3462 21.4222 33.3462C21.5359 33.3462 21.6497 33.3073 21.7423 33.2299C21.9216 33.0799 21.9724 32.8253 21.8647 32.6179C21.832 32.5548 18.5904 26.2583 18.7109 21.7409C18.7536 20.1678 20.9553 18.3831 23.2863 16.4934C25.4212 14.7627 27.8412 12.8011 29.2572 10.5064C32.3655 5.45536 28.9107 0.488655 28.8754 0.439195C28.7382 0.246542 28.4849 0.176541 28.2684 0.271671C28.052 0.367 27.9321 0.601136 27.9816 0.832279C27.9886 0.864987 28.6604 4.14946 26.791 7.53326C26.0205 8.93149 24.3283 10.1219 22.3687 11.5Z" fill="white"/>
<path d="M34.2105 13.728C34.4087 13.5786 34.4669 13.3062 34.3469 13.0888C34.2268 12.8714 33.9654 12.7755 33.7332 12.8636C33.2558 13.0451 22.041 17.3678 22.041 22.5912C22.041 26.1916 23.5791 28.0938 24.7021 29.4829C25.1426 30.0275 25.5229 30.498 25.6482 30.8996C26.001 32.0571 25.1651 34.1492 24.8137 34.8576C24.7124 35.0614 24.7621 35.3081 24.9344 35.4569C25.0275 35.5373 25.1438 35.578 25.2603 35.578C25.3594 35.578 25.4589 35.5484 25.5449 35.4886C25.7377 35.3544 30.2575 32.1589 29.4468 28.3088C29.1449 26.8455 28.4257 25.7762 27.7911 24.8327C26.8081 23.371 26.0981 22.315 27.1752 20.3647C28.4377 18.0904 34.1528 13.7713 34.2105 13.728Z" fill="white"/>
<path d="M5.01827 35.6612C4.82602 36.2365 4.91676 36.8079 5.28053 37.3131C6.49628 39.0007 10.8025 39.9302 17.4065 39.9302C17.4069 39.9302 17.4073 39.9302 17.4073 39.9302C18.3022 39.9302 19.2469 39.9127 20.2145 39.878C30.7732 39.4999 34.6894 36.2106 34.851 36.0708C35.0271 35.9184 35.0742 35.6646 34.9647 35.4591C34.8552 35.2539 34.619 35.1508 34.3935 35.2128C30.675 36.2282 23.7312 36.5885 18.9148 36.5885C13.5255 36.5885 10.7809 36.2004 10.109 35.9138C10.4538 35.4404 12.5804 34.595 15.2155 34.0767C15.4674 34.0272 15.6405 33.7947 15.6156 33.5392C15.5907 33.2837 15.3761 33.0889 15.1194 33.0889C13.5746 33.0891 5.82797 33.2131 5.01827 35.6612Z" fill="white"/>
<path d="M40.3499 32.2734C38.1721 32.2734 36.107 33.3647 36.02 33.4112C35.8186 33.5191 35.7165 33.75 35.7717 33.9718C35.8272 34.1934 36.0264 34.3491 36.2549 34.3493C36.3012 34.3495 40.9004 34.387 41.317 37.0148C41.6859 39.2817 36.9653 42.9549 35.1152 44.179C34.9153 44.3113 34.8378 44.5669 34.9305 44.7877C35.0093 44.9758 35.1926 45.0934 35.39 45.0934C35.4245 45.0934 35.4594 45.0899 35.4941 45.0823C35.9333 44.9885 46.2346 42.7186 45.1455 36.7206C44.481 33.0448 42.1708 32.2734 40.3499 32.2734Z" fill="white"/>
<path d="M33.2846 43.4454C33.3205 43.2531 33.2406 43.0577 33.0806 42.9456L30.6106 41.2155C30.4902 41.1311 30.338 41.1046 30.1966 41.1421C30.1709 41.1489 27.5878 41.8278 23.8377 42.2442C22.3493 42.4111 20.6822 42.4993 19.0163 42.4993C15.2672 42.4993 12.8157 42.0587 12.4588 41.7356C12.4115 41.6449 12.4265 41.6036 12.4348 41.5807C12.4996 41.4002 12.8473 41.1858 13.0714 41.101C13.3189 41.0095 13.4523 40.7407 13.3754 40.4882C13.2986 40.2357 13.0383 40.0869 12.7814 40.1487C10.3037 40.7466 9.09212 41.5829 9.18027 42.6339C9.33682 44.4972 13.6532 45.4537 17.3022 45.7068C17.8269 45.7427 18.3945 45.761 18.9886 45.761C18.989 45.761 18.9892 45.761 18.9896 45.761C25.0574 45.761 32.8361 43.8572 32.9139 43.8379C33.1038 43.791 33.2485 43.6376 33.2846 43.4454Z" fill="white"/>
<path d="M14.6631 47.4444C14.8502 47.3225 14.9331 47.0914 14.8667 46.8784C14.8005 46.6654 14.6013 46.5256 14.3775 46.5284C14.0455 46.5371 11.1283 46.6688 10.9241 48.5261C10.8623 49.0811 11.0213 49.5881 11.3968 50.033C12.4442 51.2743 15.2714 52.012 20.0387 52.2886C20.6027 52.3223 21.1754 52.3393 21.7416 52.3393C27.8024 52.3393 31.8842 50.4417 32.0551 50.3609C32.2209 50.2825 32.3302 50.1198 32.3399 49.9367C32.3497 49.7538 32.2584 49.5801 32.102 49.4846L28.9805 47.579C28.8722 47.513 28.7425 47.491 28.6189 47.5164C28.5992 47.5205 26.6172 47.9316 23.6261 48.3378C23.0601 48.4146 22.3513 48.4537 21.5197 48.4537C18.5317 48.4537 15.2084 47.9655 14.571 47.646C14.5618 47.586 14.5736 47.5102 14.6631 47.4444Z" fill="white"/>
<path d="M18.9169 58.0684C32.7995 58.0567 40.2506 55.5879 41.6859 54.0343C42.194 53.4845 42.2489 52.9641 42.2056 52.6243C42.0989 51.7879 41.3373 51.2759 41.2507 51.2203C41.0423 51.0863 40.7627 51.1214 40.6002 51.3088C40.438 51.4965 40.4342 51.7703 40.597 51.9576C40.6845 52.0703 40.7352 52.2587 40.4791 52.515C39.9053 53.0509 34.1178 54.6777 24.4815 55.1663C23.1615 55.2351 21.777 55.2698 20.3666 55.27C11.7387 55.27 5.42442 54.0883 4.59557 53.3995C4.91527 52.9406 7.14853 52.2071 9.52379 51.7925C9.79143 51.7458 9.97231 51.4935 9.93083 51.2251C9.88935 50.9566 9.64185 50.7718 9.37142 50.8071C9.30441 50.816 9.07725 50.83 8.8138 50.8459C4.89473 51.0853 0.365781 51.6187 0.129452 53.6378C0.0576557 54.2533 0.240536 54.8117 0.673108 55.2979C1.7315 56.4871 4.77387 58.0682 18.9163 58.0682C18.9167 58.0684 18.9169 58.0684 18.9169 58.0684Z" fill="white"/>
<path d="M44.4122 54.4724C44.216 54.3817 43.9842 54.4275 43.8376 54.5855C43.8171 54.6074 41.73 56.79 35.4544 58.0716C33.0518 58.553 28.542 58.7971 22.0503 58.7971C15.5463 58.7971 9.3577 58.5413 9.29588 58.5387C9.03741 58.5261 8.81624 58.714 8.78114 58.9685C8.74584 59.2229 8.90978 59.4625 9.15947 59.5219C9.22388 59.5372 15.7097 61.0567 24.5777 61.0567C28.831 61.0567 32.9699 60.7111 36.8796 60.0294C44.1695 58.7515 44.6798 55.1367 44.698 54.9836C44.7233 54.7694 44.608 54.5632 44.4122 54.4724Z" fill="white"/>
</svg>
