<svg width="99" height="199" viewBox="0 0 99 199" fill="none" xmlns="http://www.w3.org/2000/svg">
<path d="M99.9018 0.585969C73.6248 0.585969 48.424 11.0245 29.8434 29.6051C11.2627 48.1858 0.824222 73.3866 0.82422 99.6636C0.824218 125.941 11.2627 151.141 29.8434 169.722C48.424 188.303 73.6248 198.741 99.9018 198.741L99.9018 155.447C85.1071 155.447 70.9184 149.57 60.4569 139.109C49.9955 128.647 44.1183 114.458 44.1183 99.6636C44.1183 84.8689 49.9955 70.6801 60.4569 60.2187C70.9184 49.7572 85.1071 43.88 99.9018 43.88L99.9018 0.585969Z" fill="url(#paint0_linear_1544_5330)" fill-opacity="0.33"/>
<defs>
<linearGradient id="paint0_linear_1544_5330" x1="62.1392" y1="36.3444" x2="115.129" y2="190.804" gradientUnits="userSpaceOnUse">
<stop stop-color="#4A83E7"/>
<stop offset="1" stop-color="#E6C6FA"/>
</linearGradient>
</defs>
</svg>
