<svg width="215" height="181" viewBox="0 0 215 181" fill="none" xmlns="http://www.w3.org/2000/svg">
<rect x="0.410156" width="214.174" height="181" rx="11" fill="white"/>
<path d="M63.0479 20.6836H68.3311C69.5225 20.6836 70.4307 20.7747 71.0557 20.957C71.8955 21.2044 72.6149 21.6439 73.2139 22.2754C73.8128 22.9069 74.2686 23.6816 74.5811 24.5996C74.8936 25.5111 75.0498 26.6374 75.0498 27.9785C75.0498 29.1569 74.9033 30.1725 74.6104 31.0254C74.2523 32.0671 73.7412 32.9102 73.0771 33.5547C72.5758 34.043 71.8988 34.4238 71.0459 34.6973C70.4079 34.8991 69.555 35 68.4873 35H63.0479V20.6836ZM65.9385 23.1055V32.5879H68.0967C68.904 32.5879 69.4867 32.5423 69.8447 32.4512C70.3135 32.334 70.7008 32.1354 71.0068 31.8555C71.3193 31.5755 71.5732 31.1165 71.7686 30.4785C71.9639 29.834 72.0615 28.9583 72.0615 27.8516C72.0615 26.7448 71.9639 25.8952 71.7686 25.3027C71.5732 24.7103 71.2998 24.248 70.9482 23.916C70.5967 23.584 70.1507 23.3594 69.6104 23.2422C69.2067 23.151 68.4157 23.1055 67.2373 23.1055H65.9385ZM90.4209 35H87.2764L86.0264 31.748H80.3037L79.1221 35H76.0557L81.6318 20.6836H84.6885L90.4209 35ZM85.0986 29.3359L83.126 24.0234L81.1924 29.3359H85.0986ZM92.042 35V20.8008H94.9326V32.5879H102.12V35H92.042ZM104.269 35V20.8008H107.159V32.5879H114.347V35H104.269ZM116.329 35V20.6836H119.22V35H116.329ZM121.983 35V20.6836H132.599V23.1055H124.874V26.2793H132.062V28.6914H124.874V32.5879H132.872V35H121.983ZM135.353 35V20.6836H138.165L144.024 30.2441V20.6836H146.71V35H143.81L138.038 25.6641V35H135.353Z" fill="#4A83E7"/>
<path d="M72.0605 102.367L78.7871 104.5C77.7559 108.25 76.0371 111.039 73.6309 112.867C71.2402 114.68 68.2012 115.586 64.5137 115.586C59.9512 115.586 56.2012 114.031 53.2637 110.922C50.3262 107.797 48.8574 103.531 48.8574 98.125C48.8574 92.4062 50.334 87.9688 53.2871 84.8125C56.2402 81.6406 60.123 80.0547 64.9355 80.0547C69.1387 80.0547 72.5527 81.2969 75.1777 83.7812C76.7402 85.25 77.9121 87.3594 78.6934 90.1094L71.8262 91.75C71.4199 89.9688 70.5684 88.5625 69.2715 87.5312C67.9902 86.5 66.4277 85.9844 64.584 85.9844C62.0371 85.9844 59.9668 86.8984 58.373 88.7266C56.7949 90.5547 56.0059 93.5156 56.0059 97.6094C56.0059 101.953 56.7871 105.047 58.3496 106.891C59.9121 108.734 61.9434 109.656 64.4434 109.656C66.2871 109.656 67.873 109.07 69.2012 107.898C70.5293 106.727 71.4824 104.883 72.0605 102.367ZM84.5527 115V80.6406H91.4902V115H84.5527ZM106.889 115L94.6074 80.6406H102.131L110.826 106.07L119.24 80.6406H126.6L114.295 115H106.889ZM129.928 115V80.6406H136.865V115H129.928ZM143.686 115V80.9219H150.623V109.211H167.873V115H143.686Z" fill="#FF9900"/>
<path d="M54.5454 128.052L56.6475 128.719C56.3252 129.891 55.7881 130.762 55.0361 131.333C54.2891 131.9 53.3394 132.183 52.187 132.183C50.7612 132.183 49.5894 131.697 48.6714 130.726C47.7534 129.749 47.2944 128.416 47.2944 126.727C47.2944 124.939 47.7559 123.553 48.6787 122.566C49.6016 121.575 50.8149 121.08 52.3188 121.08C53.6323 121.08 54.6992 121.468 55.5195 122.244C56.0078 122.703 56.374 123.362 56.6182 124.222L54.4722 124.734C54.3452 124.178 54.0791 123.738 53.6738 123.416C53.2734 123.094 52.7852 122.933 52.209 122.933C51.4131 122.933 50.7661 123.218 50.2681 123.79C49.7749 124.361 49.5283 125.286 49.5283 126.565C49.5283 127.923 49.7725 128.89 50.2607 129.466C50.749 130.042 51.3838 130.33 52.165 130.33C52.7412 130.33 53.2368 130.147 53.6519 129.781C54.0669 129.415 54.3647 128.838 54.5454 128.052ZM58.0757 126.697C58.0757 125.604 58.2393 124.686 58.5664 123.943C58.8105 123.396 59.1426 122.906 59.5625 122.471C59.9873 122.037 60.4512 121.714 60.9541 121.504C61.623 121.221 62.3945 121.08 63.2686 121.08C64.8506 121.08 66.1152 121.57 67.0625 122.552C68.0146 123.533 68.4907 124.898 68.4907 126.646C68.4907 128.379 68.0195 129.737 67.0771 130.718C66.1348 131.695 64.875 132.183 63.2979 132.183C61.7012 132.183 60.4316 131.697 59.4893 130.726C58.5469 129.749 58.0757 128.406 58.0757 126.697ZM60.3096 126.624C60.3096 127.84 60.5903 128.763 61.1519 129.393C61.7134 130.018 62.4263 130.33 63.2905 130.33C64.1548 130.33 64.8628 130.02 65.4146 129.4C65.9712 128.775 66.2495 127.84 66.2495 126.595C66.2495 125.364 65.9785 124.446 65.4365 123.841C64.8994 123.235 64.1841 122.933 63.2905 122.933C62.397 122.933 61.6768 123.24 61.1299 123.855C60.583 124.466 60.3096 125.389 60.3096 126.624ZM70.2119 132V121.263H72.3213L76.7158 128.433V121.263H78.73V132H76.5547L72.2261 124.998V132H70.2119ZM80.4805 128.506L82.5898 128.301C82.7168 129.009 82.9731 129.529 83.3589 129.861C83.7495 130.193 84.2744 130.359 84.9336 130.359C85.6318 130.359 86.1567 130.213 86.5083 129.92C86.8647 129.622 87.043 129.275 87.043 128.88C87.043 128.626 86.9673 128.411 86.8159 128.235C86.6694 128.055 86.4106 127.898 86.0396 127.767C85.7856 127.679 85.207 127.522 84.3037 127.298C83.1416 127.01 82.3262 126.656 81.8574 126.236C81.1982 125.645 80.8687 124.925 80.8687 124.075C80.8687 123.528 81.0225 123.018 81.3301 122.544C81.6426 122.066 82.0894 121.702 82.6704 121.453C83.2563 121.204 83.9619 121.08 84.7871 121.08C86.1348 121.08 87.1479 121.375 87.8267 121.966C88.5103 122.557 88.8691 123.345 88.9033 124.332L86.7354 124.427C86.6426 123.875 86.4424 123.479 86.1348 123.24C85.832 122.996 85.3755 122.874 84.7651 122.874C84.1353 122.874 83.6421 123.003 83.2856 123.262C83.0562 123.428 82.9414 123.65 82.9414 123.929C82.9414 124.183 83.0488 124.4 83.2637 124.581C83.5371 124.81 84.2012 125.049 85.2559 125.298C86.3105 125.547 87.0894 125.806 87.5923 126.075C88.1001 126.338 88.4956 126.702 88.7788 127.166C89.0669 127.625 89.2109 128.194 89.2109 128.873C89.2109 129.488 89.04 130.064 88.6982 130.601C88.3564 131.138 87.873 131.539 87.248 131.802C86.623 132.061 85.8442 132.19 84.9116 132.19C83.5542 132.19 82.5117 131.878 81.7842 131.253C81.0566 130.623 80.6221 129.708 80.4805 128.506ZM93.4517 132V123.079H90.2656V121.263H98.7983V123.079H95.6196V132H93.4517ZM100.212 132V121.263H104.775C105.922 121.263 106.755 121.36 107.272 121.556C107.795 121.746 108.212 122.088 108.525 122.581C108.837 123.074 108.994 123.638 108.994 124.273C108.994 125.079 108.757 125.745 108.283 126.272C107.81 126.795 107.102 127.125 106.159 127.261C106.628 127.535 107.014 127.835 107.316 128.162C107.624 128.489 108.037 129.07 108.554 129.905L109.865 132H107.272L105.705 129.664C105.148 128.829 104.768 128.304 104.562 128.089C104.357 127.869 104.14 127.72 103.911 127.642C103.681 127.559 103.317 127.518 102.819 127.518H102.38V132H100.212ZM102.38 125.804H103.984C105.024 125.804 105.673 125.76 105.932 125.672C106.191 125.584 106.394 125.433 106.54 125.218C106.687 125.003 106.76 124.734 106.76 124.412C106.76 124.051 106.662 123.76 106.467 123.541C106.276 123.316 106.005 123.174 105.654 123.116C105.478 123.091 104.951 123.079 104.072 123.079H102.38V125.804ZM111.03 121.263H113.198V127.078C113.198 128.001 113.225 128.599 113.278 128.873C113.371 129.312 113.591 129.666 113.938 129.935C114.289 130.198 114.768 130.33 115.373 130.33C115.988 130.33 116.452 130.206 116.765 129.957C117.077 129.703 117.265 129.393 117.329 129.026C117.392 128.66 117.424 128.052 117.424 127.203V121.263H119.592V126.902C119.592 128.191 119.533 129.102 119.416 129.634C119.299 130.167 119.082 130.616 118.764 130.982C118.452 131.348 118.032 131.641 117.504 131.861C116.977 132.076 116.289 132.183 115.439 132.183C114.414 132.183 113.635 132.066 113.103 131.832C112.575 131.592 112.158 131.285 111.85 130.909C111.542 130.528 111.34 130.13 111.242 129.715C111.101 129.1 111.03 128.191 111.03 126.99V121.263ZM128.754 128.052L130.856 128.719C130.534 129.891 129.997 130.762 129.245 131.333C128.498 131.9 127.548 132.183 126.396 132.183C124.97 132.183 123.798 131.697 122.88 130.726C121.962 129.749 121.503 128.416 121.503 126.727C121.503 124.939 121.965 123.553 122.888 122.566C123.811 121.575 125.024 121.08 126.528 121.08C127.841 121.08 128.908 121.468 129.729 122.244C130.217 122.703 130.583 123.362 130.827 124.222L128.681 124.734C128.554 124.178 128.288 123.738 127.883 123.416C127.482 123.094 126.994 122.933 126.418 122.933C125.622 122.933 124.975 123.218 124.477 123.79C123.984 124.361 123.737 125.286 123.737 126.565C123.737 127.923 123.981 128.89 124.47 129.466C124.958 130.042 125.593 130.33 126.374 130.33C126.95 130.33 127.446 130.147 127.861 129.781C128.276 129.415 128.574 128.838 128.754 128.052ZM135.141 132V123.079H131.955V121.263H140.488V123.079H137.309V132H135.141ZM141.828 132V121.263H143.996V132H141.828ZM145.629 126.697C145.629 125.604 145.793 124.686 146.12 123.943C146.364 123.396 146.696 122.906 147.116 122.471C147.541 122.037 148.005 121.714 148.508 121.504C149.177 121.221 149.948 121.08 150.822 121.08C152.404 121.08 153.669 121.57 154.616 122.552C155.568 123.533 156.044 124.898 156.044 126.646C156.044 128.379 155.573 129.737 154.631 130.718C153.688 131.695 152.429 132.183 150.852 132.183C149.255 132.183 147.985 131.697 147.043 130.726C146.101 129.749 145.629 128.406 145.629 126.697ZM147.863 126.624C147.863 127.84 148.144 128.763 148.706 129.393C149.267 130.018 149.98 130.33 150.844 130.33C151.708 130.33 152.417 130.02 152.968 129.4C153.525 128.775 153.803 127.84 153.803 126.595C153.803 125.364 153.532 124.446 152.99 123.841C152.453 123.235 151.738 122.933 150.844 122.933C149.951 122.933 149.23 123.24 148.684 123.855C148.137 124.466 147.863 125.389 147.863 126.624ZM157.766 132V121.263H159.875L164.27 128.433V121.263H166.284V132H164.108L159.78 124.998V132H157.766Z" fill="#263238"/>
</svg>
