<svg width="68" height="58" viewBox="0 0 68 58" fill="none" xmlns="http://www.w3.org/2000/svg">
<path d="M32.2509 31.4329L22.9816 31.4781C23.3037 30.2816 23.6576 29.0214 24.0034 27.7923C24.9067 24.5789 25.6878 21.8038 25.8085 20.5125C26.081 17.5538 24.7023 14.8032 22.6018 14.1139C21.1165 13.6267 19.6497 14.2997 18.6776 15.9146L8.32877 33.1285C7.95116 32.7161 7.40992 32.4555 6.80796 32.4555H2.60018C1.46142 32.4555 0.535156 33.3817 0.535156 34.5205V55.3387C0.535156 56.4753 1.46142 57.4001 2.60018 57.4001H6.80796C7.70905 57.4001 8.47464 56.8203 8.75599 56.0155L11.166 57.2801C11.3164 57.3586 11.4829 57.4001 11.6525 57.4001H27.7751C29.9941 57.4001 31.7992 55.5949 31.7992 53.3759C31.7992 52.5015 31.5186 51.6915 31.0433 51.0303C32.3745 50.372 33.2919 48.9978 33.2919 47.4126C33.2919 46.5359 33.0113 45.723 32.5345 45.061C33.8679 44.4028 34.7883 43.0264 34.7883 41.4389C34.7883 40.5615 34.5069 39.7493 34.0301 39.0866C35.3621 38.4284 36.281 37.052 36.281 35.4645C36.2802 33.2418 34.4751 31.4329 32.2509 31.4329ZM2.62831 55.3077V34.5479H6.78056V55.3069L2.62831 55.3077ZM32.2561 37.4074H25.1673C24.5898 37.4074 24.1211 37.876 24.1211 38.4536C24.1211 39.0311 24.5898 39.4998 25.1673 39.4998H30.7597C31.8266 39.4998 32.6951 40.3698 32.6951 41.4389C32.6951 42.5103 31.8274 43.3818 30.7597 43.3818H23.6709C23.0934 43.3818 22.6247 43.8505 22.6247 44.428C22.6247 45.0055 23.0934 45.4742 23.6709 45.4742H29.267C30.3317 45.4742 31.1987 46.3442 31.1987 47.4133C31.1987 48.4825 30.3325 49.3525 29.267 49.3525H22.1783C21.6007 49.3525 21.132 49.8212 21.132 50.3987C21.132 50.9762 21.6007 51.4449 22.1783 51.4449H27.7743C28.839 51.4449 29.7061 52.3112 29.7061 53.3767C29.7061 54.4414 28.8398 55.3084 27.7743 55.3084H11.9102L8.87298 53.7143V36.2849L20.4716 16.9933C20.9307 16.2307 21.4282 15.9309 21.9509 16.1026C22.8313 16.3914 23.9382 18.0181 23.7265 20.3193C23.6235 21.421 22.7935 24.3723 21.9909 27.2266C21.5126 28.9274 21.018 30.6866 20.6108 32.2718C20.5301 32.5858 20.5997 32.9197 20.7989 33.1751C20.9973 33.4298 21.3016 33.5779 21.6244 33.5779C21.6259 33.5779 21.6281 33.5779 21.6296 33.5779L32.2583 33.5261C33.323 33.5261 34.19 34.3961 34.19 35.4652C34.1878 36.5359 33.3215 37.4074 32.2561 37.4074ZM5.68549 52.5689C5.68549 53.1094 5.24494 53.5506 4.7037 53.5506C4.16319 53.5506 3.72191 53.1101 3.72191 52.5689C3.72191 52.0284 4.16245 51.5871 4.7037 51.5871C5.24494 51.5871 5.68549 52.0276 5.68549 52.5689ZM64.2894 5.35549H57.2577V3.62736C57.2577 2.03547 55.9642 0.740479 54.3745 0.740479H30.345C28.7531 0.740479 27.4582 2.03547 27.4582 3.62736V18.683C27.4582 20.2749 28.7531 21.5699 30.345 21.5699H31.8762V26.116C31.8762 26.5084 32.0961 26.8675 32.4449 27.0467C32.5952 27.1237 32.7595 27.1622 32.9224 27.1622C33.1379 27.1622 33.3519 27.0956 33.5333 26.966L37.493 24.1213C37.8484 25.3134 38.9539 26.1849 40.2599 26.1849H53.5867L61.1019 31.5773C61.2833 31.7076 61.4973 31.7735 61.712 31.7735C61.8749 31.7735 62.0393 31.735 62.1896 31.658C62.5383 31.4788 62.7582 31.1197 62.7582 30.7273V26.1849H64.2894C65.8813 26.1849 67.1763 24.8899 67.1763 23.298V8.23867C67.177 6.649 65.8813 5.35549 64.2894 5.35549ZM32.9224 19.4774H30.3443C29.906 19.4774 29.5498 19.1213 29.5498 18.683V3.62736C29.5498 3.18903 29.906 2.83289 30.3443 2.83289H54.3738C54.8099 2.83289 55.1645 3.18903 55.1645 3.62736V18.683C55.1645 19.1213 54.8099 19.4774 54.3738 19.4774H40.7079C40.4887 19.4774 40.2755 19.5463 40.0978 19.6737L33.9694 24.0762V20.5237C33.9694 19.9461 33.5007 19.4774 32.9224 19.4774ZM65.0839 23.298C65.0839 23.7363 64.7277 24.0925 64.2894 24.0925H61.7113C61.1338 24.0925 60.6651 24.5611 60.6651 25.1387V28.689L54.5322 24.2887C54.3545 24.1613 54.1413 24.0925 53.9221 24.0925H40.2599C39.8216 24.0925 39.4655 23.7363 39.4655 23.298V22.7049L41.0448 21.5706H54.3745C55.9642 21.5706 57.2577 20.2756 57.2577 18.6837V7.44791H64.2894C64.7203 7.44791 65.0839 7.80997 65.0839 8.23867V23.298ZM32.9432 11.1574C32.9432 10.5799 33.4118 10.1112 33.9894 10.1112H50.7302C51.3077 10.1112 51.7764 10.5799 51.7764 11.1574C51.7764 11.7349 51.3077 12.2036 50.7302 12.2036H33.9894C33.4118 12.2036 32.9432 11.7349 32.9432 11.1574ZM32.9432 6.47204C32.9432 5.89451 33.4118 5.42583 33.9894 5.42583H50.7302C51.3077 5.42583 51.7764 5.89451 51.7764 6.47204C51.7764 7.04956 51.3077 7.51825 50.7302 7.51825H33.9894C33.4118 7.51825 32.9432 7.04956 32.9432 6.47204ZM33.9894 16.8852C33.4118 16.8852 32.9432 16.4166 32.9432 15.839C32.9432 15.2615 33.4118 14.7928 33.9894 14.7928H50.7302C51.3077 14.7928 51.7764 15.2615 51.7764 15.839C51.7764 16.4166 51.3077 16.8852 50.7302 16.8852H33.9894Z" fill="#4A83E7"/>
</svg>
