<svg width="74" height="64" viewBox="0 0 74 64" fill="none" xmlns="http://www.w3.org/2000/svg">
<path d="M10.5903 5.83437C9.13697 4.58863 6.56562 5.4351 6.56562 7.12803C6.56562 8.805 9.13697 9.66744 10.5903 8.42169C11.4528 7.68702 11.4528 6.55307 10.5903 5.83437ZM8.8974 3.75813C12.3152 3.75813 14.0082 7.44745 11.5486 9.53967C9.13697 11.5999 5.08031 10.0827 5.08031 7.12803C5.08031 5.16359 6.91698 3.75813 8.8974 3.75813ZM24.8685 5.83437C23.4151 4.58863 20.8438 5.4351 20.8438 7.12803C20.8438 8.805 23.4151 9.66744 24.8685 8.42169C25.7309 7.68702 25.7309 6.55307 24.8685 5.83437ZM23.1756 3.75813C26.5934 3.75813 28.2863 7.44745 25.8268 9.53967C23.4151 11.5999 19.3585 10.0827 19.3585 7.12803C19.3585 5.16359 21.1952 3.75813 23.1756 3.75813ZM39.1467 5.83437C37.6933 4.58863 35.122 5.4351 35.122 7.12803C35.122 8.805 37.6933 9.66744 39.1467 8.42169C40.0091 7.68702 40.0091 6.55307 39.1467 5.83437ZM37.4537 3.75813C40.8716 3.75813 42.5645 7.44745 40.1049 9.53967C37.6933 11.5999 33.6366 10.0827 33.6366 7.12803C33.6366 5.16359 35.4733 3.75813 37.4537 3.75813ZM53.4248 5.83437C51.9715 4.58863 49.4001 5.4351 49.4001 7.12803C49.4001 8.805 51.9715 9.66744 53.4248 8.42169C54.2873 7.68702 54.2873 6.55307 53.4248 5.83437ZM51.7319 3.75813C55.1497 3.75813 56.8427 7.44745 54.3831 9.53967C51.9715 11.5999 47.9148 10.0827 47.9148 7.12803C47.9148 5.16359 49.7515 3.75813 51.7319 3.75813ZM9.69596 22.3006C8.49812 21.1028 6.45382 21.9652 6.45382 23.6422C6.45382 25.3351 8.49812 26.1816 9.69596 24.9837C10.4466 24.2491 10.4466 23.0512 9.69596 22.3006ZM37.1343 22.3006C35.9365 21.1028 33.8922 21.9652 33.8922 23.6422C33.8922 25.3351 35.9365 26.1816 37.1343 24.9837C37.869 24.2491 37.869 23.0512 37.1343 22.3006ZM33.2853 31.9791C31.5923 31.9791 30.7459 34.0234 31.9437 35.2212C33.1415 36.419 35.1858 35.5566 35.1858 33.8796C35.1858 32.8415 34.3394 31.9791 33.2853 31.9791ZM11.5805 32.5381C10.3827 31.3402 8.33841 32.1867 8.33841 33.8796C8.33841 35.5566 10.3827 36.419 11.5805 35.2212C12.3312 34.4865 12.3312 33.2727 11.5805 32.5381ZM24.8206 19.5056H19.3585C18.6238 19.5056 18.0169 20.1125 18.0169 20.8472V26.3093C18.0169 27.044 18.6238 27.6349 19.3585 27.6349H24.8206C25.5553 27.6349 26.1462 27.028 26.1462 26.3093V20.8472C26.1622 20.1125 25.5553 19.5056 24.8206 19.5056ZM19.3585 18.0203H24.8206C26.3698 18.0203 27.6315 19.282 27.6315 20.8312V23.0353H32.4548C32.9339 20.3681 36.2399 19.314 38.1724 21.2465C40.2966 23.3706 38.7793 27.0121 35.7927 27.0121C34.2435 27.0121 32.9179 25.9739 32.5346 24.5206H27.6475V24.6324C30.0591 25.926 31.9916 27.9863 33.1256 30.5097C36.208 30.35 37.869 34.1032 35.6809 36.2753C33.5568 38.3995 29.9154 36.8822 29.9154 33.8956C29.9154 32.6339 30.6181 31.4999 31.6722 30.925C30.7778 29.0404 29.3724 27.4592 27.6315 26.3572C27.6155 27.8905 26.3538 29.1362 24.8206 29.1362H19.3585C17.8093 29.1362 16.5476 27.8745 16.5476 26.3253V25.9899C14.5033 27.0919 12.8742 28.8168 11.868 30.9409C13.8484 32.011 14.2477 34.6942 12.6506 36.2913C10.5105 38.3995 6.86907 36.8822 6.86907 33.8796C6.86907 31.9471 8.49812 30.4139 10.4147 30.4938C11.5805 27.9064 13.5929 25.7983 16.1004 24.5206H11.6125C10.9417 27.0121 7.81137 27.8745 5.95872 26.0219C3.83456 23.8977 5.35182 20.2563 8.35438 20.2563C9.99941 20.2563 11.4049 21.4541 11.6764 23.0353H16.5316V20.8312C16.5476 19.282 17.8093 18.0203 19.3585 18.0203ZM0.62437 14.1234H60.0209V4.15741C60.0209 2.00131 58.2481 0.228516 56.092 0.228516H4.53729C2.38119 0.228516 0.608398 2.00131 0.608398 4.15741V14.1234H0.62437ZM11.4049 42.7117C11.4049 41.7374 12.8902 41.7374 12.8902 42.7117V55.1052C12.8902 56.0795 11.4049 56.0795 11.4049 55.1052V42.7117ZM15.2539 46.3531C14.2797 46.3531 14.2797 44.8678 15.2539 44.8678H38.5877C39.5619 44.8678 39.5619 46.3531 38.5877 46.3531H15.2539ZM45.7747 25.2552C45.7747 24.281 47.26 24.281 47.26 25.2552V37.8564C47.26 38.8307 45.7747 38.8307 45.7747 37.8564V25.2552ZM19.0391 51.7513C18.0648 51.7513 18.0648 50.266 19.0391 50.266H38.1724C39.1467 50.266 39.1467 51.7513 38.1724 51.7513H19.0391ZM47.3079 50.9687C48.3141 51.9749 50.0549 51.2562 50.0549 49.8348C50.0549 48.4133 48.3141 47.6946 47.3079 48.7008C46.6691 49.3397 46.6691 50.3458 47.3079 50.9687ZM46.8447 52.486L42.6763 56.6544L54.1595 55.6802C55.1018 55.6003 55.9802 54.7539 56.0601 53.8116L56.5073 48.605L49.6876 41.7853L44.513 42.2325C43.5707 42.3124 42.6923 43.1588 42.6124 44.1011L41.6382 55.6163L45.8066 51.4478C44.5609 49.4035 46.0302 46.7683 48.4419 46.7683C51.1889 46.7683 52.5624 50.0903 50.6299 52.0388C49.6077 53.045 48.0426 53.2047 46.8447 52.486ZM50.6618 35.8281C50.4223 34.8698 50.6938 33.8317 51.4125 33.113L59.2543 25.2712C59.4939 25.0316 59.7494 24.824 60.0209 24.6324V15.5927H0.62437V59.7369C0.62437 61.893 2.39716 63.6657 4.55326 63.6657H56.108C58.2641 63.6657 60.0369 61.893 60.0369 59.7369V50.0264C59.414 50.5375 58.5037 50.5056 57.8968 49.9466L57.5614 53.9074C57.4176 55.5684 55.9642 56.9898 54.3033 57.1336L40.6799 58.2835C40.2647 58.2515 39.9612 57.8842 40.0091 57.4849L41.159 43.9414C41.3028 42.2804 42.7561 40.859 44.4171 40.7153L48.346 40.3799C47.7551 39.741 47.7711 38.7349 48.3939 38.112L50.6618 35.8281ZM61.1069 46.8641L51.4125 37.1697L49.4161 39.1661C49.3522 39.23 49.3522 39.3418 49.4161 39.3897L58.887 48.8605C58.9508 48.9244 59.0626 48.9244 59.1106 48.8605L61.1069 46.8641ZM52.4666 36.1316L62.161 45.826C62.4325 46.0975 62.7839 46.2253 63.1353 46.2253C63.4866 46.2253 63.838 46.0816 64.1095 45.81L71.9513 37.9682C73.5644 36.3552 73.5644 33.704 71.9513 32.0909L66.1698 26.3093C64.5567 24.6962 61.9055 24.6962 60.2924 26.3093L52.4506 34.1511C51.9236 34.6942 51.9236 35.5885 52.4666 36.1316Z" fill="white"/>
</svg>
