<svg width="40" height="38" viewBox="0 0 40 38" fill="none" xmlns="http://www.w3.org/2000/svg">
<path d="M27.5127 23.978L26.5285 24.9493C26.5281 24.9496 26.5282 24.9495 26.5278 24.9499C26.5154 24.9621 24.1702 27.2434 17.7983 20.9541C11.4127 14.6514 13.7476 12.3403 13.75 12.3379C13.7501 12.3378 13.75 12.3379 13.7501 12.3378L14.3701 11.7258C15.8978 10.2181 16.0418 7.79731 14.7089 6.03007L11.9826 2.41503C10.333 0.22772 7.14542 -0.0612215 5.25466 1.80498L1.86106 5.15451C0.923544 6.07986 0.295287 7.27939 0.371479 8.61007C0.56639 12.0144 2.11805 19.3391 10.7764 27.885C19.9582 36.9475 28.5734 37.3076 32.0965 36.9816C33.2109 36.8786 34.1799 36.3152 34.9609 35.5443L38.0323 32.513C40.1055 30.4666 39.5209 26.9585 36.8682 25.5272L32.7376 23.2981C30.9958 22.3583 28.874 22.6343 27.5127 23.978Z" fill="#4A83E7"/>
</svg>
