<svg width="509" height="286" viewBox="0 0 509 286" fill="none" xmlns="http://www.w3.org/2000/svg">
<g clip-path="url(#clip0_1724_849)">
<path d="M423.446 12.6494H384.974V85.2393H423.446V12.6494Z" fill="#E6E6E6"/>
<path d="M421.549 12.6494H376.371V85.2393H421.549V12.6494Z" fill="#F0F0F0"/>
<path d="M414.64 19.0942H383.212V78.7943H414.64V19.0942Z" fill="white"/>
<path d="M405.428 36.8687H393.236V60.0703H405.428V36.8687Z" fill="#EBEBEB"/>
<path d="M122.711 12.6494H84.2383V85.2393H122.711V12.6494Z" fill="#E6E6E6"/>
<path d="M120.814 12.6494H75.6357V85.2393H120.814V12.6494Z" fill="#F0F0F0"/>
<path d="M113.905 19.0942H82.4766V78.7943H113.905V19.0942Z" fill="white"/>
<path d="M104.626 36.8687H92.4336V60.0703H104.626V36.8687Z" fill="#EBEBEB"/>
<path d="M456.704 187.069H334.31C332.142 187.069 330.313 185.305 330.313 183.066V4.50848C330.313 2.33757 332.075 0.505859 334.31 0.505859H456.704C458.871 0.505859 460.7 2.26973 460.7 4.50848V183.134C460.7 185.305 458.939 187.069 456.704 187.069ZM334.31 0.641541C332.21 0.641541 330.517 2.33757 330.517 4.44064V183.066C330.517 185.169 332.21 186.865 334.31 186.865H456.704C458.804 186.865 460.497 185.169 460.497 183.066V4.50848C460.497 2.40541 458.804 0.709382 456.704 0.709382H334.31V0.641541Z" fill="#E0E0E0"/>
<path d="M315.548 187.069H193.153C190.986 187.069 189.157 185.305 189.157 183.066V4.50848C189.157 2.33757 190.918 0.505859 193.153 0.505859H315.548C317.715 0.505859 319.544 2.26973 319.544 4.50848V183.134C319.544 185.305 317.715 187.069 315.548 187.069ZM193.153 0.641541C191.054 0.641541 189.36 2.33757 189.36 4.44064V183.066C189.36 185.169 191.054 186.865 193.153 186.865H315.548C317.647 186.865 319.341 185.169 319.341 183.066V4.50848C319.341 2.40541 317.647 0.709382 315.548 0.709382H193.153V0.641541Z" fill="#E0E0E0"/>
<path d="M174.459 187.069H52.0646C49.8972 187.069 48.0684 185.305 48.0684 183.066V4.50848C48.0684 2.26973 49.8294 0.505859 52.0646 0.505859H174.459C176.626 0.505859 178.455 2.26973 178.455 4.50848V183.134C178.455 185.305 176.626 187.069 174.459 187.069ZM52.0646 0.641541C49.9649 0.641541 48.2716 2.33757 48.2716 4.44064V183.066C48.2716 185.169 49.9649 186.865 52.0646 186.865H174.459C176.559 186.865 178.252 185.169 178.252 183.066V4.50848C178.252 2.40541 176.559 0.709382 174.459 0.709382H52.0646V0.641541Z" fill="#E0E0E0"/>
<path d="M508.384 228.52H0.383789V228.587H508.384V228.52Z" fill="#E0E0E0"/>
<path d="M480.816 248.397H443.089V248.668H480.816V248.397Z" fill="#EBEBEB"/>
<path d="M345.553 251.518H335.664V251.789H345.553V251.518Z" fill="#EBEBEB"/>
<path d="M77.1259 239.713H27.8838V239.985H77.1259V239.713Z" fill="#EBEBEB"/>
<path d="M94.5336 239.713H87.2861V239.985H94.5336V239.713Z" fill="#EBEBEB"/>
<path d="M224.716 244.53H117.969V244.802H224.716V244.53Z" fill="#EBEBEB"/>
<path d="M161.928 43.8561C160.234 46.434 159.083 49.2834 158.473 52.2005L153.8 52.6076V61.6304L158.473 62.0375C159.083 64.9546 160.234 67.8039 161.928 70.3819L158.948 73.9775L165.314 80.3545L168.904 77.3695C171.478 79.0656 174.323 80.2188 177.236 80.8294L177.642 85.5104H186.65L187.057 80.8294C189.969 80.2188 192.814 79.0656 195.388 77.3695L198.978 80.3545L205.345 73.9775L202.365 70.3819C204.058 67.8039 205.209 64.9546 205.819 62.0375L210.493 61.6304V52.6076L205.819 52.2005C205.209 49.2834 204.058 46.434 202.365 43.8561L205.345 40.2605L198.978 33.8835L195.388 36.8685C192.814 35.1724 189.969 34.0191 187.057 33.4086L186.65 28.7275H177.642L177.236 33.4086C174.323 34.0191 171.478 35.1724 168.904 36.8685L165.314 33.8835L158.948 40.2605L161.928 43.8561ZM190.918 48.5371C195.727 53.3538 195.727 61.0877 190.918 65.8366C186.109 70.6533 178.387 70.6533 173.646 65.8366C168.837 61.0199 168.837 53.286 173.646 48.5371C178.387 43.7204 186.109 43.7204 190.918 48.5371Z" fill="#EBEBEB"/>
<path d="M179.538 153.012C178.658 154.301 178.116 155.726 177.845 157.218L175.542 157.422V161.967L177.845 162.171C178.116 163.663 178.725 165.088 179.538 166.377L178.048 168.209L181.232 171.397L183.06 169.905C184.347 170.787 185.77 171.329 187.26 171.601L187.463 173.907H192.001L192.204 171.601C193.695 171.329 195.117 170.719 196.404 169.905L198.233 171.397L201.416 168.209L199.926 166.377C200.807 165.088 201.348 163.663 201.619 162.171L203.922 161.967V157.422L201.552 157.218C201.281 155.726 200.671 154.301 199.858 153.012L201.348 151.181L198.165 147.992L196.336 149.485C195.049 148.603 193.627 148.06 192.137 147.789L191.933 145.482H187.395L187.192 147.789C185.702 148.06 184.28 148.67 182.993 149.485L181.164 147.992L177.98 151.181L179.538 153.012ZM194.033 155.387C196.404 157.761 196.404 161.628 194.033 164.07C191.663 166.445 187.802 166.445 185.363 164.07C182.993 161.696 182.993 157.829 185.363 155.387C187.734 152.944 191.663 152.944 194.033 155.387Z" fill="#EBEBEB"/>
<path d="M50.8455 105.795C49.4908 107.83 48.6102 110.069 48.1361 112.376L44.4785 112.715V119.838L48.1361 120.177C48.6102 122.484 49.4908 124.723 50.8455 126.758L48.4748 129.607L53.4871 134.627L56.3318 132.253C58.3638 133.61 60.5991 134.492 62.902 134.967L63.2407 138.63H70.3527L70.6913 134.967C72.9943 134.492 75.2295 133.61 77.2615 132.253L80.1063 134.627L85.1185 129.607L82.7478 126.758C84.1025 124.723 84.9831 122.484 85.4572 120.177L89.1148 119.838V112.715L85.4572 112.376C84.9831 110.069 84.1025 107.83 82.7478 105.795L85.1185 102.946L80.1063 97.9255L77.2615 100.3C75.2295 98.9431 72.9943 98.0612 70.6913 97.5863L70.3527 93.9229H63.2407L62.902 97.5863C60.5991 98.0612 58.3638 98.9431 56.3318 100.3L53.4871 97.9255L48.4748 102.946L50.8455 105.795ZM73.6716 109.526C77.4646 113.325 77.4646 119.431 73.6716 123.23C69.8785 127.029 63.7825 127.029 59.9895 123.23C56.1964 119.431 56.1964 113.325 59.9895 109.526C63.7825 105.727 69.9462 105.727 73.6716 109.526Z" fill="#EBEBEB"/>
<path d="M438.551 91.2094C437.941 92.1592 437.535 93.2446 437.264 94.3301L435.57 94.4658V97.79L437.264 97.9257C437.467 99.0111 437.941 100.029 438.551 101.046L437.467 102.403L439.838 104.778L441.192 103.692C442.14 104.303 443.224 104.71 444.308 104.981L444.443 106.677H447.762L447.898 104.981C448.982 104.778 449.998 104.303 451.014 103.692L452.368 104.778L454.739 102.403L453.655 101.046C454.265 100.097 454.671 99.0111 454.942 97.9257L456.635 97.79V94.4658L454.942 94.3301C454.739 93.2446 454.265 92.227 453.655 91.2094L454.739 89.8526L452.368 87.4782L451.014 88.5636C450.065 87.953 448.982 87.546 447.898 87.2746L447.762 85.5786H444.443L444.308 87.2746C443.224 87.4782 442.208 87.953 441.192 88.5636L439.838 87.4782L437.467 89.8526L438.551 91.2094ZM449.252 92.9054C451.014 94.6693 451.014 97.5186 449.252 99.2825C447.491 101.046 444.647 101.046 442.886 99.2825C441.124 97.5186 441.124 94.6693 442.886 92.9054C444.647 91.1416 447.491 91.1416 449.252 92.9054Z" fill="#EBEBEB"/>
<path d="M311.212 49.4194C310.602 50.3691 310.196 51.4546 309.925 52.5401L308.231 52.6757V56L309.925 56.1356C310.128 57.2211 310.602 58.2387 311.212 59.2563L310.128 60.6131L312.499 62.9876L313.853 61.9021C314.802 62.5127 315.885 62.9197 316.969 63.1911L317.105 64.8871H320.423L320.559 63.1911C321.643 62.9876 322.659 62.5127 323.675 61.9021L325.029 62.9876L327.4 60.6131L326.316 59.2563C326.926 58.3065 327.332 57.2211 327.603 56.1356L329.297 56V52.6757L327.603 52.5401C327.4 51.4546 326.926 50.437 326.316 49.4194L327.4 48.0626L325.029 45.6881L323.675 46.7736C322.726 46.163 321.643 45.756 320.559 45.4846L320.423 43.7886H317.105L316.969 45.4846C315.885 45.6881 314.869 46.163 313.853 46.7736L312.499 45.6881L310.128 48.0626L311.212 49.4194ZM321.914 51.1154C323.675 52.8793 323.675 55.7286 321.914 57.4925C320.153 59.2563 317.308 59.2563 315.547 57.4925C313.786 55.7286 313.786 52.8793 315.547 51.1154C317.308 49.3515 320.153 49.3515 321.914 51.1154Z" fill="#F5F5F5"/>
<path d="M87.8279 145.346C87.2183 146.296 86.8119 147.381 86.541 148.467L84.8477 148.603V151.927L86.541 152.062C86.7442 153.148 87.2183 154.165 87.8279 155.183L86.7442 156.54L89.1149 158.914L90.4695 157.829C91.4178 158.439 92.5015 158.846 93.5853 159.118L93.7207 160.814H97.0397L97.1751 159.118C98.2589 158.914 99.2749 158.439 100.291 157.829L101.646 158.914L104.016 156.54L102.932 155.183C103.542 154.233 103.948 153.148 104.219 152.062L105.913 151.927V148.603L104.219 148.467C104.016 147.381 103.542 146.364 102.932 145.346L104.016 143.989L101.646 141.615L100.291 142.7C99.3426 142.09 98.2589 141.683 97.1751 141.411L97.0397 139.715H93.7207L93.5853 141.411C92.5015 141.615 91.4855 142.09 90.4695 142.7L89.1149 141.615L86.7442 143.989L87.8279 145.346ZM98.5298 147.11C100.291 148.874 100.291 151.723 98.5298 153.487C96.7687 155.251 93.9239 155.251 92.1629 153.487C90.4018 151.723 90.4018 148.874 92.1629 147.11C93.8562 145.346 96.7687 145.346 98.5298 147.11Z" fill="#F5F5F5"/>
<path d="M389.851 104.71C388.767 106.338 388.022 108.169 387.683 110.001L384.703 110.273V116.039L387.683 116.31C388.09 118.142 388.767 119.974 389.851 121.602L387.954 123.909L392.018 127.979L394.321 126.08C395.947 127.165 397.776 127.911 399.604 128.25L399.875 131.235H405.633L405.904 128.25C407.732 127.843 409.561 127.165 411.187 126.08L413.49 127.979L417.554 123.909L415.657 121.602C416.741 119.974 417.486 118.142 417.825 116.31L420.805 116.039V110.273L417.825 110.001C417.418 108.169 416.741 106.338 415.657 104.71L417.554 102.403L413.49 98.3325L411.187 100.232C409.561 99.1466 407.732 98.4004 405.904 98.0612L405.633 95.0762H399.875L399.604 98.0612C397.776 98.4682 395.947 99.1466 394.321 100.232L392.018 98.3325L387.954 102.403L389.851 104.71ZM408.274 107.695C411.322 110.747 411.322 115.632 408.274 118.685C405.226 121.738 400.35 121.738 397.302 118.685C394.254 115.632 394.254 110.747 397.302 107.695C400.282 104.642 405.226 104.642 408.274 107.695Z" fill="#EBEBEB"/>
<path d="M275.788 136.934C274.704 138.562 273.959 140.394 273.553 142.294L270.572 142.565V148.331L273.553 148.603C273.959 150.502 274.704 152.334 275.788 153.962L273.891 156.269L277.955 160.339L280.258 158.44C281.884 159.525 283.713 160.271 285.609 160.679L285.88 163.664H291.637L291.908 160.679C293.805 160.271 295.634 159.525 297.259 158.44L299.562 160.339L303.626 156.269L301.73 153.962C302.813 152.334 303.558 150.502 303.965 148.603L306.945 148.331V142.565L303.965 142.294C303.558 140.394 302.813 138.562 301.73 136.934L303.626 134.628L299.562 130.557L297.259 132.457C295.634 131.371 293.805 130.625 291.908 130.218L291.637 127.233H285.88L285.609 130.218C283.713 130.625 281.884 131.371 280.258 132.457L277.955 130.557L273.891 134.628L275.788 136.934ZM294.347 139.919C297.395 142.972 297.395 147.924 294.347 150.977C291.299 154.03 286.354 154.03 283.306 150.977C280.258 147.924 280.258 142.972 283.306 139.919C286.354 136.866 291.299 136.866 294.347 139.919Z" fill="#EBEBEB"/>
<path d="M292.788 191.478C290.96 194.26 289.74 197.312 289.063 200.433L284.051 200.908V210.609L289.063 211.084C289.74 214.205 290.96 217.258 292.788 220.039L289.605 223.906L296.446 230.758L300.307 227.57C303.084 229.401 306.132 230.622 309.248 231.301L309.722 236.321H319.408L319.882 231.301C322.997 230.622 326.045 229.401 328.823 227.57L332.683 230.758L339.524 223.906L336.341 220.039C338.17 217.258 339.389 214.205 340.066 211.084L345.079 210.609V200.908L340.066 200.433C339.389 197.312 338.17 194.26 336.341 191.478L339.524 187.611L332.683 180.759L328.823 183.948C326.045 182.116 322.997 180.895 319.882 180.217L319.408 175.196H309.722L309.248 180.284C306.132 180.963 303.084 182.184 300.307 184.016L296.446 180.827L289.605 187.679L292.788 191.478ZM323.878 196.498C329.026 201.654 329.026 209.999 323.878 215.087C318.73 220.243 310.399 220.243 305.319 215.087C300.171 209.931 300.171 201.586 305.319 196.498C310.399 191.41 318.73 191.41 323.878 196.498Z" fill="#EBEBEB"/>
<path d="M474.855 272.616C474.855 274.922 379.148 276.754 261.157 276.754C143.165 276.754 47.458 274.922 47.458 272.616C47.458 270.309 143.165 268.478 261.157 268.478C379.148 268.478 474.855 270.309 474.855 272.616Z" fill="#F5F5F5"/>
<path d="M79.6995 154.369C67.372 168.819 63.7144 190.257 70.691 207.964C78.4126 201.112 83.8312 190.596 84.1699 181.438C84.4408 172.279 82.0702 163.256 79.6995 154.369Z" fill="#407BFF"/>
<path d="M77.5314 209.659C73.3319 216.104 71.3676 223.906 71.9095 231.572C78.6151 229.265 84.4402 221.667 88.03 215.561C91.5522 209.456 93.5164 202.536 95.3452 195.684C88.0978 198.262 81.7308 203.214 77.5314 209.659Z" fill="#407BFF"/>
<path d="M75.9735 179.674C71.0289 197.516 68.4551 216.037 68.5228 234.625C68.5228 239.917 68.726 245.141 69.1324 250.432C69.1324 250.771 69.6743 250.771 69.6743 250.432C68.2519 231.912 69.2679 213.255 72.8577 195.074C73.8737 189.986 75.0929 184.898 76.4476 179.81C76.5831 179.47 76.1089 179.335 75.9735 179.674Z" fill="#263238"/>
<path d="M69.2678 237.678C74.3478 225.602 80.9857 214.273 88.7073 203.689C88.9105 203.418 88.4364 203.147 88.3009 203.418C82.2726 211.695 76.854 220.446 72.3836 229.673C71.0966 232.25 69.9452 234.896 68.8614 237.542C68.6582 237.813 69.1324 237.949 69.2678 237.678Z" fill="#263238"/>
<path d="M62.0885 219.7C65.6106 225.059 67.2362 231.572 66.7621 237.949C61.208 235.982 56.2634 229.74 53.3509 224.584C50.4383 219.496 48.745 213.73 47.2549 208.031C53.2831 210.202 58.5663 214.34 62.0885 219.7Z" fill="#407BFF"/>
<path d="M69.1324 242.223C65.0007 232.318 59.4465 223.16 53.1473 214.476C52.9441 214.205 52.5377 214.476 52.7409 214.748C59.0401 223.363 64.5265 232.522 68.6583 242.427C68.7937 242.63 69.2679 242.494 69.1324 242.223Z" fill="#263238"/>
<path d="M69.3361 245.479C77.1932 237.406 85.1857 229.469 93.0428 221.328C93.246 221.124 92.9073 220.717 92.7041 220.989C84.847 229.062 76.8545 236.999 68.9974 245.14C68.7265 245.344 69.1329 245.751 69.3361 245.479Z" fill="#263238"/>
<path d="M93.3812 217.665C86.5401 224.245 80.3764 231.436 74.8223 239.17H76.0415C81.2569 238.899 86.2692 236.389 89.5204 232.318C92.8393 228.248 94.2617 222.753 93.3812 217.665Z" fill="#407BFF"/>
<path d="M61.0722 201.926C63.9847 206.742 66.7618 211.627 69.3357 216.579C69.4711 216.851 69.9453 216.579 69.7421 216.308C67.1682 211.288 64.3911 206.403 61.4786 201.654C61.3431 201.383 60.9367 201.654 61.0722 201.926Z" fill="#263238"/>
<path d="M54.0282 177.774C52.9444 182.795 51.793 189.375 51.793 194.599C51.793 199.823 53.3508 204.979 56.3311 208.439C59.3114 211.898 65.2719 213.459 67.7103 211.491L54.0282 177.774Z" fill="#407BFF"/>
<path d="M83.6952 247.854H53.8926V253.349H83.6952V247.854Z" fill="#263238"/>
<path d="M78.8189 273.023H60.3277L57.0088 252.128H81.4605L78.8189 273.023Z" fill="#263238"/>
<path opacity="0.2" d="M57.2119 253.485H81.325L80.9863 255.859H57.5506L57.2119 253.485Z" fill="black"/>
<path d="M430.626 128.386C438.145 124.044 447.763 126.69 452.03 134.221C456.365 141.751 453.723 151.384 446.205 155.658C440.38 158.983 433.403 158.168 428.459 154.166L423.785 154.912L424.869 150.028C424.801 149.96 424.801 149.892 424.733 149.824C420.466 142.294 423.108 132.66 430.626 128.386Z" fill="#407BFF"/>
<path d="M433.403 124.926C428.391 125.876 423.988 129.539 422.092 134.288" stroke="#407BFF" stroke-width="0.5" stroke-miterlimit="10" stroke-linecap="round" stroke-linejoin="round"/>
<path d="M421.279 136.459C420.941 137.138 420.737 137.952 420.737 138.698" stroke="#407BFF" stroke-width="0.5" stroke-miterlimit="10" stroke-linecap="round" stroke-linejoin="round"/>
<path d="M436.587 147.992L429.949 141.887L432.049 139.58L436.519 143.651L443.835 136.459L446.07 138.698L436.587 147.992Z" fill="white"/>
<path d="M269.014 28.0493C276.939 23.4361 287.031 26.1497 291.637 34.0871C296.243 42.0245 293.534 52.1328 285.609 56.746C279.513 60.2737 272.062 59.4596 266.914 55.3213L262.038 56.1354L263.189 50.9795C263.121 50.9117 263.054 50.8438 263.054 50.776C258.38 42.7708 261.089 32.5946 269.014 28.0493Z" fill="#407BFF"/>
<path d="M291.637 30.2203C288.454 25.8785 282.9 23.3683 277.549 23.7754" stroke="#407BFF" stroke-width="0.5" stroke-miterlimit="10" stroke-linecap="round" stroke-linejoin="round"/>
<path d="M275.11 24.0469C274.297 24.0469 273.484 24.1826 272.739 24.5218" stroke="#407BFF" stroke-width="0.5" stroke-miterlimit="10" stroke-linecap="round" stroke-linejoin="round"/>
<path d="M284.458 39.9893H269.015V43.8562H284.458V39.9893Z" fill="white"/>
<path d="M283.035 45.9594V38.1577L286.896 42.0247L283.035 45.9594Z" fill="white"/>
<path d="M370.276 126.487C370.276 126.487 369.87 133.61 366.415 146.025C364.248 153.691 361.606 161.289 358.49 168.616C356.729 172.754 354.765 177.232 352.53 181.845C351.514 183.948 350.43 186.119 349.279 188.29C347.924 226.009 326.859 264.272 326.859 264.272C325.707 264.882 321.576 264.204 321.643 263.051C324.759 258.098 330.923 209.795 334.919 186.865C335.19 183.744 335.529 180.488 335.935 176.96C337.087 167.734 338.848 157.626 340.473 148.806C343.115 134.899 345.621 123.977 345.621 123.977L352.598 124.655L370.276 126.487Z" fill="#EEC1BB"/>
<path d="M326.588 272.48H325.368L325.03 270.988L321.033 272.819H310.873C310.873 272.819 309.248 271.191 314.125 269.902C314.328 269.834 314.599 269.767 314.802 269.631C317.376 268.41 321.033 264.339 321.033 264.339H326.588C326.791 264.611 326.926 264.882 327.062 265.153C327.671 266.375 328.687 268.953 326.588 272.48Z" fill="#263238"/>
<path d="M327.062 265.154C326.317 264.34 322.998 267.935 320.492 269.156C318.324 270.242 315.818 270.717 314.734 269.631C317.308 268.41 321.914 262.711 321.914 262.711L325.843 263.118C325.843 263.118 326.791 264.611 327.062 265.154Z" fill="#EEC1BB"/>
<path d="M378.539 178.657C377.997 182.727 377.252 187.069 376.372 191.682C383.89 216.919 368.379 266.104 368.379 266.104C365.737 266.646 363.435 266.307 362.283 265.425C365.196 250.568 363.096 212.034 360.861 189.036C360.657 186.933 360.387 184.627 360.116 182.184C359.641 178.046 359.1 173.433 358.49 168.684C357.474 160.747 356.39 152.402 355.374 145.075C354.155 136.12 353.071 128.59 352.462 124.791C352.259 123.095 352.123 122.213 352.123 122.213L373.865 124.587C373.865 124.587 379.42 130.829 380.232 150.231C380.571 159.661 379.961 169.227 378.539 178.657Z" fill="#EEC1BB"/>
<path d="M368.989 272.481H367.77L367.431 270.988L363.435 272.82H353.275C353.275 272.82 351.649 271.192 356.526 269.903C356.729 269.835 357 269.767 357.203 269.631C359.777 268.41 363.435 264.34 363.435 264.34H368.989C369.124 264.611 369.328 264.883 369.463 265.154C370.073 266.375 371.089 268.953 368.989 272.481Z" fill="#263238"/>
<path d="M369.463 265.154C368.718 264.34 365.399 267.935 362.893 269.156C360.726 270.242 358.219 270.717 357.136 269.631C359.71 268.41 363.774 263.119 363.774 263.119H368.244C368.244 263.119 369.192 264.611 369.463 265.154Z" fill="#EEC1BB"/>
<path d="M384.296 71.7389C383.144 70.7891 381.383 71.1283 379.826 70.9927C377.523 70.7213 375.626 69.0253 374.61 67.1257C373.594 65.2262 373.323 63.0553 372.984 60.9522C372.646 58.8491 372.172 56.7461 370.885 54.9143C369.598 53.1505 366.55 50.9117 364.247 52.2685L361.267 56.9496C363.095 62.4447 364.518 67.9398 365.669 73.5706C366.143 76.0807 366.685 78.7265 368.514 80.6939C370.275 82.5935 373.12 83.5432 375.897 83.7468C377.319 83.8146 378.742 83.7468 380.029 83.204C381.316 82.6613 382.399 81.7115 382.67 80.4226C382.941 79.2014 382.264 77.7768 380.977 77.3019C382.264 76.7591 383.551 76.2164 384.364 75.1988C385.109 74.1812 385.312 72.6208 384.296 71.7389Z" fill="#263238"/>
<path d="M341.285 48.5373C337.831 51.8615 337.425 55.7963 337.966 58.5099C339.118 62.1055 340.879 64.4799 342.505 67.872L348.33 44.6025C346.094 45.4845 345.011 45.2131 341.285 48.5373Z" fill="#263238"/>
<path d="M351.648 44.4668C358.354 44.6025 365.06 50.2333 365.602 55.6606C366.143 61.0878 360.792 68.1433 359.776 68.5504L356.593 69.7036C356.593 69.7036 360.115 61.5627 358.625 59.4597C357.203 57.2887 356.119 57.2887 356.119 57.2887L351.648 44.4668Z" fill="#263238"/>
<path d="M345.891 45.7559C349.346 43.3136 353.477 44.6705 355.916 45.7559C358.693 47.3162 360.589 50.0299 361.267 53.1506C361.809 56.0677 362.418 59.5955 360.928 61.495C360.115 62.5805 358.828 63.2589 357.541 63.3267L340.676 52.6079C341.827 49.8942 343.656 47.5198 345.891 45.7559Z" fill="#263238"/>
<path d="M352.732 85.3751C354.019 86.3248 354.967 85.7821 356.39 84.9002C364.653 80.0835 361.266 76.2844 361.266 76.2844C359.234 74.5884 358.76 72.2818 358.693 68.5505C358.693 68.4148 358.693 68.347 358.625 68.2113C358.557 67.7364 358.286 67.3294 357.948 66.9902C356.999 66.0404 355.509 66.0404 354.561 66.9902L350.836 68.8219C350.836 68.8897 350.836 68.9576 350.836 69.0254C351.174 70.9928 351.513 72.4853 351.716 73.7064C351.716 73.8421 351.784 73.9778 351.784 74.1135C351.784 74.2491 351.852 74.3848 351.852 74.5884C352.055 76.2165 349.752 79.1337 348.668 79.9478C347.991 80.4905 348.262 82.1865 352.732 85.3751Z" fill="#EEC1BB"/>
<path opacity="0.2" d="M350.768 68.8218C350.768 68.8897 350.768 68.9575 350.768 69.0253C351.106 70.9927 351.445 72.4852 351.648 73.7064C351.716 73.8421 351.716 73.9777 351.716 74.1134C351.716 74.2491 351.716 74.4526 351.716 74.5883C354.561 73.2315 356.931 70.9927 358.489 68.2791C358.421 67.8042 358.151 67.3972 357.812 67.058C356.864 66.1082 355.373 66.1082 354.425 66.9901L350.768 68.8218Z" fill="black"/>
<path d="M359.167 54.3719C360.251 61.156 360.86 64.0053 358.286 68.2793C354.426 74.6563 346.094 74.6563 343.046 68.415C340.337 62.7163 338.982 52.608 344.807 48.334C350.632 44.0601 358.083 47.5878 359.167 54.3719Z" fill="#EEC1BB"/>
<path d="M363.231 59.6635C362.824 61.2238 361.741 62.4449 360.657 63.0555C359.031 64.0053 357.338 61.3595 357.473 59.4599C357.609 57.6961 359.031 56.2036 360.86 56.0679C362.621 55.9322 363.705 57.8318 363.231 59.6635Z" fill="#EEC1BB"/>
<path opacity="0.2" d="M359.37 60.2741C359.235 59.5957 359.37 58.9173 359.709 58.3745C360.048 57.8318 360.657 57.4247 361.335 57.2891" stroke="black" stroke-width="0.5" stroke-miterlimit="10" stroke-linecap="round" stroke-linejoin="round"/>
<path d="M350.903 58.9172C351.039 59.6634 350.836 60.3418 350.429 60.4775C350.023 60.6132 349.481 60.1383 349.346 59.392C349.21 58.6458 349.413 57.9674 349.82 57.8317C350.226 57.696 350.7 58.1709 350.903 58.9172Z" fill="#263238"/>
<path d="M344.334 60.681C344.469 61.3594 344.266 62.0378 343.792 62.1735C343.386 62.3091 342.911 61.8343 342.708 61.1558C342.573 60.4774 342.776 59.799 343.25 59.6633C343.656 59.5277 344.131 60.0025 344.334 60.681Z" fill="#263238"/>
<path d="M351.649 56.0679C351.581 56.0679 351.446 56.0679 351.378 56.0679C350.091 55.3895 349.008 56.0679 349.008 56.0679C348.872 56.1357 348.669 56.1357 348.533 55.9322C348.466 55.7965 348.533 55.5251 348.669 55.4573C348.737 55.3894 350.091 54.5754 351.649 55.4573C351.785 55.5251 351.852 55.7287 351.785 55.9322C351.785 56 351.717 56.0679 351.649 56.0679Z" fill="#263238"/>
<path d="M341.15 57.8996C341.082 57.8996 341.015 57.8317 340.947 57.7639C340.811 57.6282 340.879 57.4247 341.015 57.289C342.302 56 343.588 56.3392 343.656 56.4071C343.792 56.4749 343.927 56.6106 343.859 56.8141C343.792 57.0176 343.656 57.0855 343.453 57.0855C343.385 57.0855 342.369 56.8141 341.353 57.8317C341.353 57.8996 341.286 57.8996 341.15 57.8996Z" fill="#263238"/>
<path d="M346.027 59.8672C346.027 59.8672 345.688 62.6487 344.875 64.5482C344.74 64.8874 345.011 65.2266 345.35 65.2945C346.23 65.3623 347.178 64.8196 347.178 64.8196L346.027 59.8672Z" fill="#D4827D"/>
<path d="M350.09 57.8315L348.465 57.8994C348.465 57.8315 349.616 58.7813 350.09 57.8315Z" fill="#263238"/>
<path d="M343.385 59.5957L341.76 59.6635C341.76 59.6635 342.911 60.6133 343.385 59.5957Z" fill="#263238"/>
<path d="M357.135 56.4748C357.135 56.4748 352.461 52.7436 351.648 49.0123C351.648 49.0123 337.289 48.4696 340.743 60.1382C340.743 60.1382 335.866 50.3691 346.839 46.6379C357.812 42.9066 362.824 57.2211 358.625 63.3268C358.625 63.2589 360.047 58.7814 357.135 56.4748Z" fill="#263238"/>
<path d="M341.963 49.08C340.744 50.776 340.066 52.8113 340.066 54.9143C340.337 56.4068 342.505 57.0852 342.505 57.0852L344.469 53.4218L345.011 56.2712C348.939 55.1179 350.836 52.5399 351.649 49.2157L348.669 45.6201C348.669 45.6201 343.114 47.6553 341.963 49.08Z" fill="#263238"/>
<path d="M349.955 66.0403C350.429 66.1081 350.903 65.9725 351.242 65.6332C351.581 65.294 351.716 64.8192 351.648 64.4121" stroke="#263238" stroke-width="0.5" stroke-miterlimit="10" stroke-linecap="round" stroke-linejoin="round"/>
<path opacity="0.2" d="M363.299 63.8015C363.299 63.8015 368.379 57.4923 364.383 52.1328C364.383 52.1328 367.295 54.168 366.753 57.6279C366.347 60.4094 365.195 62.5803 363.299 63.8015Z" fill="black"/>
<path opacity="0.2" d="M378.539 178.656C372.579 180.692 366.347 181.845 360.116 182.116C359.642 177.978 359.1 173.365 358.49 168.616C356.729 172.754 354.765 177.232 352.53 181.845C346.705 181.302 341.083 179.674 335.867 177.028C337.019 167.802 338.78 157.761 340.405 148.874C342.708 147.517 345.214 146.5 347.788 145.889C350.294 145.279 352.801 145.007 355.307 145.007C359.032 145.007 362.69 145.347 366.347 146.025C371.089 146.907 375.694 148.264 380.165 150.095C380.503 159.661 379.962 169.227 378.539 178.656Z" fill="black"/>
<path d="M345.147 122.145H374.069L374.882 125.876C374.882 125.876 385.516 140.598 380.097 177.3C380.097 177.3 356.865 180.013 334.919 175.265C334.919 175.265 339.863 137.545 344.943 125.198L345.147 122.145Z" fill="#263238"/>
<path d="M372.578 110.747L374.61 126.147L342.911 124.858C342.843 121.534 345.756 112.783 345.417 110.34C344.469 107.355 339.592 102.878 338.305 99.2822C336.95 94.3298 339.795 80.626 340.676 80.2189C341.827 79.6762 343.182 79.744 344.062 79.337C347.449 78.5229 355.103 75.8093 358.49 75.4022C359.167 75.3344 359.844 75.1987 360.454 75.1308C360.454 75.1308 373.391 74.5203 374 79.8119C374.136 80.1511 371.02 93.9906 372.578 110.747Z" fill="#407BFF"/>
<path opacity="0.2" d="M372.308 107.491L372.037 103.285L367.228 90.1914L371.021 105.591L359.1 109.797L372.308 107.491Z" fill="black"/>
<path opacity="0.2" d="M358.489 121.263C358.896 121.195 362.689 117.125 362.689 117.125L373.458 117.532L372.916 113.665C373.255 113.393 360.318 114.004 360.318 114.004L358.489 118.007V121.263Z" fill="black"/>
<path d="M369.191 76.42C369.733 76.4878 371.968 75.1989 376.1 80.4226C380.164 85.6464 384.702 105.592 384.973 108.509C385.312 112.24 382.873 114.004 380.367 114.411C372.984 115.632 359.438 115.903 359.438 115.903V109.662L372.984 106.609C372.984 106.609 365.263 88.0887 366.482 83.2719C367.701 78.5231 369.191 76.42 369.191 76.42Z" fill="#407BFF"/>
<path d="M363.096 75.1989C362.148 80.5584 358.151 84.6967 352.868 86.0535C351.039 86.5284 349.007 85.5108 347.517 84.2896C346.027 83.0685 345.079 81.3046 344.74 79.4729C351.175 76.895 356.932 74.7241 363.096 75.1989Z" fill="#EEC1BB"/>
<path opacity="0.2" d="M372.985 106.609C372.985 106.609 375.22 106.474 376.101 107.695C376.101 107.695 375.559 105.388 372.646 105.863L372.985 106.609Z" fill="black"/>
<path d="M355.035 146.839V76.9629H285.338V104.913C286.625 105.388 290.757 105.727 291.976 105.253C294.143 104.438 292.721 101.861 294.888 100.911C298.004 99.4183 301.933 101.521 303.558 104.574C304.845 106.949 305.048 108.17 304.981 110.205C305.116 112.24 304.845 113.461 303.558 115.836C301.933 118.889 298.004 120.992 294.888 119.499C292.789 118.482 294.482 116.039 292.314 115.225C291.027 114.75 286.625 115.022 285.406 115.497V146.907H316.563C316.631 147.585 316.495 148.264 316.292 148.942C315.479 151.113 313.109 152.47 312.16 154.573C310.67 157.694 312.77 161.628 315.818 163.257C318.189 164.546 319.408 164.749 321.44 164.681C323.472 164.817 324.691 164.546 327.062 163.257C330.11 161.628 332.209 157.694 330.719 154.573C329.703 152.47 327.4 151.113 326.587 148.942C326.317 148.264 326.249 147.585 326.317 146.907H355.035V146.839Z" fill="#407BFF"/>
<path d="M358.49 146.839V76.9629H288.792V104.913C290.079 105.388 291.434 105.524 292.721 105.049C294.888 104.235 296.243 101.861 298.342 100.911C301.458 99.4183 305.387 101.521 307.012 104.574C308.299 106.949 308.502 108.17 308.435 110.205C308.57 112.24 308.299 113.461 307.012 115.836C305.387 118.889 301.458 120.992 298.342 119.499C296.243 118.482 294.888 116.175 292.721 115.361C291.434 114.886 290.079 115.022 288.792 115.497V146.907H319.949C320.017 147.585 319.882 148.264 319.678 148.942C318.866 151.113 316.495 152.47 315.547 154.573C314.057 157.694 316.156 161.628 319.204 163.257C321.575 164.546 322.794 164.749 324.826 164.681C326.858 164.817 328.077 164.546 330.448 163.257C333.496 161.628 335.596 157.694 334.106 154.573C333.09 152.47 330.787 151.113 329.974 148.942C329.703 148.264 329.635 147.585 329.703 146.907H358.49V146.839Z" fill="#407BFF"/>
<g opacity="0.3">
<path d="M358.49 146.839V76.9629H288.792V104.913C290.079 105.388 291.434 105.524 292.721 105.049C294.888 104.235 296.243 101.861 298.342 100.911C301.458 99.4183 305.387 101.521 307.012 104.574C308.299 106.949 308.502 108.17 308.435 110.205C308.57 112.24 308.299 113.461 307.012 115.836C305.387 118.889 301.458 120.992 298.342 119.499C296.243 118.482 294.888 116.175 292.721 115.361C291.434 114.886 290.079 115.022 288.792 115.497V146.907H319.949C320.017 147.585 319.882 148.264 319.678 148.942C318.866 151.113 316.495 152.47 315.547 154.573C314.057 157.694 316.156 161.628 319.204 163.257C321.575 164.546 322.794 164.749 324.826 164.681C326.858 164.817 328.077 164.546 330.448 163.257C333.496 161.628 335.596 157.694 334.106 154.573C333.09 152.47 330.787 151.113 329.974 148.942C329.703 148.264 329.635 147.585 329.703 146.907H358.49V146.839Z" fill="white"/>
</g>
<path d="M358.489 110.884C358.489 110.884 353.816 112.037 353.274 113.19C352.732 114.276 354.493 114.208 354.493 114.208C354.493 114.208 352.597 114.411 352.597 115.225C352.597 116.175 354.358 116.107 354.358 116.107C354.358 116.107 352.8 116.311 352.868 117.057C352.868 117.803 354.967 117.871 354.967 117.871C354.967 117.871 353.884 118.21 354.222 118.753C354.561 119.228 358.896 119.432 360.183 118.618C361.47 117.803 361.47 112.173 361.199 110.951C360.928 109.73 360.047 109.052 358.489 107.22V110.884Z" fill="#EEC1BB"/>
<path opacity="0.2" d="M354.561 114.276L357.88 113.733C357.948 113.733 357.948 113.665 357.948 113.597C357.948 113.529 357.88 113.529 357.88 113.529L354.561 114.072C354.493 114.072 354.493 114.14 354.493 114.208C354.493 114.276 354.493 114.276 354.561 114.276Z" fill="black"/>
<path opacity="0.2" d="M354.493 116.175L357.677 115.904C357.745 115.904 357.745 115.836 357.745 115.836C357.745 115.768 357.677 115.768 357.677 115.768L354.493 116.039C354.426 116.039 354.426 116.107 354.426 116.107C354.426 116.175 354.493 116.175 354.493 116.175Z" fill="black"/>
<path opacity="0.2" d="M355.103 117.939L357.474 117.803C357.541 117.803 357.541 117.735 357.541 117.735C357.541 117.667 357.474 117.667 357.474 117.667L355.103 117.803C355.035 117.803 355.035 117.871 355.035 117.871C355.035 117.939 355.035 117.939 355.103 117.939Z" fill="black"/>
<path d="M305.048 109.052C305.048 109.052 310.061 110.476 310.603 111.562C311.144 112.647 309.383 112.579 309.383 112.579C309.383 112.579 311.28 112.783 311.28 113.597C311.28 114.547 309.519 114.479 309.519 114.479C309.519 114.479 311.077 114.682 311.009 115.429C311.009 116.175 308.909 116.243 308.909 116.243C308.909 116.243 309.993 116.582 309.654 117.125C309.316 117.6 304.981 117.803 303.694 116.989C302.407 116.175 302.407 110.544 302.678 109.323C302.949 108.102 303.016 108.305 304.574 106.474L304.845 107.491C304.913 107.763 304.981 108.034 304.981 108.373L305.048 109.052Z" fill="#EEC1BB"/>
<path opacity="0.2" d="M309.315 112.647L305.996 112.104C305.929 112.104 305.929 112.037 305.929 111.969C305.929 111.901 305.996 111.901 305.996 111.901L309.315 112.444C309.383 112.444 309.383 112.511 309.383 112.579C309.383 112.647 309.383 112.647 309.315 112.647Z" fill="black"/>
<path opacity="0.2" d="M309.383 114.547L306.2 114.275C306.132 114.275 306.132 114.207 306.132 114.207C306.132 114.14 306.2 114.14 306.2 114.14L309.383 114.411C309.451 114.411 309.451 114.479 309.451 114.479C309.451 114.547 309.383 114.547 309.383 114.547Z" fill="black"/>
<path opacity="0.2" d="M308.773 116.31L306.403 116.175C306.335 116.175 306.335 116.107 306.335 116.107C306.335 116.039 306.403 116.039 306.403 116.039L308.773 116.175C308.841 116.175 308.841 116.243 308.841 116.243C308.841 116.31 308.841 116.31 308.773 116.31Z" fill="black"/>
<path d="M202.364 264.679L209.273 265.357L214.353 247.854L203.854 246.701L202.364 264.679Z" fill="#EEC1BB"/>
<path d="M210.289 262.304H207.851C207.309 262.304 206.767 262.576 206.428 263.05C205.006 265.018 203.922 264.272 202.364 262.44C201.348 262.304 201.145 263.458 201.009 263.729L199.181 270.445C199.045 270.988 199.316 271.598 199.926 271.734C199.993 271.734 200.129 271.802 200.264 271.802C203.245 271.802 204.667 271.802 208.392 271.802H219.839C222.955 271.802 223.565 268.681 222.345 268.342C216.588 267.053 212.524 265.357 210.695 263.661C210.289 263.457 210.628 263.254 210.289 262.304Z" fill="#263238"/>
<path d="M215.64 264.204C215.911 264 216.047 263.729 216.047 263.389C216.047 263.186 215.979 263.05 215.843 262.982C215.098 262.44 211.983 263.864 211.644 264.068C211.576 264.068 211.576 264.136 211.576 264.136C211.576 264.203 211.576 264.271 211.644 264.339C212.389 264.543 213.202 264.611 213.947 264.611C214.556 264.678 215.098 264.543 215.64 264.204ZM215.64 263.186C215.708 263.254 215.708 263.322 215.708 263.389C215.708 263.593 215.572 263.864 215.369 264C214.692 264.543 212.999 264.271 212.05 264.136C213.405 263.525 215.234 262.915 215.64 263.186Z" fill="#407BFF"/>
<path d="M211.711 264.339C212.659 263.932 214.556 262.44 214.488 261.626C214.488 261.49 214.353 261.287 213.946 261.219C212.253 261.015 211.508 264.068 211.508 264.204C211.508 264.272 211.508 264.339 211.576 264.339H211.643H211.711ZM213.878 261.422C214.217 261.422 214.217 261.558 214.217 261.626C214.285 262.101 212.862 263.39 211.914 263.932C212.117 263.254 212.727 261.422 213.811 261.422H213.878Z" fill="#407BFF"/>
<path d="M211.983 264.204C211.102 264.339 210.357 264.814 209.883 265.56" stroke="#407BFF" stroke-width="0.5" stroke-miterlimit="10" stroke-linecap="round" stroke-linejoin="round"/>
<path d="M213.54 265.357C212.66 265.493 211.915 265.968 211.44 266.714" stroke="#407BFF" stroke-width="0.5" stroke-miterlimit="10" stroke-linecap="round" stroke-linejoin="round"/>
<path d="M215.437 266.375C214.556 266.51 213.811 266.985 213.337 267.731" stroke="#407BFF" stroke-width="0.5" stroke-miterlimit="10" stroke-linecap="round" stroke-linejoin="round"/>
<path opacity="0.3" d="M211.712 257.08L211.034 259.251L202.906 258.03L203.042 256.266L211.712 257.08Z" fill="black"/>
<path d="M242.598 264.679L249.506 265.357L254.654 247.854L244.088 246.701L242.598 264.679Z" fill="#EEC1BB"/>
<path d="M250.522 262.304H248.084C247.542 262.304 247 262.576 246.662 263.05C245.239 265.018 244.155 264.272 242.598 262.44C241.582 262.304 241.378 263.458 241.243 263.729L239.414 270.445C239.279 270.988 239.55 271.598 240.159 271.734C240.227 271.734 240.362 271.802 240.498 271.802C243.478 271.802 244.9 271.802 248.626 271.802H260.073C263.188 271.802 263.798 268.681 262.579 268.342C256.822 267.053 252.758 265.357 250.929 263.661C250.522 263.457 250.861 263.254 250.522 262.304Z" fill="#263238"/>
<path d="M255.874 264.204C256.145 264 256.28 263.729 256.28 263.389C256.28 263.186 256.212 263.05 256.077 262.982C255.332 262.44 252.216 263.864 251.877 264.068C251.81 264.068 251.81 264.136 251.81 264.136C251.81 264.203 251.81 264.271 251.877 264.339C252.622 264.543 253.435 264.611 254.18 264.611C254.79 264.678 255.399 264.543 255.874 264.204ZM255.941 263.186C256.009 263.254 256.009 263.322 256.009 263.389C256.009 263.593 255.874 263.864 255.67 264C254.993 264.543 253.3 264.271 252.351 264.136C253.638 263.525 255.467 262.915 255.941 263.186Z" fill="#407BFF"/>
<path d="M252.013 264.339C252.961 263.932 254.858 262.44 254.79 261.626C254.79 261.49 254.654 261.287 254.248 261.219C252.555 261.015 251.81 264.068 251.81 264.204C251.81 264.272 251.81 264.339 251.877 264.339H251.945H252.013ZM254.18 261.422C254.519 261.422 254.519 261.558 254.519 261.626C254.587 262.101 253.164 263.39 252.216 263.932C252.419 263.254 253.029 261.422 254.112 261.422H254.18Z" fill="#407BFF"/>
<path d="M252.216 264.204C251.335 264.339 250.59 264.814 250.116 265.56" stroke="#407BFF" stroke-width="0.5" stroke-miterlimit="10" stroke-linecap="round" stroke-linejoin="round"/>
<path d="M253.774 265.357C252.893 265.493 252.148 265.968 251.674 266.714" stroke="#407BFF" stroke-width="0.5" stroke-miterlimit="10" stroke-linecap="round" stroke-linejoin="round"/>
<path d="M255.67 266.375C254.79 266.51 254.044 266.985 253.57 267.731" stroke="#407BFF" stroke-width="0.5" stroke-miterlimit="10" stroke-linecap="round" stroke-linejoin="round"/>
<path opacity="0.3" d="M251.945 257.08L251.335 259.251L243.207 258.03L243.343 256.266L251.945 257.08Z" fill="black"/>
<path d="M257.432 132.524C257.432 132.524 263.189 157.896 265.898 179.945C266.711 186.661 266.914 195.684 265.424 202.332L254.384 257.351L240.498 255.927C242.666 232.182 245.714 202.943 246.594 190.46C243.546 175.874 237.044 158.236 230.609 140.665L257.432 132.524Z" fill="#407BFF"/>
<g opacity="0.2">
<path d="M257.432 132.524C257.432 132.524 263.189 157.896 265.898 179.945C266.711 186.661 266.914 195.684 265.424 202.332L254.384 257.351L240.498 255.927C242.666 232.182 245.714 202.943 246.594 190.46C243.546 175.874 237.044 158.236 230.609 140.665L257.432 132.524Z" fill="black"/>
</g>
<path d="M211.712 194.938C212.05 193.581 212.524 190.8 213.134 187.068H213.066C213.54 182.184 214.353 159.661 215.911 145.278C217.062 136.12 219.433 129.946 221.804 126.893C221.939 126.758 222.007 126.622 222.142 126.486C222.549 126.011 222.752 125.74 222.752 125.74C223.226 125.876 223.633 125.944 224.107 126.079C224.242 126.147 224.445 126.147 224.581 126.215C241.176 129.675 255.806 125.333 255.806 125.333C257.364 129.132 258.448 137.205 259.599 145.55C257.838 147.449 250.252 149.959 241.446 151.587L238.94 162.917C237.653 169.905 235.96 176.824 234.538 182.998L233.048 189.782C232.98 190.257 232.844 190.664 232.777 191.071C232.032 194.938 213.947 257.759 213.947 257.759L202.161 257.08C202.161 256.945 207.444 213.526 211.712 194.938Z" fill="#407BFF"/>
<path opacity="0.2" d="M211.712 194.938C212.05 193.581 212.524 190.8 213.134 187.068H213.066C213.54 182.184 214.353 159.661 215.911 145.278C217.062 136.12 219.433 129.946 221.804 126.893C221.939 126.758 222.007 126.622 222.142 126.486C222.549 126.011 222.752 125.74 222.752 125.74C223.226 125.876 223.633 125.944 224.107 126.079C224.242 126.147 224.445 126.147 224.581 126.215C241.176 129.675 255.806 125.333 255.806 125.333C257.364 129.132 258.448 137.205 259.599 145.55C257.838 147.449 250.252 149.959 241.446 151.587L238.94 162.917C237.653 169.905 235.96 176.824 234.538 182.998L233.048 189.782C232.98 190.257 232.844 190.664 232.777 191.071C232.032 194.938 213.947 257.759 213.947 257.759L202.161 257.08C202.161 256.945 207.444 213.526 211.712 194.938Z" fill="black"/>
<path opacity="0.2" d="M238.805 163.799C238.738 164.002 244.224 144.261 244.224 144.261C244.224 144.261 248.83 161.967 241.853 173.025L238.805 163.799Z" fill="black"/>
<path d="M227.154 74.5201C227.154 74.5201 229.931 76.6232 233.454 79.7439C234.199 80.3544 235.011 80.965 235.892 81.3721C238.195 82.5932 240.362 83.3394 240.904 82.1861C241.04 81.9148 241.107 81.6434 241.175 81.3721C241.649 79.4725 241.446 76.8267 239.956 75.6056C238.263 74.2487 237.382 73.0955 237.721 71.1959C237.856 70.1783 238.263 69.0928 238.737 68.0074L237.382 66.447L230.338 59.3237C230.473 64.1404 230.88 71.9422 227.154 74.5201Z" fill="#EEC1BB"/>
<path opacity="0.2" d="M237.653 71.6708C235.688 70.5175 233.589 68.4823 233.86 66.2435C233.995 65.2938 234.198 64.344 234.402 63.8013L238.33 69.025C238.059 69.8391 237.924 70.3818 237.653 71.6708Z" fill="black"/>
<path d="M228.306 51.6581C228.983 58.9171 229.119 62.0378 232.844 65.8369C238.466 71.6033 247.136 69.636 248.626 62.4448C249.98 55.9321 248.626 45.1454 241.514 42.0925C234.537 39.1075 227.628 44.3991 228.306 51.6581Z" fill="#EEC1BB"/>
<path d="M237.382 53.9643C237.449 54.6427 237.856 55.1854 238.33 55.1854C238.804 55.1854 239.143 54.6427 239.143 53.9643C239.075 53.2859 238.669 52.7432 238.194 52.7432C237.653 52.7432 237.314 53.2859 237.382 53.9643Z" fill="#263238"/>
<path d="M244.9 53.8968C244.968 54.5752 245.374 55.118 245.848 55.118C246.323 55.118 246.661 54.5752 246.661 53.9647C246.594 53.2863 246.187 52.7435 245.713 52.7435C245.171 52.6757 244.832 53.2184 244.9 53.8968Z" fill="#263238"/>
<path d="M236.231 51.3866C236.299 51.3866 236.434 51.3866 236.502 51.3187C237.653 50.3011 238.873 50.6403 238.873 50.6403C239.076 50.7082 239.279 50.5725 239.279 50.369C239.347 50.1654 239.211 49.9619 239.008 49.8941C238.94 49.8941 237.382 49.4192 235.96 50.7082C235.825 50.8438 235.825 51.0474 235.96 51.183C236.028 51.3187 236.095 51.3866 236.231 51.3866Z" fill="#263238"/>
<path d="M247.204 50.9794C247.272 50.9794 247.407 50.9794 247.475 50.9116C247.61 50.8437 247.678 50.5724 247.542 50.4367C246.459 48.7407 244.833 48.605 244.765 48.605C244.562 48.605 244.427 48.7407 244.427 48.9442C244.427 49.1477 244.562 49.2834 244.765 49.3512C244.833 49.3512 246.052 49.4869 246.933 50.8437C247.001 50.9116 247.136 50.9794 247.204 50.9794Z" fill="#263238"/>
<path d="M231.422 56.271C231.422 56.271 233.657 52.879 232.708 46.2984C232.573 45.213 233.25 44.1275 234.334 43.924C237.45 43.3134 241.649 39.3786 246.729 47.2482C246.729 47.2482 244.291 37.8183 229.999 41.6174C217.333 45.0094 226.003 55.7962 227.29 56.8816C228.712 57.8992 231.422 56.271 231.422 56.271Z" fill="#263238"/>
<path d="M226.138 57.6278C227.018 59.1203 228.373 60.0701 229.66 60.4093C231.557 60.8842 232.573 57.8314 231.895 55.864C231.286 54.1001 229.389 52.9468 227.56 53.3539C225.731 53.6931 225.122 55.9318 226.138 57.6278Z" fill="#EEC1BB"/>
<path d="M243.072 60.9521C242.462 61.8341 241.785 63.5979 241.785 63.5979C241.581 63.5301 241.446 63.5301 241.243 63.4622C238.94 62.9195 238.059 61.9019 237.721 60.9521C237.585 60.4094 237.585 59.9345 237.653 59.5275C237.721 59.0526 237.924 58.7134 237.924 58.7134C239.008 59.731 241.107 60.4094 242.259 60.7486C242.733 60.8843 243.072 60.9521 243.072 60.9521Z" fill="#263238"/>
<path d="M242.259 60.7486L241.852 61.4949C239.685 60.9521 238.195 60.3416 237.721 59.5275C237.788 59.0526 237.992 58.7134 237.992 58.7134C239.008 59.7988 241.107 60.4772 242.259 60.7486Z" fill="white"/>
<path d="M241.243 63.5301C238.94 62.9874 238.059 61.9698 237.721 61.02C238.534 61.2235 239.414 61.5628 240.159 62.1055C240.769 62.5125 241.04 63.0553 241.243 63.5301Z" fill="#DC5753"/>
<path d="M242.937 53.6934C242.937 53.6934 244.088 56.407 245.375 58.103C245.578 58.3744 245.443 58.8493 245.104 58.985C244.223 59.3242 243.14 58.985 243.14 58.985L242.937 53.6934Z" fill="#D4827D"/>
<path d="M237.991 52.7435L239.685 52.3364C239.685 52.3364 238.736 53.5576 237.991 52.7435Z" fill="#263238"/>
<path d="M245.51 52.6756L247.203 52.2686C247.135 52.3364 246.255 53.5575 245.51 52.6756Z" fill="#263238"/>
<path d="M248.084 50.2333C248.084 50.2333 252.486 45.0095 249.574 40.7355C248.49 39.1074 246.458 38.9038 244.629 38.0897C240.498 36.258 237.179 35.9188 231.895 41.0747C226.409 46.4342 225.461 48.2659 231.489 54.8465C231.489 54.8465 230.812 53.9645 233.047 51.9971C235.282 50.0298 237.721 48.2659 236.569 46.3663C236.569 46.3663 238.398 47.1126 238.533 48.8765L241.785 47.9945C241.785 47.9945 241.649 46.7055 240.769 45.4844C240.769 45.4844 242.462 46.502 243.004 47.9267L245.849 48.4694C245.849 48.4694 245.442 45.8915 244.629 44.9417C244.629 44.9417 247.203 47.5875 248.084 50.2333Z" fill="#263238"/>
<path opacity="0.2" d="M230.406 57.4246C230.338 56.7462 229.999 56.0678 229.525 55.5929C229.051 55.118 228.374 54.8466 227.696 54.7788" stroke="black" stroke-width="0.5" stroke-miterlimit="10" stroke-linecap="round" stroke-linejoin="round"/>
<path d="M264.95 117.735C264.544 117.396 264.137 117.057 263.799 116.718C263.46 116.378 263.257 115.971 263.325 115.971C263.325 115.903 263.257 115.903 263.257 115.836L263.121 115.564L262.783 114.75C262.579 114.14 262.376 113.529 262.173 112.851C261.767 111.562 261.36 110.205 260.954 108.916C260.141 106.202 259.396 103.489 258.651 100.707L257.229 94.9406C257.025 93.9908 256.687 92.634 256.28 91.0736C255.129 86.8675 253.232 81.2367 250.726 78.9979C246.865 76.0129 244.359 79.6764 242.801 83.4755C241.243 87.1389 245.037 97.1115 245.037 97.1115L249.642 96.7723C250.252 98.8754 250.862 101.046 251.403 103.149C252.216 105.999 253.097 108.712 254.045 111.494C254.519 112.851 254.993 114.275 255.535 115.7C255.874 116.378 256.145 117.125 256.483 117.871C256.619 118.21 256.822 118.617 257.025 119.024L257.364 119.703C257.499 119.974 257.703 120.245 257.838 120.449C258.515 121.331 259.328 122.009 260.277 122.552C261.022 122.959 261.767 123.298 262.579 123.502C264.002 123.909 265.492 124.112 266.982 124.044L267.795 120.042C266.914 119.228 265.831 118.481 264.95 117.735Z" fill="#263238"/>
<path opacity="0.5" d="M264.95 117.735C264.544 117.396 264.137 117.057 263.799 116.718C263.46 116.378 263.257 115.971 263.325 115.971C263.325 115.903 263.257 115.903 263.257 115.836L263.121 115.564L262.783 114.75C262.579 114.14 262.376 113.529 262.173 112.851C261.767 111.562 261.36 110.205 260.954 108.916C260.141 106.202 259.396 103.489 258.651 100.707L257.229 94.9406C257.025 93.9908 256.687 92.634 256.28 91.0736C255.129 86.8675 253.232 81.2367 250.726 78.9979C246.865 76.0129 244.359 79.6764 242.801 83.4755C241.243 87.1389 245.037 97.1115 245.037 97.1115L249.642 96.7723C250.252 98.8754 250.862 101.046 251.403 103.149C252.216 105.999 253.097 108.712 254.045 111.494C254.519 112.851 254.993 114.275 255.535 115.7C255.874 116.378 256.145 117.125 256.483 117.871C256.619 118.21 256.822 118.617 257.025 119.024L257.364 119.703C257.499 119.974 257.703 120.245 257.838 120.449C258.515 121.331 259.328 122.009 260.277 122.552C261.022 122.959 261.767 123.298 262.579 123.502C264.002 123.909 265.492 124.112 266.982 124.044L267.795 120.042C266.914 119.228 265.831 118.481 264.95 117.735Z" fill="white"/>
<g opacity="0.3">
<path d="M251.607 85.4429C252.352 86.7997 252.623 87.5459 253.164 89.0384C253.639 90.5988 254.18 98.8754 251.403 101.318V95.5512C251.471 92.0913 251.539 88.9706 251.607 85.4429Z" fill="black"/>
</g>
<path d="M217.266 95.958L212.931 81.1687C215.64 77.0982 229.187 73.9097 229.187 73.9097L236.095 76.3519L238.06 74.3846C238.06 74.3846 241.514 75.1308 244.427 76.0806C248.355 77.3696 250.455 78.3872 251.403 80.5581C251.403 80.5581 253.029 85.3748 252.081 95.3474C251.81 98.0611 252.148 112.308 252.893 116.989L257.499 131.642C241.175 144.329 218.417 132.456 218.417 132.456C219.162 130.218 221.601 123.298 221.939 121.127C221.668 118.346 222.007 114.004 220.855 109.119C220.585 108.237 217.672 96.8399 217.266 95.958Z" fill="#263238"/>
<path opacity="0.5" d="M217.266 95.958L212.931 81.1687C215.64 77.0982 229.187 73.9097 229.187 73.9097L236.095 76.3519L238.06 74.3846C238.06 74.3846 241.514 75.1308 244.427 76.0806C248.355 77.3696 250.455 78.3872 251.403 80.5581C251.403 80.5581 253.029 85.3748 252.081 95.3474C251.81 98.0611 252.148 112.308 252.893 116.989L257.499 131.642C241.175 144.329 218.417 132.456 218.417 132.456C219.162 130.218 221.601 123.298 221.939 121.127C221.668 118.346 222.007 114.004 220.855 109.119C220.585 108.237 217.672 96.8399 217.266 95.958Z" fill="white"/>
<path d="M266.778 111.833C267.252 105.66 271.994 100.707 278.158 99.9609L276.938 102.064L279.309 100.639L268.336 114.411L266.778 111.833Z" fill="#407BFF"/>
<path opacity="0.8" d="M266.778 111.833C267.252 105.66 271.994 100.707 278.158 99.9609L276.938 102.064L279.309 100.639L268.336 114.411L266.778 111.833Z" fill="white"/>
<path d="M249.642 100.571L253.435 100.436L271.452 106.541L255.061 131.642L238.94 127.572C237.992 127.301 237.45 126.351 237.721 125.469C237.789 125.333 237.789 125.198 237.857 125.062L244.359 113.257C244.494 113.054 244.494 112.715 244.359 112.511L243.478 110.951C243.275 110.612 243.275 110.205 243.478 109.933L247.881 101.725C248.152 101.046 248.897 100.639 249.642 100.571Z" fill="#407BFF"/>
<path d="M271.385 106.542L281.68 99.9609L264.814 125.062L254.993 131.643L271.385 106.542Z" fill="#407BFF"/>
<path opacity="0.2" d="M271.385 106.542L281.68 99.9609L264.814 125.062L254.993 131.643L271.385 106.542Z" fill="black"/>
<path d="M269.353 118.21C269.353 118.21 265.356 117.193 264.476 117.871C263.595 118.549 264.814 119.228 264.814 119.228C264.814 119.228 263.46 118.617 263.053 119.296C262.579 120.11 263.798 120.788 263.798 120.788C263.798 120.788 262.647 120.313 262.308 120.924C261.97 121.534 263.324 122.416 263.324 122.416C263.324 122.416 262.444 122.281 262.376 122.823C262.376 123.366 265.153 125.266 266.44 125.198C267.727 125.062 270.436 120.517 270.843 119.431C271.249 118.346 271.249 117.464 270.436 116.718L269.353 118.21Z" fill="#EEC1BB"/>
<path opacity="0.2" d="M264.814 119.296L267.253 120.246C267.253 120.246 267.321 120.246 267.321 120.178C267.321 120.11 267.321 120.11 267.321 120.042L264.882 119.092C264.882 119.092 264.814 119.092 264.814 119.16C264.747 119.228 264.747 119.296 264.814 119.296Z" fill="black"/>
<path opacity="0.2" d="M263.866 120.856L266.101 122.009C266.101 122.009 266.169 122.009 266.169 121.941C266.169 121.873 266.169 121.873 266.169 121.806L263.934 120.652C263.934 120.652 263.866 120.652 263.866 120.72C263.798 120.788 263.798 120.788 263.866 120.856Z" fill="black"/>
<path opacity="0.2" d="M263.392 122.484L265.017 123.366C265.017 123.366 265.085 123.366 265.085 123.298C265.085 123.231 265.085 123.231 265.085 123.163L263.459 122.281C263.459 122.281 263.392 122.281 263.392 122.349C263.392 122.416 263.392 122.484 263.392 122.484Z" fill="black"/>
<path d="M240.702 75.0632L237.654 72.146L236.164 76.3521L229.458 71.0605L226.071 74.7918L234.47 80.6261L236.164 76.8949L240.702 80.2869V75.0632Z" fill="#263238"/>
<path opacity="0.3" d="M240.701 75.063C240.904 75.4022 240.701 80.3546 240.701 80.3546L236.163 76.9625L234.469 80.6938L226.409 75.1308L234.673 82.322L236.163 77.9801L241.243 82.322L240.701 75.063Z" fill="black"/>
<path opacity="0.3" d="M244.968 97.9257L221.871 120.245V115.836C221.871 115.836 242.665 96.7724 242.936 96.7046C243.207 96.7046 244.968 97.9257 244.968 97.9257Z" fill="black"/>
<path opacity="0.3" d="M223.294 99.6893L220.788 89.3774L220.246 101.385L223.294 99.6893Z" fill="black"/>
<path d="M227.426 60.138C227.426 60.8843 228.035 61.5627 228.848 61.5627C229.593 61.5627 230.271 60.9521 230.271 60.138C230.271 59.3239 229.661 58.7134 228.848 58.7134C228.035 58.7812 227.426 59.3918 227.426 60.138Z" fill="#407BFF"/>
<path d="M212.931 81.1689C212.931 81.1689 209.815 84.2218 208.731 94.6015C207.986 102.064 206.089 118.142 211.847 120.245C217.604 122.281 242.869 98.1292 242.869 98.1292L238.805 91.0737L220.246 101.386C220.246 101.386 222.142 84.3575 218.891 82.7971C215.64 81.1689 212.931 81.1689 212.931 81.1689Z" fill="#263238"/>
<path opacity="0.5" d="M212.931 81.1689C212.931 81.1689 209.815 84.2218 208.731 94.6015C207.986 102.064 206.089 118.142 211.847 120.245C217.604 122.281 242.869 98.1292 242.869 98.1292L238.805 91.0737L220.246 101.386C220.246 101.386 222.142 84.3575 218.891 82.7971C215.64 81.1689 212.931 81.1689 212.931 81.1689Z" fill="white"/>
<path d="M240.43 90.5312C240.43 90.5312 242.868 85.6466 244.02 85.4431C245.171 85.2396 246.12 85.6466 246.12 85.6466C246.12 85.6466 253.977 81.0334 254.519 82.2546C254.79 82.933 253.028 84.3577 249.303 86.5286C249.303 86.5286 251.471 87.3427 250.59 88.5638C250.59 88.5638 252.148 89.31 251.335 90.8704C251.335 90.8704 252.08 92.2951 251.132 93.177C250.184 94.0589 245.916 96.5012 243.41 96.9082C240.904 97.2474 239.414 92.4307 239.414 92.4307L240.43 90.5312Z" fill="#EEC1BB"/>
<path d="M266.982 230.148C269.082 231.165 270.436 233.472 272.604 234.286C273.823 234.761 275.178 234.625 276.465 234.15V202.74H246.459C246.391 202.062 246.526 201.383 246.73 200.705C247.542 198.534 249.913 197.177 250.861 195.074C252.351 191.953 250.252 188.018 247.204 186.39C244.833 185.101 243.614 184.898 241.582 184.966C239.55 184.83 238.331 185.101 235.96 186.39C232.912 188.018 230.812 191.953 232.302 195.074C233.318 197.177 235.621 198.534 236.434 200.705C236.705 201.383 236.773 202.062 236.705 202.74H206.699V272.616H276.465V244.666C275.245 244.191 273.823 244.123 272.604 244.53C270.436 245.344 269.082 247.651 266.982 248.668C264.137 250.025 259.938 248.058 258.312 245.005C257.025 242.63 256.822 241.409 256.89 239.374C256.754 237.339 257.025 236.118 258.312 233.743C259.938 230.69 263.866 228.655 266.982 230.148Z" fill="#407BFF"/>
<path opacity="0.4" d="M266.982 230.148C269.082 231.165 270.436 233.472 272.604 234.286C273.823 234.761 275.178 234.625 276.465 234.15V202.74H246.459C246.391 202.062 246.526 201.383 246.73 200.705C247.542 198.534 249.913 197.177 250.861 195.074C252.351 191.953 250.252 188.018 247.204 186.39C244.833 185.101 243.614 184.898 241.582 184.966C239.55 184.83 238.331 185.101 235.96 186.39C232.912 188.018 230.812 191.953 232.302 195.074C233.318 197.177 235.621 198.534 236.434 200.705C236.705 201.383 236.773 202.062 236.705 202.74H206.699V272.616H276.465V244.666C275.245 244.191 273.823 244.123 272.604 244.53C270.436 245.344 269.082 247.651 266.982 248.668C264.137 250.025 259.938 248.058 258.312 245.005C257.025 242.63 256.822 241.409 256.89 239.374C256.754 237.339 257.025 236.118 258.312 233.743C259.938 230.69 263.866 228.655 266.982 230.148Z" fill="black"/>
<path d="M270.436 230.148C272.536 231.165 273.89 233.472 276.058 234.286C277.277 234.761 278.632 234.625 279.919 234.15V202.74H249.913C249.845 202.062 249.981 201.383 250.184 200.705C250.997 198.534 253.367 197.177 254.315 195.074C255.806 191.953 253.706 188.018 250.658 186.39C248.287 185.101 247.068 184.898 245.036 184.966C243.004 184.83 241.785 185.101 239.414 186.39C236.366 188.018 234.266 191.953 235.757 195.074C236.773 197.177 239.075 198.534 239.888 200.705C240.159 201.383 240.227 202.062 240.159 202.74H210.153V272.616H279.919V244.666C278.699 244.191 277.277 244.123 276.058 244.53C273.89 245.344 272.536 247.651 270.436 248.668C267.591 250.025 263.392 248.058 261.766 245.005C260.479 242.63 260.276 241.409 260.344 239.374C260.208 237.339 260.479 236.118 261.766 233.743C263.392 230.69 267.32 228.655 270.436 230.148Z" fill="#407BFF"/>
<path opacity="0.4" d="M268.337 249.211C268.337 249.211 270.775 253.553 274.907 253.214C279.039 252.874 279.919 251.043 279.919 251.043L279.852 245.073L270.572 248.6C269.963 249.143 269.15 249.347 268.337 249.211Z" fill="black"/>
<path d="M354.224 212.305L378.066 203.147L391.883 189.782C392.29 189.307 396.286 182.455 396.286 182.455L403.059 196.973C403.059 196.973 386.261 213.865 380.098 215.833C375.153 217.393 357.543 221.735 357.543 221.735L354.224 212.305Z" fill="#407BFF"/>
<path opacity="0.4" d="M368.854 218.886C368.854 218.886 371.699 207.624 378.134 205.25C384.569 202.875 392.9 206.606 392.629 206.742C392.358 206.878 385.449 213.391 385.178 213.458C384.975 213.526 376.17 216.647 371.564 218.139L368.854 218.886Z" fill="black"/>
<path d="M325.572 203.079C325.504 203.758 325.64 204.436 325.843 205.114C326.656 207.285 329.026 208.642 329.975 210.745C331.465 213.866 329.365 217.801 326.317 219.429C323.946 220.718 322.727 220.921 320.695 220.853C318.663 220.989 317.444 220.718 315.073 219.429C312.025 217.801 309.926 213.866 311.416 210.745C312.432 208.642 314.735 207.285 315.547 205.114C315.818 204.436 315.886 203.758 315.818 203.079H284.729V234.489C283.442 234.964 282.087 235.1 280.8 234.625C278.633 233.811 277.278 231.437 275.178 230.487C272.063 228.994 268.134 231.097 266.509 234.15C265.222 236.525 265.018 237.746 265.086 239.781C264.951 241.816 265.222 243.037 266.509 245.412C268.134 248.465 272.063 250.568 275.178 249.075C277.278 248.058 278.633 245.751 280.8 244.937C282.087 244.462 283.442 244.598 284.729 245.073V273.023L354.291 273.362V203.486L325.572 203.079Z" fill="#263238"/>
<g opacity="0.4">
<path d="M325.572 203.079C325.504 203.758 325.64 204.436 325.843 205.114C326.656 207.285 329.026 208.642 329.975 210.745C331.465 213.866 329.365 217.801 326.317 219.429C323.946 220.718 322.727 220.921 320.695 220.853C318.663 220.989 317.444 220.718 315.073 219.429C312.025 217.801 309.926 213.866 311.416 210.745C312.432 208.642 314.735 207.285 315.547 205.114C315.818 204.436 315.886 203.758 315.818 203.079H284.729V234.489C283.442 234.964 282.087 235.1 280.8 234.625C278.633 233.811 277.278 231.437 275.178 230.487C272.063 228.994 268.134 231.097 266.509 234.15C265.222 236.525 265.018 237.746 265.086 239.781C264.951 241.816 265.222 243.037 266.509 245.412C268.134 248.465 272.063 250.568 275.178 249.075C277.278 248.058 278.633 245.751 280.8 244.937C282.087 244.462 283.442 244.598 284.729 245.073V273.023L354.291 273.362V203.486L325.572 203.079Z" fill="black"/>
</g>
<path d="M328.62 203.079C328.552 203.758 328.688 204.436 328.891 205.114C329.704 207.285 332.074 208.642 333.023 210.745C334.513 213.866 332.413 217.801 329.365 219.429C326.994 220.718 325.775 220.921 323.743 220.853C321.711 220.989 320.492 220.718 318.121 219.429C315.073 217.801 312.973 213.866 314.464 210.745C315.48 208.642 317.783 207.285 318.595 205.114C318.866 204.436 318.934 203.758 318.866 203.079H287.777V234.489C286.49 234.964 285.135 235.1 283.848 234.625C281.681 233.811 280.326 231.437 278.226 230.487C275.111 228.994 271.182 231.097 269.556 234.15C268.269 236.525 268.066 237.746 268.134 239.781C267.999 241.816 268.269 243.037 269.556 245.412C271.182 248.465 275.111 250.568 278.226 249.075C280.326 248.058 281.681 245.751 283.848 244.937C285.135 244.462 286.49 244.598 287.777 245.073V273.023L357.339 273.362V203.486L328.62 203.079Z" fill="#263238"/>
<path d="M377.659 250.228L388.631 249.55C386.87 259.183 385.109 265.492 385.854 270.445L381.452 273.43L377.388 269.427C377.32 269.359 376.575 261.49 377.659 250.228Z" fill="#E9B376"/>
<path d="M376.643 262.575L380.639 262.643C382.536 265.967 383.89 265.221 385.922 262.847C387.074 262.711 387.345 264.068 387.48 264.407L389.58 272.276C389.783 272.955 389.377 273.633 388.699 273.769C388.564 273.769 388.428 273.837 388.361 273.837C384.838 273.769 383.213 273.769 378.81 273.701L365.467 273.565C361.809 273.498 361.132 269.834 362.622 269.495C369.395 268.07 374.204 266.171 376.304 264.203C376.575 263.932 376.236 263.661 376.643 262.575Z" fill="#407BFF"/>
<path d="M374.61 264.814C375.626 264.95 376.507 265.56 377.049 266.442" stroke="#263238" stroke-width="0.5" stroke-miterlimit="10" stroke-linecap="round" stroke-linejoin="round"/>
<path d="M372.782 266.103C373.798 266.239 374.679 266.849 375.221 267.731" stroke="#263238" stroke-width="0.5" stroke-miterlimit="10" stroke-linecap="round" stroke-linejoin="round"/>
<path d="M370.547 267.256C371.563 267.392 372.443 268.003 372.985 268.885" stroke="#263238" stroke-width="0.5" stroke-miterlimit="10" stroke-linecap="round" stroke-linejoin="round"/>
<path opacity="0.7" d="M388.631 273.837C388.496 273.837 388.36 273.905 388.293 273.905C384.77 273.837 383.145 273.837 378.742 273.769L365.399 273.633C363.434 273.633 362.351 272.548 361.944 271.462C362.486 271.462 389.038 272.005 389.376 271.869L389.512 272.48C389.647 273.023 389.241 273.633 388.631 273.837Z" fill="white"/>
<path d="M419.517 221.192C419.517 221.192 389.647 205.724 383.822 205.317C377.997 204.91 372.443 208.031 371.359 220.107C370.275 232.182 372.443 263.186 372.443 263.186L388.563 263.457L390.528 227.501C390.528 227.501 415.454 245.751 416.199 245.547C416.944 245.344 426.697 244.937 426.697 244.937L419.517 221.192Z" fill="#263238"/>
<path opacity="0.3" d="M419.517 221.192C419.517 221.192 389.647 205.724 383.822 205.317C377.997 204.91 372.443 208.031 371.359 220.107C370.275 232.182 372.443 263.186 372.443 263.186L388.563 263.457L390.528 227.501C390.528 227.501 415.454 245.751 416.199 245.547C416.944 245.344 426.697 244.937 426.697 244.937L419.517 221.192Z" fill="white"/>
<path opacity="0.4" d="M389.647 244.258C389.647 244.258 376.507 248.872 376.371 259.726C376.236 270.581 387.818 268.545 387.818 268.545L389.647 244.258Z" fill="black"/>
<path d="M430.965 272.616L427.984 261.829C438.348 260.676 445.256 263.254 450.065 261.015L454.4 264.611L451.556 269.97C451.556 269.97 443.902 272.548 430.965 272.616Z" fill="#E9B376"/>
<path d="M444.85 272.684L443.699 268.614C446.544 265.629 445.325 264.543 442.277 263.119C441.802 261.965 443.089 261.287 443.428 261.083L450.811 256.606C451.42 256.199 452.233 256.402 452.64 257.013C452.707 257.149 452.775 257.216 452.775 257.352C453.791 260.948 454.265 262.644 455.552 267.121L459.413 280.825C460.497 284.556 456.907 286.388 456.162 284.963C452.707 278.451 449.253 274.177 446.679 272.616C446.205 272.345 446.07 272.82 444.85 272.684Z" fill="#407BFF"/>
<path d="M447.695 274.109C447.56 273.023 447.899 271.938 448.576 271.124" stroke="#263238" stroke-width="0.5" stroke-miterlimit="10" stroke-linecap="round" stroke-linejoin="round"/>
<path d="M449.592 275.533C449.456 274.448 449.795 273.362 450.472 272.548" stroke="#263238" stroke-width="0.5" stroke-miterlimit="10" stroke-linecap="round" stroke-linejoin="round"/>
<path d="M451.42 277.501C451.285 276.415 451.623 275.33 452.301 274.516" stroke="#263238" stroke-width="0.5" stroke-miterlimit="10" stroke-linecap="round" stroke-linejoin="round"/>
<path opacity="0.7" d="M452.639 257.013C452.707 257.148 452.775 257.216 452.775 257.352C453.791 260.948 454.265 262.644 455.552 267.121L459.413 280.825C459.955 282.86 459.21 284.285 458.261 284.963C458.126 284.42 450.607 257.148 450.404 256.809L450.946 256.47C451.556 256.266 452.301 256.47 452.639 257.013Z" fill="white"/>
<path d="M452.301 227.027L453.588 233.54C453.588 233.54 456.906 246.497 452.233 252.942C447.762 259.183 441.192 260.269 441.192 260.269L442.547 272.752L441.192 273.566C441.192 273.566 432.59 273.566 414.98 272.752C398.249 272.005 383.89 271.191 380.91 265.968C377.929 260.744 377.252 258.234 382.129 252.06C386.532 246.429 419.856 238.221 421.008 237.881L420.534 235.032L419.992 232.997L452.301 227.027Z" fill="#263238"/>
<path opacity="0.3" d="M452.301 227.027L453.588 233.54C453.588 233.54 456.906 246.497 452.233 252.942C447.762 259.183 441.192 260.269 441.192 260.269L442.547 272.752L441.192 273.566C441.192 273.566 432.59 273.566 414.98 272.752C398.249 272.005 383.89 271.191 380.91 265.968C377.929 260.744 377.252 258.234 382.129 252.06C386.532 246.429 419.856 238.221 421.008 237.881L420.534 235.032L419.992 232.997L452.301 227.027Z" fill="white"/>
<path opacity="0.4" d="M441.193 260.337C440.177 260.608 403.939 259.455 403.939 259.455C403.939 259.455 414.641 261.287 422.566 261.965C430.491 262.576 441.193 260.337 441.193 260.337Z" fill="black"/>
<path opacity="0.4" d="M421.075 237.949L441.937 234.286C441.937 234.353 426.9 234.082 421.075 237.949Z" fill="black"/>
<path d="M367.905 223.16C367.905 223.16 366.144 220.446 363.57 219.971C360.997 219.428 359.032 218.343 357.068 218.072C355.104 217.8 356.865 219.835 358.016 220.65C359.168 221.531 360.455 222.481 359.71 223.295C358.897 224.042 349.753 226.416 348.805 227.569C347.856 228.723 349.414 228.858 349.414 228.858C349.414 228.858 347.179 229.469 347.247 230.419C347.247 230.69 347.653 231.233 348.669 231.097C351.04 230.826 355.984 229.944 355.984 229.944C355.713 230.012 349.685 231.504 348.805 231.843C347.653 232.318 347.382 233.064 347.653 233.743C348.059 234.693 355.578 233.064 355.917 233.2C355.917 233.2 351.582 233.946 351.175 235.235C350.769 236.456 353.546 236.117 355.917 235.371C358.084 234.693 362.554 233.879 364.722 232.929C367.363 231.775 368.921 230.419 368.989 227.705C368.989 224.991 367.905 223.16 367.905 223.16Z" fill="#E9B376"/>
<path d="M364.993 223.092L371.699 220.446L374.002 227.705L366.145 230.486L364.993 223.092Z" fill="#E9B376"/>
<path d="M413.491 173.025C413.491 173.025 411.662 168.887 412.068 160.814L411.594 160.746C411.662 159.593 411.73 158.575 411.865 157.625V157.558L402.992 166.445C403.805 168.819 404.076 173.704 404.008 175.807C404.008 175.807 403.534 179.742 408.343 178.724C411.933 178.046 413.491 173.025 413.491 173.025Z" fill="#E9B376"/>
<path opacity="0.2" d="M403.67 169.905L409.292 167.123C409.224 169.09 408.073 171.736 403.941 172.89C403.941 172.89 403.873 170.719 403.67 169.905Z" fill="black"/>
<path d="M410.714 152.47C411.594 159.254 412.204 163.053 409.494 167.055C405.43 173.161 396.761 171.736 393.916 165.359C391.342 159.593 390.326 149.552 396.354 145.685C402.315 141.886 409.833 145.753 410.714 152.47Z" fill="#E9B376"/>
<path d="M408.14 142.972C405.024 139.309 399.199 142.497 396.964 144.871C396.625 145.211 402.586 146.907 402.247 146.839L404.144 148.399C404.415 148.264 404.889 150.638 405.295 152.605C405.702 154.437 406.582 156.133 407.869 157.558C408.953 158.711 410.375 160.136 412.001 161.221C414.101 159.661 413.491 155.523 413.762 153.012C414.168 149.213 414.101 142.09 408.14 142.972Z" fill="#263238"/>
<path d="M414.439 157.558C414.236 159.39 413.22 160.95 412.001 161.832C410.172 163.189 409.021 161.153 408.817 159.05C408.614 157.151 408.75 154.709 410.849 154.166C413.017 153.623 414.642 155.455 414.439 157.558Z" fill="#E9B376"/>
<path d="M401.57 156.269C401.705 156.947 401.434 157.558 401.028 157.626C400.554 157.694 400.08 157.219 400.012 156.54C399.876 155.862 400.147 155.251 400.554 155.184C400.96 155.048 401.434 155.591 401.57 156.269Z" fill="#263238"/>
<path d="M394.864 157.693C394.999 158.372 394.728 158.982 394.322 159.05C393.848 159.118 393.373 158.643 393.306 157.965C393.17 157.286 393.441 156.676 393.848 156.608C394.322 156.472 394.728 157.015 394.864 157.693Z" fill="#263238"/>
<path d="M396.963 156.879C396.963 156.879 395.473 160.678 394.999 162.239C396.083 162.917 397.641 162.171 397.641 162.171L396.963 156.879Z" fill="#D58745"/>
<path d="M402.585 152.673C402.518 152.741 402.382 152.741 402.247 152.673C400.96 151.995 399.876 152.605 399.876 152.605C399.741 152.673 399.537 152.605 399.402 152.469C399.334 152.334 399.334 152.13 399.537 151.995C399.605 151.995 400.892 151.248 402.518 152.062C402.653 152.13 402.721 152.334 402.653 152.469C402.721 152.605 402.653 152.673 402.585 152.673Z" fill="#263238"/>
<path d="M400.418 163.935C401.502 163.731 402.247 162.985 402.992 162.035" stroke="#263238" stroke-width="0.75" stroke-miterlimit="10" stroke-linecap="round" stroke-linejoin="round"/>
<path opacity="0.2" d="M412.542 155.997C412.203 155.658 411.594 155.59 411.187 155.794C410.713 155.997 410.442 156.404 410.239 156.879C409.968 157.422 409.9 158.032 409.9 158.575" stroke="black" stroke-width="0.5" stroke-miterlimit="10" stroke-linecap="round" stroke-linejoin="round"/>
<path d="M391.409 155.387C391.341 155.387 391.274 155.387 391.206 155.319C391.071 155.183 391.003 154.98 391.138 154.844C392.154 153.352 393.644 153.419 393.712 153.419C393.915 153.419 394.051 153.555 394.051 153.759C394.051 153.962 393.915 154.098 393.712 154.098C393.644 154.098 392.493 154.098 391.68 155.251C391.612 155.319 391.477 155.387 391.409 155.387Z" fill="#263238"/>
<path d="M408.139 142.972C408.139 142.972 404.007 137.816 396.828 139.512C391.07 140.869 388.022 145.143 387.955 149.145C387.887 150.909 388.293 152.198 388.767 153.08C389.106 153.758 390.122 153.691 390.325 152.944C390.393 152.741 390.461 152.537 390.529 152.334C390.529 152.402 390.596 152.402 390.596 152.469C391.003 153.148 392.154 152.944 392.154 152.062C392.154 151.791 392.222 151.52 392.222 151.316C392.628 151.927 393.577 151.723 393.712 151.045C394.389 147.924 398.25 145.55 401.705 146.907L404.211 148.399C407.055 146.771 408.139 142.972 408.139 142.972Z" fill="#263238"/>
<path opacity="0.4" d="M418.908 233.268L418.502 235.914L406.852 239.441L409.561 241.205L421.076 237.949L421.55 232.793L418.908 233.268Z" fill="black"/>
<path d="M427.647 173.84C422.431 170.447 413.219 172.076 413.219 172.076L396.286 182.387L407.869 209.592C407.869 209.592 412.678 221.193 415.319 228.859C415.997 230.758 417.216 233.404 419.18 233.2L451.286 227.366C452.843 227.095 453.859 225.534 453.453 223.974C450.27 212.848 432.32 176.892 427.647 173.84Z" fill="#407BFF"/>
<path opacity="0.4" d="M430.626 189.036C430.626 189.036 425.479 198.737 416.47 207.218C412.813 210.61 410.306 215.562 410.306 215.562L408.071 209.795L430.626 189.036Z" fill="black"/>
<path d="M414.709 181.505L392.831 208.845L367.093 220.514L369.667 231.165C369.667 231.165 390.528 225.534 398.86 220.31C407.259 215.087 421.076 200.433 421.076 200.433C421.076 200.433 433.133 190.732 432.523 182.93C431.981 175.196 420.534 173.365 414.709 181.505Z" fill="#407BFF"/>
<path d="M402.856 178.452C402.856 178.452 403.669 174.246 404.076 174.45C404.482 174.586 408.411 176.96 408.411 176.96L412.813 170.379L415.455 172.143L409.427 184.694L402.856 178.452Z" fill="#407BFF"/>
<path opacity="0.4" d="M400.892 195.955L395.88 189.036L399.944 199.89L401.908 197.787L415.861 180.081L400.892 195.955Z" fill="black"/>
<path opacity="0.4" d="M402.856 178.453C403.06 178.521 406.717 180.963 406.514 181.031C406.311 181.098 408.072 178.113 408.072 178.113L411.933 179.606L415.116 171.94L412 180.759L408.343 178.995L406.582 182.252L402.856 178.453Z" fill="black"/>
<path d="M153.258 126.419C153.326 125.74 153.19 125.062 152.987 124.383C152.174 122.212 149.804 120.856 148.855 118.753C147.365 115.632 149.465 111.697 152.513 110.069C154.884 108.78 156.103 108.576 158.135 108.644C160.167 108.509 161.386 108.78 163.757 110.069C166.805 111.697 168.904 115.632 167.414 118.753C166.398 120.856 164.095 122.212 163.283 124.383C163.012 125.062 162.944 125.74 163.012 126.419H194.101V95.0082C195.388 94.5333 196.743 94.3976 198.03 94.8725C200.197 95.6866 201.552 98.061 203.652 99.0108C206.767 100.503 210.696 98.4002 212.321 95.3474C213.608 92.9729 213.812 91.7518 213.744 89.7166C213.879 87.6813 213.608 86.4602 212.321 84.0858C210.696 81.0329 206.767 78.9299 203.652 80.4224C201.552 81.44 200.197 83.7466 198.03 84.5607C196.743 85.0355 195.388 84.8999 194.101 84.425V56.5423L124.539 56.2031V126.079L153.258 126.419Z" fill="#263238"/>
<g opacity="0.4">
<path d="M153.258 126.419C153.326 125.74 153.19 125.062 152.987 124.383C152.174 122.212 149.804 120.856 148.855 118.753C147.365 115.632 149.465 111.697 152.513 110.069C154.884 108.78 156.103 108.576 158.135 108.644C160.167 108.509 161.386 108.78 163.757 110.069C166.805 111.697 168.904 115.632 167.414 118.753C166.398 120.856 164.095 122.212 163.283 124.383C163.012 125.062 162.944 125.74 163.012 126.419H194.101V95.0082C195.388 94.5333 196.743 94.3976 198.03 94.8725C200.197 95.6866 201.552 98.061 203.652 99.0108C206.767 100.503 210.696 98.4002 212.321 95.3474C213.608 92.9729 213.812 91.7518 213.744 89.7166C213.879 87.6813 213.608 86.4602 212.321 84.0858C210.696 81.0329 206.767 78.9299 203.652 80.4224C201.552 81.44 200.197 83.7466 198.03 84.5607C196.743 85.0355 195.388 84.8999 194.101 84.425V56.5423L124.539 56.2031V126.079L153.258 126.419Z" fill="black"/>
</g>
<path d="M155.358 126.419C155.425 125.74 155.29 125.062 155.087 124.383C154.274 122.212 151.903 120.856 150.955 118.753C149.465 115.632 151.565 111.697 154.613 110.069C156.983 108.78 158.202 108.576 160.234 108.644C162.266 108.509 163.486 108.78 165.856 110.069C168.904 111.697 171.004 115.632 169.514 118.753C168.498 120.856 166.195 122.212 165.382 124.383C165.111 125.062 165.043 125.74 165.111 126.419H196.201V95.0082C197.488 94.5333 198.842 94.3976 200.129 94.8725C202.297 95.6866 203.651 98.061 205.751 99.0108C208.867 100.503 212.795 98.4002 214.421 95.3474C215.708 92.9729 215.911 91.7518 215.843 89.7166C215.979 87.6813 215.708 86.4602 214.421 84.0858C212.795 81.0329 208.867 78.9299 205.751 80.4224C203.651 81.44 202.297 83.7466 200.129 84.5607C198.842 85.0355 197.488 84.8999 196.201 84.425V56.5423L126.639 56.2031V126.079L155.358 126.419Z" fill="#263238"/>
<path d="M109.164 89.0381C109.164 89.0381 104.084 107.084 107.335 110.204C110.586 113.325 121.965 111.222 121.356 111.019C120.746 110.815 124.268 89.1059 124.471 89.92C124.742 90.6663 109.164 89.0381 109.164 89.0381Z" fill="#B97964"/>
<path d="M115.463 251.721V267.325L122.71 267.867L125.284 253.214C121.898 250.839 118.646 250.297 115.463 251.721Z" fill="#B97964"/>
<path d="M115.394 265.696C114.649 267.732 114.649 276.212 114.649 276.212H130.025C130.905 273.159 129.551 271.056 127.722 270.784C126.977 270.649 126.029 269.835 125.419 269.088C125.419 269.021 124.471 264.272 123.861 264.068C123.861 264.068 123.455 263.593 123.116 264.068C122.777 264.543 122.506 266.171 122.506 266.171C120.068 262.915 117.697 263.39 115.394 265.696Z" fill="#263238"/>
<path d="M115.191 268.207C116.952 267.528 118.781 267.8 120.271 268.953C120.542 269.156 120.813 268.681 120.542 268.478C118.917 267.257 116.885 266.985 115.056 267.732C114.785 267.8 114.92 268.274 115.191 268.207Z" fill="white"/>
<path d="M129.957 274.99H114.853C114.717 274.99 114.582 274.855 114.582 274.719C114.582 274.583 114.717 274.448 114.853 274.448H129.957C130.093 274.448 130.228 274.583 130.228 274.719C130.161 274.923 130.093 274.99 129.957 274.99Z" fill="white"/>
<path d="M146.755 249.686V267.324L153.731 267.867L157.186 251.382C154.341 249.143 151.09 248.058 146.755 249.686Z" fill="#B97964"/>
<path d="M146.417 265.764C145.672 267.799 145.672 276.279 145.672 276.279H163.35C164.231 273.227 162.334 271.395 160.573 271.123C159.828 270.988 157.119 269.902 156.441 269.088C156.441 269.02 155.493 264.272 154.884 264.068C154.884 264.068 154.477 263.593 154.139 264.068C153.8 264.543 153.529 266.171 153.529 266.171C151.091 262.983 148.72 263.39 146.417 265.764Z" fill="#263238"/>
<path d="M146.213 268.206C147.975 267.528 149.803 267.799 151.293 268.952C151.564 269.156 151.835 268.681 151.564 268.477C149.939 267.256 147.907 266.985 146.078 267.731C145.739 267.799 145.875 268.342 146.213 268.206Z" fill="white"/>
<path d="M163.282 275.058H145.807C145.672 275.058 145.536 274.923 145.536 274.787C145.536 274.651 145.672 274.516 145.807 274.516H163.282C163.418 274.516 163.553 274.651 163.553 274.787C163.553 274.923 163.418 275.058 163.282 275.058Z" fill="white"/>
<path d="M112.482 259.455L127.925 260.269C131.379 249.008 134.834 208.71 135.172 196.567C135.579 182.117 140.794 145.822 136.188 138.223C131.582 130.693 110.924 136.663 110.924 136.663C110.924 136.663 113.498 180.895 112.482 195.006C111.533 207.218 110.179 243.173 112.482 259.455Z" fill="#263238"/>
<path d="M129.55 256.199L128.534 261.354L111.804 260.812L111.194 255.859L129.55 256.199Z" fill="#407BFF"/>
<path d="M143.3 259.455L158.608 260.269C160.505 247.786 167.955 202.469 167.346 193.785C166.601 183.202 157.727 137.273 154.409 133.678C151.09 130.082 126.977 139.309 126.977 139.309C126.977 139.309 136.866 178.792 144.723 195.888C146.348 199.484 142.013 244.259 143.3 259.455Z" fill="#263238"/>
<path d="M160.369 256.538L159.557 261.355L142.555 260.269L142.217 255.249L160.369 256.538Z" fill="#407BFF"/>
<path opacity="0.3" d="M136.662 174.179L132.124 159.118L124.199 156.473L130.431 161.357L135.443 188.765L136.662 174.179Z" fill="black"/>
<path d="M145.266 40.8714C145.266 41.5498 145.537 42.0247 145.943 42.0926C146.349 42.1604 146.756 41.6177 146.756 40.9393C146.824 40.2609 146.485 39.786 146.078 39.7181C145.672 39.6503 145.333 40.193 145.266 40.8714Z" fill="#263238"/>
<path d="M145.536 40.7358C145.74 42.8389 146.281 44.8741 147.094 46.8415C146.078 47.2486 144.927 47.1129 143.979 46.5702L145.536 40.7358Z" fill="#A24E3F"/>
<path d="M144.046 38.7683C143.979 38.7683 143.911 38.7683 143.775 38.7005C143.64 38.5648 143.64 38.2934 143.775 38.1577C144.52 37.208 145.672 36.6652 146.891 36.8009C147.094 36.8009 147.23 37.0044 147.23 37.208C147.162 37.4115 147.027 37.5472 146.823 37.5472C145.875 37.4793 144.927 37.9542 144.385 38.7005C144.317 38.7683 144.182 38.7683 144.046 38.7683Z" fill="#263238"/>
<path d="M145.537 49.487C145.469 49.8262 145.334 50.1654 145.198 50.5046C144.521 52.4041 143.234 54.1002 141.541 55.2535C141.134 55.5248 140.66 55.7962 140.186 56.0676C136.528 57.9671 132.058 57.2887 129.213 54.3715C125.555 50.7081 125.623 46.502 125.217 39.3787C125.081 37.8183 125.352 36.3258 125.962 34.9012C128.062 29.8809 133.887 27.5743 138.967 29.6096C146.079 32.3911 147.095 43.0421 145.537 49.487Z" fill="#B97964"/>
<path opacity="0.2" d="M141.54 55.2537C141.134 55.525 140.66 55.7964 140.186 56.0678C137.747 57.3567 134.767 57.4924 132.261 56.407C132.599 55.525 133.006 54.7109 133.548 53.9647C136.325 53.6255 139.102 54.1004 141.54 55.2537Z" fill="black"/>
<path d="M126.978 64.5479C130.567 67.7364 139.305 66.5831 139.305 66.5831C139.305 66.5831 144.791 65.0906 143.64 63.3946C140.456 62.8519 138.831 61.3594 138.221 59.4598C137.883 58.3065 137.747 57.0854 137.883 55.8643C137.95 55.1858 138.018 54.5074 138.154 53.829L127.316 45.9595C128.739 51.1832 130.432 60.7488 126.978 64.5479Z" fill="#B97964"/>
<path d="M141.54 42.9743L143.098 43.517L142.353 40.3963C142.353 40.3963 144.656 36.9364 142.353 33.9514C142.353 33.9514 148.652 32.0519 145.13 28.7955C143.775 27.5744 142.15 28.7955 137.815 26.896C135.444 25.8783 128.061 25.8105 127.655 28.7955C127.655 28.7955 122.304 28.7955 121.762 37.7505C121.423 43.0421 123.523 48.2659 127.384 51.8614C127.384 51.8614 133.819 53.3539 137.002 50.8438C140.118 48.3337 141.54 42.9743 141.54 42.9743Z" fill="#263238"/>
<path d="M137.408 43.4491C137.679 44.8059 138.56 45.9592 139.847 46.6376C141.337 47.2482 142.285 45.213 142.082 43.042C141.879 41.1425 140.863 38.4289 139.305 38.8359C137.679 39.1751 136.934 41.5495 137.408 43.4491Z" fill="#B97964"/>
<path d="M115.937 62.7842C115.937 62.7842 113.43 63.5304 112.143 64.0053C109.502 64.9551 107.809 67.8723 106.86 70.7216C104.557 77.7092 100.832 94.1946 100.832 94.1946L114.379 97.0439L121.626 81.5083L115.937 62.7842Z" fill="#407BFF"/>
<path opacity="0.5" d="M115.937 62.7842C115.937 62.7842 112.347 63.4626 110.382 65.0229C108.96 66.2441 107.809 67.9401 106.86 70.7216C104.557 77.7092 100.832 94.1946 100.832 94.1946L114.379 97.0439L121.626 81.5083L115.937 62.7842Z" fill="white"/>
<path d="M148.719 63.5982C144.723 63.1911 132.463 60.4097 115.936 62.7841L112.076 123.909C112.076 123.909 111.601 133.271 110.111 141.276C126.909 148.467 146.687 146.432 157.931 140.394C157.796 140.666 157.457 133.949 156.847 124.248C155.831 107.016 154.206 80.2192 152.038 64.6836C151.971 64.2088 149.126 63.666 148.719 63.5982Z" fill="#407BFF"/>
<g opacity="0.5">
<path d="M148.719 63.5982C144.723 63.1911 132.463 60.4097 115.936 62.7841L112.076 123.909C112.076 123.909 111.601 133.271 110.111 141.276C126.909 148.467 146.687 146.432 157.931 140.394C157.796 140.666 157.457 133.949 156.847 124.248C155.831 107.016 154.206 80.2192 152.038 64.6836C151.971 64.2088 149.126 63.666 148.719 63.5982Z" fill="white"/>
</g>
<path d="M126.773 62.1735C127.248 60.7488 127.925 59.7312 128.738 59.1885L137.949 59.8669L142.284 62.7162L126.773 62.1735Z" fill="#407BFF"/>
<path opacity="0.5" d="M126.773 62.1735C127.248 60.7488 127.925 59.7312 128.738 59.1885L137.949 59.8669L142.284 62.7162L126.773 62.1735Z" fill="white"/>
<path opacity="0.2" d="M148.245 82.6616C149.735 89.5136 151.835 103.014 155.831 107.763L154.883 94.1267L148.245 82.6616Z" fill="black"/>
<path opacity="0.2" d="M113.499 96.9082L113.905 79.2695L110.18 96.0941L113.499 96.9082Z" fill="black"/>
<path d="M155.29 88.0884C154.748 88.2919 164.705 110.679 168.769 110.883C172.833 111.086 191.866 102.403 191.866 102.403L187.599 97.3147L173.239 98.1288L165.924 82.5254L155.29 88.0884Z" fill="#B97964"/>
<path d="M150.277 64.4118C145.129 67.8039 142.556 75.5378 156.373 99.4178L171.342 90.2592C168.294 84.6963 165.111 80.6258 161.589 72.5527C154.409 62.1731 150.277 64.4118 150.277 64.4118Z" fill="#407BFF"/>
<path opacity="0.5" d="M150.277 64.4118C145.129 67.8039 142.556 75.5378 156.373 99.4178L171.342 90.2592C168.294 84.6963 165.111 80.6258 161.589 72.5527C154.409 62.1731 150.277 64.4118 150.277 64.4118Z" fill="white"/>
<path d="M198.571 97.1789C198.571 95.8899 198.165 94.4652 197.487 94.3974C196.81 94.3296 193.017 94.3974 193.017 94.3974C193.017 93.312 194.981 92.1587 194.372 91.4803C193.559 90.5305 188.682 94.5331 188.343 95.3472C187.734 96.9754 187.463 97.3824 187.463 97.3824L190.037 103.285C190.037 103.285 194.778 106.405 195.93 105.32C197.013 104.234 196.946 103.013 196.946 103.013C196.946 103.013 198.029 101.453 197.962 100.503C197.758 99.4855 198.571 98.4679 198.571 97.1789Z" fill="#B97964"/>
</g>
<defs>
<clipPath id="clip0_1724_849">
<rect width="508" height="285" fill="white" transform="translate(0.383789 0.505859)"/>
</clipPath>
</defs>
</svg>
