<svg width="70" height="59" viewBox="0 0 70 59" fill="none" xmlns="http://www.w3.org/2000/svg">
<path d="M47.7008 16.7813H23.3279C22.6855 16.7813 22.1641 16.2599 22.1641 15.6175V2.66638C22.1641 1.23138 23.3314 0.0634766 24.767 0.0634766H46.2618C47.6968 0.0634766 48.8647 1.23138 48.8647 2.66638V15.6181C48.8647 16.2605 48.3433 16.7813 47.7008 16.7813ZM24.4917 14.4537H46.5364V2.66638C46.5364 2.5145 46.4131 2.39114 46.2612 2.39114H24.767C24.6151 2.39114 24.4917 2.5145 24.4917 2.66638V14.4537Z" fill="#4A83E7"/>
<path d="M49.3733 23.0183H21.6043C21.2406 23.0183 20.8985 22.8484 20.6779 22.5592C20.458 22.27 20.3858 21.8941 20.4824 21.5443L22.2078 15.3068C22.3474 14.8029 22.806 14.4531 23.3297 14.4531H47.7021C48.2287 14.4531 48.6896 14.8069 48.8263 15.3155L50.4976 21.5531C50.5913 21.9028 50.5168 22.2758 50.2968 22.5627C50.0763 22.8502 49.7353 23.0183 49.3733 23.0183ZM23.1336 20.6907H47.8563L46.8088 16.7808H24.2148L23.1336 20.6907Z" fill="#4A83E7"/>
<path d="M31.9668 6.358L29.5606 7.37926C29.187 7.53813 28.9443 7.90357 28.9443 8.30858C28.9443 8.7136 29.187 9.07904 29.5606 9.2379L31.9668 10.2597C32.4114 10.4483 32.9229 10.2184 33.0748 9.76046C33.2115 9.34788 33.0032 8.90097 32.5993 8.73862L31.5304 8.30916L32.5999 7.87913C33.0038 7.71677 33.2121 7.26928 33.0754 6.85728C32.9235 6.3999 32.4114 6.16946 31.9668 6.358Z" fill="#4A83E7"/>
<path d="M34.5583 11.9592H34.5687C34.9086 11.9592 35.2118 11.7439 35.3223 11.4233L37.1146 6.23491C37.2927 5.71933 36.9086 5.18164 36.361 5.18164C36.0212 5.18164 35.7192 5.39637 35.608 5.71584L33.8053 10.9042C33.626 11.4209 34.0101 11.9592 34.5583 11.9592Z" fill="#4A83E7"/>
<path d="M37.9023 6.85785C37.7656 7.26984 37.9733 7.71676 38.3766 7.87911L39.4461 8.30915L38.3777 8.7386C37.9733 8.90095 37.7656 9.34845 37.9023 9.76102C38.0542 10.2178 38.5657 10.4483 39.0097 10.2597L41.4159 9.23788C41.7895 9.07902 42.0322 8.71358 42.0322 8.30915C42.0322 7.90413 41.7895 7.53811 41.4153 7.37983L39.008 6.35973C38.5645 6.17177 38.0542 6.40163 37.9023 6.85785Z" fill="#4A83E7"/>
<path d="M26.3672 58.4098H1.99489C1.35245 58.4098 0.831055 57.8884 0.831055 57.246V44.2943C0.831055 42.8593 1.99838 41.6914 3.43338 41.6914H24.9282C26.3632 41.6914 27.5305 42.8593 27.5305 44.2943V57.246C27.5311 57.8884 27.0103 58.4098 26.3672 58.4098ZM3.15872 56.0822H25.2034V44.2943C25.2034 44.1424 25.08 44.0191 24.9287 44.0191H3.43396C3.28266 44.0191 3.1593 44.1424 3.1593 44.2943L3.15872 56.0822Z" fill="#4A83E7"/>
<path d="M68.4284 58.4098H44.0554C43.413 58.4098 42.8916 57.8884 42.8916 57.246V44.2943C42.8916 42.8593 44.0595 41.6914 45.4945 41.6914H66.9893C68.4243 41.6914 69.5922 42.8593 69.5922 44.2943V57.246C69.5922 57.8884 69.0708 58.4098 68.4284 58.4098ZM45.2193 56.0822H67.2645V44.2943C67.2645 44.1424 67.1412 44.0191 66.9893 44.0191H45.4945C45.3426 44.0191 45.2193 44.1424 45.2193 44.2943V56.0822Z" fill="#4A83E7"/>
<path d="M56.6219 36.2537C55.9795 36.2537 55.4581 35.7323 55.4581 35.0899V32.2251H40.6355C39.9931 32.2251 39.4717 31.7037 39.4717 31.0613C39.4717 30.4189 39.9931 29.8975 40.6355 29.8975H56.6219C57.2643 29.8975 57.7857 30.4189 57.7857 31.0613V35.0899C57.7857 35.7329 57.2643 36.2537 56.6219 36.2537Z" fill="#4A83E7"/>
<path d="M14.3582 34.5456C13.7157 34.5456 13.1943 34.0242 13.1943 33.3818V31.0623C13.1943 30.4198 13.7157 29.8984 14.3582 29.8984H30.3445C30.987 29.8984 31.5084 30.4198 31.5084 31.0623C31.5084 31.7047 30.987 32.2261 30.3445 32.2261H15.522V33.3818C15.522 34.0242 15.0012 34.5456 14.3582 34.5456Z" fill="#4A83E7"/>
<path d="M39.1859 34.5851H31.7968C30.3548 34.5851 29.1816 33.4119 29.1816 31.97V30.1532C29.1816 28.7106 30.3548 27.5381 31.7968 27.5381H39.1859C40.6279 27.5381 41.8005 28.7112 41.8005 30.1532V31.97C41.8005 33.4125 40.6279 34.5851 39.1859 34.5851ZM31.7968 29.8657C31.6385 29.8657 31.5093 29.9949 31.5093 30.1532V31.97C31.5093 32.1282 31.6385 32.2574 31.7968 32.2574H39.1859C39.3436 32.2574 39.4728 32.1282 39.4728 31.97V30.1532C39.4728 29.9949 39.3436 29.8657 39.1859 29.8657H31.7968Z" fill="#4A83E7"/>
<path d="M35.49 29.8653C34.8476 29.8653 34.3262 29.3439 34.3262 28.7015V21.8552C34.3262 21.2128 34.8476 20.6914 35.49 20.6914C36.133 20.6914 36.6538 21.2128 36.6538 21.8552V28.7015C36.6533 29.3439 36.133 29.8653 35.49 29.8653Z" fill="#4A83E7"/>
<path d="M14.358 39.7411C12.5959 39.7411 11.1621 38.2991 11.1621 36.5278C11.1621 34.7564 12.5954 33.3145 14.358 33.3145C16.1206 33.3145 17.5539 34.7564 17.5539 36.5278C17.5539 38.2991 16.1206 39.7411 14.358 39.7411ZM14.358 35.6415C13.8791 35.6415 13.4898 36.039 13.4898 36.5272C13.4898 37.0154 13.8791 37.4129 14.358 37.4129C14.8369 37.4129 15.2262 37.0154 15.2262 36.5272C15.2262 36.039 14.8369 35.6415 14.358 35.6415Z" fill="#4A83E7"/>
<path d="M56.6211 40.3534C54.859 40.3534 53.4258 38.9114 53.4258 37.1401C53.4258 35.3687 54.859 33.9268 56.6211 33.9268C58.3831 33.9268 59.817 35.3687 59.817 37.1401C59.817 38.9114 58.3831 40.3534 56.6211 40.3534ZM56.6211 36.2538C56.1427 36.2538 55.7534 36.6513 55.7534 37.1395C55.7534 37.6277 56.1427 38.0252 56.6211 38.0252C57.1 38.0252 57.4893 37.6277 57.4893 37.1395C57.4893 36.6513 57.1 36.2538 56.6211 36.2538Z" fill="#4A83E7"/>
</svg>
