<svg width="41" height="41" viewBox="0 0 41 41" fill="none" xmlns="http://www.w3.org/2000/svg">
<path d="M7.31444 27.1625L0.743576 33.7334C0 30.7322 0 26.569 0 20.5C0 10.8362 -2.44379e-07 6.00431 3.00216 3.00216C6.00431 -2.44379e-07 10.8362 0 20.5 0C30.1637 0 34.9958 -2.44379e-07 37.9978 3.00216C41 6.00431 41 10.8362 41 20.5C41 30.1637 41 34.9958 37.9978 37.9978C34.9958 41 30.1637 41 20.5 41C14.4311 41 10.2678 41 7.26663 40.2565L13.8375 33.6856V34.85C13.8375 37.3973 15.9026 39.4625 18.45 39.4625C20.9973 39.4625 23.0625 37.3973 23.0625 34.85V22.55C23.0625 20.0027 20.9973 17.9375 18.45 17.9375H6.15C3.60259 17.9375 1.5375 20.0027 1.5375 22.55C1.5375 25.0973 3.60259 27.1625 6.15 27.1625H7.31444Z" fill="url(#paint0_linear_1410_5045)"/>
<path d="M6.15019 21.0127C5.30106 21.0127 4.61269 21.7011 4.61269 22.5502C4.61269 23.3993 5.30106 24.0877 6.15019 24.0877H14.7383L0.963014 37.8631C0.362589 38.4635 0.362589 39.4369 0.963014 40.0373C1.56344 40.6378 2.53694 40.6378 3.13737 40.0373L16.9127 26.2621V34.8502C16.9127 35.6993 17.6011 36.3877 18.4502 36.3877C19.2993 36.3877 19.9877 35.6993 19.9877 34.8502V22.5502C19.9877 21.7011 19.2993 21.0127 18.4502 21.0127H6.15019Z" fill="url(#paint1_linear_1410_5045)"/>
<defs>
<linearGradient id="paint0_linear_1410_5045" x1="5.5" y1="3.5" x2="39.5" y2="40" gradientUnits="userSpaceOnUse">
<stop stop-color="#4A83E7"/>
<stop offset="1" stop-color="#577EE7"/>
</linearGradient>
<linearGradient id="paint1_linear_1410_5045" x1="3.12519" y1="22.6752" x2="19.2751" y2="40.0127" gradientUnits="userSpaceOnUse">
<stop stop-color="#4A83E7"/>
<stop offset="1" stop-color="#577EE7"/>
</linearGradient>
</defs>
</svg>
