<svg width="61" height="52" viewBox="0 0 61 52" fill="none" xmlns="http://www.w3.org/2000/svg">
<path d="M7.04829 11.7685H54.2285C55.1598 11.7685 56.0461 11.9727 56.8435 12.3374V8.23463C56.8435 6.01828 55.0378 4.21251 52.8214 4.21251H8.45533C6.23899 4.21251 4.43321 6.01828 4.43321 8.23463V12.3396C5.23142 11.9734 6.11766 11.7685 7.04829 11.7685ZM31.9999 19.2616L25.7082 42.7404C25.0809 45.0876 28.6495 46.0412 29.2768 43.6946L35.5686 20.2159C36.1959 17.8686 32.6272 16.9151 31.9999 19.2616ZM23.6139 37.6145L17.4768 31.4774L23.6139 25.341C25.3339 23.6211 22.7181 21.0052 20.9981 22.7252L13.5531 30.1695C12.8311 30.8915 12.8311 32.0633 13.5531 32.7853L20.9981 40.2303C22.7181 41.9503 25.3339 39.3345 23.6139 37.6145ZM37.6628 25.341L43.8 31.4774L37.6628 37.6145C35.9429 39.3345 38.5587 41.9503 40.2787 40.2303L47.7237 32.7853C48.4457 32.0633 48.4457 30.8915 47.7237 30.1695L40.2787 22.7252C38.5587 21.0052 35.9429 23.6211 37.6628 25.341ZM60.5424 43.4668C60.5424 49.1245 58.1655 51.1878 52.8214 51.1878H8.45533C2.97439 51.1878 0.734375 48.9477 0.734375 43.4668V18.0824V8.23463C0.734375 3.99206 4.21276 0.513672 8.45533 0.513672H52.8214C57.064 0.513672 60.5424 3.99206 60.5424 8.23463V18.0824V43.4668Z" fill="white"/>
</svg>
