<svg width="70" height="60" viewBox="0 0 70 60" fill="none" xmlns="http://www.w3.org/2000/svg">
<path d="M6.08255 0.62207C3.17611 0.62207 0.802734 2.99464 0.802734 5.90066V43.5527C0.802734 46.4588 3.17611 48.8313 6.08255 48.8313H35.7595C35.9006 48.8314 36.0403 48.8036 36.1706 48.7496C36.3009 48.6956 36.4194 48.6165 36.5191 48.5167C36.6189 48.417 36.698 48.2985 36.752 48.1682C36.806 48.0379 36.8337 47.8982 36.8337 47.7571C36.8337 47.616 36.806 47.4763 36.752 47.346C36.698 47.2157 36.6189 47.0972 36.5191 46.9975C36.4194 46.8977 36.3009 46.8186 36.1706 46.7646C36.0403 46.7107 35.9006 46.6829 35.7595 46.6829H6.08255C4.3291 46.6829 2.9512 45.3054 2.9512 43.5527V14.7848H57.7183V25.5271C57.7183 25.6682 57.7461 25.8079 57.8001 25.9382C57.8541 26.0685 57.9332 26.187 58.0329 26.2867C58.1327 26.3865 58.2511 26.4656 58.3815 26.5196C58.5118 26.5736 58.6515 26.6013 58.7926 26.6013C58.9336 26.6013 59.0733 26.5736 59.2037 26.5196C59.334 26.4656 59.4524 26.3865 59.5522 26.2867C59.6519 26.187 59.7311 26.0685 59.785 25.9382C59.839 25.8079 59.8668 25.6682 59.8668 25.5271V5.90026C59.8668 2.99464 57.4934 0.62207 54.587 0.62207H6.08255ZM6.08255 2.77053H54.587C56.3404 2.77053 57.7183 4.14803 57.7183 5.90066V12.6363H2.9512V5.90066C2.9512 4.14803 4.3291 2.77053 6.08255 2.77053ZM9.03201 6.71588C8.29069 6.75647 7.68374 7.34962 7.68374 8.095C7.68374 8.85216 8.31017 9.47859 9.06774 9.47859C9.8253 9.47859 10.4517 8.85216 10.4517 8.095C10.4517 7.33784 9.8253 6.71588 9.06774 6.71588H9.03201ZM14.1693 6.71588C13.4276 6.75647 12.8206 7.34962 12.8206 8.095C12.8206 8.85216 13.4471 9.47859 14.2046 9.47859C14.9622 9.47859 15.5886 8.85216 15.5886 8.095C15.5886 7.33784 14.9622 6.71588 14.2046 6.71588H14.1693ZM19.307 6.71588C18.5657 6.75647 17.9588 7.34962 17.9588 8.095C17.9588 8.85216 18.5852 9.47859 19.3428 9.47859C20.0999 9.47859 20.7264 8.85216 20.7264 8.095C20.7264 7.33784 20.0999 6.71588 19.3428 6.71588H19.307ZM13.9334 19.2701C13.8701 19.278 13.8076 19.2916 13.7467 19.3107C13.5628 19.3513 13.3929 19.4395 13.2538 19.5665L6.54252 25.7297C6.43301 25.8303 6.34558 25.9526 6.28577 26.0887C6.22597 26.2249 6.19509 26.372 6.19509 26.5207C6.19509 26.6695 6.22597 26.8166 6.28577 26.9527C6.34558 27.0889 6.43301 27.2112 6.54252 27.3118L13.2538 33.475C13.4637 33.6676 13.7415 33.769 14.0261 33.7568C14.3107 33.7446 14.5788 33.6199 14.7714 33.4101C14.8668 33.3061 14.9408 33.1844 14.9892 33.0519C15.0376 32.9194 15.0594 32.7786 15.0534 32.6376C15.0473 32.4967 15.0136 32.3583 14.9541 32.2304C14.8945 32.1024 14.8104 31.9875 14.7064 31.8921L8.85663 26.5205L14.7064 21.1486C14.8104 21.0532 14.8945 20.9382 14.9541 20.8103C15.0136 20.6824 15.0473 20.544 15.0534 20.403C15.0594 20.2621 15.0376 20.1213 14.9892 19.9888C14.9408 19.8562 14.8668 19.7345 14.7714 19.6306C14.6652 19.5153 14.535 19.4247 14.39 19.3651C14.2451 19.3055 14.0888 19.2783 13.9322 19.2855L13.9334 19.2701ZM26.6756 19.2701C26.5191 19.2629 26.3628 19.2901 26.2178 19.3497C26.0729 19.4093 25.9427 19.4999 25.8365 19.6152C25.741 19.7191 25.667 19.8408 25.6186 19.9733C25.5703 20.1059 25.5485 20.2467 25.5545 20.3876C25.5605 20.5286 25.5943 20.667 25.6538 20.7949C25.7133 20.9228 25.7975 21.0378 25.9014 21.1331L31.7508 26.5051L25.9014 31.8767C25.7975 31.9721 25.7133 32.087 25.6538 32.2149C25.5943 32.3428 25.5605 32.4812 25.5545 32.6222C25.5485 32.7632 25.5703 32.9039 25.6186 33.0365C25.667 33.169 25.741 33.2907 25.8365 33.3946C25.9319 33.4986 26.0468 33.5828 26.1747 33.6423C26.3026 33.7018 26.441 33.7356 26.582 33.7416C26.723 33.7476 26.8637 33.7258 26.9963 33.6774C27.1288 33.6291 27.2505 33.555 27.3544 33.4596L34.0653 27.2964C34.1749 27.1958 34.2623 27.0735 34.3221 26.9373C34.3819 26.8011 34.4128 26.654 34.4128 26.5053C34.4128 26.3566 34.3819 26.2095 34.3221 26.0733C34.2623 25.9372 34.1749 25.8149 34.0653 25.7143L27.3544 19.551C27.2153 19.424 27.0452 19.3358 26.8612 19.2953C26.8002 19.2762 26.7377 19.2626 26.6744 19.2547L26.6756 19.2701ZM22.1258 19.4812C22.031 19.4823 21.9368 19.496 21.8457 19.5218C21.6621 19.5651 21.4933 19.656 21.356 19.7853C21.2188 19.9145 21.118 20.0777 21.0637 20.2583L17.4858 32.1645C17.4038 32.4373 17.4336 32.7315 17.5685 32.9823C17.7034 33.2332 17.9324 33.4202 18.2052 33.5022C18.478 33.5842 18.7722 33.5544 19.023 33.4195C19.2739 33.2846 19.4609 33.0556 19.5429 32.7828L23.1208 20.8766C23.1615 20.7415 23.1751 20.5997 23.161 20.4593C23.1468 20.319 23.1051 20.1828 23.0383 20.0585C22.9715 19.9342 22.8809 19.8243 22.7716 19.7351C22.6623 19.6459 22.5366 19.5791 22.4014 19.5384C22.3118 19.5116 22.219 19.4966 22.1254 19.4938L22.1258 19.4812ZM49.7639 24.9806C49.479 24.9807 49.2058 25.0938 49.0043 25.2953C48.8029 25.4968 48.6897 25.77 48.6897 26.0549V28.1209C47.5095 28.4417 46.3752 28.9118 45.3135 29.5191L43.852 28.058C43.6505 27.8567 43.3774 27.7436 43.0926 27.7436C42.8078 27.7436 42.5346 27.8567 42.3332 28.058L38.491 31.899C38.3912 31.9988 38.312 32.1172 38.258 32.2476C38.2039 32.378 38.1761 32.5177 38.1761 32.6588C38.1761 32.7999 38.2039 32.9397 38.258 33.07C38.312 33.2004 38.3912 33.3188 38.491 33.4186L39.9521 34.8793C39.3447 35.9406 38.8754 37.0745 38.5539 38.2543H36.487C36.2022 38.2543 35.929 38.3674 35.7276 38.5688C35.5261 38.7701 35.4129 39.0433 35.4128 39.3281V44.761C35.4128 45.0459 35.526 45.3191 35.7274 45.5205C35.9289 45.722 36.2021 45.8352 36.487 45.8352H38.5539C38.8746 47.015 39.3452 48.1485 39.9521 49.2101L38.491 50.6709C38.2895 50.8723 38.1763 51.1455 38.1763 51.4304C38.1763 51.7153 38.2895 51.9886 38.491 52.19L42.3332 56.0315C42.5346 56.2328 42.8078 56.3459 43.0926 56.3459C43.3774 56.3459 43.6505 56.2328 43.852 56.0315L45.3135 54.5703C46.3752 55.1773 47.5095 55.647 48.6897 55.9681V58.0342C48.6897 58.3191 48.8029 58.5923 49.0043 58.7938C49.2058 58.9952 49.479 59.1084 49.7639 59.1084H55.1972C55.4821 59.1084 55.7553 58.9952 55.9568 58.7938C56.1582 58.5923 56.2714 58.3191 56.2714 58.0342V55.9681C57.452 55.6474 58.5863 55.1773 59.6484 54.5703L61.1099 56.0315C61.3114 56.2328 61.5845 56.3459 61.8693 56.3459C62.1541 56.3459 62.4272 56.2328 62.6287 56.0315L66.4709 52.19C66.6724 51.9886 66.7855 51.7153 66.7855 51.4304C66.7855 51.1455 66.6724 50.8723 66.4709 50.6709L65.0098 49.2101C65.6167 48.1485 66.0864 47.015 66.408 45.8352H68.4748C68.7598 45.8352 69.033 45.722 69.2344 45.5205C69.4359 45.3191 69.5491 45.0459 69.5491 44.761V39.3281C69.549 39.0433 69.4357 38.7701 69.2343 38.5688C69.0329 38.3674 68.7597 38.2543 68.4748 38.2543H66.4145C66.0938 37.0729 65.6224 35.9377 65.0143 34.8749L66.4709 33.4186C66.5707 33.3188 66.6499 33.2004 66.7039 33.07C66.7579 32.9397 66.7857 32.7999 66.7857 32.6588C66.7857 32.5177 66.7579 32.378 66.7039 32.2476C66.6499 32.1172 66.5707 31.9988 66.4709 31.899L62.6287 28.058C62.4272 27.8567 62.1541 27.7436 61.8693 27.7436C61.5845 27.7436 61.3114 27.8567 61.1099 28.058L59.6528 29.5147C58.5896 28.9065 57.4536 28.436 56.2714 28.1144V26.0549C56.2714 25.77 56.1582 25.4968 55.9568 25.2953C55.7553 25.0938 55.4821 24.9807 55.1972 24.9806H49.7639ZM50.8381 27.1291H54.1229V28.9577C54.1229 29.2047 54.208 29.4441 54.3639 29.6357C54.5198 29.8273 54.7369 29.9593 54.9788 30.0096C56.4931 30.3222 57.9339 30.9206 59.2266 31.7687C59.433 31.9042 59.6798 31.9644 59.9254 31.9393C60.1711 31.9141 60.4005 31.8051 60.5752 31.6306L61.8695 30.3368L64.1921 32.6594L62.8987 33.9525C62.7241 34.1272 62.615 34.3567 62.5899 34.6025C62.5647 34.8482 62.625 35.0951 62.7606 35.3015C63.6087 36.5938 64.2059 38.0342 64.5202 39.5473C64.5705 39.7891 64.7025 40.0061 64.8941 40.1619C65.0857 40.3177 65.3251 40.4028 65.5721 40.4027H67.4014V43.6871H65.5652C65.3182 43.6872 65.0789 43.7723 64.8874 43.9282C64.6959 44.0841 64.5639 44.3012 64.5137 44.5429C64.2011 46.0544 63.6035 47.4936 62.7562 48.7847C62.6207 48.9911 62.5604 49.2379 62.5856 49.4835C62.6107 49.7292 62.7197 49.9586 62.8942 50.1333L64.1917 51.4309L61.8691 53.7531L60.5708 52.4556C60.3961 52.2811 60.1666 52.1721 59.921 52.1469C59.6753 52.1218 59.4285 52.182 59.2221 52.3175C57.9307 53.1644 56.491 53.7604 54.9784 54.0746C54.7366 54.1248 54.5195 54.2568 54.3636 54.4483C54.2078 54.6398 54.1226 54.8792 54.1225 55.1261V56.9616H50.8377V55.1261C50.8377 54.8792 50.7525 54.6398 50.5966 54.4483C50.4408 54.2568 50.2237 54.1248 49.9819 54.0746C48.4696 53.762 47.03 53.1644 45.7386 52.3175C45.5322 52.1821 45.2855 52.1219 45.0399 52.1471C44.7944 52.1722 44.565 52.2812 44.3903 52.4556L43.092 53.7531L40.7693 51.4309L42.0669 50.1333C42.2414 49.9586 42.3504 49.7292 42.3755 49.4835C42.4006 49.2379 42.3404 48.9911 42.2049 48.7847C41.3576 47.4936 40.7616 46.0544 40.4474 44.5429C40.3972 44.3012 40.2652 44.0841 40.0737 43.9282C39.8822 43.7723 39.6428 43.6872 39.3959 43.6871H37.56V40.4027H39.3959C39.6428 40.4027 39.8821 40.3176 40.0736 40.1618C40.2651 40.006 40.3971 39.789 40.4474 39.5473C40.76 38.0354 41.3576 36.5966 42.2049 35.3056C42.3405 35.0991 42.4008 34.8523 42.3757 34.6065C42.3505 34.3608 42.2415 34.1313 42.0669 33.9565L40.7693 32.6594L43.092 30.3368L44.3903 31.6347C44.565 31.8091 44.7944 31.918 45.0399 31.9432C45.2855 31.9683 45.5322 31.9081 45.7386 31.7727C47.03 30.9263 48.4696 30.3299 49.9819 30.0161C50.2237 29.9658 50.4409 29.8338 50.5968 29.6422C50.7526 29.4506 50.8377 29.2112 50.8377 28.9642L50.8381 27.1291ZM52.4811 33.4722C47.7583 33.4722 43.9068 37.3229 43.9068 42.0445C43.9068 46.7665 47.7583 50.6169 52.4811 50.6169C57.2035 50.6169 61.0551 46.7665 61.0551 42.0445C61.0551 37.3229 57.2035 33.4722 52.4811 33.4722ZM52.4811 35.6207C56.0428 35.6207 58.9071 38.4841 58.9071 42.0445C58.9071 45.605 56.0428 48.4688 52.4811 48.4688C48.919 48.4688 46.0548 45.605 46.0548 42.0445C46.0548 38.4841 48.919 35.6207 52.4811 35.6207Z" fill="#4A83E7"/>
</svg>
