<svg width="180" height="346" viewBox="0 0 180 346" fill="none" xmlns="http://www.w3.org/2000/svg">
<path d="M74.5483 236.215C68.4238 235.569 65.2952 228.536 68.9167 223.555L176.275 75.8943C179.897 70.9133 187.552 71.7206 190.055 77.3474L264.254 244.153C266.757 249.78 262.23 256.006 256.105 255.36L74.5483 236.215Z" fill="url(#paint0_linear_2347_435)" fill-opacity="0.33"/>
<path d="M63.9555 211.375C57.831 210.729 54.7024 203.696 58.3239 198.715L165.683 51.0545C169.304 46.0735 176.96 46.8808 179.463 52.5076L253.661 219.313C256.164 224.94 251.637 231.166 245.512 230.52L63.9555 211.375Z" fill="url(#paint1_linear_2347_435)" fill-opacity="0.22"/>
<defs>
<linearGradient id="paint0_linear_2347_435" x1="49.8717" y1="251.541" x2="230.288" y2="179.301" gradientUnits="userSpaceOnUse">
<stop stop-color="#8C83C0"/>
<stop offset="1" stop-color="#4A83E7"/>
</linearGradient>
<linearGradient id="paint1_linear_2347_435" x1="-43.4108" y1="281.844" x2="219.695" y2="154.462" gradientUnits="userSpaceOnUse">
<stop stop-color="#BA27BD"/>
<stop offset="1" stop-color="#4A83E7"/>
</linearGradient>
</defs>
</svg>
