<svg width="154" height="330" viewBox="0 0 154 330" fill="none" xmlns="http://www.w3.org/2000/svg">
<path d="M50.4801 143.796C46.5062 139.091 49.1155 131.849 55.1769 130.76L234.863 98.4736C240.924 97.3845 245.892 103.265 243.804 109.059L181.922 280.815C179.834 286.609 172.258 287.97 168.284 283.265L50.4801 143.796Z" fill="url(#paint0_linear_2344_426)" fill-opacity="0.22"/>
<path d="M56.0811 110.444C52.1072 105.739 54.7166 98.4971 60.7779 97.408L240.464 65.1218C246.525 64.0327 251.493 69.9136 249.405 75.7074L187.523 247.463C185.435 253.257 177.859 254.618 173.885 249.914L56.0811 110.444Z" fill="url(#paint1_linear_2344_426)" fill-opacity="0.22"/>
<defs>
<linearGradient id="paint0_linear_2344_426" x1="-78.6007" y1="104.876" x2="202.286" y2="210.496" gradientUnits="userSpaceOnUse">
<stop stop-color="#4A83E7"/>
<stop offset="1" stop-color="#4A83E7"/>
</linearGradient>
<linearGradient id="paint1_linear_2344_426" x1="-73.0002" y1="71.5247" x2="207.886" y2="177.145" gradientUnits="userSpaceOnUse">
<stop stop-color="#4A83E7"/>
<stop offset="1" stop-color="#4A83E7"/>
</linearGradient>
</defs>
</svg>
