<svg width="41" height="41" viewBox="0 0 41 41" fill="none" xmlns="http://www.w3.org/2000/svg">
<g clip-path="url(#clip0_1410_5026)">
<path d="M7.61088 27.8327L9.40015 40.1136H31.5997L33.389 27.8327H7.61088ZM20.4999 35.0336C19.5794 35.0336 18.8332 34.5431 18.8332 33.9381C18.8332 33.3332 19.5794 32.8427 20.4999 32.8427C21.4205 32.8427 22.1667 33.3331 22.1667 33.9381C22.1667 34.5432 21.4205 35.0336 20.4999 35.0336ZM37.3668 37.8852H33.1982L34.8466 26.5719H6.1533L7.80163 37.8852H3.63308C1.25508 37.8852 -0.3468 35.4516 0.593638 33.2673L6.48883 19.5757C7.63379 16.9163 10.2514 15.1935 13.1467 15.1935H15.4667L19.1319 20.6485L19.879 17.0844L18.6284 15.1935H22.3906L21.1398 17.0844L21.8853 20.6236L25.5336 15.1935H27.8537C30.749 15.1935 33.3666 16.9163 34.5115 19.5757L40.4066 33.2673C41.3467 35.4515 39.745 37.8852 37.3668 37.8852ZM20.4999 0.885742C24.1028 0.885742 27.0236 3.80651 27.0236 7.40939C27.0236 11.0123 24.1028 13.9329 20.4999 13.9329C16.8971 13.9329 13.9763 11.0121 13.9763 7.40923C13.9763 3.80635 16.8971 0.885742 20.4999 0.885742Z" fill="url(#paint0_linear_1410_5026)"/>
</g>
<defs>
<linearGradient id="paint0_linear_1410_5026" x1="9" y1="11.4996" x2="38.5" y2="36.9996" gradientUnits="userSpaceOnUse">
<stop stop-color="#4A83E7"/>
<stop offset="1" stop-color="#5D7CE7"/>
</linearGradient>
<clipPath id="clip0_1410_5026">
<rect width="41" height="41" fill="white"/>
</clipPath>
</defs>
</svg>
