<svg width="154" height="291" viewBox="0 0 154 291" fill="none" xmlns="http://www.w3.org/2000/svg">
<path d="M122.773 107.246C128.455 109.623 129.433 117.258 124.534 120.99L-20.6901 231.622C-25.589 235.354 -32.6907 232.383 -33.4732 226.275L-56.6712 45.1911C-57.4537 39.0827 -51.3302 34.4177 -45.6488 36.7943L122.773 107.246Z" fill="url(#paint0_linear_2349_509)" fill-opacity="0.22"/>
<path d="M125.791 134.08C131.472 136.457 132.45 144.092 127.552 147.824L-17.6726 258.456C-22.5714 262.188 -29.6731 259.217 -30.4556 253.109L-53.6536 72.0251C-54.4361 65.9166 -48.3126 61.2517 -42.6312 63.6283L125.791 134.08Z" fill="url(#paint1_linear_2349_509)" fill-opacity="0.22"/>
<defs>
<linearGradient id="paint0_linear_2349_509" x1="150.81" y1="99.648" x2="-42.7487" y2="117.063" gradientUnits="userSpaceOnUse">
<stop stop-color="#8C83C0"/>
<stop offset="1" stop-color="#4A83E7"/>
</linearGradient>
<linearGradient id="paint1_linear_2349_509" x1="248.866" y1="97.3935" x2="-39.7311" y2="143.897" gradientUnits="userSpaceOnUse">
<stop stop-color="#2736BD"/>
<stop offset="1" stop-color="#4A83E7"/>
</linearGradient>
</defs>
</svg>
