<svg width="635" height="637" viewBox="0 0 635 637" fill="none" xmlns="http://www.w3.org/2000/svg">
<path fill-rule="evenodd" clip-rule="evenodd" d="M162.942 181.121C198.191 141.21 232.374 97.6028 284.608 87.2561C345.57 75.1804 414.725 80.1639 460.521 122.175C506.723 164.56 511.177 232.993 511.816 295.688C512.441 356.947 508.15 423.4 464.024 465.895C421.103 507.23 355.766 502.122 296.19 503.348C237.273 504.559 171.602 513.397 128.898 472.788C86.2501 432.232 83.3373 365.882 90.1604 307.425C96.0167 257.252 129.504 218.983 162.942 181.121Z" fill="url(#paint0_linear_1544_5181)"/>
<path d="M394.226 368.405C395.98 353.226 396.246 330.762 385.801 308.126C372.1 278.444 352.035 274.543 318.654 232.906C297.552 206.567 283.081 187.978 287.945 167.398C291.758 151.264 306.974 135.845 322.893 134.373C336.129 133.152 351.397 141.418 360.327 148.995C367.609 155.165 371.051 161.189 378.399 161.467C385.907 161.759 388.631 155.709 395.01 155.231C407.953 154.249 419.593 177.403 421.467 181.145C442.383 222.768 430.224 273.017 424.656 294.87C420.072 312.942 411.448 339.121 394.226 368.405Z" fill="url(#paint1_linear_1544_5181)"/>
<mask id="mask0_1544_5181" style="mask-type:luminance" maskUnits="userSpaceOnUse" x="287" y="134" width="147" height="235">
<path d="M394.226 368.405C395.98 353.226 396.246 330.762 385.801 308.126C372.1 278.444 352.035 274.543 318.654 232.906C297.552 206.567 283.081 187.978 287.945 167.398C291.758 151.264 306.974 135.845 322.893 134.373C336.129 133.152 351.397 141.418 360.327 148.995C367.609 155.165 371.051 161.189 378.399 161.467C385.907 161.759 388.631 155.709 395.01 155.231C407.953 154.249 419.593 177.403 421.467 181.145C442.383 222.768 430.224 273.017 424.656 294.87C420.072 312.942 411.448 339.121 394.226 368.405Z" fill="white"/>
</mask>
<g mask="url(#mask0_1544_5181)">
<g opacity="0.5">
<path d="M389.8 382.961L389.176 382.616C399.222 364.491 406.291 347.043 410.172 330.736C415.912 306.679 414.504 285.834 405.986 268.758C399.315 255.383 388.644 244.728 373.868 229.987C362.081 218.217 352.659 210.933 344.341 204.511C333.484 196.125 324.913 189.504 316.196 176.766C307.345 163.842 301.259 148.703 298.097 131.759L298.801 131.626C301.937 148.464 307.983 163.524 316.78 176.355C325.444 189 333.976 195.594 344.779 203.94C353.111 210.376 362.546 217.673 374.372 229.469C388.631 243.706 399.9 254.958 406.624 268.426C415.208 285.649 416.643 306.666 410.863 330.895C406.969 347.268 399.886 364.783 389.8 382.961Z" fill="white"/>
<path d="M365.656 221.415L365.27 221.535C365.151 221.574 353.576 224.958 337.816 223.419C328.568 222.517 319.691 220.115 311.465 216.28C301.18 211.49 291.851 204.431 283.759 195.329L284.29 194.851C292.317 203.887 301.565 210.88 311.771 215.63C319.93 219.425 328.727 221.813 337.896 222.716C351.902 224.082 362.546 221.535 364.686 220.977C352.168 192.184 352.314 167.385 354.653 151.622C357.204 134.466 362.838 123.997 362.892 123.904L363.516 124.249C363.463 124.355 357.882 134.718 355.357 151.768C353.032 167.491 352.899 192.291 365.509 221.07L365.656 221.415Z" fill="white"/>
<path d="M397.282 253.181C397.15 253.406 397.003 253.618 396.857 253.831L396.711 254.043L396.459 253.977C396.273 253.924 377.642 248.828 357.949 247.369C338.348 245.923 310.19 263.45 309.911 263.623L309.525 263.013C309.804 262.84 338.162 245.18 358.002 246.652C376.513 248.019 394.093 252.597 396.392 253.207C406.571 237.484 404.804 206.82 401.508 183.825C397.907 158.734 391.781 137.093 391.715 136.881L392.406 136.682C392.472 136.894 398.611 158.588 402.212 183.719C404.325 198.487 405.162 211.543 404.697 222.517C404.153 235.865 401.654 246.175 397.282 253.181Z" fill="white"/>
<path d="M433.201 296.304C422.65 313.195 413.108 323.491 413.015 323.597L412.524 324.115L412.391 323.412C410.65 313.858 406.318 305.99 399.528 300.032C394.079 295.256 387.037 291.686 378.598 289.417C364.207 285.543 350.573 286.817 350.427 286.83L350.36 286.113C350.493 286.1 364.26 284.813 378.784 288.727C387.329 291.023 394.465 294.658 400.006 299.502C406.757 305.419 411.129 313.182 412.976 322.589C415.248 320.055 425.201 308.591 435.407 291.328C446.064 273.296 459.18 245.087 461.133 213.056L464.92 150.906L465.638 150.946L461.824 213.096C459.857 245.273 446.688 273.601 435.991 291.7C435.061 293.279 434.118 294.818 433.201 296.304Z" fill="white"/>
</g>
</g>
<path d="M398.89 351.528C418.796 343.248 442.689 329.568 461.106 307.17C465.811 301.452 494.859 266.13 481.145 248.815C476.308 242.711 470.262 243.998 463.671 235.944C455.871 226.404 459.379 218.483 457.213 203.383C455.924 194.374 452.137 167.995 433.373 160.472C422.158 155.974 406.119 158.402 396.564 165.846C382.558 176.753 385.296 196.284 390.478 229.31C395.063 258.594 400.126 264.1 403.076 285.211C405.255 300.855 406.052 323.358 398.89 351.528Z" fill="url(#paint2_linear_1544_5181)"/>
<mask id="mask1_1544_5181" style="mask-type:luminance" maskUnits="userSpaceOnUse" x="386" y="158" width="99" height="194">
<path d="M398.89 351.528C418.796 343.248 442.689 329.568 461.106 307.17C465.811 301.452 494.859 266.13 481.145 248.815C476.308 242.711 470.262 243.998 463.671 235.944C455.871 226.404 459.379 218.483 457.213 203.383C455.924 194.374 452.137 167.995 433.373 160.472C422.158 155.974 406.119 158.402 396.564 165.846C382.558 176.753 385.296 196.284 390.478 229.31C395.063 258.594 400.126 264.1 403.076 285.211C405.255 300.855 406.052 323.358 398.89 351.528Z" fill="white"/>
</mask>
<g mask="url(#mask1_1544_5181)">
<g opacity="0.5">
<path d="M405.481 341.364C398.797 352.058 390.625 361.254 380.977 368.91C363.45 382.802 341.936 391.281 317.006 394.12L316.927 393.403C341.71 390.577 363.117 382.138 380.539 368.339C403.74 349.949 418.384 322.522 424.058 286.816C429.958 249.637 424.656 212.804 419.168 188.442C415.368 171.565 406.531 154.833 392.923 138.711L393.468 138.247C407.155 154.448 416.032 171.286 419.859 188.27C425.361 212.684 430.676 249.611 424.749 286.909C421.414 307.993 414.956 326.184 405.481 341.364Z" fill="white"/>
<path d="M426.676 238.187L426.37 238.014C426.277 237.961 417.055 232.667 406.969 222.874C397.654 213.839 385.668 199.004 381.455 179.685L382.159 179.539C386.332 198.686 398.225 213.387 407.461 222.357C416.457 231.088 424.736 236.223 426.423 237.218C454.077 189.013 437.054 154.488 431.167 145.04C430.994 144.775 430.928 144.656 430.901 144.589L431.553 144.284C431.566 144.324 431.672 144.483 431.778 144.656C437.732 154.209 454.98 189.159 426.875 237.881L426.676 238.187Z" fill="white"/>
<path d="M474.076 254.666C473.837 255.051 473.585 255.436 473.332 255.821C469.014 262.375 463.299 268.147 456.323 272.977C447.619 279.014 436.935 283.605 424.577 286.604L424.391 286.644L424.245 286.511C424.005 286.299 399.82 264.22 384.818 226.603L369.669 188.628L370.333 188.363L385.482 226.338C399.834 262.309 422.597 284.003 424.59 285.848C439.912 282.093 460.629 273.773 472.734 255.409C479.99 244.41 480.694 234.883 480.694 234.79L481.412 234.843C481.412 234.962 480.747 243.998 474.076 254.666Z" fill="white"/>
</g>
</g>
<path d="M333.139 430.317C328.01 428.619 324.169 424.267 323.08 418.919L315.611 381.979L251.667 384.248L243.801 422.728C242.698 428.115 247.109 433.528 252.186 435.505L278.935 445.961C283.905 447.911 289.26 448.681 294.576 448.23L351.105 443.4C352.753 443.254 354.081 441.967 354.281 440.295C354.467 438.637 355.636 436.766 354.055 436.235L333.139 430.317Z" fill="#97A6B7"/>
<path d="M333.777 428.061C328.647 426.376 324.807 422.091 323.73 416.796L316.262 380.321L253.886 382.563L246.019 420.565C244.917 425.885 247.827 431.219 252.903 433.183L279.626 443.506C284.596 445.43 289.938 446.186 295.253 445.735L351.729 440.972C353.377 440.826 354.706 439.552 354.892 437.907C355.078 436.261 354.095 434.709 352.513 434.192L333.777 428.061Z" fill="url(#paint3_linear_1544_5181)"/>
<path d="M121.015 406.527C114.078 406.938 108.404 402.453 108.404 396.509V182.565C108.404 176.634 114.078 172.043 121.015 172.348L443.074 194.613C448.164 194.838 450.901 190.725 450.901 195.78V377.734C450.901 382.776 446.782 387.141 441.692 387.433L121.015 406.527Z" fill="#97A6B7"/>
<path d="M123.899 406.527C116.962 406.938 111.288 402.453 111.288 396.509V182.565C111.288 176.634 116.962 172.043 123.899 172.348L444.563 186.227C449.652 186.452 453.772 190.738 453.772 195.78V377.734C453.772 382.776 449.652 387.141 444.563 387.433L123.899 406.527Z" fill="white"/>
<path opacity="0.3" d="M444.563 190.499L123.899 177.337C120.191 177.191 117.175 179.632 117.175 182.803V349.193V396.19C117.175 399.361 120.191 401.763 123.899 401.537L444.563 383.147C447.287 382.988 449.493 380.666 449.493 377.959V336.362V195.608C449.493 192.901 447.287 190.619 444.563 190.499Z" fill="#D8DEE8"/>
<path d="M442.184 367.755L127.38 383.267C124.071 383.426 121.387 381.25 121.387 378.397V185.603C121.387 182.75 124.071 180.535 127.38 180.654L442.184 192.317C444.655 192.41 446.648 194.48 446.648 196.935V363.085C446.648 365.54 444.655 367.636 442.184 367.755Z" fill="#D8DEE8"/>
<path opacity="0.6" d="M411.089 374.191C341.285 375.65 325.591 385.602 305.752 373.673C278.497 357.287 290.908 328.135 264.358 312.85C230.977 293.623 192.481 328.825 175.059 311.669C157.705 294.579 190.487 254.348 171.511 209.513C163.897 191.521 150.928 179.831 141.971 173.131L123.899 172.348C116.962 172.043 111.288 176.634 111.288 182.565V396.509C111.288 402.44 116.962 406.938 123.899 406.527L444.563 387.433C449.652 387.128 453.772 382.776 453.772 377.734V374.496C444.164 374.151 429.281 373.806 411.089 374.191Z" fill="white"/>
<path d="M362.613 330.258C362.121 334.597 361.005 339.851 358.786 345.902C354.308 358.149 338.268 360.325 327.664 360.338C322.003 360.352 317.897 359.754 317.897 359.754C317.897 359.754 317.897 359.754 316.568 355.057C317.047 354.58 336.833 350.48 343.066 334.066C349.298 317.653 361.948 316.034 361.948 316.034C361.948 316.034 363.649 321.129 362.613 330.258Z" fill="url(#paint4_linear_1544_5181)"/>
<path opacity="0.3" d="M362.613 330.258C362.121 334.597 360.938 339.851 358.732 345.902C354.254 358.149 338.162 360.325 327.558 360.338V360.232C327.558 360.232 341.736 358.547 344.142 352.403C346.547 346.26 346.587 343.726 352.5 340.966C356.168 339.241 359.968 333.058 362.613 330.258Z" fill="url(#paint5_linear_1544_5181)"/>
<path d="M376.38 462.44C376.925 462.878 377.018 463.98 377.084 464.696C377.111 465.015 377.124 465.174 377.097 465.293C376.832 466.116 375.237 466.209 372.726 466.461C368.752 466.872 367.57 467.177 367.264 466.594C366.972 466.036 367.676 465.134 367.756 465.041C368.181 464.51 368.699 464.311 369.722 463.98C371.596 463.369 372.858 463.024 373.244 462.931C375.622 462.268 376.021 462.149 376.38 462.44Z" fill="url(#paint6_linear_1544_5181)"/>
<path d="M374.015 458.818L373.616 463.329C373.723 463.542 375.078 464.205 376.141 463.634L377.164 459.189L374.015 458.818Z" fill="url(#paint7_linear_1544_5181)"/>
<path d="M344.899 461.856C345.551 462.573 345.697 463.887 345.125 464.537C344.567 465.174 343.743 464.696 341.378 464.762C338.853 464.842 338.189 465.439 336.461 464.961C335.77 464.776 334.534 464.298 334.561 463.807C334.574 463.462 335.199 463.276 337.285 462.586C340.248 461.591 340.235 461.538 340.86 461.432C342.454 461.18 344.036 460.914 344.899 461.856Z" fill="url(#paint8_linear_1544_5181)"/>
<path d="M343.279 457.73L342.003 461.949C342.096 462.175 343.385 462.931 344.501 462.454L346.388 458.367L343.279 457.73Z" fill="url(#paint9_linear_1544_5181)"/>
<path d="M354.56 365.38C354.374 379.551 353.404 395.487 351.092 412.802C348.793 429.919 345.577 445.377 342.069 458.964C343.691 459.402 345.312 459.84 346.933 460.264C351.039 456.443 356.222 450.419 358.733 441.9C360.288 436.619 359.77 433.899 360.753 427.411C362.321 417.061 365.497 411.648 368.779 403.302C371.729 395.805 375.211 384.805 377.084 370.09C369.563 368.525 362.055 366.946 354.56 365.38Z" fill="#26264F"/>
<path d="M369.178 364.027C370.174 382.045 370.985 400.409 371.596 419.092C372.061 433.117 372.407 446.956 372.633 460.623C374.294 460.822 375.942 461.034 377.603 461.233C379.197 458.261 381.323 453.723 382.785 447.898C384.552 440.826 384.141 436.619 384.911 429.295C385.775 421.069 387.037 419.277 389.283 408.915C393.828 387.857 396.1 377.335 391.024 370.794C389.376 368.644 384.22 363.31 369.178 364.027Z" fill="#26264F"/>
<path d="M393.296 318.728C389.415 317.64 383.741 316.366 376.791 315.981C366.878 315.424 361.908 315.145 358.4 317.494C350.281 322.947 356.566 335.512 353.244 366.681C352.766 371.126 352.66 375.61 352.314 380.082C351.743 387.473 351.61 387.871 352.128 388.627C355.357 393.324 367.41 386.239 385.057 389.038C394.943 390.604 399.422 394.213 402.119 391.612C405.282 388.574 402.571 380.414 400.232 373.381C397.561 365.314 395.9 365.208 394.385 359.131C392.804 352.775 393.761 349.511 394 339.493C394.133 334.703 394.106 327.565 393.296 318.728Z" fill="url(#paint10_linear_1544_5181)"/>
<g opacity="0.3">
<path d="M369.284 377.242C373.895 376.884 376.898 379.485 380.871 377.455C386.333 374.668 388.087 366.004 387.742 359.874C387.21 350.559 381.881 348.104 382.798 342.08C383.29 338.83 385.629 334.504 393.987 330.085C394.093 333.801 394.08 336.972 394.014 339.493C393.761 349.511 392.804 352.775 394.399 359.131C395.914 365.208 397.575 365.314 400.246 373.381C402.572 380.414 405.282 388.574 402.133 391.612C399.422 394.213 394.944 390.604 385.071 389.038C369.855 386.623 358.813 391.546 353.976 389.954C359.809 380.307 365.111 377.574 369.284 377.242Z" fill="url(#paint11_linear_1544_5181)"/>
</g>
<path d="M386.997 319.364C390.293 316.658 396.924 319.723 398.691 320.545C408.565 325.11 417.441 337.41 415.249 350.4C414.916 352.35 413.388 361.466 405.654 365.884C398.678 369.865 389.256 368.843 381.709 363.204C380.672 362.289 379.649 361.373 378.612 360.457C377.602 359.356 376.579 358.268 375.569 357.167C377.164 355.84 379.875 353.929 383.675 352.709C388.698 351.09 392.353 353.996 394.678 351.793C396.286 350.267 396.286 347.587 395.887 345.955C395.09 342.677 392.193 341.749 389.775 339.413C384.101 333.933 383.051 322.602 386.997 319.364Z" fill="url(#paint12_linear_1544_5181)"/>
<path d="M378.572 359.688C378.838 359.621 377.256 356.464 376.007 356.822C374.758 357.193 368.646 360.723 368.087 362.182C367.529 363.642 367.529 363.642 367.529 363.642C367.529 363.642 370.2 363.854 371.848 363.297C373.496 362.74 376.366 360.179 378.572 359.688Z" fill="url(#paint13_linear_1544_5181)"/>
<path d="M376.047 305.154C376.021 308.086 376.353 310.421 376.658 312.014C377.017 313.845 377.27 314.309 377.602 314.694C378.094 315.265 378.838 315.755 383.05 316.804C385.349 317.374 385.641 317.361 385.695 317.587C385.947 318.701 379.688 322.469 373.23 321.567C369.27 321.01 365.682 318.754 365.895 317.573C366.121 316.379 370.067 317.016 371.25 314.866C372.074 313.367 371.157 311.244 370.067 309.479C371.104 307.502 374.997 307.118 376.047 305.154Z" fill="url(#paint14_linear_1544_5181)"/>
<path d="M378.811 303.19C378.106 301.717 376.751 300.748 374.824 300.324C374.824 300.324 374.864 300.324 374.851 300.324C374.691 300.284 374.572 300.244 374.412 300.218C373.323 299.966 370.758 299.249 370.293 298.161C369.695 296.781 363.183 304.61 368.791 306.706C368.964 306.772 369.137 306.826 369.296 306.879C370.054 307.396 370.944 307.37 371.98 308.643C372.632 309.439 373.07 310.408 373.176 310.66C373.455 311.297 373.628 311.894 373.748 312.372C375.249 310.753 376.166 309.784 376.751 309.174C377.176 308.736 377.601 308.537 377.854 307.953C378.067 307.423 379.462 304.57 378.811 303.19Z" fill="#26264F"/>
<path d="M375.887 310.992C375.887 310.992 374.226 313.712 370.917 313.5C367.954 313.301 367.528 306.679 369.415 305.273C370.04 304.809 371.316 304.61 372.339 304.901C372.95 305.074 373.149 305.326 374.146 305.578C375.063 305.817 375.329 305.711 375.608 305.95C375.953 306.242 376.206 306.958 375.634 308.895C376.206 308.325 376.884 308.099 377.362 308.338C377.442 308.378 377.641 308.511 377.761 308.723C378.146 309.466 377.455 310.434 375.887 310.992Z" fill="url(#paint15_linear_1544_5181)"/>
<path d="M243.88 463.98C256.085 463.98 265.979 459.946 265.979 454.97C265.979 449.995 256.085 445.961 243.88 445.961C231.675 445.961 221.781 449.995 221.781 454.97C221.781 459.946 231.675 463.98 243.88 463.98Z" fill="#B7C0CE"/>
<path d="M221.768 453.909C221.768 458.606 231.667 462.414 243.866 462.414C256.065 462.414 265.965 458.606 265.965 453.909C265.965 449.212 256.065 441.529 243.866 441.529C231.667 441.529 221.768 449.212 221.768 453.909Z" fill="#97A6B7"/>
<path opacity="0.3" d="M221.768 453.909C221.768 449.212 231.667 441.529 243.866 441.529C249.501 441.529 254.643 443.175 258.55 445.39C258.829 445.961 258.949 446.532 258.896 447.076C258.643 449.716 254.324 451.335 251.853 451.879C245.62 453.232 242.564 449.504 237.421 449.65C234.245 449.743 229.834 451.335 224.611 458.089C222.817 456.841 221.768 455.422 221.768 453.909Z" fill="#97A6B7"/>
<path d="M242.657 447.421C243.534 447.646 244.358 447.633 245.142 447.434C245.847 447.261 246.325 446.611 246.325 445.881V424.705H241.408V445.842C241.421 446.598 241.94 447.235 242.657 447.421Z" fill="#97A6B7"/>
<path d="M269.832 418.521L262.324 413.784C262.019 412.02 261.912 349.577 247.547 343.766C244.597 342.571 240.491 337.874 235.641 335.327C234.538 334.743 233.395 334.279 232.266 333.907C231.415 333.535 230.498 333.151 229.475 332.779C228.213 332.315 221.675 332.952 220.705 333.535C217.821 334.066 215.084 338.724 212.971 343.142C211.257 346.181 209.901 349.02 209.011 350.267C206.739 353.425 212.027 378.37 214.393 395.766C214.645 397.981 214.818 399.773 214.858 400.967C215.084 406.579 214.433 409.724 215.004 412.67C214.565 415.615 214.167 417.486 215.217 419.968C216.851 423.869 220.625 426.031 223.562 427.239C227.07 429.282 233.196 432.175 241.275 432.891C254.883 434.085 265.048 428.247 268.543 426.018C270.098 425.527 271.267 424.24 271.6 422.648C271.932 421.056 271.241 419.397 269.832 418.521Z" fill="url(#paint16_linear_1544_5181)"/>
<path d="M223.375 334.531C218.326 335.194 213.715 348.755 212.04 351.687C210.552 354.301 217.023 393.51 217.369 402.002C217.688 409.738 216.319 412.803 218.817 417.088C218.817 417.088 220.093 419.264 222.1 420.91C229.196 426.695 247.521 426.629 255.228 414.554C261.38 404.921 252.862 347.335 245.634 342.638C242.856 340.833 241.355 337.251 232 333.814C229.528 332.899 227.734 333.96 223.375 334.531Z" fill="url(#paint17_linear_1544_5181)"/>
<path d="M270.39 414.262L262.882 409.525C262.882 409.525 242.777 402.931 224.173 412.232C222.087 413.28 220.798 415.43 220.798 417.752C220.798 419.543 221.874 421.149 223.522 421.839C226.764 424.054 233.103 427.703 241.833 428.659C255.72 430.185 266.045 423.829 269.101 421.785C270.656 421.295 271.826 420.007 272.158 418.415C272.49 416.796 271.786 415.151 270.39 414.262Z" fill="url(#paint18_linear_1544_5181)"/>
<path d="M224.346 340.542C222.964 338.91 217.37 352.311 217.37 352.311C217.21 353.943 225.329 351.249 226.299 350.759C227.269 350.268 225.728 342.174 224.346 340.542Z" fill="url(#paint19_linear_1544_5181)"/>
<path d="M231.668 338.843C232.399 336.84 242.272 347.494 242.272 347.494C242.989 348.967 234.432 349.233 233.355 349.113C232.279 348.98 230.924 340.847 231.668 338.843Z" fill="url(#paint20_linear_1544_5181)"/>
<path d="M303.108 473.095L296.703 469.248H293.806C293.806 469.248 292.823 472.91 292.929 473.095C294.218 475.205 300.224 476.811 303.958 476.943C304.583 476.97 305.447 476.97 305.673 476.519C306.058 475.749 304.357 474.157 303.108 473.095Z" fill="url(#paint21_linear_1544_5181)"/>
<path d="M296.583 465.055C296.569 467.297 296.663 468.876 297.234 469.566C297.633 470.057 293.832 471.158 293.805 469.248C293.792 467.987 293.593 465.838 293.394 465.201C294.457 465.148 295.52 465.094 296.583 465.055Z" fill="url(#paint22_linear_1544_5181)"/>
<path d="M279.268 478.496L272.863 474.648H269.966C269.966 474.648 268.983 478.31 269.089 478.496C270.378 480.606 276.384 482.211 280.119 482.344C280.743 482.37 281.607 482.37 281.833 481.919C282.218 481.163 280.53 479.557 279.268 478.496Z" fill="url(#paint23_linear_1544_5181)"/>
<path d="M272.743 470.455C272.73 472.697 272.823 474.276 273.394 474.966C273.793 475.457 269.992 476.559 269.966 474.648C269.952 473.387 269.753 471.238 269.554 470.601C270.617 470.548 271.68 470.508 272.743 470.455Z" fill="url(#paint24_linear_1544_5181)"/>
<path d="M296.849 466.912C298.656 455.979 296.889 444.316 296.477 438.04C295.825 428.062 295.493 423.059 292.596 418.867C288.809 413.373 281.062 407.88 274.497 403.236C273.926 402.838 272.797 402.042 271.375 400.781C267.853 397.65 265.608 394.346 264.265 392.024C249.435 387.685 235.748 389.437 229.715 397.385C229.024 398.3 227.27 400.29 226.938 403.223C226.181 409.844 232.692 417.818 240.014 419.49C249.316 421.613 254.698 412.073 262.937 415.244C263.76 415.563 266.179 418.004 271.096 422.728C274.67 426.164 276.451 427.876 277.022 428.553C282.285 434.869 285.421 444.581 285.793 452.105C285.859 453.445 285.912 456.231 287.533 459.23C288.769 461.525 292.158 465.692 293.394 466.634C294.55 466.74 295.693 466.819 296.849 466.912Z" fill="url(#paint25_linear_1544_5181)"/>
<path d="M269.089 472.299C269.089 472.299 272.265 473.799 274.617 472.299C274.537 468.332 274.537 462.136 275.042 454.546C276.158 437.947 278.51 432.931 276.411 425.846C274.909 420.724 270.856 413.758 258.91 407.243L228.572 404.271C228.572 404.271 227.137 406.593 227.496 409.817C228.134 415.709 234.911 419.318 240.585 422.277C251.787 428.102 254.153 425.421 257.794 429.349C262.724 434.656 259.654 440.906 262.352 454.042C263.986 461.99 266.843 468.199 269.089 472.299Z" fill="url(#paint26_linear_1544_5181)"/>
<path d="M273.023 395.102C277.182 394.744 283.467 375.107 274.75 362.435C268.332 353.094 254.937 349.246 252.598 352.072C251.243 353.718 254.034 357.101 259.189 366.8C269.78 386.73 270.219 395.355 273.023 395.102Z" fill="url(#paint27_linear_1544_5181)"/>
<path d="M226.885 352.987C230.632 351.793 236.333 350.387 243.336 350.294C251.176 350.201 257.448 350.121 261.767 353.425C272.198 361.4 260.518 381.077 266.511 395.368C267.162 396.933 269.076 401.882 267.415 407.323C267.109 408.331 266.484 409.207 265.408 410.706C259.069 419.49 241.143 420.817 232.851 413.585C228.453 409.751 224.493 410.6 224.387 406.062C223.975 388.163 227.058 370.223 226.885 352.987Z" fill="url(#paint28_linear_1544_5181)"/>
<path d="M234.778 375.69C233.263 371.988 234.831 367.676 231.47 365.872C230.234 365.208 227.204 363.337 227.018 365.009C225.795 376.022 224.692 387.38 225.051 401.1C225.171 405.638 228.612 409.764 233.463 413.586C239.071 417.991 248.705 419.172 256.904 417.394C246.14 411.728 238.419 405.704 239.536 400.317C240.825 394.041 253.382 391.878 252.891 387.46C252.359 382.776 238.074 383.784 234.778 375.69Z" fill="url(#paint29_linear_1544_5181)"/>
<path d="M244.067 340.542C244.093 343.182 243.761 345.292 243.455 346.725C243.096 348.37 242.844 348.808 242.525 349.153C242.033 349.684 241.303 350.121 237.103 351.117C234.818 351.661 234.525 351.647 234.472 351.846C234.22 352.855 240.452 356.185 246.857 355.27C250.764 354.712 254.312 352.643 254.086 351.581C253.873 350.52 249.967 351.13 248.811 349.219C248 347.879 248.904 345.955 249.98 344.363C248.957 342.611 245.116 342.306 244.067 340.542Z" fill="url(#paint30_linear_1544_5181)"/>
<path d="M252.265 343.832C253.461 342.956 254.059 341.086 253.368 339.666C252.783 338.445 251.428 337.981 250.617 337.702C248.278 336.893 244.956 337.118 243.322 338.896C242.352 339.958 242.99 342.771 243.083 343.262C243.176 343.819 243.561 344.098 243.867 344.575C244.279 345.239 244.916 346.287 245.94 348.025C246.166 347.627 246.485 347.149 246.923 346.658C247.083 346.473 247.747 345.716 248.571 345.159C250.232 344.031 251.135 344.655 252.265 343.832Z" fill="url(#paint31_linear_1544_5181)"/>
<path d="M244.239 346.353C244.239 346.353 245.156 349.086 248.372 349.617C251.242 350.082 253.315 344.403 251.853 342.757C251.362 342.213 250.206 341.762 249.156 341.789C248.531 341.802 248.279 341.974 247.256 341.988C246.312 342.001 246.086 341.855 245.767 341.988C245.355 342.174 244.943 342.731 245.01 344.562C244.611 343.938 244.013 343.607 243.495 343.699C243.415 343.713 243.189 343.792 243.017 343.951C242.445 344.535 242.87 345.53 244.239 346.353Z" fill="url(#paint32_linear_1544_5181)"/>
<path d="M245.741 341.629C245.847 341.749 245.302 342.12 245.076 342.771C244.651 344.031 245.635 345.889 247.043 346.34C247.88 346.605 248.239 346.194 249.701 346.38C250.604 346.499 251.295 346.764 251.721 346.95C251.761 348.45 250.95 349.75 249.741 350.161C248.438 350.612 247.149 349.869 246.605 349.564C246.246 349.352 245.09 348.702 244.731 347.481C244.359 346.22 245.223 345.716 244.651 344.787C244.359 344.323 243.881 344.044 243.575 343.195C243.495 342.97 243.455 342.771 243.429 342.638C244.359 342.107 245.581 341.457 245.741 341.629Z" fill="url(#paint33_linear_1544_5181)"/>
<path d="M250.551 347.242C250.551 347.242 249.86 347.401 248.811 347.096C248.757 347.083 248.704 347.083 248.691 347.109C248.638 347.189 249.196 347.76 249.874 347.733C250.352 347.72 250.804 347.415 250.777 347.308C250.764 347.269 250.658 347.255 250.551 347.242Z" fill="url(#paint34_linear_1544_5181)"/>
<path d="M326.933 473.905C326.92 473.905 326.907 473.905 326.894 473.905C326.601 473.878 326.389 473.639 326.389 473.347V391.307C326.389 391.002 326.641 390.75 326.947 390.75C327.252 390.75 327.505 391.002 327.505 391.307V466.156L338.853 392.992C338.906 392.687 339.185 392.488 339.491 392.528C339.797 392.581 339.996 392.86 339.956 393.165L327.505 473.427C327.438 473.706 327.199 473.905 326.933 473.905Z" fill="#B7C0CE"/>
<path opacity="0.81" d="M188.082 401.63L324.687 391.135L433.228 399.507L295.785 411.051L188.082 401.63Z" fill="#F4F7FA"/>
<path d="M295.785 411.051L188.082 401.63V406.181L295.785 415.602L433.228 404.058V399.507L295.785 411.051Z" fill="#B7C0CE"/>
<path d="M294.854 501.888C294.575 501.888 294.35 501.689 294.31 501.411L282.47 414.116C282.43 413.811 282.642 413.532 282.948 413.493C283.254 413.453 283.533 413.665 283.573 413.97L294.31 493.131V414.05C294.31 413.745 294.562 413.493 294.868 413.493C295.173 413.493 295.426 413.745 295.426 414.05V501.344C295.426 501.636 295.2 501.875 294.908 501.902C294.881 501.888 294.868 501.888 294.854 501.888Z" fill="#B7C0CE"/>
<path d="M431.726 485.846C431.447 485.846 431.221 485.647 431.181 485.369L420.205 405.173C420.165 404.868 420.378 404.589 420.683 404.549C420.989 404.509 421.268 404.722 421.308 405.027L431.181 477.155V401.922C431.181 401.617 431.434 401.365 431.739 401.365C432.045 401.365 432.298 401.617 432.298 401.922V485.289C432.298 485.581 432.072 485.82 431.779 485.846C431.753 485.846 431.739 485.846 431.726 485.846Z" fill="#B7C0CE"/>
<path d="M189.371 485.846C189.357 485.846 189.344 485.846 189.331 485.846C189.038 485.82 188.812 485.581 188.812 485.289V406.181C188.812 405.876 189.065 405.624 189.371 405.624C189.676 405.624 189.929 405.876 189.929 406.181V477.726L200.48 406.102C200.52 405.797 200.812 405.584 201.104 405.637C201.41 405.677 201.623 405.969 201.569 406.261L189.929 485.369C189.889 485.647 189.65 485.846 189.371 485.846Z" fill="#B7C0CE"/>
<path d="M238.06 400.091C238.911 399.149 239.748 398.207 240.598 397.265C234.02 388.64 228.785 384.899 225.091 383.121C222.552 381.9 222.659 381.117 222.552 380.812C221.928 379.021 228.825 371.139 230.632 368.751C233.954 364.359 237.09 356.849 234.645 353.837C232.107 350.705 224.001 353.041 219.709 355.124C215.908 356.968 213.41 359.41 212.094 360.882C208.055 365.42 200.281 377.641 205.251 388.64C209.862 398.857 224.014 404.788 238.06 400.091Z" fill="url(#paint35_linear_1544_5181)"/>
<path d="M256.624 400.012V398.844L306.934 396.137V397.292L271.388 400.781L256.624 400.012Z" fill="url(#paint36_linear_1544_5181)"/>
<path d="M256.624 398.844L272.238 399.043L306.934 396.137L297.234 395.54L256.624 398.844Z" fill="url(#paint37_linear_1544_5181)"/>
<path d="M263.295 394.823L277.447 350.612C277.673 349.909 278.47 349.405 279.374 349.391L341.325 348.25C341.856 348.237 342.773 348.622 343.092 348.954C343.411 349.285 343.85 349.352 343.73 349.776L332.182 388.68C331.996 389.33 331.305 389.834 330.495 389.901L264.438 395.951L263.295 394.823Z" fill="url(#paint38_linear_1544_5181)"/>
<path d="M264.438 395.964L278.789 351.461C279.015 350.771 279.812 350.267 280.703 350.241L342.521 349.06C343.052 349.046 343.544 349.232 343.863 349.564C344.182 349.896 344.301 350.334 344.182 350.771L333.378 389.41C333.192 390.073 332.488 390.591 331.664 390.657L264.438 395.964Z" fill="url(#paint39_linear_1544_5181)"/>
<path opacity="0.3" d="M264.438 395.964L331.664 390.657C332.488 390.591 333.192 390.073 333.378 389.41L336.634 377.747C316.143 384.898 291.798 384.116 267.667 385.933L264.438 395.964Z" fill="url(#paint40_linear_1544_5181)"/>
<path d="M303.944 403.408L301.393 404.284C301.393 404.284 287.985 401.776 287.4 401.365C287.307 401.298 286.988 400.675 287.586 400.569C290.749 400.025 302.296 399.626 302.296 399.626L303.359 399.68L303.944 403.408Z" fill="url(#paint41_linear_1544_5181)"/>
<path d="M304.131 402.625L301.579 403.501C301.579 403.501 288.171 400.98 287.586 400.569C287.002 400.157 302.483 398.844 302.483 398.844L303.546 398.91L304.131 402.625Z" fill="url(#paint42_linear_1544_5181)"/>
<path d="M315.213 371.882C315.213 371.882 321.725 399.826 321.911 401.471C322.083 402.984 306.097 404.456 302.257 404.589C301.938 404.602 301.513 404.377 301.393 404.297C300.33 404.178 305.3 372.293 305.3 372.293L305.659 372.306L315.213 371.882Z" fill="url(#paint43_linear_1544_5181)"/>
<path d="M315.213 371.882C315.213 371.882 322.615 400.118 322.801 401.75C322.987 403.382 303.984 404.629 302.31 404.576C301.247 404.456 305.659 372.306 305.659 372.306L315.213 371.882Z" fill="url(#paint44_linear_1544_5181)"/>
<path d="M240.585 398.844C240.585 398.844 244.81 396.92 247.242 397.092C249.674 397.265 253.102 399.481 253.7 400.794C254.298 402.108 245.448 401.962 245.448 401.962C245.448 401.962 234.924 401.551 240.585 398.844Z" fill="url(#paint45_linear_1544_5181)"/>
<path d="M238.406 396.588C240.758 393.603 246.379 395.42 246.698 395.527C248.04 395.978 249.834 396.906 249.714 397.49C249.595 398.061 247.788 397.769 244.798 398.273C240.426 399.016 238.486 400.622 237.715 399.799C237.117 399.189 237.622 397.57 238.406 396.588Z" fill="url(#paint46_linear_1544_5181)"/>
<path d="M391.835 295.043C388.885 291.354 387.184 287.015 387.184 282.371C387.184 268.877 401.575 257.944 419.315 257.944C437.055 257.944 451.447 268.877 451.447 282.371C451.447 295.866 437.055 306.799 419.315 306.799C412.658 306.799 406.478 305.26 401.362 302.633C397.974 303.217 392.712 304.185 389.934 304.689C389.11 304.835 388.446 304.039 388.738 303.27L391.835 295.043Z" fill="url(#paint47_linear_1544_5181)"/>
<g opacity="0.3">
<path d="M401.735 287.533C408.937 284.508 416.87 290.89 421.813 286.445C426.81 281.96 421.415 273.083 426.199 266.754C428.484 263.742 432.311 262.309 436.697 261.818C445.573 266.17 451.46 273.747 451.46 282.372C451.46 295.866 437.069 306.799 419.329 306.799C412.671 306.799 406.492 305.26 401.376 302.633C398.705 303.084 394.864 303.787 391.994 304.318C394.094 293.371 397.987 289.112 401.735 287.533Z" fill="url(#paint48_linear_1544_5181)"/>
</g>
<path d="M398.014 273.442C398.014 274.118 398.572 274.675 399.25 274.675H438.318C438.995 274.675 439.553 274.118 439.553 273.442C439.553 272.765 438.995 272.208 438.318 272.208H399.25C398.559 272.208 398.014 272.752 398.014 273.442Z" fill="white"/>
<path d="M398.014 280.832C398.014 281.509 398.572 282.066 399.25 282.066H438.318C438.995 282.066 439.553 281.509 439.553 280.832C439.553 280.155 438.995 279.598 438.318 279.598H399.25C398.559 279.598 398.014 280.142 398.014 280.832Z" fill="white"/>
<path d="M416.511 288.223C416.511 288.899 417.069 289.457 417.747 289.457H438.304C438.982 289.457 439.54 288.899 439.54 288.223C439.54 287.546 438.982 286.989 438.304 286.989H417.747C417.069 286.989 416.511 287.533 416.511 288.223Z" fill="white"/>
<path d="M354.082 272.739C354.082 307.449 325.591 336.07 289.593 336.68C252.611 337.304 221.875 308.285 221.875 271.823C221.875 235.361 252.611 206.767 289.593 207.895C325.591 209.022 354.082 238.028 354.082 272.739Z" fill="url(#paint49_linear_1544_5181)"/>
<path d="M334.069 269.567C331.903 255.37 327.146 248.059 323.757 244.37C321.91 242.366 319.306 241.345 316.568 241.305L316.063 241.292C312.063 241.212 308.117 242.008 304.622 243.906L303.386 244.688C299.532 246.772 295.174 247.939 290.722 247.873L289.447 247.846L288.463 247.833C283.985 247.767 279.573 246.36 275.653 244.131L274.391 243.481C270.803 241.438 266.737 240.389 262.591 240.31L262.072 240.297C259.215 240.243 256.491 241.186 254.551 243.176C250.976 246.838 245.927 254.308 243.601 268.93C241.409 282.77 242.033 291.381 242.963 296.237C243.535 299.249 245.621 301.797 248.505 303.084L248.611 303.124C251.853 304.557 255.654 304.172 258.538 302.129L269.939 294.234C274.271 291.155 279.48 289.696 284.809 289.709H289.447H294.363C299.639 289.709 304.755 291.155 308.967 294.181L319.957 301.969C322.694 303.933 326.309 304.225 329.365 302.805L329.458 302.739C332.182 301.478 334.122 298.971 334.667 296.051C335.531 291.341 336.116 282.969 334.069 269.567ZM257.355 265.971C255.149 265.945 253.355 264.207 253.355 262.084C253.355 259.961 255.149 258.249 257.355 258.276C259.561 258.302 261.341 260.04 261.341 262.163C261.341 264.286 259.561 265.985 257.355 265.971ZM265.102 280.952C261.687 280.938 258.91 278.245 258.91 274.954C258.91 271.65 261.687 268.997 265.102 269.023C268.504 269.05 271.268 271.743 271.268 275.021C271.268 278.311 268.504 280.965 265.102 280.952ZM283.507 280.182C282.483 280.182 281.659 279.373 281.659 278.378C281.659 277.382 282.483 276.586 283.507 276.586C284.53 276.586 285.354 277.396 285.354 278.391C285.367 279.386 284.53 280.182 283.507 280.182ZM293.274 280.222C292.264 280.222 291.44 279.413 291.44 278.417C291.44 277.422 292.264 276.626 293.274 276.639C294.284 276.639 295.107 277.449 295.107 278.444C295.107 279.426 294.284 280.222 293.274 280.222ZM325.126 268.665C325.126 269.7 324.262 270.682 323.213 270.669L317.884 270.629V275.498C317.884 276.533 317.113 277.595 316.05 277.595L314.11 277.582C313.047 277.582 312.077 276.507 312.077 275.459V270.576L306.349 270.536C305.286 270.523 304.356 269.527 304.356 268.492V266.502C304.356 265.52 305.233 264.936 306.243 264.936L312.077 264.99V259.762C312.077 258.727 313.007 258.01 314.07 258.023L316.05 258.05C317.1 258.063 317.871 258.78 317.871 259.828V265.056L323.199 265.109C324.249 265.122 325.113 265.759 325.113 266.794V268.665H325.126Z" fill="url(#paint50_linear_1544_5181)"/>
<path d="M358.414 272.738C358.414 297.325 344.116 318.86 322.974 329.555C314.27 333.947 304.423 336.508 293.925 336.693C256.943 337.33 226.207 308.298 226.207 271.836C226.207 247.634 239.761 226.895 259.681 216.015C269.767 210.508 281.487 207.536 293.912 207.921C329.937 209.022 358.414 238.028 358.414 272.738Z" fill="url(#paint51_linear_1544_5181)"/>
<path d="M338.415 269.567C336.249 255.37 331.492 248.059 328.103 244.37C326.256 242.366 323.651 241.345 320.914 241.305L320.409 241.292C316.409 241.225 312.463 242.008 308.968 243.906L307.732 244.688C303.878 246.772 299.52 247.939 295.068 247.873L293.792 247.86L292.809 247.846C291.679 247.833 290.563 247.727 289.447 247.541C286.138 247.01 282.922 245.803 279.999 244.144L278.75 243.494C275.162 241.451 271.096 240.403 266.95 240.323L266.418 240.31C263.561 240.257 260.837 241.199 258.897 243.189C255.322 246.851 250.272 254.321 247.947 268.944C245.754 282.783 246.379 291.394 247.309 296.25C247.894 299.262 249.967 301.81 252.864 303.097L252.97 303.137C256.212 304.57 260.013 304.185 262.897 302.142L274.298 294.247C278.63 291.169 283.839 289.709 289.168 289.709L292.184 289.696H298.722C303.998 289.696 309.114 291.155 313.326 294.181L324.316 301.982C327.053 303.946 330.668 304.238 333.724 302.818L333.817 302.752C336.541 301.492 338.481 298.984 339.026 296.065C339.877 291.341 340.461 282.968 338.415 269.567ZM261.701 265.971C259.495 265.958 257.701 264.207 257.701 262.084C257.701 259.961 259.495 258.249 261.701 258.276C263.906 258.302 265.687 260.04 265.687 262.163C265.687 264.286 263.906 265.985 261.701 265.971ZM269.448 280.965C266.033 280.952 263.255 278.258 263.255 274.954C263.255 271.65 266.033 268.997 269.448 269.023C272.85 269.05 275.614 271.743 275.614 275.021C275.614 278.311 272.85 280.965 269.448 280.965ZM287.852 280.182C286.829 280.182 286.005 279.373 286.005 278.364C286.005 277.369 286.829 276.573 287.852 276.573C288.875 276.573 289.699 277.382 289.699 278.378C289.699 279.386 288.875 280.182 287.852 280.182ZM297.619 280.222C296.609 280.222 295.785 279.413 295.785 278.417C295.785 277.422 296.609 276.626 297.619 276.626C298.629 276.626 299.453 277.435 299.453 278.431C299.453 279.426 298.629 280.222 297.619 280.222ZM329.472 268.665C329.472 269.7 328.608 270.682 327.558 270.668L322.243 270.629V275.498C322.243 276.533 321.472 277.595 320.409 277.595L318.469 277.581C317.406 277.581 316.436 276.507 316.436 275.472V270.589L310.708 270.549C309.645 270.549 308.715 269.541 308.715 268.506V266.515C308.715 265.533 309.592 264.95 310.602 264.95L316.436 265.003V259.775C316.436 258.74 317.366 258.037 318.429 258.037L320.409 258.063C321.459 258.076 322.23 258.806 322.23 259.841V265.069L327.545 265.122C328.595 265.135 329.458 265.772 329.458 266.807V268.665H329.472Z" fill="white"/>
<path opacity="0.2" d="M322.987 329.555C314.283 333.947 304.437 336.508 293.939 336.694C256.957 337.331 226.221 308.299 226.221 271.836C226.221 247.634 239.775 226.895 259.694 216.015C272.199 220.938 287.547 230.398 289.434 247.541C289.62 249.174 289.673 250.872 289.593 252.637C289.049 265.162 289.846 278.112 292.158 289.696C296.065 309.36 304.357 325.097 317.845 328.162C319.745 328.573 321.446 329.051 322.987 329.555Z" fill="url(#paint52_linear_1544_5181)"/>
<path d="M215.842 223.432C220.014 225.555 225.263 223.604 227.562 219.093C229.861 214.582 228.333 209.195 224.16 207.085C223.948 206.979 223.722 206.886 223.496 206.793C224.266 204.298 224.851 201.777 225.25 199.256C225.489 199.256 225.728 199.256 225.967 199.23C230.738 198.805 234.512 194.44 234.419 189.464C234.313 184.488 230.379 180.813 225.609 181.237C225.356 181.264 225.117 181.304 224.878 181.344C224.386 178.876 223.695 176.474 222.831 174.152C223.044 174.019 223.27 173.887 223.482 173.741C227.562 170.888 228.864 165.262 226.393 161.162C223.921 157.075 218.619 156.067 214.539 158.92C214.327 159.066 214.127 159.225 213.941 159.384C212.333 157.606 210.566 155.961 208.653 154.461C208.785 154.236 208.918 154.023 209.038 153.785C211.337 149.273 214.34 144.337 210.128 142.281C200.387 137.531 196.215 141.591 193.916 146.115C193.796 146.354 193.69 146.593 193.597 146.819C191.258 146.168 188.879 145.717 186.487 145.465C186.501 145.213 186.514 144.961 186.514 144.709C186.408 139.733 187.896 137.053 183.112 136.96C172.681 136.761 169.159 141.272 169.265 146.248C169.265 146.513 169.292 146.766 169.319 147.018C166.927 147.694 164.575 148.57 162.302 149.618C162.196 149.393 162.076 149.18 161.957 148.968C159.485 144.881 154.183 143.873 150.104 146.726C146.024 149.578 144.722 155.204 147.193 159.304C147.326 159.517 147.459 159.716 147.605 159.901C145.798 161.706 144.11 163.657 142.542 165.766C142.343 165.634 142.13 165.514 141.918 165.408C137.745 163.285 132.496 165.235 130.197 169.747C127.898 174.258 129.427 179.645 133.599 181.755C133.812 181.861 134.038 181.954 134.264 182.047C133.493 184.541 132.908 187.062 132.51 189.583C132.27 189.583 132.031 189.583 131.792 189.61C127.021 190.035 123.248 194.413 123.341 199.376C123.447 204.352 127.38 208.027 132.151 207.602C132.403 207.576 132.642 207.536 132.882 207.496C133.373 209.964 134.064 212.366 134.928 214.688C134.715 214.82 134.49 214.953 134.277 215.099C130.197 217.952 128.895 223.578 131.367 227.678C133.838 231.765 142.011 233.675 146.09 230.822C146.303 230.677 143.632 229.628 143.818 229.456C145.426 231.234 147.193 232.879 149.107 234.379C148.974 234.604 148.841 234.816 148.722 235.055C146.423 239.567 147.951 244.954 152.123 247.063C156.296 249.186 161.545 247.236 163.844 242.724C163.963 242.486 164.07 242.247 164.163 242.021C166.501 242.671 168.88 243.123 171.272 243.375C171.259 243.627 171.245 243.879 171.245 244.131C171.352 249.107 175.285 252.782 180.056 252.358C184.826 251.933 188.6 247.554 188.507 242.592C188.507 242.326 188.481 242.074 188.454 241.822C190.846 241.146 193.198 240.27 195.484 239.222C195.59 239.447 195.71 239.659 195.829 239.872C198.301 243.958 203.603 244.967 207.682 242.114C211.762 239.261 213.064 233.635 210.593 229.535C210.46 229.323 210.327 229.124 210.181 228.938C211.988 227.134 213.676 225.183 215.244 223.074C215.416 223.193 215.616 223.326 215.842 223.432ZM163.764 224.095C148.602 216.413 143.061 196.881 151.406 180.481C159.738 164.081 178.793 157.022 193.955 164.718C209.118 172.401 214.659 191.932 206.314 208.332C197.982 224.719 178.939 231.778 163.764 224.095Z" fill="url(#paint53_linear_1544_5181)"/>
<path d="M225.967 199.23C230.738 198.805 234.512 194.427 234.419 189.464C234.312 184.488 230.379 180.813 225.608 181.238C225.356 181.264 225.117 181.304 224.878 181.344C224.386 178.876 223.695 176.474 222.831 174.152C223.044 174.019 223.27 173.887 223.482 173.741C227.562 170.888 232.598 164.002 229.728 160.18C224.266 152.936 218.619 156.067 214.539 158.92C214.326 159.066 214.127 159.225 213.941 159.384C212.333 157.606 210.566 155.961 208.652 154.461C208.785 154.236 208.918 154.024 209.038 153.785C210.287 151.33 210.393 148.623 209.569 146.314C205.636 153.241 201.742 160.18 197.928 167.173C210.021 176.023 213.875 193.471 206.314 208.345C199.908 220.951 187.165 228.023 174.727 227.134C174.169 228.567 173.624 230.013 173.039 231.433C171.431 235.294 169.597 239.076 167.764 242.857C168.92 243.07 170.076 243.242 171.232 243.361C171.219 243.614 171.205 243.866 171.205 244.118C171.312 249.094 174.328 253.313 182.966 252.849C187.75 252.596 188.56 247.554 188.467 242.579C188.467 242.313 188.441 242.061 188.414 241.809C190.806 241.132 193.158 240.257 195.444 239.208C195.55 239.434 195.669 239.646 195.789 239.859C198.261 243.945 206.818 245.683 210.898 242.831C214.978 239.978 213.024 233.622 210.553 229.522C210.42 229.31 210.287 229.111 210.141 228.925C211.948 227.121 213.635 225.17 215.203 223.06C215.403 223.193 215.615 223.313 215.828 223.419C220.001 225.542 225.25 223.591 227.548 219.08C229.847 214.568 228.319 209.181 224.147 207.072C223.934 206.966 223.708 206.873 223.482 206.78C224.253 204.285 224.838 201.764 225.236 199.243C225.489 199.256 225.728 199.243 225.967 199.23Z" fill="url(#paint54_linear_1544_5181)"/>
<path d="M220.333 223.936C224.506 226.059 229.755 224.109 232.053 219.597C234.352 215.086 232.824 209.699 228.652 207.589C228.439 207.483 228.213 207.39 227.987 207.297C228.758 204.803 229.343 202.282 229.741 199.761C229.98 199.761 230.22 199.761 230.459 199.734C235.229 199.309 239.003 194.944 238.91 189.968C238.804 184.993 234.871 181.317 230.1 181.742C229.848 181.768 229.608 181.808 229.369 181.848C228.877 179.38 228.186 176.978 227.323 174.656C227.535 174.524 227.761 174.391 227.974 174.245C232.053 171.392 233.356 165.766 230.884 161.666C228.412 157.579 223.11 156.571 219.031 159.424C218.818 159.57 218.619 159.729 218.433 159.888C216.825 158.11 215.057 156.465 213.144 154.966C213.277 154.74 213.41 154.528 213.529 154.289C215.828 149.777 214.3 144.39 210.127 142.281C205.955 140.158 200.706 142.108 198.407 146.62C198.287 146.858 198.181 147.097 198.088 147.323C195.749 146.673 193.371 146.221 190.979 145.969C190.992 145.717 191.005 145.465 191.005 145.213C190.899 140.237 186.966 136.562 182.195 136.987C177.425 137.411 173.651 141.79 173.744 146.752C173.744 147.018 173.77 147.27 173.797 147.522C171.405 148.199 169.053 149.074 166.767 150.122C166.661 149.897 166.541 149.685 166.422 149.472C163.963 145.372 158.648 144.364 154.568 147.217C150.489 150.069 149.187 155.695 151.658 159.795C151.791 160.008 151.924 160.207 152.07 160.392C150.263 162.197 148.575 164.147 147.007 166.257C146.808 166.124 146.595 166.005 146.383 165.899C142.21 163.776 136.961 165.726 134.662 170.238C132.363 174.749 133.892 180.136 138.064 182.246C138.277 182.352 138.503 182.445 138.729 182.538C137.958 185.032 137.373 187.553 136.974 190.074C136.735 190.074 136.496 190.074 136.257 190.101C131.486 190.526 127.712 194.904 127.805 199.867C127.912 204.842 131.845 208.518 136.616 208.093C136.868 208.067 137.107 208.027 137.347 207.987C137.838 210.455 138.529 212.857 139.393 215.179C139.18 215.311 138.954 215.444 138.742 215.59C134.662 218.443 133.36 224.069 135.832 228.169C138.303 232.256 143.605 233.264 147.685 230.411C147.898 230.265 148.097 230.106 148.283 229.947C149.891 231.725 151.658 233.37 153.572 234.869C153.439 235.095 153.306 235.307 153.186 235.546C150.887 240.057 152.416 245.445 156.588 247.554C160.761 249.677 166.01 247.727 168.309 243.215C168.428 242.977 168.535 242.738 168.628 242.512C170.966 243.162 173.345 243.613 175.737 243.866C175.724 244.118 175.71 244.37 175.71 244.622C175.817 249.598 179.75 253.273 184.521 252.848C189.291 252.424 193.065 248.045 192.972 243.083C192.972 242.817 192.945 242.565 192.919 242.313C195.311 241.636 197.663 240.761 199.935 239.713C200.042 239.938 200.161 240.15 200.281 240.363C202.752 244.449 208.054 245.458 212.134 242.605C216.214 239.752 217.516 234.126 215.044 230.026C214.911 229.814 214.778 229.615 214.632 229.429C216.439 227.625 218.127 225.674 219.695 223.565C219.908 223.71 220.12 223.83 220.333 223.936ZM168.269 224.599C153.107 216.917 147.565 197.385 155.911 180.985C164.242 164.585 183.298 157.526 198.46 165.222C213.622 172.905 219.164 192.436 210.818 208.836C202.487 225.236 183.431 232.295 168.269 224.599Z" fill="url(#paint55_linear_1544_5181)"/>
<defs>
<linearGradient id="paint0_linear_1544_5181" x1="166.004" y1="175.737" x2="468.256" y2="461.619" gradientUnits="userSpaceOnUse">
<stop stop-color="#B4D9FF"/>
<stop offset="1" stop-color="#F4E6FF"/>
</linearGradient>
<linearGradient id="paint1_linear_1544_5181" x1="305.623" y1="140.917" x2="363.485" y2="216.059" gradientUnits="userSpaceOnUse">
<stop offset="0.00359712" stop-color="#E38DDD"/>
<stop offset="1" stop-color="#4A83E7"/>
</linearGradient>
<linearGradient id="paint2_linear_1544_5181" x1="493.675" y1="218.037" x2="416.697" y2="250.259" gradientUnits="userSpaceOnUse">
<stop stop-color="#E6C6FA"/>
<stop offset="1" stop-color="#A0C3FF"/>
</linearGradient>
<linearGradient id="paint3_linear_1544_5181" x1="299.559" y1="497.419" x2="300.476" y2="419.283" gradientUnits="userSpaceOnUse">
<stop offset="0.494" stop-color="#EBEFF2"/>
<stop offset="1" stop-color="white"/>
</linearGradient>
<linearGradient id="paint4_linear_1544_5181" x1="354.205" y1="273.281" x2="286.285" y2="599.41" gradientUnits="userSpaceOnUse">
<stop stop-color="#5F99FF"/>
<stop offset="1" stop-color="#FB6FBB"/>
</linearGradient>
<linearGradient id="paint5_linear_1544_5181" x1="354.741" y1="299.532" x2="306.727" y2="530.078" gradientUnits="userSpaceOnUse">
<stop stop-color="#002970"/>
<stop offset="1" stop-color="#FB6FBB"/>
</linearGradient>
<linearGradient id="paint6_linear_1544_5181" x1="367.24" y1="464.457" x2="377.127" y2="464.743" gradientUnits="userSpaceOnUse">
<stop stop-color="#444B8C"/>
<stop offset="0.9964" stop-color="#26264F"/>
</linearGradient>
<linearGradient id="paint7_linear_1544_5181" x1="373.624" y1="461.34" x2="377.17" y2="461.34" gradientUnits="userSpaceOnUse">
<stop stop-color="#FFC444"/>
<stop offset="0.9964" stop-color="#F36F56"/>
</linearGradient>
<linearGradient id="paint8_linear_1544_5181" x1="335.133" y1="461.738" x2="345.263" y2="464.528" gradientUnits="userSpaceOnUse">
<stop stop-color="#444B8C"/>
<stop offset="0.9964" stop-color="#26264F"/>
</linearGradient>
<linearGradient id="paint9_linear_1544_5181" x1="342.007" y1="460.171" x2="346.387" y2="460.171" gradientUnits="userSpaceOnUse">
<stop stop-color="#FFC444"/>
<stop offset="0.9964" stop-color="#F36F56"/>
</linearGradient>
<linearGradient id="paint10_linear_1544_5181" x1="360.689" y1="296.464" x2="393.622" y2="454.6" gradientUnits="userSpaceOnUse">
<stop stop-color="#4A83E7"/>
<stop offset="1" stop-color="#FB6FBB"/>
</linearGradient>
<linearGradient id="paint11_linear_1544_5181" x1="389.093" y1="431.691" x2="376.594" y2="372.232" gradientUnits="userSpaceOnUse">
<stop stop-color="#4A83E7"/>
<stop offset="1" stop-color="#FB6FBB"/>
</linearGradient>
<linearGradient id="paint12_linear_1544_5181" x1="383.314" y1="291.752" x2="416.248" y2="449.888" gradientUnits="userSpaceOnUse">
<stop stop-color="#4A83E7"/>
<stop offset="1" stop-color="#FB6FBB"/>
</linearGradient>
<linearGradient id="paint13_linear_1544_5181" x1="367.521" y1="360.243" x2="378.596" y2="360.243" gradientUnits="userSpaceOnUse">
<stop stop-color="#FFC444"/>
<stop offset="0.9964" stop-color="#F36F56"/>
</linearGradient>
<linearGradient id="paint14_linear_1544_5181" x1="375.86" y1="312.566" x2="375.469" y2="339.807" gradientUnits="userSpaceOnUse">
<stop stop-color="#FFC444"/>
<stop offset="0.9964" stop-color="#F36F56"/>
</linearGradient>
<linearGradient id="paint15_linear_1544_5181" x1="368.271" y1="309.135" x2="377.854" y2="309.135" gradientUnits="userSpaceOnUse">
<stop stop-color="#FFC444"/>
<stop offset="0.9964" stop-color="#F36F56"/>
</linearGradient>
<linearGradient id="paint16_linear_1544_5181" x1="250.221" y1="362.95" x2="278.754" y2="294.896" gradientUnits="userSpaceOnUse">
<stop stop-color="#311944"/>
<stop offset="1" stop-color="#893976"/>
</linearGradient>
<linearGradient id="paint17_linear_1544_5181" x1="266.859" y1="461.095" x2="238.343" y2="393.081" gradientUnits="userSpaceOnUse">
<stop stop-color="#311944"/>
<stop offset="1" stop-color="#893976"/>
</linearGradient>
<linearGradient id="paint18_linear_1544_5181" x1="263.719" y1="458.657" x2="237.458" y2="396.02" gradientUnits="userSpaceOnUse">
<stop stop-color="#311944"/>
<stop offset="1" stop-color="#893976"/>
</linearGradient>
<linearGradient id="paint19_linear_1544_5181" x1="214.626" y1="368.774" x2="228.089" y2="336.662" gradientUnits="userSpaceOnUse">
<stop stop-color="#311944"/>
<stop offset="1" stop-color="#893976"/>
</linearGradient>
<linearGradient id="paint20_linear_1544_5181" x1="250.518" y1="362.003" x2="226.825" y2="336.466" gradientUnits="userSpaceOnUse">
<stop stop-color="#311944"/>
<stop offset="1" stop-color="#893976"/>
</linearGradient>
<linearGradient id="paint21_linear_1544_5181" x1="305.734" y1="473.095" x2="292.923" y2="473.095" gradientUnits="userSpaceOnUse">
<stop stop-color="#311944"/>
<stop offset="1" stop-color="#6B3976"/>
</linearGradient>
<linearGradient id="paint22_linear_1544_5181" x1="296.907" y1="472.368" x2="286.332" y2="440.598" gradientUnits="userSpaceOnUse">
<stop stop-color="#FFC444"/>
<stop offset="0.9964" stop-color="#F36F56"/>
</linearGradient>
<linearGradient id="paint23_linear_1544_5181" x1="281.895" y1="478.501" x2="269.084" y2="478.501" gradientUnits="userSpaceOnUse">
<stop stop-color="#311944"/>
<stop offset="1" stop-color="#6B3976"/>
</linearGradient>
<linearGradient id="paint24_linear_1544_5181" x1="273.067" y1="477.774" x2="262.493" y2="446.004" gradientUnits="userSpaceOnUse">
<stop stop-color="#FFC444"/>
<stop offset="0.9964" stop-color="#F36F56"/>
</linearGradient>
<linearGradient id="paint25_linear_1544_5181" x1="243.314" y1="425.053" x2="288.005" y2="429.857" gradientUnits="userSpaceOnUse">
<stop offset="0.003597" stop-color="#26264F"/>
<stop offset="1" stop-color="#444B8C"/>
</linearGradient>
<linearGradient id="paint26_linear_1544_5181" x1="237.517" y1="437.13" x2="268.95" y2="440.508" gradientUnits="userSpaceOnUse">
<stop offset="0.003597" stop-color="#26264F"/>
<stop offset="1" stop-color="#444B8C"/>
</linearGradient>
<linearGradient id="paint27_linear_1544_5181" x1="258.751" y1="379.269" x2="268.225" y2="367.255" gradientUnits="userSpaceOnUse">
<stop offset="0.00359712" stop-color="#E38DDD"/>
<stop offset="1" stop-color="#9571F6"/>
</linearGradient>
<linearGradient id="paint28_linear_1544_5181" x1="266.793" y1="403.256" x2="217.887" y2="356.526" gradientUnits="userSpaceOnUse">
<stop offset="0.00359712" stop-color="#E38DDD"/>
<stop offset="1" stop-color="#9571F6"/>
</linearGradient>
<linearGradient id="paint29_linear_1544_5181" x1="233.208" y1="402.153" x2="254.389" y2="375.294" gradientUnits="userSpaceOnUse">
<stop stop-color="#AA80F9"/>
<stop offset="0.9964" stop-color="#6165D7"/>
</linearGradient>
<linearGradient id="paint30_linear_1544_5181" x1="239.595" y1="361.617" x2="251.321" y2="337.165" gradientUnits="userSpaceOnUse">
<stop stop-color="#FFC444"/>
<stop offset="0.9964" stop-color="#F36F56"/>
</linearGradient>
<linearGradient id="paint31_linear_1544_5181" x1="238.946" y1="353.7" x2="250.059" y2="338.313" gradientUnits="userSpaceOnUse">
<stop stop-color="#311944"/>
<stop offset="1" stop-color="#6B3976"/>
</linearGradient>
<linearGradient id="paint32_linear_1544_5181" x1="247.933" y1="342.846" x2="242.907" y2="367.389" gradientUnits="userSpaceOnUse">
<stop stop-color="#FFC444"/>
<stop offset="0.9964" stop-color="#F36F56"/>
</linearGradient>
<linearGradient id="paint33_linear_1544_5181" x1="240.884" y1="354.701" x2="251.598" y2="339.867" gradientUnits="userSpaceOnUse">
<stop stop-color="#311944"/>
<stop offset="1" stop-color="#6B3976"/>
</linearGradient>
<linearGradient id="paint34_linear_1544_5181" x1="250.115" y1="346.226" x2="248.925" y2="349.367" gradientUnits="userSpaceOnUse">
<stop stop-color="#FFC444"/>
<stop offset="1" stop-color="#F36F56"/>
</linearGradient>
<linearGradient id="paint35_linear_1544_5181" x1="260.01" y1="410.354" x2="211.104" y2="363.624" gradientUnits="userSpaceOnUse">
<stop offset="0.00359712" stop-color="#E38DDD"/>
<stop offset="1" stop-color="#9571F6"/>
</linearGradient>
<linearGradient id="paint36_linear_1544_5181" x1="279.489" y1="408.498" x2="280.45" y2="404.115" gradientUnits="userSpaceOnUse">
<stop offset="0.003597" stop-color="#26264F"/>
<stop offset="1" stop-color="#444B8C"/>
</linearGradient>
<linearGradient id="paint37_linear_1544_5181" x1="256.626" y1="397.292" x2="306.938" y2="397.292" gradientUnits="userSpaceOnUse">
<stop offset="0.003597" stop-color="#26264F"/>
<stop offset="1" stop-color="#444B8C"/>
</linearGradient>
<linearGradient id="paint38_linear_1544_5181" x1="306.164" y1="378.483" x2="301.119" y2="366.452" gradientUnits="userSpaceOnUse">
<stop offset="0.003597" stop-color="#26264F"/>
<stop offset="1" stop-color="#444B8C"/>
</linearGradient>
<linearGradient id="paint39_linear_1544_5181" x1="264.432" y1="372.511" x2="344.223" y2="372.511" gradientUnits="userSpaceOnUse">
<stop offset="0.003597" stop-color="#26264F"/>
<stop offset="1" stop-color="#444B8C"/>
</linearGradient>
<linearGradient id="paint40_linear_1544_5181" x1="264.432" y1="386.854" x2="336.636" y2="386.854" gradientUnits="userSpaceOnUse">
<stop offset="0.003597" stop-color="#26264F"/>
<stop offset="1" stop-color="#444B8C"/>
</linearGradient>
<linearGradient id="paint41_linear_1544_5181" x1="295.078" y1="400.388" x2="299.572" y2="402.398" gradientUnits="userSpaceOnUse">
<stop stop-color="#444B8C"/>
<stop offset="0.9964" stop-color="#26264F"/>
</linearGradient>
<linearGradient id="paint42_linear_1544_5181" x1="287.573" y1="401.172" x2="304.128" y2="401.172" gradientUnits="userSpaceOnUse">
<stop offset="0.003597" stop-color="#26264F"/>
<stop offset="1" stop-color="#444B8C"/>
</linearGradient>
<linearGradient id="paint43_linear_1544_5181" x1="301.246" y1="388.229" x2="321.913" y2="388.229" gradientUnits="userSpaceOnUse">
<stop stop-color="#444B8C"/>
<stop offset="0.9964" stop-color="#26264F"/>
</linearGradient>
<linearGradient id="paint44_linear_1544_5181" x1="302.152" y1="388.223" x2="322.804" y2="388.223" gradientUnits="userSpaceOnUse">
<stop offset="0.003597" stop-color="#26264F"/>
<stop offset="1" stop-color="#444B8C"/>
</linearGradient>
<linearGradient id="paint45_linear_1544_5181" x1="238.916" y1="399.518" x2="253.738" y2="399.518" gradientUnits="userSpaceOnUse">
<stop offset="0.003597" stop-color="#26264F"/>
<stop offset="1" stop-color="#444B8C"/>
</linearGradient>
<linearGradient id="paint46_linear_1544_5181" x1="242.561" y1="394.806" x2="245.407" y2="404.635" gradientUnits="userSpaceOnUse">
<stop stop-color="#FFC444"/>
<stop offset="0.9964" stop-color="#F36F56"/>
</linearGradient>
<linearGradient id="paint47_linear_1544_5181" x1="451.454" y1="282.364" x2="387.185" y2="282.364" gradientUnits="userSpaceOnUse">
<stop offset="0.00359712" stop-color="#E38DDD"/>
<stop offset="1" stop-color="#9571F6"/>
</linearGradient>
<linearGradient id="paint48_linear_1544_5181" x1="442.971" y1="265.483" x2="387.305" y2="338.904" gradientUnits="userSpaceOnUse">
<stop offset="0.00359712" stop-color="#E38DDD"/>
<stop offset="1" stop-color="#9571F6"/>
</linearGradient>
<linearGradient id="paint49_linear_1544_5181" x1="221.875" y1="272.288" x2="354.077" y2="272.288" gradientUnits="userSpaceOnUse">
<stop stop-color="#444B8C"/>
<stop offset="0.9964" stop-color="#26264F"/>
</linearGradient>
<linearGradient id="paint50_linear_1544_5181" x1="242.108" y1="272.133" x2="335.465" y2="272.133" gradientUnits="userSpaceOnUse">
<stop stop-color="#444B8C"/>
<stop offset="0.9964" stop-color="#26264F"/>
</linearGradient>
<linearGradient id="paint51_linear_1544_5181" x1="226.217" y1="272.288" x2="358.42" y2="272.288" gradientUnits="userSpaceOnUse">
<stop stop-color="#85B1FF"/>
<stop offset="0.9964" stop-color="#E8C4FF"/>
</linearGradient>
<linearGradient id="paint52_linear_1544_5181" x1="226.218" y1="276.354" x2="322.986" y2="276.354" gradientUnits="userSpaceOnUse">
<stop stop-color="#AA80F9"/>
<stop offset="0.9964" stop-color="#6165D7"/>
</linearGradient>
<linearGradient id="paint53_linear_1544_5181" x1="123.31" y1="194.657" x2="234.422" y2="194.657" gradientUnits="userSpaceOnUse">
<stop stop-color="#0441AB"/>
<stop offset="1" stop-color="#792D3D"/>
</linearGradient>
<linearGradient id="paint54_linear_1544_5181" x1="167.768" y1="199.588" x2="234.422" y2="199.588" gradientUnits="userSpaceOnUse">
<stop stop-color="#003EAB"/>
<stop offset="1" stop-color="#792D3D"/>
</linearGradient>
<linearGradient id="paint55_linear_1544_5181" x1="215.337" y1="138.232" x2="173.701" y2="267.79" gradientUnits="userSpaceOnUse">
<stop stop-color="#4A83E7"/>
<stop offset="1" stop-color="#A6C6FF"/>
</linearGradient>
</defs>
</svg>
