<svg width="285" height="143" viewBox="0 0 285 143" fill="none" xmlns="http://www.w3.org/2000/svg">
<path d="M284.599 142.299C284.599 104.559 269.606 68.3648 242.92 41.6785C216.234 14.9922 180.039 2.8493e-06 142.299 0C104.559 -2.8493e-06 68.3648 14.9922 41.6785 41.6785C14.9922 68.3648 5.6986e-06 104.559 0 142.299H62.1807C62.1807 121.051 70.6217 100.672 85.6469 85.6469C100.672 70.6217 121.051 62.1807 142.299 62.1807C163.548 62.1807 183.927 70.6217 198.952 85.6469C213.977 100.672 222.418 121.051 222.418 142.299H284.599Z" fill="url(#paint0_linear_1410_5010)" fill-opacity="0.33"/>
<defs>
<linearGradient id="paint0_linear_1410_5010" x1="142.299" y1="0" x2="142.299" y2="284.599" gradientUnits="userSpaceOnUse">
<stop stop-color="#4A83E7"/>
<stop offset="1" stop-color="#00D0FF"/>
</linearGradient>
</defs>
</svg>
