<svg width="90" height="179" viewBox="0 0 90 179" fill="none" xmlns="http://www.w3.org/2000/svg">
<path d="M90 1.13248e-05C66.1305 1.23681e-05 43.2387 9.42945 26.3604 26.214C9.48211 42.9985 -3.14764e-06 65.7631 -3.91217e-06 89.5C-4.67669e-06 113.237 9.48211 136.002 26.3604 152.786C43.2387 169.571 66.1305 179 90 179L90 139.891C76.5608 139.891 63.672 134.582 54.1691 125.132C44.6661 115.682 39.3274 102.865 39.3274 89.5C39.3274 76.1355 44.6661 63.3183 54.1691 53.8681C63.672 44.418 76.5608 39.1089 90 39.1089L90 1.13248e-05Z" fill="url(#paint0_linear_1410_5011)" fill-opacity="0.44"/>
<defs>
<linearGradient id="paint0_linear_1410_5011" x1="48.3148" y1="14.9543" x2="115.109" y2="155.643" gradientUnits="userSpaceOnUse">
<stop stop-color="#4A83E7"/>
<stop offset="1" stop-color="#42E8E0"/>
</linearGradient>
</defs>
</svg>
