<svg width="51" height="41" viewBox="0 0 51 41" fill="none" xmlns="http://www.w3.org/2000/svg">
<path d="M33.9502 39.4231H31.6064V36.2692H19.1064V39.4231H16.7627C16.3314 39.4231 15.9814 39.7763 15.9814 40.2115C15.9814 40.6468 16.3314 41 16.7627 41H33.9502C34.3815 41 34.7314 40.6468 34.7314 40.2115C34.7314 39.7763 34.3815 39.4231 33.9502 39.4231ZM50.3564 4.73077V29.9615C50.3564 32.5745 48.258 34.6923 45.6689 34.6923H5.04395C2.45488 34.6923 0.356445 32.5745 0.356445 29.9615V4.73077C0.356445 2.11781 2.45488 0 5.04395 0H45.6689C48.258 0 50.3564 2.11781 50.3564 4.73077Z" fill="url(#paint0_linear_2224_433)"/>
<path fill-rule="evenodd" clip-rule="evenodd" d="M28.5469 11.7524C28.5469 11.8923 28.6025 12.0266 28.7015 12.1255C28.8003 12.2246 28.9345 12.2804 29.0744 12.2806C29.2144 12.2808 29.3487 12.2254 29.4478 12.1266L33.5865 7.9961C33.6856 7.89727 33.7414 7.76313 33.7416 7.62317C33.7418 7.48322 33.6864 7.34891 33.5876 7.24979C33.4888 7.1507 33.3546 7.09493 33.2147 7.09473C33.0747 7.09453 32.9404 7.14992 32.8413 7.24874L28.7026 11.3792C28.6534 11.4281 28.6143 11.4863 28.5876 11.5503C28.5609 11.6143 28.547 11.683 28.5469 11.7524Z" fill="white"/>
<path fill-rule="evenodd" clip-rule="evenodd" d="M23.8378 7.01221C23.6978 7.01223 23.5636 7.06785 23.4646 7.16683C23.3656 7.26566 23.3098 7.39981 23.3096 7.53977C23.3094 7.67972 23.3648 7.81403 23.4636 7.91314L27.5941 12.0519C27.6929 12.151 27.8271 12.2067 27.967 12.2069C28.107 12.2071 28.2413 12.1517 28.3404 12.0529C28.4395 11.9541 28.4952 11.8199 28.4954 11.68C28.4956 11.54 28.4402 11.4057 28.3414 11.3066L24.211 7.16788C24.162 7.11869 24.1039 7.07962 24.0399 7.05291C23.9758 7.0262 23.9072 7.01235 23.8378 7.01221Z" fill="white"/>
<path fill-rule="evenodd" clip-rule="evenodd" d="M22.6274 7.11602C22.4875 7.12077 22.3551 7.18072 22.2594 7.28301L18.0146 11.6126C17.8104 11.8209 17.8263 12.1598 18.0393 12.3589C18.2521 12.5576 18.5855 12.5466 18.7846 12.3342L23.0305 8.00457C23.2299 7.7917 23.2188 7.45745 23.0057 7.25826C22.9035 7.16253 22.7674 7.11135 22.6274 7.11602Z" fill="white"/>
<path fill-rule="evenodd" clip-rule="evenodd" d="M16.3564 17.6113H19.5231V26.5835H16.3564V17.6113Z" fill="white"/>
<path fill-rule="evenodd" clip-rule="evenodd" d="M18.9959 12.3334C18.9959 12.6133 18.8847 12.8818 18.6867 13.0798C18.4888 13.2777 18.2203 13.3889 17.9403 13.3889C17.6604 13.3889 17.3919 13.2777 17.1939 13.0798C16.996 12.8818 16.8848 12.6133 16.8848 12.3334C16.8848 12.0534 16.996 11.785 17.1939 11.587C17.3919 11.389 17.6604 11.2778 17.9403 11.2778C18.2203 11.2778 18.4888 11.389 18.6867 11.587C18.8847 11.785 18.9959 12.0534 18.9959 12.3334Z" fill="white"/>
<path fill-rule="evenodd" clip-rule="evenodd" d="M24.2722 7.05556C24.2722 7.33551 24.161 7.60399 23.9631 7.80195C23.7651 7.9999 23.4966 8.11111 23.2167 8.11111C22.9367 8.11111 22.6683 7.9999 22.4703 7.80195C22.2723 7.60399 22.1611 7.33551 22.1611 7.05556C22.1611 6.7756 22.2723 6.50712 22.4703 6.30916C22.6683 6.11121 22.9367 6 23.2167 6C23.4966 6 23.7651 6.11121 23.9631 6.30916C24.161 6.50712 24.2722 6.7756 24.2722 7.05556Z" fill="white"/>
<path fill-rule="evenodd" clip-rule="evenodd" d="M29.5506 12.3334C29.5506 12.6133 29.4394 12.8818 29.2414 13.0798C29.0434 13.2777 28.775 13.3889 28.495 13.3889C28.2151 13.3889 27.9466 13.2777 27.7486 13.0798C27.5507 12.8818 27.4395 12.6133 27.4395 12.3334C27.4395 12.0534 27.5507 11.785 27.7486 11.587C27.9466 11.389 28.2151 11.2778 28.495 11.2778C28.775 11.2778 29.0434 11.389 29.2414 11.587C29.4394 11.785 29.5506 12.0534 29.5506 12.3334Z" fill="white"/>
<path fill-rule="evenodd" clip-rule="evenodd" d="M34.8289 7.05556C34.8289 7.33551 34.7177 7.60399 34.5197 7.80195C34.3218 7.9999 34.0533 8.11111 33.7733 8.11111C33.4934 8.11111 33.2249 7.9999 33.0269 7.80195C32.829 7.60399 32.7178 7.33551 32.7178 7.05556C32.7178 6.7756 32.829 6.50712 33.0269 6.30916C33.2249 6.11121 33.4934 6 33.7733 6C34.0533 6 34.3218 6.11121 34.5197 6.30916C34.7177 6.50712 34.8289 6.7756 34.8289 7.05556Z" fill="white"/>
<path fill-rule="evenodd" clip-rule="evenodd" d="M21.6348 13.9165H24.8014V26.5832H21.6348V13.9165Z" fill="white"/>
<path fill-rule="evenodd" clip-rule="evenodd" d="M21.6348 13.9165V25.3132C22.4236 24.0284 23.1741 22.3404 23.7655 20.5209C24.2576 19.0018 24.6166 17.4599 24.8014 16.0709V13.9165H21.6348Z" fill="white"/>
<path fill-rule="evenodd" clip-rule="evenodd" d="M26.9111 17.6113H30.0778V26.5835H26.9111V17.6113Z" fill="white"/>
<path fill-rule="evenodd" clip-rule="evenodd" d="M26.9111 17.6113V25.36C27.5 24.3184 28.0218 23.1378 28.4388 21.9036C28.927 20.4502 29.2539 18.9706 29.3871 17.6113H26.9111Z" fill="white"/>
<path fill-rule="evenodd" clip-rule="evenodd" d="M32.1895 13.9165H35.3561V26.5832H32.1895V13.9165Z" fill="white"/>
<path fill-rule="evenodd" clip-rule="evenodd" d="M32.1895 13.9165V25.7431C33.069 24.3116 33.8292 22.4484 34.3459 20.4581C34.6485 19.2884 34.8584 18.1075 34.9636 16.9843C35.0687 15.8611 35.0669 14.8181 34.9582 13.9165H32.1895Z" fill="white"/>
<defs>
<linearGradient id="paint0_linear_2224_433" x1="0.356445" y1="5" x2="47.3564" y2="34.5" gradientUnits="userSpaceOnUse">
<stop stop-color="#4A83E7"/>
<stop offset="1" stop-color="#617AE7"/>
</linearGradient>
</defs>
</svg>
