<svg width="35" height="58" viewBox="0 0 35 58" fill="none" xmlns="http://www.w3.org/2000/svg">
<path fill-rule="evenodd" clip-rule="evenodd" d="M0 10C0 4.47715 4.47715 0 10 0H24.5386C30.0615 0 34.5386 4.47715 34.5386 10V48C34.5386 53.5229 30.0615 58 24.5386 58H10C4.47715 58 0 53.5228 0 48V10ZM7.72186 55.6496C7.72186 55.3386 7.97397 55.0865 8.28496 55.0865H26.2536C26.5645 55.0865 26.8166 55.3386 26.8166 55.6496C26.8166 55.9606 26.5645 56.2127 26.2536 56.2127H8.28496C7.97397 56.2127 7.72186 55.9606 7.72186 55.6496ZM13.9007 25.8456L6.66882 29.2033V30.4989L13.9022 33.8601V32.2633L8.43169 29.8676V29.8375L13.9007 27.4424V25.8456ZM15.0173 34.462L18.2414 23.5383H19.7628L16.5387 34.462H15.0173ZM20.638 33.8586L27.8698 30.5438V29.1604L20.638 25.8456V27.4404L26.2277 29.8375V29.8661L20.638 32.2618V33.8586ZM10.3156 3.44503C10.3156 2.74187 10.8856 2.17184 11.5888 2.17184H11.642C12.3452 2.17184 12.9152 2.74187 12.9152 3.44503C12.9152 4.14819 12.3452 4.71822 11.642 4.71822H11.5888C10.8856 4.71822 10.3156 4.14819 10.3156 3.44503ZM14.8431 2.17184C14.1399 2.17184 13.5699 2.74187 13.5699 3.44503C13.5699 4.14819 14.1399 4.71822 14.8431 4.71822H22.7821C23.4852 4.71822 24.0553 4.14819 24.0553 3.44503C24.0553 2.74187 23.4852 2.17184 22.7821 2.17184H14.8431Z" fill="white"/>
</svg>
