<svg width="38" height="38" viewBox="0 0 38 38" fill="none" xmlns="http://www.w3.org/2000/svg">
<path d="M28.2994 6.39661L18.2649 0.997532C17.1993 0.429208 15.9383 0.429208 14.8727 0.997532L4.85594 6.39661C4.12778 6.80509 3.66602 7.58654 3.66602 8.43903C3.66602 9.30927 4.11002 10.0907 4.85594 10.4814L14.8905 15.8804C15.4233 16.1646 16.0094 16.3069 16.5777 16.3069C17.146 16.3069 17.7499 16.1646 18.2649 15.8804L28.2994 10.4814C29.0275 10.0907 29.4893 9.30927 29.4893 8.43903C29.4893 7.58654 29.0275 6.80509 28.2994 6.39661Z" fill="#4A83E7"/>
<path d="M13.239 17.7617L3.91489 13.1085C3.18673 12.7355 2.36976 12.7888 1.67712 13.1973C1.00223 13.6235 0.59375 14.3517 0.59375 15.1509V23.96C0.59375 25.4873 1.44624 26.8549 2.81377 27.5475L12.1378 32.2007C12.4575 32.3605 12.8127 32.4493 13.1679 32.4493C13.5764 32.4493 14.0027 32.325 14.3756 32.1119C15.0505 31.6856 15.459 30.9574 15.459 30.1582V21.3492C15.4412 19.8218 14.5887 18.4543 13.239 17.7617Z" fill="#4A83E7"/>
<path d="M32.5643 15.1509V16.8233C32.5643 18.1716 31.2485 19.1647 29.9002 19.1647C27.4849 19.1647 25.1228 19.9994 23.258 21.4913C20.7005 23.4982 19.2442 26.5352 19.2442 29.8208C19.2442 30.4084 19.2928 30.996 19.3954 31.5727C19.4655 31.9667 19.1368 32.3105 18.8002 32.0941C18.1253 31.6856 17.7168 30.9574 17.7168 30.1582V21.3492C17.7168 19.8218 18.5693 18.4543 19.9191 17.7617L29.2431 13.1085C29.9713 12.7355 30.7883 12.7888 31.4809 13.1973C32.1558 13.6235 32.5643 14.3517 32.5643 15.1509Z" fill="#4A83E7"/>
<path d="M36.0788 24.7927C34.6225 22.999 32.4025 21.8623 29.8983 21.8623C28.0157 21.8623 26.2752 22.5194 24.9077 23.6206C23.0607 25.0769 21.9062 27.3324 21.9062 29.8544C21.9062 31.3462 22.3325 32.767 23.0607 33.9747C23.5386 34.7714 24.1402 35.4621 24.8476 36.0294C24.852 36.033 24.8575 36.0349 24.8632 36.0349C24.869 36.0349 24.8746 36.0369 24.8791 36.0406C26.2457 37.1738 28.0012 37.8464 29.8983 37.8464C31.923 37.8464 33.7523 37.1005 35.1553 35.8573C35.7769 35.3245 36.3097 34.6851 36.736 33.9747C37.4641 32.767 37.8904 31.3462 37.8904 29.8544C37.8904 27.9363 37.2155 26.1603 36.0788 24.7927Z" fill="#4A83E7"/>
</svg>
