<svg width="58" height="42" viewBox="0 0 58 42" fill="none" xmlns="http://www.w3.org/2000/svg">
<path d="M17.9022 28.1838C18.7104 27.9354 19.02 27.4384 19.0823 27.0654C19.02 26.5679 18.7324 26.3664 18.6385 25.4619C18.5288 24.409 19.4078 21.8902 19.6692 21.4408C19.6336 21.3549 19.5968 21.2789 19.5618 21.1907C18.3369 20.4136 17.0893 19.0084 16.5159 16.4686C16.2093 15.1107 16.463 13.7231 17.1974 12.5401C17.1974 12.5401 16.3665 6.74317 17.5366 2.95712C16.4436 2.43098 15.2533 2.5196 13.6219 2.68258C12.3699 2.80794 12.1922 3.07401 11.2305 2.93452C10.1285 2.77432 9.23419 2.43978 8.96523 2.30507C8.81026 2.22781 7.35665 3.51743 6.95197 4.5706C5.66824 7.90677 6.01292 10.194 6.33966 11.9246C6.32875 12.1018 6.31473 12.2784 6.31473 12.4575L6.61309 13.7251C6.6142 13.7385 6.61308 13.7509 6.61353 13.7636C5.96315 14.347 5.57117 15.1903 5.77812 16.107C6.20429 17.9922 7.12185 18.7568 8.02539 19.088C8.62467 20.7786 9.20614 21.8462 9.88468 22.5639C10.0562 23.3462 10.2078 24.4086 10.098 25.462C9.63998 29.874 0.356445 27.5499 0.356445 35.2958C0.356445 36.3102 3.24552 37.9652 10.2444 38.4418C10.2239 38.2924 10.2099 38.1418 10.2099 37.9878C10.2099 31.0416 14.7253 29.1614 17.9022 28.1838Z" fill="url(#paint0_linear_2224_432)"/>
<path d="M47.615 25.4621C47.5052 24.4093 47.6563 23.3475 47.8278 22.5664C48.5076 21.8474 49.0889 20.7793 49.6884 19.0878C50.5916 18.7564 51.5087 17.9915 51.9344 16.1071C52.1314 15.2392 51.7904 14.4365 51.2007 13.8583C51.628 12.4262 53.3082 5.79057 48.2619 4.44483C46.5837 2.34752 45.116 2.43124 42.5985 2.68284C41.3465 2.8082 41.1686 3.07427 40.2075 2.93478C39.9971 2.90416 39.7976 2.86598 39.6052 2.82523C39.7898 3.07683 39.9657 3.3369 40.1215 3.61477C41.806 6.6243 41.3611 10.4358 40.8318 12.7639C41.4631 13.9006 41.6696 15.2069 41.3844 16.4695C40.811 19.0078 39.5639 20.4126 38.3398 21.1898C38.2784 21.3438 38.098 21.6589 38.3464 21.9698C38.5734 22.3377 38.6141 22.3026 38.8616 22.564C39.0329 23.3463 39.1842 24.4088 39.0742 25.4621C38.9838 26.3361 37.4764 27.0657 37.9016 27.4188C38.3197 27.5949 38.8048 27.7789 39.3488 27.9786C42.4688 29.1242 47.6904 31.0419 47.6904 37.9881C47.6904 38.1375 47.6774 38.2841 47.658 38.429C54.52 37.9361 57.3562 36.3014 57.3562 35.2961C57.3562 27.5502 48.0728 29.8743 47.615 25.4621Z" fill="url(#paint1_linear_2224_432)"/>
<path d="M33.8669 26.6654C33.7406 25.4536 33.915 24.231 34.112 23.3304C34.8943 22.504 35.5645 21.2735 36.2544 19.3262C37.2942 18.9447 38.3502 18.0643 38.8405 15.8944C39.0663 14.8951 38.6742 13.9711 37.996 13.3053C38.4872 11.6566 40.4213 4.01645 34.6118 2.46721C32.6799 0.0522774 30.9893 0.148799 28.0914 0.438586C26.6495 0.582645 26.4447 0.889242 25.3381 0.728373C24.069 0.543902 23.0396 0.158707 22.7299 0.00384984C22.5516 -0.0855466 20.8777 1.39968 20.4114 2.61205C18.9341 6.45287 19.3309 9.08678 19.7067 11.0792C19.6943 11.2833 19.6773 11.4865 19.6773 11.6927L20.0215 13.1523C20.0226 13.1673 20.0215 13.1816 20.022 13.1967C19.2732 13.868 18.8222 14.839 19.0605 15.8944C19.5506 18.0651 20.6073 18.9452 21.6476 19.3264C22.3377 21.273 23.0066 22.5029 23.7885 23.3293C23.9859 24.2293 24.1604 25.453 24.034 26.6654C23.5065 31.7448 12.8184 29.0693 12.8184 37.9881C12.8184 39.3636 17.4273 41.7624 28.9505 41.7624C40.4736 41.7624 45.0826 39.3636 45.0826 37.9881C45.0826 29.0692 34.3944 31.7448 33.8669 26.6654ZM27.0798 40.286L24.1546 28.4042L27.7531 29.9019L27.5596 31.6407L28.1313 31.6283L27.0798 40.286ZM31.1066 40.286L30.0548 31.6283L30.6265 31.6407L30.433 29.9019L34.0316 28.4042L31.1066 40.286Z" fill="url(#paint2_linear_2224_432)"/>
<defs>
<linearGradient id="paint0_linear_2224_432" x1="3.23642" y1="5.33057" x2="24.9331" y2="12.4949" gradientUnits="userSpaceOnUse">
<stop offset="0.286458" stop-color="#4A83E7"/>
<stop offset="1" stop-color="#607BE7"/>
</linearGradient>
<linearGradient id="paint1_linear_2224_432" x1="40.7385" y1="5.56167" x2="62.5979" y2="12.9151" gradientUnits="userSpaceOnUse">
<stop offset="0.286458" stop-color="#4A83E7"/>
<stop offset="1" stop-color="#607BE7"/>
</linearGradient>
<linearGradient id="paint2_linear_2224_432" x1="17.6297" y1="3.5" x2="50.3679" y2="19.1286" gradientUnits="userSpaceOnUse">
<stop offset="0.286458" stop-color="#4A83E7"/>
<stop offset="1" stop-color="#607BE7"/>
</linearGradient>
</defs>
</svg>
