<svg width="100" height="92" viewBox="0 0 100 92" fill="none" xmlns="http://www.w3.org/2000/svg">
<path d="M46.6089 13.563L47.2119 12.7653L46.6089 13.563ZM69.9966 58.2365L69.0006 58.3257L69.9966 58.2365ZM44.8937 66.9915L45.7749 67.4642L44.8937 66.9915ZM83.5104 67.6271L82.937 68.4463L83.5104 67.6271ZM96.2293 91.2519L99.2033 80.0944L88.0537 83.0976L96.2293 91.2519ZM0.512695 2.00146C0.579317 2.99924 0.579272 2.99925 0.57923 2.99925C0.579222 2.99925 0.579185 2.99925 0.579169 2.99925C0.579137 2.99926 0.579121 2.99926 0.579122 2.99926C0.579124 2.99926 0.579193 2.99925 0.579329 2.99924C0.579601 2.99922 0.580141 2.99919 0.580947 2.99914C0.582559 2.99903 0.585236 2.99886 0.588969 2.99862C0.596437 2.99815 0.608129 2.99742 0.623973 2.99646C0.655663 2.99455 0.703959 2.99174 0.768281 2.9883C0.896927 2.98141 1.08965 2.97196 1.34181 2.96203C1.84615 2.94216 2.58801 2.92035 3.53018 2.91306L3.51472 0.913124C2.54989 0.920582 1.78687 0.942949 1.26308 0.963582C1.00117 0.973899 0.799026 0.983785 0.661313 0.991161C0.592455 0.994849 0.5397 0.99791 0.503634 1.00008C0.485601 1.00117 0.471739 1.00204 0.462121 1.00265C0.457312 1.00295 0.453565 1.0032 0.450887 1.00337C0.449548 1.00346 0.448477 1.00353 0.447674 1.00358C0.447273 1.00361 0.446939 1.00363 0.446672 1.00365C0.446539 1.00366 0.446422 1.00366 0.446322 1.00367C0.446273 1.00367 0.44621 1.00368 0.446185 1.00368C0.446127 1.00368 0.446074 1.00369 0.512695 2.00146ZM9.51541 3.06152C11.3232 3.16187 13.3353 3.3226 15.4858 3.57282L15.7169 1.58622C13.5222 1.33085 11.4697 1.16693 9.62626 1.0646L9.51541 3.06152ZM21.4034 4.45461C23.3081 4.80362 25.2646 5.22844 27.2377 5.74449L27.7438 3.80958C25.7178 3.2797 23.7124 2.84441 21.7639 2.48737L21.4034 4.45461ZM32.9349 7.49664C34.7903 8.16021 36.6285 8.917 38.4209 9.77953L39.2882 7.97733C37.4265 7.08149 35.523 6.29821 33.6085 5.61347L32.9349 7.49664ZM43.5872 12.6679C44.413 13.2031 45.2203 13.7669 46.0058 14.3607L47.2119 12.7653C46.3863 12.1411 45.5394 11.5498 44.675 10.9896L43.5872 12.6679ZM46.0058 14.3607C46.8717 15.0152 47.7065 15.6811 48.5114 16.3577L49.7982 14.8267C48.9667 14.1278 48.105 13.4404 47.2119 12.7653L46.0058 14.3607ZM53.1734 20.7298C54.6804 22.3098 56.0537 23.9346 57.3045 25.596L58.9023 24.3932C57.6051 22.67 56.1816 20.986 54.6207 19.3494L53.1734 20.7298ZM60.8349 30.9137C61.9218 32.7814 62.8799 34.6837 63.7227 36.6109L65.5551 35.8096C64.6829 33.815 63.6904 31.8442 62.5635 29.9077L60.8349 30.9137ZM65.9637 42.6011C66.6109 44.6538 67.1477 46.7233 67.5892 48.7986L69.5455 48.3824C69.0916 46.2491 68.5389 44.1176 67.8712 41.9997L65.9637 42.6011ZM68.6555 55.1292C68.791 56.1967 68.9054 57.2627 69.0006 58.3257L70.9926 58.1472C70.8953 57.0609 70.7783 55.9704 70.6396 54.8773L68.6555 55.1292ZM69.0006 58.3257C69.1076 59.5201 69.1933 60.7389 69.2474 61.9652L71.2454 61.8772C71.1899 60.6165 71.1019 59.3672 70.9926 58.1472L69.0006 58.3257ZM69.1138 69.2083C68.8757 71.719 68.4059 74.0812 67.6205 76.1478L69.49 76.8584C70.3576 74.5756 70.8556 72.0262 71.1049 69.3971L69.1138 69.2083ZM63.7663 81.7002C62.917 82.3645 61.9416 82.9054 60.8191 83.2969L61.4777 85.1853C62.8054 84.7223 63.975 84.0762 64.9986 83.2754L63.7663 81.7002ZM60.8191 83.2969C60.0763 83.5559 59.2924 83.7402 58.4837 83.8508L58.7547 85.8323C59.6863 85.7049 60.6007 85.4912 61.4777 85.1853L60.8191 83.2969ZM53.6365 83.6739C52.0253 83.3475 50.472 82.7628 49.1024 81.9503L48.082 83.6704C49.6564 84.6044 51.4225 85.266 53.2393 85.6341L53.6365 83.6739ZM45.5973 78.7584C44.7309 77.5038 44.1738 76.0468 44.0471 74.4018L42.053 74.5554C42.2084 76.5724 42.8955 78.3656 43.9516 79.8949L45.5973 78.7584ZM44.7661 69.7044C45.0263 68.9849 45.3599 68.2378 45.7749 67.4642L44.0125 66.5188C43.555 67.3715 43.1809 68.2071 42.8853 69.0242L44.7661 69.7044ZM45.7749 67.4642C46.1911 66.6884 46.6539 65.9862 47.1575 65.3523L45.5916 64.1082C45.0112 64.8386 44.4832 65.6412 44.0125 66.5188L45.7749 67.4642ZM50.9624 62.1323C52.4048 61.334 54.0129 60.7961 55.7448 60.4901L55.3968 58.5206C53.4788 58.8595 51.6557 59.4627 49.994 60.3824L50.9624 62.1323ZM60.9087 60.2191C62.599 60.3117 64.3417 60.5631 66.1007 60.9492L66.5295 58.9957C64.6794 58.5896 62.8294 58.3213 61.0181 58.2221L60.9087 60.2191ZM71.1777 62.4115C72.8427 63.0012 74.4848 63.6888 76.0719 64.4509L76.9376 62.6479C75.2891 61.8563 73.5809 61.1409 71.8455 60.5262L71.1777 62.4115ZM80.725 66.9924C81.4897 67.4646 82.2286 67.9505 82.937 68.4463L84.0839 66.8079C83.3432 66.2894 82.5722 65.7825 81.7759 65.2907L80.725 66.9924ZM82.937 68.4463C83.783 69.0386 84.5901 69.7496 85.3576 70.5547L86.8053 69.1748C85.9616 68.2897 85.0553 67.4879 84.0839 66.8079L82.937 68.4463ZM89.2319 75.8733C90.3691 77.8395 91.3405 79.9155 92.1511 81.895L94.0019 81.137C93.1663 79.0965 92.1565 76.9352 90.9632 74.872L89.2319 75.8733Z" fill="#5089EC"/>
</svg>
