<svg width="64" height="64" viewBox="0 0 64 64" fill="none" xmlns="http://www.w3.org/2000/svg">
<path d="M63.8901 10.2496V0.0380859H53.6785V4.12768H37.2329C36.7591 1.79611 34.7018 0.0380859 32.2331 0.0380859C29.4153 0.0380859 27.1211 2.33225 27.1211 5.15008C27.1211 7.6188 28.8792 9.67606 31.2107 10.1499V14.3392H11.8101V22.5059H6.69809V10.2496H10.7877V0.0380859H0.576172V10.2496H4.66577V24.5507H11.8101V32.7174H31.2107V35.7846H10.7877V40.8966H12.8325V37.8294H55.7233V39.949C52.6811 40.3854 50.15 42.8417 49.6887 45.8715C49.4144 47.6544 49.8009 49.4499 50.7734 50.9211C52.0577 52.8786 52.5564 54.2501 52.6437 56.1952H50.6238V63.3395H62.8801V56.1952H60.8478C60.9101 54.0506 61.6458 52.7664 62.9175 50.6219C63.5659 49.5247 63.9025 48.2778 63.9025 46.9936C63.9025 44.9488 63.0298 43.0038 61.5086 41.6447C60.4613 40.7096 59.1521 40.1236 57.7806 39.9241V35.7472H33.2555V32.68H52.6561V14.3392H33.2555V10.1499C35.2504 9.7384 36.8339 8.1674 37.2329 6.17248H53.6785V10.2621H63.8901V10.2496ZM2.62097 2.08288H8.74289V8.20481H2.62097V2.08288ZM60.8229 61.3072H52.6561V58.24H60.8229V61.3072ZM61.8453 47.0185C61.8453 47.9287 61.5959 48.8264 61.0972 49.6868C59.8005 51.8936 58.8404 53.502 58.7905 56.2077H57.7681V49.0633H59.8129V47.0185H53.6785V49.0633H55.7233V56.2077H54.6885C54.6012 53.8512 53.9778 52.1056 52.4691 49.8114C51.7709 48.7516 51.4966 47.4674 51.6961 46.1956C52.0327 44.0012 53.8905 42.2058 56.1099 41.9564C57.5936 41.7819 59.015 42.2307 60.1246 43.2033C61.2219 44.1633 61.8453 45.5598 61.8453 47.0185ZM50.6114 30.6726H13.8549V16.3715H50.6238V30.6726H50.6114ZM32.2331 8.20481C30.5499 8.20481 29.1659 6.8333 29.1659 5.13761C29.1659 3.45439 30.5374 2.07041 32.2331 2.07041C33.9288 2.07041 35.3003 3.44192 35.3003 5.13761C35.3003 6.8333 33.9163 8.20481 32.2331 8.20481ZM55.7233 2.08288H61.8453V8.20481H55.7233V2.08288Z" fill="#4A83E7"/>
</svg>
