<svg width="91" height="41" viewBox="0 0 91 41" fill="none" xmlns="http://www.w3.org/2000/svg">
<path d="M31.447 1.01678L31.4748 0.0171697L31.447 1.01678ZM62.7218 16.8644L61.9626 17.5154L62.7218 16.8644ZM52.0456 31.9549L51.0536 32.0817L52.0456 31.9549ZM74.163 16.7248L74.1717 17.7248L74.163 16.7248ZM90.9007 24.964L86.8437 14.1531L79.5097 23.072L90.9007 24.964ZM0.68457 13.0813C1.31815 13.855 1.3181 13.855 1.31806 13.855C1.31806 13.8551 1.31802 13.8551 1.318 13.8551C1.31797 13.8551 1.31795 13.8551 1.31793 13.8552C1.31791 13.8552 1.31794 13.8551 1.31802 13.8551C1.31817 13.855 1.31852 13.8547 1.31906 13.8542C1.32015 13.8533 1.32202 13.8518 1.32466 13.8497C1.32994 13.8454 1.33832 13.8386 1.34975 13.8294C1.37261 13.8109 1.40767 13.7828 1.45457 13.7456C1.54839 13.6712 1.68956 13.5604 1.87525 13.418C2.24666 13.1334 2.79588 12.7227 3.50013 12.2245L2.34513 10.5918C1.6182 11.106 1.04838 11.5319 0.658565 11.8307C0.463632 11.9801 0.313638 12.0978 0.21144 12.1789C0.160339 12.2194 0.121181 12.2508 0.0943232 12.2725C0.0808939 12.2833 0.0705391 12.2917 0.0633031 12.2976C0.0596851 12.3005 0.0568468 12.3028 0.0547937 12.3045C0.0537671 12.3054 0.0529368 12.306 0.0523036 12.3065C0.051987 12.3068 0.0517195 12.307 0.0515015 12.3072C0.0513925 12.3073 0.0512958 12.3074 0.0512115 12.3074C0.0511693 12.3075 0.0511153 12.3075 0.0510942 12.3075C0.0510433 12.3076 0.0509955 12.3076 0.68457 13.0813ZM8.14092 9.22189C9.59461 8.36197 11.2328 7.46496 13.01 6.60724L12.1407 4.80605C10.3059 5.69156 8.61784 6.61605 7.12266 7.50051L8.14092 9.22189ZM18.0775 4.45551C19.7697 3.83766 21.5294 3.29904 23.3289 2.8854L22.8808 0.936234C20.9902 1.37082 19.1507 1.93451 17.3916 2.57682L18.0775 4.45551ZM28.7116 2.07221C29.613 2.01158 30.5165 1.99129 31.4191 2.0164L31.4748 0.0171697C30.5051 -0.00980232 29.5381 0.0120941 28.5774 0.0767232L28.7116 2.07221ZM31.4191 2.0164C32.4229 2.04432 33.4033 2.10603 34.3612 2.19946L34.5553 0.208903C33.5509 0.110931 32.5243 0.0463631 31.4748 0.0171697L31.4191 2.0164ZM40.1495 3.20002C42.1044 3.69349 43.9546 4.32707 45.7083 5.0782L46.4958 3.23975C44.6478 2.44821 42.698 1.78059 40.639 1.26085L40.1495 3.20002ZM50.9111 7.8001C52.5973 8.85151 54.1825 10.0139 55.6759 11.2598L56.9571 9.72406C55.399 8.42422 53.7397 7.20687 51.9693 6.10297L50.9111 7.8001ZM59.978 15.3125C60.6615 16.0334 61.3226 16.769 61.9626 17.5154L63.4809 16.2135C62.8205 15.4434 62.1372 14.683 61.4294 13.9365L59.978 15.3125ZM61.9626 17.5154C62.5029 18.1454 63.0405 18.7972 63.5629 19.4654L65.1386 18.2336C64.5949 17.5383 64.0378 16.863 63.4809 16.2135L61.9626 17.5154ZM66.3878 23.5846C67.2575 25.0864 67.9322 26.5876 68.3129 28.0405L70.2475 27.5335C69.8082 25.8569 69.0478 24.187 68.1185 22.5823L66.3878 23.5846ZM68.3751 32.576C68.1721 33.2626 67.8531 33.9323 67.3948 34.5801L69.0275 35.7352C69.6113 34.9101 70.0273 34.0419 70.293 33.1431L68.3751 32.576ZM67.3948 34.5801C66.9419 35.2202 66.3729 35.8077 65.7178 36.3224L66.9534 37.8951C67.7455 37.2727 68.4527 36.5476 69.0275 35.7352L67.3948 34.5801ZM61.2504 38.3153C59.5862 38.6066 57.9452 38.4354 56.5859 37.7357L55.6705 39.5139C57.4955 40.4533 59.5963 40.6353 61.5953 40.2853L61.2504 38.3153ZM53.6161 34.2382C53.3543 33.5448 53.1547 32.7452 53.0375 31.8281L51.0536 32.0817C51.1885 33.1366 51.4224 34.09 51.7451 34.9447L53.6161 34.2382ZM53.0375 31.8281C52.9358 31.0326 52.9335 30.2795 53.017 29.5667L51.0306 29.3341C50.9275 30.2145 50.9321 31.1309 51.0536 32.0817L53.0375 31.8281ZM54.6643 25.4254C55.5199 24.238 56.67 23.1736 58.0427 22.2399L56.9178 20.5862C55.3951 21.622 54.061 22.8415 53.0416 24.2562L54.6643 25.4254ZM62.2893 20.0224C63.7662 19.4312 65.3344 18.9533 66.9289 18.5896L66.484 16.6397C64.7984 17.0242 63.1294 17.5318 61.546 18.1657L62.2893 20.0224ZM71.7444 17.8398C72.5705 17.7699 73.3829 17.7317 74.1717 17.7248L74.1542 15.7248C73.3131 15.7322 72.4503 15.7729 71.5758 15.8469L71.7444 17.8398ZM74.1717 17.7248C74.8665 17.7187 75.59 17.7929 76.3331 17.9356L76.7105 15.9715C75.8591 15.808 75.0019 15.7174 74.1542 15.7248L74.1717 17.7248ZM80.6048 19.3605C82.0268 20.0074 83.4025 20.7833 84.652 21.5712L85.7188 19.8795C84.4135 19.0564 82.957 18.2333 81.4329 17.54L80.6048 19.3605Z" fill="#5089EC"/>
</svg>
