<svg width="426" height="427" viewBox="0 0 426 427" fill="none" xmlns="http://www.w3.org/2000/svg">
<g opacity="0.58">
<path opacity="0.33" d="M75.2829 33.9525C23.7974 52.6517 23.9581 100.839 26.3937 188.505C28.8294 276.171 4.90962 318.147 63.2612 370.021C121.613 421.895 283.128 416.985 356.322 379.863C429.515 342.741 424.105 314.96 410.055 287.844C396.006 260.727 343.74 273.462 267.199 196.949C190.657 120.436 177.812 -3.27165 75.2829 33.9525Z" fill="#B3CEFF"/>
<path d="M223.884 79.6578C203.006 82.9016 245.907 153.611 292.718 189.83C339.53 226.05 365.582 236.249 377.162 217.449C388.742 198.648 361.463 190.237 313.199 159.77C252.373 121.38 234.342 78.0247 223.884 79.6578Z" fill="url(#paint0_linear_2302_450)"/>
<path d="M84.4846 68.4874C42.1079 89.3347 65.573 182.199 59.7446 233.092C53.8973 283.986 52.6755 331.253 121.978 363.299C191.28 395.345 347.178 367.015 367.602 336.142C388.026 305.268 362.735 294.217 313.985 275.222C265.236 256.226 221.989 202.632 194.68 144.556C167.37 86.4799 139.435 41.4502 84.4846 68.4874Z" fill="#D5E4FF"/>
</g>
<path d="M304.752 251.507H308.861V242.893H304.577C304.126 241.305 303.437 239.817 302.573 238.455L305.717 235.317L299.617 229.228L296.223 232.616C294.92 231.916 293.505 231.391 292.027 231.066V226.09H283.397V231.378C282.056 231.778 280.791 232.341 279.626 233.041L275.806 229.228L269.706 235.317L273.589 239.192C272.925 240.342 272.399 241.593 272.036 242.893H266.562V251.507H271.861C272.199 252.895 272.7 254.22 273.351 255.445L269.706 259.083L275.806 265.172L279.213 261.771C280.503 262.596 281.906 263.247 283.409 263.697V268.31H292.039V264.009C293.692 263.647 295.246 263.034 296.673 262.221L299.629 265.172L305.729 259.083L302.836 256.195C303.688 254.758 304.339 253.182 304.752 251.507ZM294.882 247.531C294.832 251.582 291.012 254.808 286.991 253.995C283.397 253.27 281.33 249.707 282.019 246.193C282.983 241.28 289.396 239.305 292.966 242.88C293.855 243.781 294.494 244.931 294.757 246.231C294.845 246.669 294.882 247.094 294.882 247.531Z" fill="#EBEBFF"/>
<path d="M117.322 328.195C139.583 328.195 157.629 327.428 157.629 326.482C157.629 325.536 139.583 324.77 117.322 324.77C95.0615 324.77 77.0156 325.536 77.0156 326.482C77.0156 327.428 95.0615 328.195 117.322 328.195Z" fill="#CDD8F7"/>
<path d="M336.829 328.195C359.09 328.195 377.136 327.428 377.136 326.482C377.136 325.536 359.09 324.77 336.829 324.77C314.568 324.77 296.522 325.536 296.522 326.482C296.522 327.428 314.568 328.195 336.829 328.195Z" fill="#CDD8F7"/>
<path d="M292.44 328.195C299.067 328.195 304.439 327.736 304.439 327.17C304.439 326.604 299.067 326.145 292.44 326.145C285.813 326.145 280.44 326.604 280.44 327.17C280.44 327.736 285.813 328.195 292.44 328.195Z" fill="#CDD8F7"/>
<path d="M143.976 287.699H103.732V292.85H143.976V287.699Z" fill="#E3E7F9"/>
<path d="M143.976 290.663H103.732V292.863H143.976V290.663Z" fill="#A9BAEA"/>
<path d="M149.738 326.368H147.709L138.716 260.618L137.589 252.317L139.292 252.154L143.138 251.804L143.651 257.68L149.738 326.368Z" fill="#A9BAEA"/>
<path d="M148.423 326.368H147.709L137.589 252.317L139.292 252.155L148.423 326.368Z" fill="#A9BAEA"/>
<path d="M143.651 257.68C142.211 258.581 140.144 259.781 138.716 260.618L137.576 252.317L139.292 252.167L143.125 251.817L143.651 257.68Z" fill="#A9BAEA"/>
<path d="M99.1982 326.368H101.227L110.221 260.618L111.36 252.317L109.644 252.154L105.812 251.804L105.286 257.68L99.1982 326.368Z" fill="#A9BAEA"/>
<path d="M100.514 326.368H101.228L111.361 252.317L109.645 252.155L100.514 326.368Z" fill="#A9BAEA"/>
<path d="M105.285 257.68C106.726 258.581 108.792 259.781 110.22 260.618L111.36 252.317L109.644 252.167L105.811 251.817L105.285 257.68Z" fill="#A9BAEA"/>
<path d="M146.994 244.653V252.454C146.994 253.892 145.817 255.067 144.377 255.067H104.571C103.118 255.067 101.953 253.892 101.953 252.454V244.653C101.953 243.203 103.131 242.04 104.571 242.04H144.377C145.817 242.04 146.994 243.215 146.994 244.653Z" fill="#E3E7F9"/>
<path d="M146.994 249.729V252.455C146.994 253.892 145.817 255.067 144.377 255.067H104.571C103.118 255.067 101.953 253.892 101.953 252.455V250.167C103.581 250.904 106.137 251.679 109.656 251.679C115.455 251.679 133.004 252.029 140.281 251.679C144.126 251.504 146.042 250.567 146.994 249.729Z" fill="#7794FC"/>
<path d="M115.843 307.841L115.505 310.604L114.866 315.992L108.19 315.817L108.428 311.579L108.641 307.566L115.843 307.841Z" fill="url(#paint1_linear_2302_450)"/>
<path d="M115.844 307.841L115.506 310.604L108.429 311.579L108.642 307.566L115.844 307.841Z" fill="url(#paint2_linear_2302_450)"/>
<path d="M116.369 325.932H92.9971C92.9971 325.932 93.3603 324.557 94.0993 323.107C94.5753 322.169 95.2141 321.181 96.0282 320.519C98.0698 318.831 102.692 319.193 103.932 318.218C105.172 317.243 108.291 314.667 108.291 314.667H115.217L116.369 325.932Z" fill="#D1D1FF"/>
<path d="M123.396 227.214C123.396 227.214 123.246 230.639 123.021 234.415C122.958 235.403 122.895 236.416 122.82 237.403C122.57 240.866 122.269 243.942 121.969 244.242C121.255 244.955 117.697 249.918 116.282 250.981C115.919 251.256 114.754 252.081 113.238 253.144C108.917 256.169 101.69 261.17 101.54 261.27L107.865 269.296L108.667 270.309L117.898 282.036L109.193 292.676C109.193 292.676 108.566 291.963 107.502 290.738C103.544 286.225 93.586 274.835 87.8995 267.984C85.6324 265.246 84.0417 263.233 83.7787 262.683C82.714 260.382 82.8142 254.881 85.908 252.218C87.3108 251.006 107.765 233.415 107.765 233.415L107.978 232.452L109.368 226.139L120.177 226.964L123.396 227.214Z" fill="#44A7CC"/>
<path d="M122.821 237.403C122.57 240.866 122.27 243.942 121.969 244.242C121.255 244.954 117.698 249.918 116.282 250.98C114.867 252.03 101.74 261.12 101.54 261.27L99.2354 257.369L122.821 237.403Z" fill="#007A96"/>
<path d="M116.871 283.499L111.836 289.588C111.836 289.588 112.237 293.138 112.199 294.714C112.161 296.289 108.942 299.627 108.942 302.265C108.942 304.915 111.197 308.041 111.197 308.041L126.077 290.063L116.871 283.499Z" fill="#D1D1FF"/>
<path d="M138.853 250.281C135.584 255.744 123.572 270.684 123.572 270.684L117.347 309.516L113.752 309.454L106.5 309.329C106.5 309.329 106.938 300.59 107.464 290.726C107.853 283.524 108.291 275.71 108.642 270.297C108.867 266.796 109.055 264.296 109.168 263.571C109.406 262.033 111.247 257.57 113.226 253.131C115.581 247.868 118.124 242.654 118.412 242.454C118.687 242.267 118.975 238.041 119.176 234.053C119.364 230.44 119.476 227.027 119.476 227.027L120.165 226.964L135.859 225.426L139.379 225.076L140.619 231.29C140.619 231.29 141.07 232.815 141.458 234.84C141.721 236.203 141.972 237.778 142.034 239.279C142.235 243.004 140.319 247.818 138.853 250.281Z" fill="#44A7CC"/>
<path d="M138.853 250.281C135.584 255.744 123.572 270.684 123.572 270.684L117.347 309.516L113.752 309.454C115.468 299.502 121.117 267.221 122.319 265.871C123.747 264.271 137.25 247.418 138.139 244.229C139.028 241.041 137.588 238.403 137.425 237.666C136.799 234.678 136.172 228.702 135.859 225.414L139.379 225.063L140.619 231.277C140.619 231.277 141.859 235.54 142.047 239.254C142.235 243.004 140.318 247.818 138.853 250.281Z" fill="#007A96"/>
<path d="M141.47 234.841C140.143 234.766 138.389 234.691 137.249 234.716C133.416 234.828 127.442 234.628 123.008 234.416C122.645 234.403 122.306 234.378 121.968 234.366C121.442 234.341 120.44 234.228 119.175 234.065C115.893 233.64 110.846 232.89 107.965 232.465L109.355 226.152L120.165 226.977L135.859 225.439L139.378 225.089L140.618 231.302C140.631 231.29 141.069 232.828 141.47 234.841Z" fill="#007A96"/>
<path d="M105.147 219.238C105.147 219.238 103.043 219.863 100.738 217.375C98.4338 214.887 98.9599 208.411 98.9599 208.411C98.9599 208.411 101.452 208.949 103.494 212.674C105.536 216.4 105.147 219.238 105.147 219.238Z" fill="url(#paint3_linear_2302_450)"/>
<path d="M105.26 201.735C105.26 201.735 95.6656 212.137 95.4276 212.5C95.1896 212.85 93.173 217.938 95.0769 219.826C96.9682 221.714 98.5714 223.702 101.653 220.864C104.734 218.026 109.231 210.424 109.231 210.424C109.231 210.424 107.277 201.973 105.26 201.735Z" fill="#C64534"/>
<path d="M113.438 190.258C113.438 191.933 113.276 196.259 113.1 200.26C112.912 204.486 112.724 208.349 112.724 208.349L105.147 219.226C105.147 219.226 105.272 217.338 103.606 213.55C103.355 212.975 103.067 212.375 102.767 211.774C101.051 208.349 98.7461 204.686 98.7461 204.686C98.7461 204.686 108.103 185.882 110.708 185.295C113.326 184.707 113.438 186.832 113.438 190.258Z" fill="#4A83E7"/>
<path d="M113.101 200.259C112.913 204.485 112.725 208.348 112.725 208.348L105.147 219.225C105.147 219.225 105.273 217.337 103.607 213.549C103.356 212.974 103.068 212.374 102.768 211.774C105.849 211.736 107.753 208.561 108.479 206.873C110.27 202.697 110.784 195.996 110.784 195.996L113.101 200.259Z" fill="#313131"/>
<path d="M144.063 196.31C143.925 201.035 143.374 205.349 143.049 207.312C142.222 212.287 142.335 225.84 142.335 225.84C142.335 225.84 142.61 229.916 141.896 230.766C139.617 233.491 138.702 234.041 122.945 233.854C113.351 233.741 108.929 230.566 107.852 229.816C106.788 229.065 108.09 226.703 108.566 222.352C108.942 218.864 108.792 209.349 108.291 202.973C108.165 201.41 108.028 200.023 107.865 198.973C107.038 193.622 106.675 192.009 107.865 189.396C109.042 186.783 109.756 185.783 112.361 184.045C112.887 183.695 113.965 183.257 115.355 182.795C115.931 182.595 116.557 182.407 117.234 182.194C121.768 180.832 128.143 179.319 131.763 178.594C132.678 178.406 133.417 178.269 133.918 178.206C134.243 178.156 134.556 178.131 134.857 178.106C137.738 177.894 139.491 178.706 139.491 178.706C143.525 180.807 144.276 189.046 144.063 196.31Z" fill="#4A83E7"/>
<path d="M122.846 182.108C127.43 180.97 129.484 187.759 124.988 189.209C124.637 189.322 124.261 189.409 123.873 189.459C120.742 189.859 119.614 188.259 119.339 186.396C119.051 184.533 120.278 182.77 122.107 182.308C122.345 182.233 122.595 182.17 122.846 182.108Z" fill="#313131"/>
<path d="M126.415 173.73C126.415 173.73 126.378 178.156 126.34 181.719C126.315 183.92 126.277 185.782 126.252 186.058C126.165 186.77 125.25 188.095 122.908 188.095C120.566 188.095 119.564 186.233 119.564 186.233L119.263 178.181L119.013 171.442L126.415 173.73Z" fill="#FFB5A9"/>
<path d="M126.415 173.73C126.415 173.73 126.403 176.031 126.378 178.644C125.802 179.031 125.05 179.231 124.086 178.956C122.457 178.506 120.503 176.306 119.138 174.506L119.025 171.455L126.415 173.73Z" fill="#C64534"/>
<path d="M132.364 161.479V168.842C132.364 172.318 131.3 176.056 128.056 176.981C127.705 177.081 127.329 177.156 126.928 177.181C123.183 177.481 118.374 172.531 116.783 167.017C116.62 166.454 116.495 165.879 116.395 165.317C115.418 159.166 118.311 156.078 121.279 155.102C121.743 154.952 122.194 154.827 122.632 154.727C128.845 153.365 131.851 157.59 132.289 160.691C132.339 160.966 132.364 161.229 132.364 161.479Z" fill="#FFB5A9"/>
<path d="M126.753 163.616C126.753 163.616 126.202 162.741 124.824 162.741C123.447 162.741 122.958 164.166 122.958 164.166C122.958 164.166 123.647 163.404 124.824 163.316C126.002 163.229 126.753 163.616 126.753 163.616Z" fill="#313131"/>
<path d="M132.139 163.666C132.139 163.666 131.838 162.741 130.824 162.629C129.809 162.504 129.496 163.804 129.496 163.804C129.496 163.804 129.884 163.179 130.761 163.204C131.638 163.229 132.139 163.666 132.139 163.666Z" fill="#313131"/>
<path d="M125.212 167.517C125.593 167.517 125.901 167.002 125.901 166.367C125.901 165.732 125.593 165.217 125.212 165.217C124.832 165.217 124.523 165.732 124.523 166.367C124.523 167.002 124.832 167.517 125.212 167.517Z" fill="#313131"/>
<path d="M131.789 166.367C131.789 167.017 131.488 167.542 131.125 167.542C130.762 167.542 130.461 167.017 130.461 166.367C130.461 165.717 130.762 165.192 131.125 165.192C131.488 165.179 131.789 165.717 131.789 166.367Z" fill="#313131"/>
<path d="M128.757 166.467C128.757 166.467 129.108 167.792 129.834 168.417C130.561 169.042 130.987 169.042 130.987 169.042C130.987 169.042 130.36 169.467 129.584 169.767C128.807 170.067 128.206 169.992 128.206 169.992C128.206 169.992 128.857 169.817 129.484 169.517C130.11 169.217 130.11 169.217 130.11 169.217C130.11 169.217 128.557 167.955 128.757 166.467Z" fill="#313131"/>
<path d="M125.501 170.956C125.501 170.956 126.378 172.431 127.856 172.506C129.334 172.581 130.048 172.143 130.048 172.143C130.048 172.143 129.158 173.106 127.73 172.931C125.914 172.718 125.501 170.956 125.501 170.956Z" fill="#313131"/>
<path d="M132.302 160.702C131.525 161.052 130.035 161.54 127.905 161.427C124.661 161.265 122.732 160.277 122.732 160.277C122.732 160.277 121.517 162.753 120.315 164.503C119.513 165.653 117.848 166.553 116.783 167.028C116.62 166.466 116.495 165.891 116.395 165.328C115.418 159.177 118.311 156.089 121.279 155.114C128.419 152.763 131.826 157.389 132.302 160.702Z" fill="#C64534"/>
<path d="M133.542 155.49C133.504 155.927 133.454 156.327 133.392 156.69C132.916 159.39 131.663 160.353 127.254 160.428C122.244 160.516 121.217 159.115 121.217 159.115C121.217 159.115 120.553 162.028 119.451 163.679C118.349 165.329 118.249 165.467 118.249 165.467L117.835 168.405L116.858 166.704L119.113 171.855C119.113 171.855 113.564 166.879 112.236 164.516C111.861 163.854 111.735 163.066 111.748 162.291C111.785 160.316 112.762 158.278 113.076 157.765C113.514 157.053 115.606 155.727 117.986 155.677C118.925 155.652 119.852 153.377 125.401 151.177C129.521 149.514 133.905 151.689 133.542 155.49Z" fill="#474747"/>
<path d="M133.392 156.69C132.916 159.39 132.653 160.953 129.383 161.003C124.373 161.091 122.67 160.091 122.67 160.091C122.67 160.091 121.705 162.478 119.964 164.254C118.574 165.667 118.236 165.454 118.236 165.454L117.823 168.392L119.1 171.83C119.1 171.83 113.551 166.854 112.224 164.491C111.848 163.829 111.723 163.041 111.735 162.266C111.835 162.378 111.936 162.503 112.036 162.629C113.013 163.841 114.253 163.404 114.253 163.404C114.253 163.404 114.741 163.404 115.869 162.528C116.971 161.666 118.111 160.041 118.173 159.953C118.173 159.966 118.123 160.116 117.785 161.266C117.409 162.541 116.983 163.104 116.946 163.129C116.958 163.116 117.234 162.966 118.662 161.153C120.14 159.29 120.19 157.365 120.19 157.365C120.19 157.365 122.795 157.915 125.2 157.415C127.605 156.915 129.521 156.152 129.521 156.152C129.521 156.152 129.521 156.152 128.732 156.815C127.943 157.478 126.478 157.965 126.478 157.965C126.478 157.965 127.455 158.078 130.561 157.528C131.863 157.29 132.765 156.977 133.392 156.69Z" fill="#313131"/>
<path d="M117.935 164.853C117.935 164.853 117.058 163.316 115.455 164.578C113.864 165.841 114.691 168.529 115.505 169.517C116.332 170.504 118.261 170.729 118.474 170.392C118.699 170.067 118.586 169.567 118.586 169.567C118.586 169.567 117.985 165.566 117.935 164.853Z" fill="#FFB5A9"/>
<path d="M116.884 169.005C117.547 169.068 117.597 168.605 117.172 168.155C116.733 167.705 116.37 167.717 116.32 167.067C116.27 166.417 116.896 166.117 117.109 165.955C117.309 165.792 117.021 164.792 116.094 165.329C115.932 165.43 115.744 165.592 115.568 165.792C115.769 165.417 116.057 165.117 116.295 164.967C117.284 164.304 117.61 165.905 117.397 166.092C117.172 166.292 116.495 166.292 116.545 167.08C116.595 167.88 117.009 167.517 117.485 168.067C117.936 168.618 117.597 169.08 116.884 169.005Z" fill="#C64534"/>
<path d="M153.007 221.126C150.99 221.713 148.861 220.776 146.844 218.288C146.205 217.513 145.278 215.637 144.289 213.449C143.349 211.374 142.373 208.999 141.558 206.973C140.506 204.348 139.742 202.322 139.742 202.322L147.921 197.234C147.921 197.234 148.284 198.297 148.836 199.859C149.512 201.822 150.489 204.585 151.391 207.098C152.18 209.274 152.906 211.261 153.37 212.374C154.785 215.8 155.023 220.538 153.007 221.126Z" fill="#FFB5A9"/>
<path d="M151.39 207.098C150.401 207.885 148.547 209.386 146.618 211.073C145.704 211.874 144.927 212.699 144.301 213.449C143.361 211.373 142.384 208.998 141.57 206.973C143.311 205.272 146.706 201.959 148.835 199.859C149.511 201.834 150.476 204.597 151.39 207.098Z" fill="#C64534"/>
<path d="M151.591 205.874C151.591 205.874 150.539 206.324 148.51 207.574C147.996 207.887 147.42 208.249 146.794 208.674C146.781 208.687 146.756 208.699 146.731 208.712C146.318 208.987 145.917 209.262 145.529 209.524C142.986 211.275 141.27 212.625 141.27 212.625C141.27 212.625 135.859 199.91 134.206 192.284C134.118 191.884 134.043 191.496 133.98 191.121C133.968 191.034 133.955 190.946 133.93 190.859C132.74 183.532 132.239 178.694 136.022 178.094C139.817 177.506 142.798 178.956 144.339 182.157C145.892 185.333 151.591 205.874 151.591 205.874Z" fill="#4A83E7"/>
<path d="M166.095 188.132C166.221 188.845 166.634 188.958 165.745 190.67C164.855 192.383 164.505 192.971 164.505 192.971C164.505 192.971 163.653 196.571 162.526 200.997C161.085 206.636 159.194 213.612 157.992 216.262C155.862 220.988 153.846 221.939 151.353 221.351C150.501 221.151 149.775 220.763 149.224 220.213C147.871 218.888 147.495 216.6 148.51 213.662C149.938 209.524 159.294 192.608 159.294 191.908C159.294 191.208 157.578 187.595 157.691 186.057C157.804 184.519 159.645 180.206 159.645 180.206C159.645 180.206 163.139 175.83 163.966 175.068C164.793 174.305 165.92 173.642 166.333 173.705C166.521 173.73 166.609 173.98 166.634 174.267C166.659 174.63 166.584 175.068 166.459 175.243C166.221 175.543 164.442 177.605 164.091 178.793C163.741 179.981 163.202 181.981 163.202 181.981C163.202 181.981 166.634 183.219 166.809 184.282C166.947 185.144 166.321 186.657 166.133 187.582C166.095 187.807 166.083 187.995 166.095 188.132Z" fill="#FFB5A9"/>
<path d="M166.133 187.595C165.694 187.658 165.206 187.72 164.767 187.795C163.652 187.971 162.989 189.033 162.989 189.033C162.989 189.033 162.588 188.458 161.962 187.52C161.335 186.595 159.344 185.883 159.206 185.22C159.068 184.557 159.519 183.307 159.92 182.332C160.321 181.357 161.248 180.207 161.924 179.144C162.588 178.081 164.767 174.793 165.97 174.306C166.308 174.168 166.508 174.181 166.634 174.268C166.659 174.631 166.583 175.068 166.458 175.243C166.22 175.543 164.442 177.606 164.091 178.794C163.74 179.982 163.202 181.982 163.202 181.982C163.202 181.982 166.634 183.22 166.809 184.282C166.959 185.145 166.32 186.67 166.133 187.595Z" fill="#C64534"/>
<path d="M163.54 180.168C164.392 179.768 164.78 180.118 165.056 180.744C165.319 181.369 164.78 184.644 164.417 184.819C164.066 184.994 162.952 184.957 162.864 184.382C162.764 183.807 162.876 180.481 163.54 180.168Z" fill="#FFB5A9"/>
<path d="M165.494 181.006C166.346 180.606 166.734 180.956 167.01 181.581C167.273 182.207 166.596 185.345 166.246 185.532C165.895 185.72 164.818 185.707 164.73 185.132C164.642 184.557 164.83 181.319 165.494 181.006Z" fill="#FFB5A9"/>
<path d="M167.286 182.119C168.2 181.932 168.701 182.069 168.764 182.707C168.826 183.345 167.912 186.095 167.536 186.195C167.16 186.308 166.434 186.283 166.409 185.42C166.371 184.57 167.048 182.157 167.286 182.119Z" fill="#FFB5A9"/>
<path d="M161.811 185.307L162.701 183.982C162.701 183.982 164.479 184.82 165.494 184.295C166.521 183.757 166.421 183.269 166.07 183.007C165.719 182.744 162.914 181.582 162.388 181.582C161.849 181.582 159.407 183.494 158.705 184.107C157.991 184.732 157.503 185.62 157.64 186.232C157.778 186.845 158.705 190.271 159.018 190.708C159.331 191.146 161.774 190.933 162.525 190.533C163.277 190.146 163.941 186.157 161.811 185.307Z" fill="#FFB5A9"/>
<path d="M162.513 201.01C161.072 206.648 159.181 213.625 157.979 216.275C155.849 221.001 153.833 221.951 151.34 221.363C150.489 221.163 149.762 220.776 149.211 220.226C150.727 220.013 152.367 219.488 153.77 218.338C156.163 216.4 159.933 207.586 162.513 201.01Z" fill="#C64534"/>
<path d="M145.529 209.523C142.986 211.274 141.27 212.624 141.27 212.624C141.27 212.624 135.859 199.909 134.206 192.283C136.248 196.946 138.39 199.522 141.245 203.685C142.723 205.823 144.439 207.986 145.529 209.523Z" fill="#313131"/>
<path d="M113.401 188.182L105.523 189.483C104.884 189.595 104.27 189.17 104.145 188.532L101.677 175.743L100.575 170.066C100.45 169.404 100.888 168.766 101.552 168.654L109.856 167.253C110.508 167.141 111.121 167.579 111.234 168.229L113.764 183.156L114.378 186.795C114.503 187.457 114.065 188.07 113.401 188.182Z" fill="#D1D1FF"/>
<path d="M112.524 188.295L104.646 189.595C104.007 189.708 103.393 189.283 103.268 188.645L100.8 175.855L99.6981 170.179C99.5729 169.517 100.011 168.879 100.675 168.767L108.979 167.366C109.631 167.254 110.244 167.691 110.357 168.341L112.887 183.269L113.501 186.907C113.614 187.57 113.175 188.195 112.524 188.295Z" fill="#8E8EFF"/>
<path d="M112.525 188.295L104.646 189.595C104.007 189.707 103.394 189.282 103.268 188.645L100.801 175.855C102.329 176.618 103.97 177.743 104.646 179.231C106.074 182.331 107.577 184.732 109.794 184.557C110.946 184.469 112.061 183.856 112.888 183.281L113.502 186.919C113.614 187.57 113.176 188.195 112.525 188.295Z" fill="#8E8EFF"/>
<path d="M109.468 180.469C109.468 180.519 109.443 180.569 109.406 180.619C109.08 181.094 107.928 180.919 106.8 180.857C105.673 180.794 104.258 181.119 103.657 181.332C103.068 181.544 103.181 181.87 103.181 181.87C103.181 181.87 103.393 181.845 103.857 181.87C104.333 181.895 106.312 181.845 107.502 181.995C108.642 182.132 109.155 182.22 109.005 182.82C109.005 182.845 108.992 182.87 108.98 182.882C108.767 183.532 108.116 183.507 106.375 183.645C104.633 183.795 103.744 184.182 103.744 184.182C103.744 184.182 105.435 184.157 106.349 184.207C107.239 184.27 108.253 184.245 108.166 184.92C108.166 184.945 108.153 184.97 108.153 184.995C107.978 185.758 103.419 185.995 103.419 185.995C103.419 185.995 103.181 186.345 102.767 187.17C102.354 187.996 100.989 190.009 100.989 190.009C100.989 190.009 102.254 201.736 102.855 209.487C103.105 212.788 103.243 215.363 103.118 216.026C102.579 218.751 102.291 220.226 100.513 221.639C98.734 223.052 97.3187 222.289 95.3021 220.989C93.2855 219.689 92.7594 217.739 92.6342 214.775C92.5089 211.812 95.9659 190.209 95.7906 189.546C95.6152 188.883 96.5922 185.333 97.256 182.582C97.9199 179.832 99.0973 178.144 99.4229 177.881C99.7486 177.619 101.076 176.231 102.204 176.231C103.331 176.231 104.721 176.131 106.349 176.481C107.978 176.831 108.717 177.844 108.454 178.194C108.441 178.219 108.416 178.244 108.391 178.256C108.116 178.531 107.652 178.469 106.813 178.306C105.924 178.131 105.573 178.144 104.27 178.319C102.968 178.494 102.316 178.969 102.316 178.969H102.341C102.467 178.956 103.155 178.906 103.945 178.906C104.834 178.906 106.162 178.906 107.439 179.144C108.604 179.382 109.531 180.007 109.468 180.469Z" fill="#FFB5A9"/>
<path d="M108.404 178.282C108.128 178.557 107.665 178.494 106.825 178.332C105.936 178.157 105.585 178.169 104.283 178.344C102.98 178.519 102.329 178.994 102.329 178.994L101.377 179.019C101.377 179.019 101.765 178.394 102.354 178.107C102.943 177.806 104.07 177.694 105.172 177.631C106.274 177.569 107.201 177.894 107.69 178.044C107.978 178.144 108.216 178.219 108.404 178.282Z" fill="#C64534"/>
<path d="M109.469 180.47C109.469 180.52 109.443 180.57 109.406 180.62C109.08 181.095 107.928 180.92 106.801 180.857C105.673 180.795 104.258 181.12 103.657 181.332C103.068 181.545 103.181 181.87 103.181 181.87L102.254 182.12C102.254 182.12 102.592 181.132 103.131 180.77C103.669 180.42 105.736 180.12 106.037 180.095C106.337 180.07 108.942 180.595 109.231 180.532C109.318 180.52 109.406 180.495 109.469 180.47Z" fill="#C64534"/>
<path d="M109.018 182.807C109.018 182.832 109.005 182.857 108.993 182.869C108.78 183.519 108.129 183.494 106.388 183.632C104.647 183.782 103.757 184.169 103.757 184.169L102.567 184.344C102.567 184.344 102.805 183.869 103.194 183.719C103.582 183.569 103.97 183.307 104.997 183.182C106.037 183.069 107.34 183.119 108.141 183.007C108.504 182.969 108.805 182.882 109.018 182.807Z" fill="#C64534"/>
<path d="M108.178 184.92C108.178 184.945 108.166 184.97 108.166 184.995C107.99 185.758 103.431 185.995 103.431 185.995C103.431 185.995 103.193 186.345 102.78 187.17C102.366 187.995 101.001 190.008 101.001 190.008C101.001 190.008 102.266 201.735 102.867 209.487L99.3604 190.258C99.3604 190.258 99.7111 190.346 100.287 189.633C100.863 188.921 102.241 185.683 102.241 185.683C102.241 185.683 102.905 185.458 103.444 185.37C103.982 185.282 105.084 185.282 106.337 185.232C107.239 185.232 107.89 185.032 108.178 184.92Z" fill="#C64534"/>
<path d="M302.811 275.197C302.56 278.598 302.097 282.373 301.521 286.099C299.855 296.963 297.375 307.465 297.375 307.465L292.152 307.79C292.152 307.79 290.949 300.189 291.4 289.837C291.513 287.112 291.751 284.186 292.152 281.161C294.068 266.683 298.552 256.669 300.255 257.206C301.959 257.731 303.775 261.895 302.811 275.197Z" fill="#E3E7F9"/>
<path d="M301.521 286.1C299.855 296.964 297.375 307.466 297.375 307.466L292.152 307.791C292.152 307.791 290.949 300.19 291.4 289.838C292.465 289.738 293.742 289.538 295.245 289.15C298.114 288.413 300.168 287.175 301.521 286.1Z" fill="#D1D1FF"/>
<path d="M295.985 307.353L291.188 307.778C291.188 307.778 291.188 307.028 289.484 302.452C288.72 300.389 287.43 297.876 285.877 295.126C283.973 291.775 281.681 288.074 279.451 284.449C275.393 277.847 270.383 268.683 272.838 267.833C275.293 266.983 280.729 270.171 287.555 281.248C289.296 284.074 290.699 287.162 291.826 290.2C295.095 299.039 295.985 307.353 295.985 307.353Z" fill="#44A7CC"/>
<path d="M295.985 307.353L291.188 307.778C291.188 307.778 291.188 307.028 289.484 302.452C288.72 300.389 287.43 297.876 285.877 295.126C286.791 295.176 287.681 295.026 288.42 294.563C290.111 293.5 291.213 291.587 291.839 290.2C295.096 299.039 295.985 307.353 295.985 307.353Z" fill="#007A96"/>
<path d="M292.941 305.953C292.941 305.953 289.346 296.214 286.303 293.413C283.259 290.613 282.457 290.613 282.457 290.613L276.295 293.563C276.295 293.563 282.858 297.552 285.576 301.552C288.294 305.54 288.62 307.141 288.62 307.141L292.941 305.953Z" fill="#D1D1FF"/>
<path d="M273.664 294.126C272.913 294.738 268.228 304.828 267.903 307.541C267.577 310.254 268.867 310.416 271.823 307.216C274.779 304.015 283.384 291.1 283.384 291.1C283.384 291.1 282.72 290.263 280.804 290.575C278.324 291 275.906 292.288 273.664 294.126Z" fill="#E3E7F9"/>
<path d="M297.262 306.778C297.262 306.778 298.44 304.377 301.107 300.602C303.775 296.826 306.017 295.226 306.017 295.226L300.945 289.1C300.945 289.1 299.504 291.713 297.425 297.189C295.346 302.677 294.707 306.403 294.707 306.403L297.262 306.778Z" fill="#007A96"/>
<path d="M308.948 300.064C307.232 300.177 304.364 297.727 302.873 294.688C301.383 291.65 300.957 289.1 300.957 289.1C300.957 289.1 302.347 288.137 305.917 288.987C309.487 289.838 310.614 290.963 310.927 292.613C311.24 294.263 312.355 299.852 308.948 300.064Z" fill="#44A7CC"/>
<path d="M301.746 305.389L301.282 312.74L300.443 326.155H285.438L285.175 321.867L284.147 305.389H301.746Z" fill="#D1D1FF"/>
<path d="M301.282 312.741L300.443 326.144H285.438L285.175 321.855C286.502 321.543 287.98 321.168 289.621 320.705C294.907 319.255 298.865 315.604 301.282 312.741Z" fill="#B5B5FF"/>
<path d="M297.412 153.039H242.626C242.037 153.039 241.549 152.564 241.549 151.964V85.7393C241.549 85.1517 242.025 84.6641 242.626 84.6641H297.412C298.001 84.6641 298.489 85.1391 298.489 85.7393V151.976C298.489 152.564 298.001 153.039 297.412 153.039Z" fill="#ACCAFF"/>
<path d="M237.277 100.617H219.303C218.965 100.617 218.689 100.342 218.689 100.004V78.1751C218.689 77.8376 218.965 77.5625 219.303 77.5625H237.277C237.615 77.5625 237.891 77.8376 237.891 78.1751V100.017C237.878 100.354 237.603 100.617 237.277 100.617Z" fill="#F6F9FD"/>
<path d="M234.76 316.043H222.923C222.585 316.043 222.31 315.768 222.31 315.431V300.966C222.31 300.628 222.585 300.353 222.923 300.353H234.76C235.098 300.353 235.374 300.628 235.374 300.966V315.431C235.374 315.768 235.098 316.043 234.76 316.043Z" fill="#F6F9FD"/>
<path d="M215.133 309.243H171.857C170.855 309.243 170.054 308.43 170.054 307.442V254.745C170.054 253.745 170.868 252.945 171.857 252.945H215.133C216.135 252.945 216.936 253.757 216.936 254.745V307.442C216.936 308.442 216.135 309.243 215.133 309.243Z" fill="#F6F9FD"/>
<path d="M195.054 112.519H200.215V101.704H194.829C194.265 99.7165 193.401 97.8412 192.311 96.1284L196.257 92.1902L188.591 84.5388L184.333 88.7896C182.692 87.9144 180.926 87.2518 179.059 86.8392V80.6006H168.225V87.2393C166.547 87.7394 164.956 88.452 163.49 89.3272L158.693 84.5388L151.04 92.1902L155.913 97.0536C155.086 98.5038 154.422 100.067 153.959 101.704H147.095V112.519H153.746C154.159 114.257 154.798 115.919 155.625 117.47L151.04 122.033L158.706 129.684L162.977 125.421C164.593 126.459 166.359 127.272 168.238 127.834V133.623H179.072V128.234C181.139 127.772 183.105 127.009 184.896 125.984L188.604 129.684L196.269 122.033L192.637 118.407C193.727 116.607 194.553 114.619 195.054 112.519ZM182.679 107.53C182.654 110.206 181.327 112.819 179.072 114.357C174.175 117.707 167.624 114.319 166.384 108.793C164.818 101.779 173.335 96.7785 179.072 100.692C180.838 101.904 182.103 103.792 182.529 105.893C182.629 106.443 182.679 106.993 182.679 107.53Z" fill="#4A83E7"/>
<path opacity="0.23" d="M160.234 101.755V139.612C160.234 140.474 159.533 141.174 158.669 141.174H106.814C105.949 141.174 105.248 140.474 105.248 139.612V101.755C105.248 100.892 105.949 100.192 106.814 100.192H158.669C159.533 100.192 160.234 100.892 160.234 101.755Z" fill="url(#paint4_linear_2302_450)"/>
<path d="M157.278 99.2918V137.149C157.278 138.011 156.577 138.711 155.713 138.711H103.858C102.993 138.711 102.292 138.011 102.292 137.149V99.2918C102.292 98.4291 102.993 97.729 103.858 97.729H155.713C156.577 97.729 157.278 98.4291 157.278 99.2918Z" fill="#E3E7F9"/>
<path opacity="0.36" d="M143.112 104.78C141.146 108.693 119.99 128.172 108.379 138.699H103.845C102.981 138.699 102.279 137.999 102.279 137.136V136.836C110.559 129.61 126.641 115.132 128.282 110.206C130.511 103.542 121.856 109.468 121.293 104.993C121.13 103.68 122.558 100.929 124.675 97.7163H134.181C133.505 98.504 132.929 99.1541 132.491 99.5916C129.284 102.817 145.83 99.3541 143.112 104.78Z" fill="url(#paint5_linear_2302_450)"/>
<path opacity="0.36" d="M157.278 99.2916V124.459C153.22 129.185 148.961 134.06 144.878 138.711H125.275C138.064 127.122 153.169 112.544 155.123 106.668C158.593 96.266 145.091 105.518 144.201 98.529C144.176 98.2914 144.176 98.0164 144.214 97.7163H155.712C156.576 97.7288 157.278 98.4289 157.278 99.2916Z" fill="url(#paint6_linear_2302_450)"/>
<path d="M118.575 128.285H107.528C107.465 128.285 107.415 128.235 107.415 128.172V127.597C107.415 127.534 107.465 127.484 107.528 127.484H118.575C118.638 127.484 118.688 127.534 118.688 127.597V128.172C118.688 128.235 118.638 128.285 118.575 128.285Z" fill="white"/>
<path d="M125.802 130.948H107.528C107.465 130.948 107.415 130.898 107.415 130.835V130.26C107.415 130.197 107.465 130.147 107.528 130.147H125.79C125.852 130.147 125.902 130.197 125.902 130.26V130.835C125.915 130.898 125.865 130.948 125.802 130.948Z" fill="white"/>
<path d="M125.802 133.348H107.528C107.465 133.348 107.415 133.297 107.415 133.235V132.66C107.415 132.597 107.465 132.547 107.528 132.547H125.79C125.852 132.547 125.902 132.597 125.902 132.66V133.235C125.915 133.297 125.865 133.348 125.802 133.348Z" fill="white"/>
<path d="M146.456 126.285C146.331 126.16 146.331 125.947 146.456 125.822L149.224 123.059C149.35 122.934 149.563 122.934 149.688 123.059C149.813 123.184 149.813 123.397 149.688 123.522L146.92 126.285C146.794 126.41 146.594 126.41 146.456 126.285Z" fill="white"/>
<path d="M149.237 126.285L146.469 123.522C146.344 123.397 146.344 123.184 146.469 123.059C146.594 122.934 146.807 122.934 146.932 123.059L149.7 125.822C149.826 125.947 149.826 126.16 149.7 126.285C149.575 126.41 149.362 126.41 149.237 126.285Z" fill="white"/>
<path d="M134.733 130.398C134.607 130.273 134.607 130.06 134.733 129.935L137.501 127.172C137.626 127.047 137.839 127.047 137.964 127.172C138.089 127.297 138.089 127.51 137.964 127.635L135.209 130.398C135.071 130.535 134.87 130.535 134.733 130.398Z" fill="white"/>
<path d="M137.513 130.398L134.745 127.635C134.62 127.51 134.62 127.297 134.745 127.172C134.871 127.047 135.083 127.047 135.209 127.172L137.977 129.935C138.102 130.06 138.102 130.273 137.977 130.398C137.852 130.535 137.639 130.535 137.513 130.398Z" fill="white"/>
<path d="M140.694 110.682C139.492 110.682 138.527 111.657 138.527 112.845C138.527 114.045 139.492 115.007 140.694 115.007C141.897 115.007 142.861 114.032 142.861 112.845C142.861 111.657 141.897 110.682 140.694 110.682ZM140.694 114.395C139.843 114.395 139.141 113.707 139.141 112.845C139.141 111.994 139.843 111.294 140.694 111.294C141.546 111.294 142.247 111.982 142.247 112.845C142.247 113.707 141.546 114.395 140.694 114.395Z" fill="#7794FC"/>
<path d="M143.514 107.318C143.451 107.318 143.376 107.305 143.326 107.268C142.837 106.993 142.487 106.855 142.487 106.855C142.286 106.78 142.186 106.543 142.261 106.343C142.336 106.143 142.574 106.043 142.775 106.118C142.787 106.118 143.176 106.268 143.714 106.58C143.902 106.693 143.977 106.93 143.865 107.118C143.789 107.255 143.652 107.318 143.514 107.318Z" fill="#7794FC"/>
<path d="M144.741 130.835C144.703 130.835 144.653 130.822 144.616 130.81C143.964 130.585 143.363 130.309 142.812 129.984C142.624 129.872 142.562 129.634 142.674 129.447C142.787 129.259 143.025 129.197 143.213 129.309C143.714 129.609 144.278 129.859 144.879 130.072C145.092 130.147 145.192 130.372 145.117 130.572C145.054 130.722 144.904 130.835 144.741 130.835ZM141.484 128.909C141.384 128.909 141.284 128.872 141.209 128.797C140.72 128.322 140.294 127.797 139.956 127.221C139.844 127.034 139.906 126.784 140.094 126.684C140.282 126.571 140.532 126.634 140.633 126.821C140.933 127.334 141.309 127.809 141.747 128.222C141.91 128.372 141.91 128.622 141.76 128.784C141.697 128.859 141.585 128.909 141.484 128.909ZM139.568 125.671C139.393 125.671 139.23 125.559 139.18 125.384C139.117 125.171 139.079 124.959 139.029 124.746C138.942 124.283 138.892 123.821 138.892 123.408C138.892 123.183 139.067 123.008 139.292 123.008C139.505 123.008 139.693 123.183 139.693 123.408C139.693 123.783 139.731 124.183 139.818 124.608C139.856 124.808 139.906 125.009 139.956 125.196C140.019 125.409 139.894 125.621 139.681 125.684C139.643 125.659 139.606 125.671 139.568 125.671ZM139.656 121.933C139.606 121.933 139.555 121.92 139.505 121.895C139.305 121.808 139.205 121.583 139.292 121.37C139.543 120.783 139.919 120.233 140.445 119.695C140.595 119.533 140.846 119.533 141.008 119.683C141.171 119.833 141.171 120.083 141.021 120.245C140.57 120.708 140.244 121.183 140.031 121.683C139.956 121.845 139.806 121.933 139.656 121.933ZM142.186 119.145C142.061 119.145 141.948 119.095 141.873 118.982C141.747 118.807 141.785 118.557 141.96 118.432C142.186 118.27 142.399 118.107 142.637 117.945C142.925 117.732 143.213 117.532 143.501 117.307C143.676 117.17 143.927 117.207 144.052 117.382C144.19 117.557 144.152 117.807 143.977 117.932C143.689 118.157 143.388 118.37 143.088 118.582C142.862 118.745 142.637 118.907 142.424 119.057C142.349 119.12 142.261 119.145 142.186 119.145ZM145.167 116.782C145.067 116.782 144.966 116.745 144.891 116.67C144.728 116.519 144.728 116.269 144.891 116.107C145.342 115.644 145.693 115.182 145.981 114.682C146.081 114.494 146.332 114.419 146.52 114.532C146.707 114.632 146.783 114.882 146.67 115.069C146.357 115.632 145.956 116.157 145.455 116.67C145.38 116.745 145.267 116.782 145.167 116.782ZM146.97 113.494C146.945 113.494 146.92 113.494 146.895 113.481C146.682 113.431 146.545 113.231 146.582 113.019C146.645 112.681 146.682 112.356 146.682 112.031C146.682 111.781 146.657 111.519 146.62 111.269C146.582 111.056 146.72 110.843 146.945 110.806C147.158 110.768 147.371 110.906 147.409 111.131C147.459 111.419 147.484 111.731 147.484 112.031C147.484 112.406 147.446 112.794 147.359 113.169C147.321 113.369 147.158 113.494 146.97 113.494ZM146.319 109.843C146.181 109.843 146.056 109.781 145.981 109.656C145.68 109.181 145.292 108.731 144.804 108.305C144.641 108.155 144.616 107.905 144.766 107.743C144.916 107.58 145.167 107.568 145.33 107.705C145.868 108.18 146.307 108.681 146.657 109.218C146.77 109.406 146.72 109.643 146.532 109.768C146.469 109.831 146.394 109.843 146.319 109.843Z" fill="#7794FC"/>
<path d="M147.609 131.435H147.597C147.584 131.435 147.183 131.41 146.57 131.31C146.357 131.272 146.206 131.072 146.244 130.847C146.282 130.635 146.482 130.485 146.707 130.522C147.271 130.622 147.634 130.635 147.647 130.635C147.86 130.647 148.035 130.835 148.023 131.047C147.998 131.272 147.822 131.435 147.609 131.435Z" fill="#7794FC"/>
<path d="M145.029 105.506L142.248 108.856L139.868 104.081L145.029 105.506Z" fill="#7794FC"/>
<path d="M115.205 108.079L120.478 110.28V116.356L115.205 113.83V108.079Z" fill="#7794FC"/>
<path d="M127.079 108.079L121.806 110.28V116.356L127.079 113.83V108.079Z" fill="#7794FC"/>
<path d="M116.107 106.966L121.255 109.029L126.491 106.966L121.293 105.003L116.107 106.966Z" fill="#7794FC"/>
<path d="M135.709 108.855H129.321C129.158 108.855 129.033 108.73 129.033 108.568V106.792C129.033 106.63 129.158 106.505 129.321 106.505H135.709C135.872 106.505 135.997 106.63 135.997 106.792V108.568C135.997 108.718 135.872 108.855 135.709 108.855Z" fill="white"/>
<path d="M114.917 103.979H108.529C108.366 103.979 108.241 103.854 108.241 103.691V101.916C108.241 101.753 108.366 101.628 108.529 101.628H114.917C115.08 101.628 115.205 101.753 115.205 101.916V103.691C115.205 103.854 115.068 103.979 114.917 103.979Z" fill="white"/>
<path d="M114.479 119.944H108.091C107.928 119.944 107.803 119.819 107.803 119.656V117.881C107.803 117.718 107.928 117.593 108.091 117.593H114.479C114.642 117.593 114.767 117.718 114.767 117.881V119.656C114.767 119.819 114.629 119.944 114.479 119.944Z" fill="white"/>
<path d="M115.783 114.901L113.893 117.471L114.216 117.708L116.106 115.138L115.783 114.901Z" fill="#7794FC"/>
<path d="M128.838 107.595L127.312 108.69L127.546 109.015L129.072 107.92L128.838 107.595Z" fill="#7794FC"/>
<path d="M115.327 102.645L115.082 102.961L118.461 105.568L118.706 105.252L115.327 102.645Z" fill="#7794FC"/>
<path opacity="0.23" d="M290.147 290.939H179.648C179.31 290.939 179.034 290.664 179.034 290.326V120.233C179.034 119.895 179.31 119.62 179.648 119.62H290.159C290.497 119.62 290.773 119.895 290.773 120.233V290.314C290.773 290.651 290.497 290.939 290.147 290.939Z" fill="url(#paint7_linear_2302_450)"/>
<path d="M285.7 286.95H177.356C176.416 286.95 175.652 286.187 175.652 285.249V117.344C175.652 116.406 176.416 115.644 177.356 115.644H285.7C286.64 115.644 287.404 116.406 287.404 117.344V285.262C287.391 286.199 286.64 286.95 285.7 286.95Z" fill="#D7E0F9"/>
<path opacity="0.36" d="M284.135 120.07V278.286C284.135 279.074 283.496 279.699 282.72 279.699H180.337C179.548 279.699 178.922 279.061 178.922 278.286V120.07C178.922 119.282 179.561 118.657 180.337 118.657H282.72C283.496 118.657 284.135 119.282 284.135 120.07Z" fill="url(#paint8_linear_2302_450)"/>
<path opacity="0.42" d="M265.873 154.713C263.668 157.789 209.646 209.46 178.909 238.778V209.635C195.493 194.758 214.982 177.255 227.658 165.802C253.548 142.423 229.662 153.75 221.032 142.061C217.625 137.447 222.56 128.183 229.762 118.669H263.531C256.579 124.382 250.404 129.733 247.987 132.584C241.223 140.56 268.954 150.412 265.873 154.713Z" fill="url(#paint9_linear_2302_450)"/>
<path d="M186.337 277.386V234.729L204.524 209.499V277.386H186.337Z" fill="#7794FC"/>
<path d="M204.523 277.386V209.499L222.71 224.002V277.386H204.523Z" fill="white"/>
<path d="M222.711 277.386V224.002L240.91 193.096V277.386H222.711Z" fill="#7794FC"/>
<path d="M240.91 277.386V193.096L259.097 202.935V277.386H240.91Z" fill="white"/>
<path d="M259.097 277.386V202.935L277.284 170.604V277.386H259.097Z" fill="#7794FC"/>
<path d="M186.662 204.998L186.011 204.535L204.448 178.968L222.61 193.433L240.759 162.59L258.946 172.442L276.932 140.449L277.634 140.836L259.247 173.517L241.06 163.665L222.823 194.634L204.611 180.118L186.662 204.998Z" fill="white"/>
<path d="M204.524 182.444C206.129 182.444 207.43 181.145 207.43 179.543C207.43 177.941 206.129 176.643 204.524 176.643C202.919 176.643 201.618 177.941 201.618 179.543C201.618 181.145 202.919 182.444 204.524 182.444Z" fill="#4A83E7"/>
<path d="M223.83 196.378C225.313 195.765 226.017 194.068 225.402 192.588C224.788 191.108 223.088 190.405 221.606 191.018C220.123 191.631 219.419 193.328 220.033 194.808C220.647 196.288 222.347 196.991 223.83 196.378Z" fill="#44A7CC"/>
<path d="M240.91 166.041C242.515 166.041 243.816 164.742 243.816 163.14C243.816 161.538 242.515 160.24 240.91 160.24C239.305 160.24 238.004 161.538 238.004 163.14C238.004 164.742 239.305 166.041 240.91 166.041Z" fill="#4A83E7"/>
<path d="M277.283 143.536C278.888 143.536 280.189 142.238 280.189 140.636C280.189 139.034 278.888 137.735 277.283 137.735C275.678 137.735 274.377 139.034 274.377 140.636C274.377 142.238 275.678 143.536 277.283 143.536Z" fill="#4A83E7"/>
<path d="M260.215 175.384C261.697 174.771 262.401 173.074 261.787 171.594C261.173 170.114 259.473 169.411 257.99 170.024C256.508 170.637 255.804 172.334 256.418 173.814C257.032 175.294 258.732 175.997 260.215 175.384Z" fill="#44A7CC"/>
<path d="M186.337 207.661C187.941 207.661 189.242 206.363 189.242 204.761C189.242 203.159 187.941 201.86 186.337 201.86C184.732 201.86 183.431 203.159 183.431 204.761C183.431 206.363 184.732 207.661 186.337 207.661Z" fill="#44A7CC"/>
<path d="M207.555 143.613H183.644C183.469 143.613 183.318 143.475 183.318 143.288V141.875C183.318 141.7 183.456 141.55 183.644 141.55H207.555C207.73 141.55 207.881 141.687 207.881 141.875V143.288C207.881 143.475 207.73 143.613 207.555 143.613Z" fill="white"/>
<path d="M203.71 148.675H183.644C183.469 148.675 183.318 148.538 183.318 148.35V146.937C183.318 146.762 183.456 146.612 183.644 146.612H203.71C203.885 146.612 204.035 146.75 204.035 146.937V148.35C204.035 148.538 203.885 148.675 203.71 148.675Z" fill="white"/>
<path d="M207.555 153.739H183.644C183.469 153.739 183.318 153.602 183.318 153.414V152.001C183.318 151.826 183.456 151.676 183.644 151.676H207.555C207.73 151.676 207.881 151.814 207.881 152.001V153.414C207.881 153.602 207.73 153.739 207.555 153.739Z" fill="white"/>
<path d="M198.875 158.815H183.644C183.469 158.815 183.318 158.677 183.318 158.49V157.077C183.318 156.902 183.456 156.752 183.644 156.752H198.875C199.05 156.752 199.201 156.889 199.201 157.077V158.49C199.201 158.665 199.05 158.815 198.875 158.815Z" fill="white"/>
<path d="M196.169 138.124H183.944C183.581 138.124 183.293 137.823 183.293 137.473V125.271C183.293 124.909 183.594 124.621 183.944 124.621H196.169C196.532 124.621 196.82 124.921 196.82 125.271V137.473C196.833 137.836 196.532 138.124 196.169 138.124Z" fill="white"/>
<path d="M327.586 134.435H302.911C302.535 134.435 302.234 134.135 302.234 133.76V115.844C302.234 115.469 302.535 115.169 302.911 115.169H327.586C327.962 115.169 328.262 115.469 328.262 115.844V133.76C328.275 134.135 327.962 134.435 327.586 134.435Z" fill="#F6F9FD"/>
<path d="M330.066 131.922H305.328C304.977 131.922 304.677 131.634 304.677 131.272V113.294C304.677 112.944 304.965 112.644 305.328 112.644H330.066C330.416 112.644 330.717 112.931 330.717 113.294V131.284C330.717 131.634 330.429 131.922 330.066 131.922Z" fill="#009AC9"/>
<path d="M319.257 131.297H325.657V135.71L319.257 131.297Z" fill="#009AC9"/>
<path d="M311.479 123.82C312.274 123.82 312.919 123.176 312.919 122.382C312.919 121.588 312.274 120.944 311.479 120.944C310.683 120.944 310.038 121.588 310.038 122.382C310.038 123.176 310.683 123.82 311.479 123.82Z" fill="white"/>
<path d="M318.53 123.82C319.326 123.82 319.971 123.176 319.971 122.382C319.971 121.588 319.326 120.944 318.53 120.944C317.735 120.944 317.09 121.588 317.09 122.382C317.09 123.176 317.735 123.82 318.53 123.82Z" fill="white"/>
<path d="M325.582 123.82C326.378 123.82 327.022 123.176 327.022 122.382C327.022 121.588 326.378 120.944 325.582 120.944C324.786 120.944 324.142 121.588 324.142 122.382C324.142 123.176 324.786 123.82 325.582 123.82Z" fill="white"/>
<path d="M335.627 324.076H328.275L327.21 310.424H334.562L335.627 324.076Z" fill="#FFB5A9"/>
<path d="M313.332 326.389C313.332 326.389 313.081 325.964 313.144 325.614C313.194 325.339 326.847 318.963 326.847 318.963L330.729 321.501H335.614C335.614 321.501 336.266 322.288 336.566 323.101C336.867 323.926 336.917 326.377 336.917 326.377H313.332V326.389Z" fill="#D1D1FF"/>
<path d="M336.88 327.614H313.908L313.332 326.389H336.88V327.614Z" fill="#B5B5FF"/>
<path d="M361.905 324.076H354.565L353.5 310.424H360.84L361.905 324.076Z" fill="#FFB5A9"/>
<path d="M341.163 326.389C341.163 326.389 340.912 325.964 340.975 325.614C341.025 325.339 353.6 318.963 353.6 318.963L357.483 321.501H362.368C362.368 321.501 363.02 322.288 363.32 323.101C363.621 323.926 363.671 326.377 363.671 326.377H341.163V326.389Z" fill="#D1D1FF"/>
<path d="M363.646 327.614H341.739L341.163 326.389H363.646V327.614Z" fill="#B5B5FF"/>
<path d="M344.784 214.438L343.531 231.242L343.481 231.917L341.865 245.407L338.133 276.675L336.492 317.77H326.823L321.299 233.104L321.524 231.779L324.355 215.314L344.784 214.438Z" fill="#4A83E7"/>
<path d="M341.866 245.407L338.133 276.663L336.492 317.758H332.822C333.511 307.969 335.478 280.551 336.329 274.175C337.093 268.561 340.2 253.409 341.866 245.407Z" fill="#5535AF"/>
<path d="M344.784 214.438L343.532 231.242C334.288 232.554 326.71 232.317 321.524 231.779L324.343 215.314L344.784 214.438Z" fill="#5535AF"/>
<path d="M362.582 317.771H353.113L338.909 239.632L338.533 231.83L337.744 215.515L360.879 213.577L361.855 226.967L362.294 233.068L361.129 275.326L362.582 317.771Z" fill="#4A83E7"/>
<path d="M361.856 226.967C358.499 228.067 354.641 229.142 350.257 230.055C346.061 230.943 342.141 231.493 338.546 231.818L337.757 215.502L360.891 213.564L361.856 226.967Z" fill="#5535AF"/>
<path d="M334.989 165.767C334.801 162.529 330.818 160.666 325.858 165.28C320.898 169.893 309.963 180.807 307.809 183.52C305.667 186.221 306.719 189.747 309.65 190.984C312.581 192.222 324.192 183.97 329.728 178.457C335.252 172.931 335.214 169.593 334.989 165.767Z" fill="#FFB5A9"/>
<path d="M312.143 181.896C308.448 177.295 296.361 166.293 295.446 165.155C294.545 164.03 292.064 164.63 291.538 165.455C291.012 166.281 290.561 167.481 292.365 170.106C294.169 172.732 305.442 188.947 307.546 190.072C309.65 191.198 311.98 191.648 313.483 189.997C314.986 188.347 313.646 183.759 312.143 181.896Z" fill="#FFB5A9"/>
<path d="M295.196 166.955C295.621 166.43 296.185 164.004 295.346 162.266C294.507 160.528 294.093 158.416 293.943 157.353C293.793 156.29 293.192 156.328 292.766 157.015C292.352 157.69 292.24 158.753 292.352 159.928C292.465 161.104 292.728 161.329 292.615 161.479C292.503 161.629 291.513 160.841 290.987 160.003C290.461 159.166 289.735 157.503 289.659 157.353C289.584 157.203 288.707 154.552 288.482 153.952C288.257 153.352 287.73 153.115 287.38 153.315C287.042 153.502 287.229 154.152 287.455 155.203C287.68 156.265 288.632 158.341 288.632 158.341C288.632 158.341 287.53 156.115 287.117 155.015C286.703 153.915 286.591 153.502 286.09 153.24C285.589 152.977 285.1 153.315 285.451 154.377C285.789 155.44 286.165 156.49 286.891 157.928C287.605 159.366 287.605 159.366 287.605 159.366C287.605 159.366 286.503 157.74 285.676 156.04C284.837 154.34 284.612 154.152 284.161 154.302C283.71 154.452 284.198 155.44 284.762 156.953C285.326 158.466 286.353 160.278 286.353 160.278C286.353 160.278 285.213 158.878 284.687 157.665C284.161 156.453 283.848 156.153 283.547 156.303C283.246 156.453 283.171 158.041 283.923 159.553C284.674 161.066 286.227 163.642 287.555 165.267C288.883 166.892 289.609 168.08 291.413 168.33C293.417 168.58 294.444 167.892 295.196 166.955Z" fill="#FFB5A9"/>
<path d="M334.275 177.394C333.435 178.344 332.471 179.195 331.406 179.92C326.897 182.995 317.879 189.396 317.879 189.396C317.879 189.396 316.276 189.496 314.384 186.983C314.284 186.846 314.184 186.708 314.084 186.558C312.067 183.595 311.115 179.094 311.115 179.094C311.115 179.094 317.992 171.518 322.388 167.48C326.784 163.454 329.502 162.154 331.081 162.079C334.913 161.891 336.755 162.629 337.694 167.005C338.421 170.355 337.005 174.331 334.275 177.394Z" fill="#44A7CC"/>
<path d="M334.275 177.395C333.436 178.345 332.471 179.195 331.407 179.92C326.898 182.996 317.879 189.397 317.879 189.397C317.879 189.397 316.276 189.497 314.385 186.984L334.275 177.395Z" fill="#007A96"/>
<path d="M362.871 221.803C362.871 221.803 353.539 224.466 340.35 224.491C329.966 224.516 321.299 221.265 321.299 221.265C321.299 221.265 321.324 220.94 321.374 220.34C321.787 214.814 323.954 186.222 324.631 179.045C325.382 171.094 325.545 164.23 330.054 162.28C334.563 160.329 340.951 163.255 343.419 163.517C349.13 164.118 353.79 160.517 358.148 163.292C359.789 164.33 361.53 194.773 362.37 211.326C362.683 217.54 362.871 221.803 362.871 221.803Z" fill="#44A7CC"/>
<path d="M343.845 169.557C347.663 169.557 350.759 168.314 350.759 166.781C350.759 165.248 347.663 164.006 343.845 164.006C340.026 164.006 336.931 165.248 336.931 166.781C336.931 168.314 340.026 169.557 343.845 169.557Z" fill="#007A96"/>
<path d="M362.871 221.802C362.871 221.802 353.539 224.465 340.35 224.49C329.966 224.515 321.299 221.264 321.299 221.264C321.299 221.264 321.324 220.939 321.374 220.339C323.453 220.489 325.733 220.552 328.213 220.527C344.446 220.327 356.583 214.676 362.37 211.325C362.683 217.539 362.871 221.802 362.871 221.802Z" fill="#007A96"/>
<path d="M353.789 176.945C353.789 176.945 361.755 199.462 364.31 204.713C366.865 209.964 370.322 209.964 372.276 208.163C374.23 206.363 372.427 195.111 369.571 186.397C366.715 177.683 362.356 160.917 355.743 162.568C349.129 164.218 352.436 172.444 353.789 176.945Z" fill="#FFB5A9"/>
<path d="M373.041 191.123C373.041 191.123 372.064 192.848 367.104 194.198C366.415 194.386 365.764 194.511 365.125 194.611C361.155 195.186 358.311 194.123 358.311 194.123C358.311 194.123 355.33 184.534 353.301 177.008C352.788 175.12 352.337 173.357 351.998 171.907C350.345 164.705 352.587 163.205 354.128 162.58C357.059 161.38 361.305 163.18 364.612 169.331C367.906 175.495 373.041 191.123 373.041 191.123Z" fill="#44A7CC"/>
<path d="M365.112 194.61C361.142 195.185 358.298 194.122 358.298 194.122C358.298 194.122 355.317 184.533 353.288 177.007L365.112 194.61Z" fill="#007A96"/>
<path d="M349.205 156.153L348.616 159.278L347.288 166.28C347.288 166.28 346.449 168.843 342.641 168.393C340.199 168.105 340.174 166.505 340.174 166.505L340.537 163.104L341.076 158.178L349.205 156.153Z" fill="#FFB5A9"/>
<path d="M339.849 189.809C339.849 189.809 359.25 198.473 364.436 200.611C369.621 202.749 373.041 205.075 372.59 208C372.139 210.926 365.45 212.313 358.799 208.825C352.148 205.337 338.646 195.21 337.293 194.198C335.941 193.185 334.738 191.572 335.941 190.184C337.143 188.797 338.496 189.134 339.849 189.809Z" fill="#FFB5A9"/>
<path d="M336.417 193.447C335.064 193.31 334.538 193.597 332.885 190.897C331.231 188.196 331.006 185.871 330.705 185.721C330.405 185.571 326.346 184.296 325.67 183.621C324.994 182.946 325.219 182.533 325.445 182.458C325.67 182.383 328.826 183.471 328.977 183.508C329.127 183.546 325.332 181.67 324.656 181.295C323.979 180.92 323.754 179.72 324.092 179.645C324.43 179.57 330.292 181.97 330.292 181.97C330.292 181.97 325.219 179.457 324.543 178.857C323.866 178.257 324.054 177.245 324.693 177.395C325.332 177.545 330.48 180.395 330.48 180.395C330.48 180.395 326.159 178.07 326.159 177.169C326.159 176.269 326.797 176.719 327.925 177.245C329.052 177.77 333.336 179.607 334.237 180.358C335.139 181.108 339.836 189.809 339.836 189.809C339.836 189.809 340.813 191.422 339.686 192.51C338.571 193.597 336.793 193.485 336.417 193.447Z" fill="#FFB5A9"/>
<path d="M349.205 156.153L348.616 159.278C347.765 160.404 346.575 161.566 344.946 162.354C343.331 163.129 341.815 163.317 340.562 163.117L341.101 158.191L349.205 156.153Z" fill="#C64534"/>
<path d="M343.343 137.137C339.773 137.462 337.143 141.638 336.579 147.039C336.016 152.44 337.03 158.966 339.849 159.754C342.667 160.541 347.852 158.741 349.881 156.265C351.91 153.79 353.714 148.501 353.263 144.001C352.812 139.5 348.303 136.687 343.343 137.137Z" fill="#FFB5A9"/>
<path d="M355.343 149.29C353.715 151.202 350.546 153.228 350.546 153.228L351.285 148.164C351.285 148.164 350.596 147.964 349.544 146.802C347.99 145.089 348.416 143.314 348.416 143.314C348.416 143.314 344.045 143.464 341.552 142.938C337.77 142.151 336.429 140.801 336.217 139.388C336.079 138.5 336.379 137.6 336.78 136.787C337.306 135.75 341.452 133.562 346.462 135.362C351.485 137.162 351.109 138.363 351.109 138.363C351.109 138.363 354.378 138.863 355.681 141.113C356.232 142.063 356.545 143.326 356.608 144.601C356.696 146.377 356.295 148.189 355.343 149.29Z" fill="#464646"/>
<path d="M355.343 149.29C353.715 151.203 350.546 153.228 350.546 153.228L351.285 148.165C351.285 148.165 350.596 147.965 349.544 146.802C347.991 145.089 348.417 143.314 348.417 143.314C348.417 143.314 344.045 143.464 341.553 142.939C337.77 142.151 336.43 140.801 336.217 139.388C337.031 139.751 338.071 140.176 339.386 140.613C343.745 142.064 345.586 141.914 345.586 141.914C345.586 141.914 345.335 141.914 344.383 141.564C343.482 141.226 341.553 140.051 341.352 139.926C341.528 140.001 343.043 140.601 344.734 140.963C347.289 141.514 349.644 141.564 349.644 141.564C349.644 141.564 350.947 144.114 353.602 144.814C355.268 145.252 356.17 144.927 356.608 144.614C356.696 146.377 356.295 148.19 355.343 149.29Z" fill="#4D4D4D"/>
<path d="M351.234 150.364C351.234 150.364 351.409 148.501 352.987 148.339C354.566 148.164 355.981 150.652 354.741 152.79C353.501 154.928 350.62 154.99 350.395 154.54C350.157 154.077 351.234 150.364 351.234 150.364Z" fill="#FFB5A9"/>
<path d="M352.925 149.464C352.587 149.627 352.149 149.777 351.948 150.69C351.773 151.477 352.437 151.627 352.587 152.015C352.725 152.39 352.487 152.903 352.186 153.028C351.848 153.178 351.585 152.978 351.585 152.978C351.585 152.978 352.211 153.728 352.888 153.053C353.564 152.365 353.226 152.052 352.875 151.677C352.537 151.315 352.387 150.827 352.737 150.252C353.088 149.677 353.739 149.965 353.94 150.227C354.128 150.49 354.09 150.702 354.09 150.702C354.09 150.702 354.341 150.315 354.052 149.902C353.802 149.564 353.238 149.314 352.925 149.464Z" fill="#C64534"/>
<path d="M342.955 145.988C342.955 145.988 343.268 145.013 344.659 145.438C345.974 145.838 345.773 146.876 345.773 146.876C345.773 146.876 345.573 146.163 344.608 145.876C343.444 145.526 342.955 145.988 342.955 145.988Z" fill="#424242"/>
<path d="M344.721 148.627C344.596 149.214 344.17 149.627 343.769 149.539C343.369 149.452 343.156 148.902 343.281 148.314C343.406 147.726 343.832 147.314 344.233 147.401C344.621 147.476 344.847 148.026 344.721 148.627Z" fill="#424242"/>
<path d="M340.612 145.413C340.612 145.413 340.725 144.462 339.285 144.212C338.22 144.025 337.731 145.1 337.731 145.1C337.731 145.1 338.195 144.537 339.197 144.662C340.211 144.787 340.612 145.413 340.612 145.413Z" fill="#424242"/>
<path d="M337.907 147.238C337.782 147.825 337.995 148.388 338.395 148.463C338.796 148.55 339.222 148.138 339.347 147.55C339.473 146.963 339.26 146.4 338.859 146.325C338.458 146.225 338.032 146.638 337.907 147.238Z" fill="#424242"/>
<path d="M340.776 149.165L338.797 151.415C338.797 151.415 339.185 151.866 339.874 152.178C340.563 152.491 340.813 152.541 340.813 152.541L339.473 151.428L340.776 149.165Z" fill="#424242"/>
<path d="M339.034 153.966L343.042 154.766C343.042 154.766 341.84 155.766 340.487 155.466C339.134 155.166 339.034 153.966 339.034 153.966Z" fill="white"/>
<defs>
<linearGradient id="paint0_linear_2302_450" x1="235.82" y1="-39.9238" x2="375.418" y2="378.758" gradientUnits="userSpaceOnUse">
<stop stop-color="#DBBBF0"/>
<stop offset="1" stop-color="#D8E6F7"/>
</linearGradient>
<linearGradient id="paint1_linear_2302_450" x1="112.722" y1="321.043" x2="111.659" y2="307.088" gradientUnits="userSpaceOnUse">
<stop stop-color="#FFE0E5"/>
<stop offset="0.075419" stop-color="#FFE0E5"/>
<stop offset="0.7933" stop-color="#FF9494"/>
<stop offset="1" stop-color="#FF9494"/>
</linearGradient>
<linearGradient id="paint2_linear_2302_450" x1="112.131" y1="316.973" x2="112.131" y2="310.055" gradientUnits="userSpaceOnUse">
<stop stop-color="#E6B6BE"/>
<stop offset="0.075419" stop-color="#E6B6BE"/>
<stop offset="0.7933" stop-color="#E67171"/>
<stop offset="1" stop-color="#E67171"/>
</linearGradient>
<linearGradient id="paint3_linear_2302_450" x1="99.0361" y1="207.814" x2="102.204" y2="215.523" gradientUnits="userSpaceOnUse">
<stop stop-color="#FFC75E"/>
<stop offset="1" stop-color="#F2823B"/>
</linearGradient>
<linearGradient id="paint4_linear_2302_450" x1="127.63" y1="91.0042" x2="145.851" y2="197.079" gradientUnits="userSpaceOnUse">
<stop stop-color="#E2F5FF"/>
<stop offset="0.075419" stop-color="#E2F5FF"/>
<stop offset="0.7933" stop-color="#CAE5FF"/>
<stop offset="1" stop-color="#CAE5FF"/>
</linearGradient>
<linearGradient id="paint5_linear_2302_450" x1="154.934" y1="66.2236" x2="126.35" y2="113.952" gradientUnits="userSpaceOnUse">
<stop stop-color="white"/>
<stop offset="1" stop-color="#E2EDF6"/>
</linearGradient>
<linearGradient id="paint6_linear_2302_450" x1="171.681" y1="76.2534" x2="143.097" y2="123.982" gradientUnits="userSpaceOnUse">
<stop stop-color="white"/>
<stop offset="1" stop-color="#E2EDF6"/>
</linearGradient>
<linearGradient id="paint7_linear_2302_450" x1="261.526" y1="267.026" x2="179.713" y2="76.6167" gradientUnits="userSpaceOnUse">
<stop stop-color="#E2F5FF"/>
<stop offset="0.075419" stop-color="#E2F5FF"/>
<stop offset="0.7933" stop-color="#CAE5FF"/>
<stop offset="1" stop-color="#CAE5FF"/>
</linearGradient>
<linearGradient id="paint8_linear_2302_450" x1="178.914" y1="199.18" x2="284.136" y2="199.18" gradientUnits="userSpaceOnUse">
<stop stop-color="white"/>
<stop offset="1" stop-color="#E2EDF6"/>
</linearGradient>
<linearGradient id="paint9_linear_2302_450" x1="132.107" y1="178.712" x2="267.348" y2="178.712" gradientUnits="userSpaceOnUse">
<stop stop-color="white"/>
<stop offset="1" stop-color="#E2EDF6"/>
</linearGradient>
</defs>
</svg>
