<svg width="161" height="81" viewBox="0 0 161 81" fill="none" xmlns="http://www.w3.org/2000/svg">
<path d="M121.885 51.8055L122.393 52.6668L121.885 51.8055ZM54.8003 57.975L55.097 57.02L54.8003 57.975ZM56.7531 22.5103L55.9805 23.1452L56.7531 22.5103ZM36.3256 69.8931L35.7864 69.0509L36.3256 69.8931ZM0.67078 73.589L9.78951 80.673L11.365 69.2339L0.67078 73.589ZM159.614 0.740234C158.666 0.421958 158.666 0.42192 158.666 0.421887C158.666 0.421881 158.666 0.421852 158.666 0.421841C158.666 0.421819 158.666 0.421814 158.666 0.421825C158.666 0.421848 158.666 0.421939 158.666 0.422096C158.666 0.422411 158.666 0.422994 158.666 0.423844C158.665 0.425544 158.664 0.428313 158.663 0.432141C158.66 0.439796 158.656 0.451688 158.651 0.467742C158.64 0.499849 158.623 0.548602 158.6 0.613403C158.555 0.743007 158.487 0.936791 158.395 1.18998C158.211 1.69638 157.934 2.44029 157.562 3.38353L159.423 4.11678C159.802 3.15543 160.085 2.39437 160.275 1.87196C160.37 1.61075 160.441 1.40916 160.489 1.272C160.513 1.20342 160.531 1.15094 160.543 1.11516C160.549 1.09727 160.554 1.08355 160.557 1.07408C160.559 1.06935 160.56 1.06568 160.561 1.06308C160.561 1.06178 160.562 1.06075 160.562 1.05999C160.562 1.05961 160.562 1.05929 160.562 1.05905C160.562 1.05892 160.562 1.05882 160.562 1.05873C160.562 1.05868 160.562 1.05863 160.562 1.05861C160.562 1.05856 160.562 1.05851 159.614 0.740234ZM155.044 9.29472C154.245 11.0461 153.312 12.9893 152.244 15.0615L154.022 15.9778C155.106 13.8747 156.052 11.9026 156.863 10.125L155.044 9.29472ZM149.164 20.6938C148.13 22.4791 147.009 24.311 145.802 26.1582L147.476 27.2523C148.704 25.3729 149.843 23.5104 150.895 21.6967L149.164 20.6938ZM142.145 31.4128C140.89 33.1032 139.563 34.7809 138.164 36.4223L139.685 37.7201C141.117 36.0416 142.472 34.3283 143.751 32.6047L142.145 31.4128ZM133.838 41.1203C132.341 42.6205 130.776 44.064 129.143 45.4294L130.425 46.964C132.109 45.5569 133.718 44.0723 135.254 42.5328L133.838 41.1203ZM124.062 49.2516C123.184 49.8411 122.289 50.4062 121.377 50.9441L122.393 52.6668C123.34 52.1084 124.268 51.5226 125.177 50.9121L124.062 49.2516ZM121.377 50.9441C120.545 51.4346 119.714 51.9056 118.884 52.3577L119.841 54.1141C120.691 53.651 121.542 53.1688 122.393 52.6668L121.377 50.9441ZM113.764 54.9157C111.998 55.72 110.235 56.4425 108.479 57.0878L109.169 58.9651C110.972 58.3024 112.781 57.561 114.593 56.736L113.764 54.9157ZM103.041 58.8501C101.182 59.3733 99.3299 59.8146 97.4868 60.1795L97.8753 62.1414C99.7693 61.7664 101.672 61.313 103.583 60.7753L103.041 58.8501ZM91.8407 61.0681C89.9301 61.2925 88.0302 61.4396 86.1425 61.5158L86.2231 63.5141C88.1605 63.436 90.1114 63.285 92.074 63.0544L91.8407 61.0681ZM80.424 61.5349C78.5055 61.4716 76.6016 61.3399 74.7137 61.1468L74.5102 63.1364C76.4419 63.334 78.3918 63.469 80.358 63.5338L80.424 61.5349ZM69.0358 60.3795C67.1412 60.0624 65.2654 59.6885 63.4101 59.2654L62.9654 61.2153C64.8566 61.6466 66.7707 62.0282 68.7056 62.352L69.0358 60.3795ZM57.8494 57.8391C56.926 57.5765 56.0085 57.3032 55.097 57.02L54.5037 58.93C55.43 59.2178 56.3631 59.4957 57.3025 59.7628L57.8494 57.8391ZM55.097 57.02C54.0703 56.7011 53.0345 56.3646 51.9976 56.0093L51.3494 57.9013C52.4062 58.2634 53.4604 58.6059 54.5037 58.93L55.097 57.02ZM45.9234 53.6837C43.9061 52.8168 41.9521 51.8673 40.1232 50.8258L39.1335 52.5637C41.039 53.6489 43.0617 54.6308 45.1338 55.5212L45.9234 53.6837ZM34.8388 47.2219C33.1395 45.8078 31.7003 44.2739 30.5983 42.6097L28.9307 43.7139C30.1618 45.573 31.7434 47.2479 33.5594 48.7592L34.8388 47.2219ZM28.3298 36.9387C28.1714 35.9609 28.1152 34.9398 28.174 33.872L26.177 33.7621C26.1105 34.9708 26.1737 36.1361 26.3556 37.2586L28.3298 36.9387ZM28.174 33.872C28.2331 32.7987 28.408 31.7145 28.6879 30.639L26.7524 30.1352C26.4413 31.3306 26.244 32.5468 26.177 33.7621L28.174 33.872ZM31.418 24.6385C32.6605 22.7848 34.1983 21.1352 35.9307 19.8324L34.7287 18.2339C32.8059 19.6798 31.116 21.4969 29.7567 23.5249L31.418 24.6385ZM41.7875 17.066C43.8329 16.6219 45.9767 16.6762 48.1329 17.3757L48.7501 15.4733C46.2389 14.6586 43.7347 14.5966 41.3631 15.1116L41.7875 17.066ZM53.6925 20.7241C54.4619 21.4233 55.2263 22.2274 55.9805 23.1452L57.5258 21.8755C56.7146 20.8882 55.8838 20.013 55.0376 19.244L53.6925 20.7241ZM55.9805 23.1452C56.5848 23.8805 57.1157 24.6295 57.5779 25.3899L59.2869 24.3509C58.7742 23.5076 58.1882 22.6817 57.5258 21.8755L55.9805 23.1452ZM59.6502 30.4206C60.0686 32.1933 60.2017 34.0162 60.0835 35.8697L62.0794 35.997C62.2091 33.964 62.0643 31.9421 61.5967 29.9612L59.6502 30.4206ZM59.0648 41.317C58.5398 43.0503 57.8319 44.7891 56.9686 46.5149L58.7573 47.4096C59.6648 45.5954 60.4172 43.7513 60.9789 41.8968L59.0648 41.317ZM54.1073 51.3878C53.0661 52.9343 51.9189 54.4505 50.6892 55.9216L52.2238 57.2043C53.4942 55.6844 54.6836 54.113 55.7664 52.5048L54.1073 51.3878ZM46.843 60.1186C45.4918 61.4688 44.0849 62.7587 42.6461 63.974L43.9366 65.5019C45.4172 64.2514 46.8652 62.9237 48.2567 61.5333L46.843 60.1186ZM38.1423 67.4633C37.3575 68.0187 36.571 68.5486 35.7864 69.0509L36.8648 70.7353C37.6761 70.2158 38.4882 69.6686 39.2976 69.0958L38.1423 67.4633ZM35.7864 69.0509C34.9908 69.5603 34.1383 70.0188 33.2384 70.4305L34.0704 72.2492C35.0461 71.8028 35.9822 71.3004 36.8648 70.7353L35.7864 69.0509ZM27.6636 72.2968C25.7598 72.7488 23.7786 73.0659 21.7896 73.2786L22.0023 75.2673C24.0587 75.0474 26.125 74.7177 28.1255 74.2427L27.6636 72.2968ZM15.8059 73.6351C13.6806 73.6711 11.6438 73.6181 9.79309 73.5197L9.68699 75.5169C11.5764 75.6173 13.6606 75.6717 15.8397 75.6348L15.8059 73.6351Z" fill="#5089EC"/>
</svg>
