<svg width="179" height="119" viewBox="0 0 179 119" fill="none" xmlns="http://www.w3.org/2000/svg">
<path d="M18.134 52.5708L17.3718 53.2182L18.134 52.5708ZM70.9063 76.4856L70.9389 75.4861L70.9063 76.4856ZM79.312 47.1179L78.79 46.2649L79.312 47.1179ZM95.0226 110.011L94.6172 110.926L95.0226 110.011ZM175.533 72.4398L178.962 83.466L167.699 80.9224L175.533 72.4398ZM1.86426 0.446289C2.86421 0.456154 2.86421 0.456114 2.86421 0.456078C2.86421 0.456071 2.86421 0.456038 2.86421 0.456024C2.86421 0.455995 2.86421 0.455982 2.86421 0.455985C2.86421 0.455989 2.86421 0.456055 2.86421 0.456181C2.86421 0.456433 2.8642 0.456929 2.8642 0.457668C2.86418 0.459145 2.86416 0.461591 2.86414 0.465C2.86409 0.471818 2.86403 0.482486 2.86397 0.496942C2.86385 0.525855 2.86375 0.569923 2.86385 0.628665C2.86406 0.746152 2.86508 0.922323 2.86836 1.15334C2.87492 1.61539 2.89052 2.29668 2.92672 3.1665L0.928455 3.24968C0.891438 2.36041 0.875366 1.6608 0.868565 1.18173C0.865165 0.942175 0.864082 0.757726 0.863858 0.632232C0.863746 0.569485 0.863849 0.521473 0.863984 0.488678C0.864052 0.472281 0.864128 0.459688 0.864189 0.450959C0.86422 0.446594 0.864247 0.443196 0.864267 0.440771C0.864278 0.439558 0.864286 0.438589 0.864293 0.437864C0.864296 0.437502 0.864299 0.437201 0.864301 0.43696C0.864302 0.43684 0.864303 0.436736 0.864304 0.436646C0.864305 0.436601 0.864305 0.436546 0.864305 0.436523C0.864306 0.436472 0.864306 0.436424 1.86426 0.446289ZM3.30705 8.67195C3.46279 10.3182 3.67302 12.1578 3.95667 14.1402L1.97684 14.4235C1.68826 12.4067 1.4744 10.5353 1.31594 8.86032L3.30705 8.67195ZM4.87085 19.5776C5.20825 21.3177 5.60214 23.1195 6.0619 24.958L4.12166 25.4432C3.65254 23.5673 3.25105 21.7305 2.90742 19.9583L4.87085 19.5776ZM7.55076 30.2501C8.09288 31.9743 8.69727 33.7084 9.37103 35.4333L7.50809 36.161C6.81661 34.3906 6.19739 32.6137 5.64285 30.85L7.55076 30.2501ZM11.5581 40.4597C12.3496 42.0968 13.2125 43.7069 14.1529 45.2728L12.4383 46.3025C11.4645 44.6809 10.5732 43.0174 9.75747 41.3303L11.5581 40.4597ZM17.1961 49.7979C17.742 50.5223 18.3084 51.2315 18.8962 51.9235L17.3718 53.2182C16.758 52.4956 16.1674 51.7559 15.5989 51.0016L17.1961 49.7979ZM18.8962 51.9235C19.5416 52.6834 20.1942 53.4203 20.8533 54.1346L19.3835 55.4909C18.7056 54.7563 18.0349 53.9989 17.3718 53.2182L18.8962 51.9235ZM25.0291 58.2875C26.5116 59.6379 28.0217 60.8896 29.5555 62.0488L28.3495 63.6444C26.767 62.4482 25.2099 61.1575 23.6823 59.766L25.0291 58.2875ZM34.4105 65.3718C36.1048 66.4174 37.822 67.3647 39.5575 68.2212L38.6723 70.0147C36.8816 69.1308 35.1091 68.1532 33.3601 67.0738L34.4105 65.3718ZM44.9496 70.5791C46.7986 71.289 48.6623 71.9086 50.5354 72.4464L49.9834 74.3687C48.057 73.8156 46.1381 73.1778 44.2327 72.4462L44.9496 70.5791ZM56.2664 73.8416C58.2071 74.2335 60.1518 74.5481 62.0942 74.7951L61.8419 76.7791C59.8544 76.5264 57.8617 76.2041 55.8706 75.8021L56.2664 73.8416ZM67.9824 75.347C68.9704 75.4082 69.9562 75.4541 70.9389 75.4861L70.8738 77.485C69.8724 77.4524 68.8671 77.4056 67.8589 77.3432L67.9824 75.347ZM70.9389 75.4861C71.8618 75.5162 72.7969 75.5346 73.7381 75.538L73.7308 77.538C72.7685 77.5345 71.814 77.5157 70.8738 77.485L70.9389 75.4861ZM79.3185 75.3601C81.1978 75.2244 83.0478 75.004 84.8212 74.6741L85.187 76.6404C83.3269 76.9864 81.4013 77.215 79.4625 77.3549L79.3185 75.3601ZM90.1069 73.2413C91.8762 72.5748 93.4651 71.7399 94.8166 70.7081L96.0303 72.2977C94.4932 73.4713 92.7234 74.3928 90.812 75.1129L90.1069 73.2413ZM98.2194 66.784C98.6187 66.0431 98.9483 65.2386 99.1987 64.3639L101.121 64.9143C100.832 65.9247 100.449 66.8631 99.9799 67.733L98.2194 66.784ZM99.1987 64.3639C99.4503 63.4847 99.6122 62.5636 99.6871 61.6195L101.681 61.7776C101.596 62.8453 101.412 63.8984 101.121 64.9143L99.1987 64.3639ZM99.1635 56.021C98.68 54.1789 97.9014 52.4198 96.87 50.8869L98.5294 49.7705C99.6937 51.5009 100.561 53.4682 101.098 55.5132L99.1635 56.021ZM92.9337 47.0302C91.4168 46.1052 89.6835 45.553 87.7605 45.5144L87.8006 43.5148C90.0967 43.5609 92.173 44.2239 93.975 45.3226L92.9337 47.0302ZM82.3573 46.6576C81.5418 47.0061 80.7001 47.4408 79.834 47.9709L78.79 46.2649C79.7327 45.688 80.6604 45.2077 81.5713 44.8184L82.3573 46.6576ZM79.834 47.9709C79.0659 48.4409 78.3686 49.0277 77.74 49.723L76.2564 48.3818C77.0042 47.5546 77.8475 46.8418 78.79 46.2649L79.834 47.9709ZM74.9668 54.6047C74.3678 56.2959 73.9468 58.2063 73.7 60.2838L71.714 60.048C71.9747 57.8524 72.4241 55.7932 73.0815 53.9371L74.9668 54.6047ZM73.4532 66.1895C73.5031 68.1017 73.6679 70.0842 73.942 72.1039L71.9602 72.3729C71.6771 70.2869 71.5058 68.2319 71.4539 66.2417L73.4532 66.1895ZM75.0222 77.9656C75.4679 79.887 76.0035 81.8106 76.6238 83.7092L74.7227 84.3304C74.0842 82.3761 73.5329 80.396 73.0739 78.4176L75.0222 77.9656ZM78.7267 89.2868C79.5206 91.1317 80.3951 92.9211 81.3444 94.6271L79.5968 95.5996C78.6126 93.8308 77.7085 91.9804 76.8896 90.0774L78.7267 89.2868ZM84.527 99.628C85.7243 101.268 87.0004 102.771 88.3471 104.103L86.9405 105.525C85.5091 104.109 84.1641 102.523 82.9116 100.807L84.527 99.628ZM92.8888 107.744C93.7176 108.261 94.5644 108.714 95.428 109.097L94.6172 110.926C93.6623 110.502 92.7326 110.004 91.8292 109.44L92.8888 107.744ZM95.428 109.097C96.348 109.505 97.2576 109.895 98.1566 110.268L97.3911 112.116C96.4766 111.737 95.552 111.34 94.6172 110.926L95.428 109.097ZM103.566 112.345C105.454 113.011 107.292 113.596 109.082 114.105L108.535 116.028C106.704 115.508 104.826 114.91 102.901 114.231L103.566 112.345ZM114.699 115.488C116.662 115.894 118.561 116.204 120.398 116.424L120.16 118.409C118.265 118.183 116.31 117.864 114.293 117.446L114.699 115.488ZM126.137 116.832C128.123 116.872 130.028 116.802 131.855 116.632L132.04 118.623C130.136 118.8 128.156 118.873 126.097 118.831L126.137 116.832ZM137.525 115.744C139.446 115.314 141.27 114.767 143.002 114.12L143.702 115.993C141.884 116.672 139.972 117.245 137.962 117.695L137.525 115.744ZM148.202 111.747C149.908 110.817 151.509 109.786 153.012 108.674L154.201 110.282C152.628 111.446 150.949 112.527 149.158 113.503L148.202 111.747ZM157.388 104.969C158.791 103.62 160.086 102.204 161.283 100.748L162.828 102.018C161.586 103.529 160.237 105.003 158.775 106.41L157.388 104.969ZM164.697 96.1145C165.79 94.4631 166.771 92.7993 167.651 91.1593L169.413 92.1046C168.507 93.7938 167.495 95.5108 166.366 97.2178L164.697 96.1145ZM170.167 85.953C171 84.0337 171.691 82.2143 172.259 80.5653L174.15 81.2169C173.567 82.9094 172.857 84.7775 172.002 86.7492L170.167 85.953Z" fill="#5089EC"/>
</svg>
