<svg width="63" height="65" viewBox="0 0 63 65" fill="none" xmlns="http://www.w3.org/2000/svg">
<path d="M5.84178 20.0766C5.84178 19.5489 6.26952 19.1219 6.7965 19.1219H40.3935C40.9212 19.1219 41.3482 19.5496 41.3482 20.0766C41.3482 20.6043 40.9205 21.0313 40.3935 21.0313H6.7965C6.26952 21.032 5.84178 20.6043 5.84178 20.0766ZM6.7972 8.92329H40.3942C40.9219 8.92329 41.3489 8.49556 41.3489 7.96857C41.3489 7.44089 40.9212 7.01385 40.3942 7.01385H6.7972C6.26952 7.01385 5.84248 7.44159 5.84248 7.96857C5.84178 8.49556 6.26952 8.92329 6.7972 8.92329ZM6.7972 14.9773H40.3942C40.9219 14.9773 41.3489 14.5496 41.3489 14.0226C41.3489 13.4949 40.9212 13.0679 40.3942 13.0679H6.7972C6.26952 13.0679 5.84248 13.4956 5.84248 14.0226C5.84178 14.5503 6.26952 14.9773 6.7972 14.9773ZM6.7972 27.0861H40.3942C40.9219 27.0861 41.3489 26.6583 41.3489 26.1313C41.3489 25.6044 40.9212 25.1766 40.3942 25.1766H6.7972C6.26952 25.1766 5.84248 25.6044 5.84248 26.1313C5.84248 26.6583 6.26952 27.0861 6.7972 27.0861ZM46.9521 60.3993V60.834C46.9521 62.7644 45.3817 64.3356 43.4506 64.3356H3.74084C1.81042 64.3356 0.239258 62.7644 0.239258 60.834V5.90257C0.239258 2.66728 2.87138 0.0351562 6.10667 0.0351562C6.10667 0.0351562 51.6321 0.0351562 52.0361 0.0351562C55.8927 0.0351562 59.0301 3.4941 59.0301 7.74492V22.5976C59.0301 24.528 57.4597 26.0992 55.5285 26.0992H46.9521V28.189C55.4055 28.6852 62.1312 35.7184 62.1312 44.2941C62.1312 52.8698 55.4055 59.903 46.9521 60.3993ZM52.0361 1.9453C49.2327 1.9453 46.9521 4.54737 46.9521 7.74492V24.1891H55.5285C56.4064 24.1891 57.12 23.4748 57.12 22.5976V7.74492C57.12 4.54667 54.8394 1.9453 52.0361 1.9453ZM45.042 60.834V60.3993C41.8787 60.2134 38.9572 59.1126 36.5396 57.3576H6.7972C6.26952 57.3576 5.84248 56.9299 5.84248 56.4029C5.84248 55.8752 6.27022 55.4481 6.7972 55.4481H34.3506C33.1855 54.232 32.2092 52.8356 31.4669 51.3036H6.7972C6.26952 51.3036 5.84248 50.8758 5.84248 50.3488C5.84248 49.8212 6.27022 49.3941 6.7972 49.3941H30.6897C30.2508 48.0795 29.9768 46.6893 29.8922 45.2495H6.7972C6.26952 45.2495 5.84248 44.8218 5.84248 44.2948C5.84248 43.7678 6.27022 43.3401 6.7972 43.3401H29.8922C29.9768 41.9003 30.2508 40.5109 30.6897 39.1955H6.7972C6.26952 39.1955 5.84248 38.7678 5.84248 38.2408C5.84248 37.7138 6.27022 37.2861 6.7972 37.2861H31.4669C32.2085 35.7547 33.1855 34.3576 34.3506 33.1415H6.7972C6.26952 33.1415 5.84248 32.7138 5.84248 32.1868C5.84248 31.6598 6.27022 31.232 6.7972 31.232H36.5403C38.9579 29.4771 41.8787 28.3763 45.042 28.1904V7.74492C45.042 5.4343 45.9701 3.35921 47.4358 1.9453H6.10667C3.92465 1.9453 2.1487 3.72055 2.1487 5.90327V60.834C2.1487 61.7118 2.863 62.4254 3.74014 62.4254H43.4506C44.3284 62.4254 45.042 61.7118 45.042 60.834ZM60.2218 44.2941C60.2218 36.4509 53.8407 30.0697 45.9974 30.0697C38.1541 30.0697 31.773 36.4509 31.773 44.2941C31.773 52.1374 38.1541 58.5185 45.9974 58.5185C53.8407 58.5185 60.2218 52.1374 60.2218 44.2941ZM58.7827 44.2941C58.7827 51.3441 53.0474 57.0801 45.9967 57.0801C38.9467 57.0801 33.2107 51.3441 33.2107 44.2941C33.2107 37.2441 38.946 31.5081 45.9967 31.5081C53.0474 31.5081 58.7827 37.2441 58.7827 44.2941ZM56.8733 44.2941C56.8733 38.2974 51.9941 33.4183 45.9974 33.4183C40.0007 33.4183 35.1215 38.2974 35.1215 44.2941C35.1215 50.2908 40.0007 55.17 45.9974 55.17C51.9941 55.17 56.8733 50.2908 56.8733 44.2941ZM53.2214 42.1834L46.6712 49.8254C46.1805 50.4467 45.4467 50.8185 44.6527 50.8479C44.6191 50.8493 44.5856 50.85 44.552 50.85C43.7881 50.85 43.064 50.5285 42.551 49.9589L38.816 45.7996C37.8222 44.6946 37.9116 42.9871 39.0166 41.9926C39.552 41.511 40.2418 41.2671 40.9617 41.3042C41.6809 41.3419 42.3421 41.6578 42.8236 42.1932L44.5087 44.0698L49.1293 38.6797C49.5961 38.1339 50.2489 37.8019 50.9667 37.746C51.6845 37.69 52.3799 37.9172 52.9272 38.3848C53.4737 38.8523 53.8057 39.5051 53.8616 40.2222C53.9161 40.9407 53.689 41.6368 53.2214 42.1834ZM51.9564 40.3711C51.9403 40.1621 51.8439 39.9727 51.6845 39.8364C51.5251 39.7008 51.3232 39.6344 51.1142 39.6505C50.9052 39.6666 50.7158 39.763 50.5795 39.9224L45.2503 46.14C45.0713 46.3489 44.8113 46.4706 44.536 46.4734C44.5325 46.4734 44.529 46.4734 44.5248 46.4734C44.2536 46.4734 43.9957 46.358 43.814 46.1567L41.402 43.4708C41.2622 43.3156 41.0693 43.2234 40.8604 43.2122C40.8464 43.2115 40.8324 43.2108 40.8184 43.2108C40.6241 43.2108 40.4396 43.2814 40.2942 43.4128C39.972 43.7028 39.9462 44.2005 40.2355 44.5227L40.2362 44.5234L43.9705 48.6826C44.1823 48.9182 44.4444 48.9461 44.5814 48.9398C44.8169 48.9314 45.0336 48.8203 45.1769 48.6358C45.1867 48.6232 45.1964 48.6113 45.2069 48.5988L51.7705 40.9414C51.9068 40.7828 51.9725 40.5801 51.9564 40.3711Z" fill="#4A83E7"/>
</svg>
