<svg width="48" height="41" viewBox="0 0 48 41" fill="none" xmlns="http://www.w3.org/2000/svg">
<path d="M46.2857 18.7917H37.5429C37.3714 16.7417 36.6857 14.6917 35.8286 12.8125C39.0857 10.25 41.1429 6.49167 41.1429 2.39167V1.70833C41.1429 0.683333 40.4571 0 39.4286 0C38.4 0 37.7143 0.683333 37.7143 1.70833V2.39167C37.7143 5.46667 36.3429 8.2 33.9429 10.0792C33.0857 8.88333 31.8857 8.02917 30.6857 7.175C30.6857 7.00417 30.6857 7.00417 30.6857 6.83333C30.6857 3.075 27.6 0 23.8286 0C20.0571 0 16.9714 3.075 16.9714 6.83333C16.9714 7.00417 16.9714 7.00417 16.9714 7.175C15.7714 8.02917 14.7429 8.88333 13.7143 10.0792C11.6571 8.2 10.2857 5.46667 10.2857 2.39167V1.70833C10.2857 0.683333 9.6 0 8.57143 0C7.54286 0 6.85714 0.683333 6.85714 1.70833V2.39167C6.85714 6.49167 8.74286 10.4208 12.1714 12.8125C11.3143 14.5208 10.6286 16.5708 10.4571 18.7917H1.71429C0.685714 18.7917 0 19.475 0 20.5C0 21.525 0.685714 22.2083 1.71429 22.2083H10.4571C10.6286 24.2583 11.3143 26.3083 12.1714 28.1875C8.74286 30.5792 6.85714 34.5083 6.85714 38.6083V39.2917C6.85714 40.3167 7.54286 41 8.57143 41C9.6 41 10.2857 40.3167 10.2857 39.2917V38.6083C10.2857 35.5333 11.6571 32.8 14.0571 30.9208C16.6286 33.9958 20.0571 35.875 24 35.875C27.9429 35.875 31.5429 33.9958 33.9429 30.9208C36.3429 32.8 37.7143 35.5333 37.7143 38.6083V39.2917C37.7143 40.3167 38.4 41 39.4286 41C40.4571 41 41.1429 40.3167 41.1429 39.2917V38.6083C41.1429 34.5083 39.2571 30.5792 35.8286 28.1875C36.6857 26.4792 37.3714 24.4292 37.5429 22.2083H46.2857C47.3143 22.2083 48 21.525 48 20.5C48 19.475 47.3143 18.7917 46.2857 18.7917Z" fill="url(#paint0_linear_1410_5040)"/>
<defs>
<linearGradient id="paint0_linear_1410_5040" x1="5" y1="9.76329e-07" x2="43" y2="37" gradientUnits="userSpaceOnUse">
<stop stop-color="#4A83E7"/>
<stop offset="1" stop-color="#597DE7"/>
</linearGradient>
</defs>
</svg>
