<svg width="62" height="64" viewBox="0 0 62 64" fill="none" xmlns="http://www.w3.org/2000/svg">
<path d="M53.4262 42.8831H56.9311L56.8228 42.8289C56.3763 42.5713 56.2139 41.9883 56.471 41.5409C56.7281 41.0935 57.31 40.9308 57.7566 41.1884L60.9097 43.0187C61.5457 43.3848 61.5457 44.2932 60.9232 44.6592L57.7701 46.476C57.3235 46.7336 56.7416 46.5844 56.4845 46.1235C56.2274 45.6761 56.3763 45.0931 56.8364 44.8355L56.9446 44.7677H53.4397C53.4397 45.7438 53.1149 46.5573 52.4653 47.2216C51.8564 47.8182 51.0309 48.1978 50.1242 48.1978H48.0402C46.2133 48.1978 44.7247 46.7065 44.7247 44.8761V44.727H43.8992C35.482 44.727 35.3466 27.5627 43.4797 26.9933C43.4797 25.99 43.7774 25.1765 44.4541 24.4851C45.063 23.8885 45.8885 23.5089 46.7952 23.5089H48.8792C50.7061 23.5089 52.1947 25.0003 52.1947 26.8306V26.9662H52.303C60.2601 26.9662 60.2601 13.0016 52.303 13.0016H33.8174C33.2897 13.0016 32.8702 12.5813 32.8702 12.0525C32.8702 11.5238 33.2897 11.1035 33.8174 11.1035H52.2759C62.7501 11.1035 62.7501 28.8643 52.2759 28.8643H52.1676C52.1676 30.7624 50.679 32.2402 48.8521 32.2402H46.7546C44.9277 32.2402 43.4391 30.7624 43.4391 28.8778C37.8366 29.5286 37.9855 42.8153 43.8586 42.8153H44.6841C44.6841 40.9308 46.1727 39.453 47.9996 39.453H50.0836C51.9105 39.453 53.3991 40.9444 53.3991 42.7747V42.8831H53.4262ZM58.2844 43.6695V43.9949L58.5685 43.8322L58.2844 43.6695ZM8.80923 55.1666H9.06635V51.7771C1.54223 47.2623 -1.16428 37.704 2.80076 29.9354C3.03082 29.4744 3.58565 29.2846 4.04576 29.5151C11.5969 33.135 23.4921 32.9994 30.6644 28.7965C31.1245 28.5253 31.7064 28.688 31.9635 29.1354C34.8189 34.0434 34.1287 38.7209 34.1558 38.7751L38.1614 44.8355C38.5268 45.3778 38.2291 46.1099 37.6201 46.2726L34.0881 47.2216V53.2007C34.0881 53.7294 33.6686 54.1497 33.1408 54.1497H23.9793V55.1666H24.4664C26.6587 55.1666 28.4585 56.9562 28.4585 59.1526C28.4585 61.349 26.6722 63.1522 24.4664 63.1522H9.68885C7.49657 63.1522 5.71027 61.3625 5.71027 59.1526V58.2713C5.69674 56.563 7.09059 55.1666 8.80923 55.1666ZM24.4664 57.0647H8.80923C8.14613 57.0647 7.5913 57.607 7.5913 58.2713C7.5913 59.1933 7.49657 59.9118 8.2138 60.6304C8.59271 61.01 9.12048 61.2405 9.68885 61.2405H24.48C26.3069 61.2405 27.2812 59.0035 25.955 57.6748C25.5761 57.3087 25.0483 57.0647 24.4664 57.0647ZM31.544 32.7825C31.3274 32.1317 31.0568 31.5081 30.7591 30.898C23.235 34.8162 11.9082 34.9653 4.09989 31.603C2.21886 35.9144 2.53011 40.9308 4.91185 44.971C6.23804 47.2217 8.1326 49.0791 10.4061 50.3535C10.7309 50.5027 10.9609 50.828 10.9609 51.2212V55.1666H22.0982V53.2007C22.0982 52.6719 22.5177 52.2516 23.0455 52.2516H32.2071V46.5031C32.2071 46.0828 32.4913 45.7032 32.9108 45.5947L35.8744 44.7948L32.4101 39.5614C32.1665 39.1818 32.2883 38.7751 32.3153 38.2328C32.3965 36.4025 32.1259 34.5044 31.544 32.7825ZM50.0971 41.3511H48.0131C47.2282 41.3511 46.5922 42.0019 46.5922 42.7747V44.8626C46.5922 45.6489 47.2418 46.2862 48.0131 46.2862H50.0971C50.882 46.2862 51.5181 45.6354 51.5181 44.8626V42.7747C51.5181 42.0019 50.882 41.3511 50.0971 41.3511ZM48.8386 25.407H46.7546C45.9697 25.407 45.3337 26.0578 45.3337 26.8306V28.9185C45.3337 29.7049 45.9832 30.3421 46.7546 30.3421H48.8386C49.6235 30.3421 50.2595 29.7049 50.2595 28.9185V26.8306C50.2731 26.0578 49.6235 25.407 48.8386 25.407ZM11.6105 15.8758C11.0827 15.8758 10.6632 15.4555 10.6632 14.9268C10.6632 14.398 11.0827 13.9777 11.6105 13.9777H19.6624C20.1901 13.9777 20.6096 14.398 20.6096 14.9268C20.6096 15.4555 20.1901 15.8758 19.6624 15.8758H11.6105ZM11.6105 11.9169C11.0827 11.9169 10.6632 11.4966 10.6632 10.9679C10.6632 10.4391 11.0827 10.0188 11.6105 10.0188H23.5733C24.101 10.0188 24.5206 10.4391 24.5206 10.9679C24.5206 11.4966 24.101 11.9169 23.5733 11.9169H11.6105ZM14.1817 2.33151H15.1695C15.5349 0.324944 18.0249 -0.474971 19.4864 0.98928C19.8518 1.34178 20.0954 1.81631 20.1901 2.33151H21.178C21.7058 2.33151 22.1253 2.7518 22.1253 3.29412H26.2392C27.6466 3.29412 28.7969 4.44654 28.7969 5.85656V25.4477C28.7969 26.8577 27.6466 28.0101 26.2392 28.0101H9.12048C7.71309 28.0101 6.56282 26.8577 6.56282 25.4477V5.87012C6.56282 4.4601 7.71309 3.30768 9.12048 3.30768H13.2344C13.2344 2.7518 13.6539 2.33151 14.1817 2.33151ZM22.1253 5.20578V6.98186C22.1253 7.51062 21.7058 7.93091 21.178 7.93091H14.1817C13.6539 7.93091 13.2344 7.51062 13.2344 6.98186V5.20578H9.12048C8.7551 5.20578 8.45738 5.50405 8.45738 5.87012V25.4613C8.45738 25.8273 8.7551 26.1256 9.12048 26.1256H26.2392C26.6046 26.1256 26.9023 25.8273 26.9023 25.4613V5.87012C26.9023 5.50405 26.6046 5.20578 26.2392 5.20578H22.1253ZM16.1574 4.22961H15.1425V6.03281H20.2307V4.22961C19.933 4.22961 19.1752 4.25673 18.9316 4.18894C18.4309 4.02625 18.1467 3.49749 18.3091 2.99585C18.5121 2.34507 17.7001 1.84343 17.213 2.33151C16.8611 2.68402 17.0912 3.0094 17.0912 3.28056C17.1047 3.80932 16.6717 4.22961 16.1574 4.22961ZM11.6105 23.7936C11.0827 23.7936 10.6632 23.3733 10.6632 22.8446C10.6632 22.3158 11.0827 21.8955 11.6105 21.8955H17.3483C17.8761 21.8955 18.2956 22.3158 18.2956 22.8446C18.2956 23.3733 17.8761 23.7936 17.3483 23.7936H11.6105ZM11.6105 19.8347C11.0827 19.8347 10.6632 19.4144 10.6632 18.8857C10.6632 18.3569 11.0827 17.9366 11.6105 17.9366H17.3483C17.8761 17.9366 18.2956 18.3569 18.2956 18.8857C18.2956 19.4144 17.8761 19.8347 17.3483 19.8347H11.6105Z" fill="#4A83E7"/>
</svg>
