<svg width="50" height="41" viewBox="0 0 50 41" fill="none" xmlns="http://www.w3.org/2000/svg">
<path d="M33.5938 39.4231H31.25V36.2692H18.75V39.4231H16.4062C15.975 39.4231 15.625 39.7763 15.625 40.2115C15.625 40.6468 15.975 41 16.4062 41H33.5938C34.025 41 34.375 40.6468 34.375 40.2115C34.375 39.7763 34.025 39.4231 33.5938 39.4231ZM50 4.73077V29.9615C50 32.5745 47.9016 34.6923 45.3125 34.6923H4.6875C2.09844 34.6923 0 32.5745 0 29.9615V4.73077C0 2.11781 2.09844 0 4.6875 0H45.3125C47.9016 0 50 2.11781 50 4.73077Z" fill="url(#paint0_linear_2224_431)"/>
<path d="M11.8467 17.1965L20.9778 12.957V14.9732L14.0725 17.9974V18.0354L20.9797 21.0602V23.0763L11.8467 18.8325V17.1965Z" fill="white"/>
<path d="M22.3877 23.8355L26.4586 10.043H28.3795L24.3086 23.8355H22.3877Z" fill="white"/>
<path d="M38.6155 18.8891L29.4844 23.0745V21.0583L36.5421 18.0335V17.9974L29.4844 14.9707V12.957L38.6155 17.1424V18.8891Z" fill="white"/>
<defs>
<linearGradient id="paint0_linear_2224_431" x1="3.83831e-08" y1="5" x2="47" y2="34.5" gradientUnits="userSpaceOnUse">
<stop stop-color="#4A83E7"/>
<stop offset="1" stop-color="#617AE7"/>
</linearGradient>
</defs>
</svg>
