<svg width="63" height="63" viewBox="0 0 63 63" fill="none" xmlns="http://www.w3.org/2000/svg">
<path fill-rule="evenodd" clip-rule="evenodd" d="M12.3818 0.960938H17.5649C17.7829 0.960938 17.9921 1.04756 18.1462 1.20174C18.3004 1.35593 18.3871 1.56505 18.3871 1.7831V4.96797L19.1234 5.24285C19.3647 5.34292 19.6025 5.45204 19.8368 5.57023L22.0889 3.31809C22.1652 3.2417 22.2559 3.1811 22.3556 3.13975C22.4553 3.09841 22.5622 3.07713 22.6702 3.07713C22.7782 3.07713 22.8851 3.09841 22.9848 3.13975C23.0846 3.1811 23.1752 3.2417 23.2515 3.31809L26.9163 6.98291C26.9927 7.05921 27.0533 7.14982 27.0946 7.24956C27.136 7.3493 27.1572 7.45621 27.1572 7.56417C27.1572 7.67214 27.136 7.77905 27.0946 7.87879C27.0533 7.97852 26.9927 8.06913 26.9163 8.14543L24.6641 10.3976C24.8993 10.8659 25.1002 11.3506 25.2652 11.8479H28.45C28.6681 11.8479 28.8772 11.9346 29.0314 12.0887C29.1856 12.2429 29.2722 12.452 29.2722 12.6701V14.4398H46.8539C48.193 14.4419 49.4766 14.975 50.4233 15.922C51.37 16.8691 51.9026 18.1529 51.9042 19.492V26.9298H55.8013C55.9108 26.9295 56.0192 26.9512 56.1201 26.9936C56.221 27.0361 56.3124 27.0984 56.3887 27.1768L61.8683 32.6565C62.012 32.8132 62.0926 33.0177 62.0944 33.2303V61.909C62.0944 62.127 62.0078 62.3362 61.8536 62.4903C61.6994 62.6445 61.4903 62.7311 61.2723 62.7311H35.7735C35.5555 62.7311 35.3463 62.6445 35.1922 62.4903C35.038 62.3362 34.9514 62.127 34.9514 61.909V52.1913H19.2C17.8613 52.189 16.5781 51.6562 15.6316 50.7095C14.685 49.7629 14.1524 48.4796 14.1502 47.141V29.5605H12.3818C12.1637 29.5605 11.9546 29.4739 11.8004 29.3197C11.6462 29.1656 11.5596 28.9564 11.5596 28.7384V25.5529L10.8233 25.278C10.5816 25.1775 10.3437 25.0684 10.1098 24.9506L7.8577 27.2028C7.7814 27.2792 7.6908 27.3398 7.59106 27.3811C7.49132 27.4225 7.38441 27.4437 7.27645 27.4437C7.16848 27.4437 7.06157 27.4225 6.96183 27.3811C6.8621 27.3398 6.77149 27.2792 6.69519 27.2028L3.0316 23.5386C2.95523 23.4623 2.89464 23.3718 2.8533 23.2721C2.81196 23.1724 2.79069 23.0655 2.79069 22.9576C2.79069 22.8497 2.81196 22.7428 2.8533 22.6432C2.89464 22.5435 2.95523 22.4529 3.0316 22.3767L5.28374 20.1239C5.16761 19.8925 5.0589 19.6547 4.95759 19.4105C4.8567 19.1683 4.76508 18.9227 4.68271 18.6735H1.49599C1.27805 18.6735 1.06902 18.587 0.914852 18.433C0.760685 18.2789 0.673992 18.0699 0.673828 17.852V12.6689C0.673828 12.4508 0.760448 12.2417 0.914634 12.0875C1.06882 11.9333 1.27794 11.8467 1.49599 11.8467H4.68086L4.95574 11.1104C5.05581 10.8691 5.16493 10.6313 5.28312 10.397L3.0316 8.14419C2.95521 8.06789 2.89461 7.97729 2.85326 7.87755C2.81192 7.77781 2.79063 7.6709 2.79063 7.56294C2.79063 7.45497 2.81192 7.34806 2.85326 7.24832C2.89461 7.14859 2.95521 7.05798 3.0316 6.98168L6.69457 3.31685C6.77087 3.24046 6.86148 3.17986 6.96122 3.13852C7.06095 3.09717 7.16786 3.07589 7.27583 3.07589C7.3838 3.07589 7.4907 3.09717 7.59044 3.13852C7.69018 3.17986 7.78079 3.24046 7.85709 3.31685L10.1092 5.56899C10.5773 5.33328 11.0621 5.13219 11.5596 4.96735V1.7831C11.5596 1.56505 11.6462 1.35593 11.8004 1.20174C11.9546 1.04756 12.1637 0.960938 12.3818 0.960938ZM29.2728 16.0823V17.852C29.2728 18.0701 29.1862 18.2792 29.032 18.4334C28.8778 18.5875 28.6687 18.6742 28.4507 18.6742H25.2689C25.1033 19.1712 24.9023 19.6557 24.6672 20.1239L26.9194 22.3767C26.9957 22.4529 27.0563 22.5435 27.0977 22.6432C27.139 22.7428 27.1603 22.8497 27.1603 22.9576C27.1603 23.0655 27.139 23.1724 27.0977 23.2721C27.0563 23.3718 26.9957 23.4623 26.9194 23.5386L23.2545 27.204C23.1782 27.2804 23.0876 27.341 22.9879 27.3823C22.8882 27.4237 22.7813 27.445 22.6733 27.445C22.5653 27.445 22.4584 27.4237 22.3587 27.3823C22.2589 27.341 22.1683 27.2804 22.092 27.204L19.8399 24.9519C19.3718 25.1877 18.8871 25.3888 18.3895 25.5535V28.7378C18.3896 28.846 18.3683 28.9532 18.3269 29.0532C18.2854 29.1531 18.2247 29.244 18.1481 29.3204C18.0715 29.3968 17.9805 29.4574 17.8804 29.4986C17.7803 29.5398 17.6731 29.5609 17.5649 29.5605H15.7952V47.141C15.7973 48.0438 16.1569 48.9091 16.7953 49.5475C17.4337 50.1859 18.299 50.5455 19.2018 50.5476H34.9532V27.7544C34.9532 27.5363 35.0398 27.3272 35.194 27.173C35.3482 27.0188 35.5573 26.9322 35.7754 26.9322H50.2605V19.492C50.2584 18.5892 49.8988 17.7239 49.2604 17.0855C48.622 16.4471 47.7567 16.0875 46.8539 16.0854L29.2728 16.0823ZM40.0369 51.7941C39.929 51.794 39.8221 51.8152 39.7223 51.8565C39.6226 51.8977 39.5319 51.9582 39.4556 52.0345C39.3792 52.1108 39.3187 52.2014 39.2773 52.3011C39.236 52.4008 39.2147 52.5077 39.2147 52.6157V57.0291C39.2147 57.2472 39.3014 57.4563 39.4555 57.6105C39.6097 57.7647 39.8188 57.8513 40.0369 57.8513H44.4498C44.6678 57.8513 44.8769 57.7647 45.0311 57.6105C45.1853 57.4563 45.2719 57.2472 45.2719 57.0291V52.6157C45.2719 52.5077 45.2507 52.4008 45.2093 52.3011C45.168 52.2014 45.1074 52.1108 45.0311 52.0345C44.9547 51.9582 44.8641 51.8977 44.7643 51.8565C44.6646 51.8152 44.5577 51.794 44.4498 51.7941H40.0369ZM43.6282 53.4378H40.8591V56.207H43.6282V53.4378ZM57.0089 54.0005H47.537C47.4272 53.9975 47.3179 54.0166 47.2156 54.0565C47.1132 54.0965 47.0199 54.1565 46.9412 54.2331C46.8624 54.3097 46.7998 54.4014 46.7571 54.5026C46.7144 54.6038 46.6923 54.7125 46.6923 54.8224C46.6923 54.9323 46.7144 55.041 46.7571 55.1422C46.7998 55.2434 46.8624 55.335 46.9412 55.4117C47.0199 55.4883 47.1132 55.5483 47.2156 55.5883C47.3179 55.6282 47.4272 55.6473 47.537 55.6442H57.0089C57.223 55.6384 57.4263 55.5492 57.5756 55.3957C57.725 55.2422 57.8085 55.0365 57.8085 54.8224C57.8085 54.6083 57.725 54.4025 57.5756 54.2491C57.4263 54.0956 57.223 54.0064 57.0089 54.0005ZM40.0369 42.3562C39.9289 42.3562 39.822 42.3775 39.7223 42.4188C39.6225 42.4601 39.5319 42.5207 39.4555 42.597C39.3792 42.6734 39.3186 42.764 39.2773 42.8638C39.236 42.9635 39.2147 43.0704 39.2147 43.1784V47.5913C39.2147 47.8093 39.3014 48.0184 39.4555 48.1726C39.6097 48.3268 39.8188 48.4134 40.0369 48.4134H44.4498C44.6678 48.4134 44.8769 48.3268 45.0311 48.1726C45.1853 48.0184 45.2719 47.8093 45.2719 47.5913V43.1784C45.2719 43.0704 45.2507 42.9635 45.2093 42.8638C45.168 42.764 45.1075 42.6734 45.0311 42.597C44.9548 42.5207 44.8641 42.4601 44.7644 42.4188C44.6646 42.3775 44.5577 42.3562 44.4498 42.3562H40.0369ZM43.6282 43.9999H40.8591V46.7691H43.6282V43.9999ZM57.0089 44.5627H47.537C47.4272 44.5597 47.3179 44.5787 47.2156 44.6186C47.1132 44.6586 47.0199 44.7186 46.9412 44.7953C46.8624 44.8719 46.7998 44.9635 46.7571 45.0647C46.7144 45.1659 46.6923 45.2747 46.6923 45.3845C46.6923 45.4944 46.7144 45.6031 46.7571 45.7043C46.7998 45.8056 46.8624 45.8972 46.9412 45.9738C47.0199 46.0504 47.1132 46.1105 47.2156 46.1504C47.3179 46.1904 47.4272 46.2094 47.537 46.2064H57.0089C57.223 46.2005 57.4263 46.1113 57.5756 45.9579C57.725 45.8044 57.8085 45.5987 57.8085 45.3845C57.8085 45.1704 57.725 44.9647 57.5756 44.8112C57.4263 44.6577 57.223 44.5685 57.0089 44.5627ZM40.0369 32.9184C39.9289 32.9184 39.822 32.9396 39.7223 32.981C39.6225 33.0223 39.5319 33.0828 39.4555 33.1592C39.3792 33.2355 39.3186 33.3262 39.2773 33.4259C39.236 33.5257 39.2147 33.6326 39.2147 33.7405V38.1534C39.2147 38.3714 39.3014 38.5806 39.4555 38.7348C39.6097 38.8889 39.8188 38.9756 40.0369 38.9756H44.4498C44.6678 38.9756 44.8769 38.8889 45.0311 38.7348C45.1853 38.5806 45.2719 38.3714 45.2719 38.1534V33.7405C45.2719 33.6326 45.2507 33.5257 45.2093 33.4259C45.168 33.3262 45.1075 33.2355 45.0311 33.1592C44.9548 33.0828 44.8641 33.0223 44.7644 32.981C44.6646 32.9396 44.5577 32.9184 44.4498 32.9184H40.0369ZM43.6282 34.5639H40.8591V37.3312H43.6282V34.5639ZM57.0089 35.1267H47.537C47.319 35.1267 47.1099 35.2133 46.9557 35.3675C46.8015 35.5216 46.7149 35.7308 46.7149 35.9488C46.7149 36.1669 46.8015 36.376 46.9557 36.5302C47.1099 36.6844 47.319 36.771 47.537 36.771H57.0089C57.2269 36.771 57.4361 36.6844 57.5902 36.5302C57.7444 36.376 57.831 36.1669 57.831 35.9488C57.831 35.7308 57.7444 35.5216 57.5902 35.3675C57.4361 35.2133 57.2269 35.1267 57.0089 35.1267ZM56.6234 32.402H59.2882L56.6234 29.736V32.402ZM60.4532 34.0457H55.8013C55.6933 34.0455 55.5864 34.0241 55.4867 33.9826C55.3871 33.9412 55.2965 33.8805 55.2203 33.804C55.144 33.7275 55.0836 33.6368 55.0425 33.537C55.0013 33.4372 54.9802 33.3303 54.9803 33.2223V28.5722H36.5951V61.0868H60.4501V34.0444L60.4532 34.0457ZM14.9736 8.99106C13.7331 8.99094 12.5204 9.35872 11.4889 10.0479C10.4574 10.737 9.65352 11.7166 9.17882 12.8627C8.70412 14.0088 8.57998 15.27 8.8221 16.4866C9.06422 17.7033 9.66172 18.8208 10.539 19.6979C11.4163 20.5749 12.5341 21.1721 13.7508 21.4139C14.9675 21.6556 16.2286 21.5311 17.3746 21.0561C18.5206 20.581 19.4999 19.7768 20.1888 18.7451C20.8776 17.7134 21.245 16.5006 21.2445 15.2601C21.2439 13.5973 20.5829 12.0029 19.407 10.8273C18.2311 9.65171 16.6364 8.99123 14.9736 8.99106ZM18.2475 11.99C17.6003 11.3427 16.7757 10.9018 15.8779 10.7232C14.9802 10.5445 14.0496 10.6361 13.204 10.9863C12.3583 11.3366 11.6354 11.9297 11.1269 12.6908C10.6183 13.4518 10.3469 14.3466 10.3469 15.262C10.3469 16.1773 10.6183 17.0721 11.1269 17.8332C11.6354 18.5942 12.3583 19.1874 13.204 19.5376C14.0496 19.8879 14.9802 19.9795 15.8779 19.8008C16.7757 19.6221 17.6003 19.1813 18.2475 18.5339C19.1149 17.666 19.6023 16.4891 19.6023 15.262C19.6023 14.0348 19.1149 12.8579 18.2475 11.99ZM16.7446 2.60526H13.2033V5.57764C13.2033 5.75847 13.1436 5.93423 13.0335 6.07765C12.9233 6.22106 12.7689 6.3241 12.5942 6.37077C11.834 6.57477 11.1026 6.87405 10.4175 7.2615C10.2593 7.36752 10.0693 7.41537 9.87983 7.3969C9.69035 7.37842 9.51316 7.29476 9.37849 7.1602L7.2783 5.06001L4.7729 7.56294L6.87309 9.66312C7.00015 9.79081 7.08168 9.95674 7.10512 10.1353C7.12856 10.3139 7.09261 10.4953 7.0028 10.6514C6.80134 10.9999 6.62305 11.3612 6.46911 11.733C6.32119 12.0915 6.19616 12.4589 6.09478 12.8332C6.05573 13.0172 5.95468 13.1823 5.80852 13.3008C5.66235 13.4193 5.47994 13.4841 5.29177 13.4842H2.31815V17.0243H5.29053C5.47209 17.0246 5.64842 17.0851 5.79193 17.1963C5.93544 17.3075 6.03804 17.4632 6.08366 17.6389C6.1876 18.0274 6.31677 18.4087 6.47034 18.7804C6.6185 19.135 6.78806 19.4804 6.9781 19.8144C7.08411 19.9726 7.13197 20.1626 7.11349 20.3521C7.09502 20.5415 7.01136 20.7187 6.87679 20.8534L4.77661 22.9536L7.27954 25.4565L9.37972 23.3563C9.5073 23.2291 9.67325 23.1474 9.8519 23.124C10.0306 23.1005 10.212 23.1366 10.368 23.2266C10.7165 23.4281 11.0778 23.6064 11.4496 23.7603C11.8081 23.9081 12.1755 24.0332 12.5498 24.1346C12.7338 24.1737 12.8989 24.2747 13.0174 24.4209C13.1359 24.5671 13.2007 24.7495 13.2008 24.9377V27.9107H16.7446V24.9426C16.7448 24.7618 16.8046 24.5862 16.9147 24.4428C17.0248 24.2994 17.179 24.1963 17.3536 24.1495C18.1139 23.9451 18.8452 23.6449 19.5298 23.2563C19.688 23.1505 19.8781 23.1028 20.0675 23.1214C20.257 23.1399 20.4341 23.2236 20.5688 23.3582L22.669 25.4584L25.1719 22.9555L23.0717 20.8553C22.9445 20.7277 22.8628 20.5617 22.8394 20.3831C22.8159 20.2044 22.852 20.023 22.942 19.8669C23.3379 19.1819 23.6435 18.4486 23.8512 17.6852C23.8902 17.5011 23.9912 17.3359 24.1374 17.2174C24.2836 17.0989 24.4661 17.0342 24.6543 17.0342H27.6285V13.4904H24.6561C24.4753 13.4904 24.2995 13.4307 24.1561 13.3206C24.0127 13.2104 23.9097 13.056 23.863 12.8814C23.6596 12.1207 23.3594 11.3894 22.9698 10.7052C22.8638 10.5471 22.8159 10.357 22.8344 10.1676C22.8529 9.97808 22.9365 9.80088 23.0711 9.66621L25.1713 7.56603L22.6708 5.06001L20.5706 7.1602C20.4429 7.28725 20.277 7.36879 20.0984 7.39223C19.9198 7.41567 19.7385 7.37972 19.5823 7.28991C19.2339 7.08844 18.8726 6.91016 18.5007 6.75622C18.1423 6.6083 17.7748 6.48327 17.4006 6.38189C17.2166 6.34274 17.0515 6.24165 16.9331 6.09551C16.8146 5.94937 16.7498 5.76702 16.7495 5.57888L16.7446 2.60526Z" fill="#4A83E7"/>
</svg>
