<svg width="65" height="65" viewBox="0 0 65 65" fill="none" xmlns="http://www.w3.org/2000/svg">
<path d="M32.4802 7.65869C22.717 7.65869 14.7744 15.6013 14.7744 25.3645C14.7744 35.1277 22.717 43.0704 32.4802 43.0704C42.2435 43.0704 50.1861 35.1277 50.1861 25.3645C50.1861 15.6013 42.2435 7.65869 32.4802 7.65869ZM21.8942 36.8212H43.0663C40.2792 39.398 36.5672 40.9873 32.4802 40.9873C28.3933 40.9873 24.6814 39.398 21.8942 36.8212ZM28.5475 29.8035C29.1005 31.4543 30.6451 32.6552 32.4802 32.6552C34.3154 32.6552 35.86 31.4543 36.413 29.8035L39.5865 30.7106C40.9218 31.0918 41.8539 32.3281 41.8539 33.7154V34.7382H23.1066V33.7154C23.1066 32.3281 24.0387 31.0918 25.3729 30.7106L28.5475 29.8035ZM30.3972 28.1818C31.0575 28.3797 31.7564 28.4891 32.4802 28.4891C33.2041 28.4891 33.903 28.3797 34.5633 28.1818V28.4891C34.5633 29.6379 33.629 30.5721 32.4802 30.5721C31.3315 30.5721 30.3972 29.6379 30.3972 28.4891V28.1818ZM32.4802 26.406C29.6088 26.406 27.2727 24.0699 27.2727 21.1984V19.1154C27.2727 16.2439 29.6088 13.9078 32.4802 13.9078C35.3517 13.9078 37.6878 16.2439 37.6878 19.1154V21.1984C37.6878 24.0699 35.3517 26.406 32.4802 26.406ZM43.937 35.9505V33.7154C43.937 31.4022 42.3841 29.3442 40.1594 28.7068L36.6463 27.7027V27.1726C38.5325 25.853 39.7709 23.6689 39.7709 21.1984V19.1154C39.7709 15.0962 36.4995 11.8248 32.4802 11.8248C28.461 11.8248 25.1896 15.0962 25.1896 19.1154V21.1984C25.1896 23.6689 26.428 25.853 28.3142 27.1726V27.7027L24.8001 28.7068C22.5764 29.3431 21.0235 31.4022 21.0235 33.7154V35.9505C18.4468 33.1634 16.8575 29.4515 16.8575 25.3645C16.8575 16.7501 23.8658 9.74173 32.4802 9.74173C41.0947 9.74173 48.103 16.7501 48.103 25.3645C48.103 29.4504 46.5137 33.1634 43.937 35.9505Z" fill="#4A83E7"/>
<path d="M60.99 56.8279L57.4769 55.8239V55.2937C59.3631 53.9741 60.6015 51.7901 60.6015 49.3196V47.2365C60.6015 43.4319 57.6696 40.3021 53.9472 39.9782L51.6757 35.81C52.411 34.4602 53.0015 33.0333 53.4379 31.5513L57.4769 30.2973V20.431L53.4379 19.177C53.0015 17.6959 52.4099 16.268 51.6746 14.9172L53.6452 11.176L46.6691 4.20096L42.9269 6.16943C41.5792 5.43516 40.1523 4.84462 38.6681 4.40718L37.4131 0.368164H27.5468L26.2938 4.40718C24.8097 4.84462 23.3828 5.43516 22.0351 6.16943L18.2929 4.20096L11.3168 11.176L13.2873 14.9172C12.552 16.268 11.9604 17.6959 11.5241 19.177L7.484 20.432V30.2983L11.523 31.5523C11.9594 33.0344 12.5499 34.4613 13.2853 35.8111L11.0137 39.9792C7.29132 40.3021 4.35944 43.4319 4.35944 47.2365V49.3196C4.35944 51.7901 5.59781 53.9741 7.484 55.2937V55.8239L3.96991 56.8279C1.74627 57.4643 0.193359 59.5234 0.193359 61.8366V64.9424H23.1068V61.8366C23.1068 59.5234 21.5539 57.4653 19.3292 56.8279L15.8162 55.8239V55.2937C17.7023 53.9741 18.9407 51.7901 18.9407 49.3196V47.2365C18.9407 46.8835 18.9074 46.5398 18.8584 46.2002L22.034 44.5588C23.3849 45.2952 24.8118 45.8857 26.2938 46.3221L27.5478 50.3611H37.4141L38.6681 46.3221C40.1502 45.8857 41.5771 45.2952 42.928 44.5588L46.0796 46.2138L46.0994 46.2221C46.0525 46.5544 46.0202 46.8918 46.0202 47.2365V49.3196C46.0202 51.7901 47.2586 53.9741 49.1448 55.2937V55.8239L45.6307 56.8279C43.4071 57.4643 41.8541 59.5234 41.8541 61.8366V64.9424H64.7676V61.8366C64.7676 59.5234 63.2147 57.4643 60.99 56.8279ZM51.2278 56.303C51.8881 56.5009 52.587 56.6102 53.3109 56.6102C54.0347 56.6102 54.7336 56.5009 55.3939 56.303V56.6102C55.3939 57.759 54.4597 58.6933 53.3109 58.6933C52.1621 58.6933 51.2278 57.759 51.2278 56.6102V56.303ZM9.56704 56.303C10.2274 56.5009 10.9262 56.6102 11.6501 56.6102C12.3739 56.6102 13.0728 56.5009 13.7331 56.303V56.6102C13.7331 57.759 12.7989 58.6933 11.6501 58.6933C10.5013 58.6933 9.56704 57.759 9.56704 56.6102V56.303ZM21.0238 61.8366V62.8593H2.2764V61.8366C2.2764 60.4493 3.20856 59.213 4.54275 58.8318L7.7173 57.9246C8.27034 59.5754 9.81492 60.7763 11.6501 60.7763C13.4852 60.7763 15.0298 59.5754 15.5829 57.9246L18.7564 58.8318C20.0916 59.213 21.0238 60.4493 21.0238 61.8366ZM16.8577 49.3196C16.8577 52.1911 14.5215 54.5272 11.6501 54.5272C8.77861 54.5272 6.44248 52.1911 6.44248 49.3196V47.2365C6.44248 44.3651 8.77861 42.0289 11.6501 42.0289C14.5215 42.0289 16.8577 44.3651 16.8577 47.2365V49.3196ZM43.9882 42.7632L43.2102 41.9873L42.5155 42.3976C40.9314 43.3319 39.2201 44.0412 37.4277 44.5046L36.6465 44.7057V45.8055L35.88 48.2781H29.082L28.3144 45.8055V44.7057L27.5333 44.5046C25.7408 44.0412 24.0296 43.3319 22.4454 42.3976L21.7507 41.9873L20.9727 42.7632L18.2648 44.1901C17.3316 42.1737 15.5079 40.6541 13.2978 40.1407L15.0767 36.8776L15.8578 36.0944L15.4475 35.3997C14.5132 33.8176 13.8039 32.1064 13.3405 30.3119L13.1394 29.5307H12.0396L9.56704 28.7642V21.9662L12.0396 21.1986H13.1394L13.3405 20.4174C13.8039 18.625 14.5132 16.9137 15.4475 15.3296L15.8578 14.6349L15.0819 13.8569L13.8758 11.5655L18.6814 6.75893L20.9727 7.96501L21.7507 8.74302L22.4454 8.33058C24.0244 7.39738 25.7356 6.68915 27.5333 6.22463L28.3144 6.02362V4.92377L29.0809 2.4512H35.8789L36.6465 4.92377V6.02362L37.4277 6.22463C39.2253 6.68915 40.9366 7.39842 42.5155 8.33058L43.2102 8.74302L43.9882 7.96501L46.2796 6.75893L51.0851 11.5655L49.8791 13.8569L49.1031 14.6349L49.5135 15.3296C50.4477 16.9137 51.157 18.625 51.6205 20.4174L51.8215 21.1986H52.9213L55.3939 21.9651V28.7631L52.9213 29.5307H51.8215L51.6205 30.3119C51.157 32.1064 50.4477 33.8176 49.5135 35.3997L49.1031 36.0944L49.8843 36.8776L51.6632 40.1407C49.4531 40.6541 47.6294 42.1727 46.6962 44.1891L43.9882 42.7632ZM48.1033 49.3196V47.2365C48.1033 44.3651 50.4394 42.0289 53.3109 42.0289C56.1823 42.0289 58.5185 44.3651 58.5185 47.2365V49.3196C58.5185 52.1911 56.1823 54.5272 53.3109 54.5272C50.4394 54.5272 48.1033 52.1911 48.1033 49.3196ZM62.6845 62.8593H43.9372V61.8366C43.9372 60.4493 44.8693 59.213 46.2035 58.8318L49.3781 57.9246C49.9311 59.5754 51.4757 60.7763 53.3109 60.7763C55.146 60.7763 56.6906 59.5754 57.2436 57.9246L60.4172 58.8318C61.7524 59.213 62.6845 60.4493 62.6845 61.8366V62.8593Z" fill="#4A83E7"/>
</svg>
