<svg width="65" height="61" viewBox="0 0 65 61" fill="none" xmlns="http://www.w3.org/2000/svg">
<path d="M54.8101 43.3593L54.6379 43.3725C53.2997 43.4388 52.0277 43.8632 50.9412 44.5661C47.5095 46.7807 46.4761 51.356 48.6225 54.8438C49.4307 54.0216 50.4377 53.4513 51.5639 53.1728C49.6427 51.2764 49.6295 48.1467 51.5507 46.2105C53.4719 44.2876 56.5723 44.2876 58.4935 46.2105C60.4147 48.1334 60.4147 51.2631 58.4803 53.1728C59.5933 53.438 60.6135 54.0216 61.4217 54.8438C62.9587 52.3639 62.8924 49.2209 61.3422 46.8205C59.9112 44.6191 57.46 43.2929 54.8101 43.3593ZM53.7634 41.5822V39.2614C53.7634 38.3199 52.9949 37.5374 52.0409 37.5374H45.7738C45.4293 44.6987 39.52 50.3614 32.3254 50.3614C25.1308 50.3614 19.2082 44.6987 18.877 37.5374H12.6099C11.6692 37.5374 10.8874 38.3199 10.8874 39.2614V41.5822C13.6699 41.9668 16.0548 43.5317 17.5123 45.7994C18.7975 47.8019 19.3275 50.2951 18.7975 52.8147C18.7975 52.8545 18.7842 52.8811 18.7842 52.9076C18.2277 55.414 16.7173 57.4696 14.7033 58.7559C12.6894 60.0556 10.1852 60.586 7.6545 60.0423C5.12381 59.4986 3.05686 57.9735 1.75839 55.9577C0.459925 53.942 -0.070062 51.4355 0.473175 48.9026C1.3609 44.765 4.89857 41.7944 9.01922 41.5292V39.2747C9.01922 37.2987 10.6224 35.6941 12.5966 35.6941H18.9035C19.4865 29.1163 24.7863 23.9045 31.3979 23.4536V19.011C28.4698 18.7193 25.9656 17.1014 24.4551 14.7541C23.1566 12.7383 22.6266 10.2319 23.1699 7.69891C23.7131 5.16595 25.2368 3.09715 27.2508 1.79752C29.2515 0.497884 31.7424 -0.0193173 34.2599 0.497884C34.2864 0.497884 34.3261 0.511145 34.3526 0.511145C36.8568 1.06813 38.9105 2.57995 40.1957 4.59571C41.4942 6.5982 42.0109 9.09138 41.4942 11.6111C41.4942 11.6509 41.4809 11.6774 41.4677 11.7039C40.9112 14.2103 39.4007 16.2659 37.4 17.5523C36.1678 18.3479 34.7501 18.8519 33.2529 18.9978V23.4271C39.8512 23.878 45.1511 29.0898 45.7473 35.6675H52.0542C54.0284 35.6675 55.6316 37.2722 55.6316 39.2482V41.5026C58.6393 41.7016 61.3025 43.3062 62.9057 45.7861C64.2041 47.8019 64.7341 50.3216 64.1909 52.8413C63.6477 55.361 62.1239 57.443 60.11 58.7427C58.096 60.0423 55.5918 60.5728 53.0612 60.029C50.5305 59.4853 48.4635 57.9602 47.1651 55.9445C45.8666 53.942 45.3498 51.4488 45.8666 48.9291C45.8798 48.9026 45.8798 48.8628 45.8931 48.8363C46.4496 46.3298 47.96 44.2743 49.9607 42.9879C51.087 42.2585 52.3854 41.7679 53.7634 41.5822ZM43.9189 36.6489V36.6091C43.8394 33.5059 42.5542 30.721 40.5137 28.6787C35.9823 24.1432 28.6287 24.1432 24.0841 28.6787C19.5527 33.2142 19.5527 40.5743 24.0841 45.123C28.6155 49.6585 35.9691 49.6585 40.5137 45.123C42.6867 42.9481 43.9851 39.951 43.9189 36.6489ZM9.98645 43.3725L9.82745 43.3593C8.27724 43.3195 6.80652 43.7438 5.5478 44.5528C2.11614 46.7675 1.08266 51.3427 3.22911 54.8305C4.03734 54.0083 5.04431 53.438 6.15729 53.1595C4.23608 51.2631 4.22283 48.1334 6.14404 46.1972C8.06524 44.2743 11.1657 44.2743 13.0869 46.1972C15.0081 48.1202 15.0081 51.2499 13.0736 53.1595C14.1866 53.4248 15.2068 54.0083 16.015 54.8305C17.5388 52.3506 17.4858 49.2209 15.9356 46.8073C14.6371 44.7915 12.4509 43.4919 9.98645 43.3725ZM32.2592 17.2075H32.3784C33.8226 17.1942 35.2138 16.7698 36.3931 16.0139C36.8038 15.7487 37.188 15.4437 37.5458 15.0989C36.7375 14.1971 35.5848 13.6666 34.3526 13.6666H30.2982C29.0527 13.6666 27.9133 14.1971 27.105 15.0989C28.4565 16.425 30.2982 17.1942 32.2592 17.2075ZM60.2292 56.2893C59.421 55.3875 58.2683 54.857 57.0361 54.857H52.9817C51.7362 54.857 50.5967 55.3875 49.7885 56.2893C52.7034 59.114 57.3408 59.0875 60.2292 56.2893ZM55.0089 46.6216C52.2927 46.6216 50.928 49.9105 52.8492 51.8334C54.7704 53.7563 58.0563 52.3904 58.0563 49.6718C58.0563 47.9875 56.6916 46.6216 55.0089 46.6216ZM14.8491 56.2893C14.0408 55.3875 12.8881 54.857 11.6559 54.857H7.58825C6.34278 54.857 5.20331 55.3875 4.39508 56.2893C7.31001 59.114 11.9474 59.0875 14.8491 56.2893ZM9.61545 46.6216C6.89927 46.6216 5.53455 49.9105 7.45576 51.8334C9.37696 53.7563 12.6629 52.3904 12.6629 49.6718C12.6761 47.9875 11.2982 46.6216 9.61545 46.6216ZM25.9126 13.6401C26.7208 12.8179 27.7278 12.2476 28.854 11.9691C26.9328 10.0727 26.9195 6.943 28.8407 5.00681C30.7619 3.08389 33.8624 3.08389 35.7836 5.00681C37.7048 6.92974 37.6915 10.0595 35.7703 11.9691C36.8833 12.2344 37.9035 12.8179 38.7118 13.6401C40.2355 11.1602 40.1825 8.03045 38.6323 5.61685C36.3798 2.12906 31.7292 1.12118 28.2445 3.36238C24.7996 5.57706 23.7661 10.1523 25.9126 13.6401ZM32.3122 5.43118C29.596 5.43118 28.2313 8.72005 30.1525 10.643C32.0737 12.5659 35.3596 11.2 35.3596 8.48134C35.3596 6.79713 33.9949 5.43118 32.3122 5.43118ZM32.3122 32.7102C34.6176 32.7102 36.4858 34.5801 36.4858 36.8876C36.4858 39.1951 34.6176 41.0783 32.3122 41.0783C30.0067 41.0783 28.1253 39.2084 28.1253 36.8876C28.1253 34.5668 30.0067 32.7102 32.3122 32.7102ZM33.9551 35.2432C32.4977 33.7844 29.9802 34.8188 29.9802 36.8876C29.9802 38.9564 32.4977 39.9908 33.9551 38.532C34.8693 37.6303 34.8693 36.1582 33.9551 35.2432ZM30.9607 27.1271H33.6636C34.1804 27.1271 34.5911 27.5382 34.5911 28.0554V29.0898C35.1608 29.249 35.7041 29.4877 36.2208 29.7662L36.9495 29.0368C37.3073 28.6654 37.8903 28.6654 38.2613 29.0368L40.1692 30.9464C40.527 31.3045 40.527 31.9013 40.1692 32.2593L39.4405 32.9887C39.732 33.5059 39.9572 34.0496 40.1162 34.6199H41.1497C41.6664 34.6199 42.0772 35.031 42.0772 35.5482V38.2403C42.0772 38.7708 41.6532 39.1819 41.0702 39.1686H40.1295C39.9705 39.7388 39.732 40.2826 39.4537 40.7998L40.1825 41.5292C40.5402 41.8872 40.5402 42.484 40.1825 42.8421L38.2745 44.7517C37.9168 45.1098 37.3205 45.1098 36.9628 44.7517L36.2341 44.0223C35.7173 44.3008 35.1741 44.5263 34.6044 44.6987V45.7331C34.6044 46.2503 34.1936 46.6614 33.6769 46.6614H30.9739C30.4572 46.6614 30.0465 46.2503 30.0465 45.7331V44.6987C29.4767 44.5395 28.9335 44.3141 28.4168 44.0223L27.688 44.7517C27.3303 45.1098 26.734 45.1098 26.3763 44.7517L24.4683 42.8421C24.1106 42.484 24.1106 41.9005 24.4683 41.5292L25.1971 40.7998C24.9188 40.2826 24.6936 39.7388 24.5213 39.1686H23.4879C22.9711 39.1686 22.5604 38.7575 22.5604 38.2403V35.5349C22.5604 35.0177 22.9711 34.6066 23.4879 34.6066H24.5213C24.6803 34.0364 24.9056 33.4926 25.1971 32.9754L24.4683 32.2461C24.1106 31.888 24.1106 31.3045 24.4683 30.9332L26.3763 29.0235C26.734 28.6522 27.317 28.6522 27.688 29.0235L28.4168 29.7529C28.6685 29.6203 28.9335 29.4877 29.2117 29.3683C29.4767 29.249 29.755 29.1561 30.0465 29.0765V28.0421C30.0332 27.5382 30.444 27.1271 30.9607 27.1271ZM32.7361 28.9837H31.8882V29.8192C31.8882 30.2568 31.5702 30.6414 31.1329 30.7342C30.7089 30.8138 30.2982 30.9332 29.914 31.0923C29.5827 31.2249 29.119 31.4636 28.8275 31.6758C28.4697 31.9543 27.9398 31.9278 27.6085 31.5962L27.0123 31.0127L26.416 31.6095L27.0123 32.193C27.3303 32.498 27.37 32.9887 27.1315 33.3733C26.7075 33.9966 26.2836 34.9116 26.1643 35.6543C26.1113 36.1184 25.7138 36.4765 25.2501 36.4765H24.4153V37.3252H25.2501C25.6873 37.3252 26.0716 37.6435 26.1643 38.0812C26.3101 38.8371 26.6545 39.7654 27.105 40.3887C27.3833 40.7467 27.37 41.2772 27.0255 41.6087L26.4293 42.2055L27.0255 42.8023L27.6218 42.2055C27.9265 41.8872 28.43 41.8474 28.801 42.0861C29.4237 42.5105 30.338 42.9349 31.0932 43.0542C31.5569 43.1073 31.9147 43.5051 31.9147 43.9825V44.818H32.7626V43.9825C32.7626 43.5449 33.0674 43.1603 33.5179 43.0675C34.2731 42.9349 35.2006 42.5768 35.8101 42.1259C36.1678 41.8474 36.6978 41.874 37.029 42.2055L37.612 42.8023L38.2083 42.2055L37.6253 41.6087C37.3205 41.3037 37.2675 40.7998 37.5193 40.4284C38.0095 39.7123 38.3275 38.9299 38.4865 38.0812C38.566 37.6568 38.9502 37.3252 39.4007 37.3252H40.2355V36.4765H39.4007C38.9635 36.4765 38.5793 36.1715 38.4865 35.7206C38.3408 34.9647 37.9963 34.0364 37.5458 33.4263C37.2675 33.0683 37.294 32.5378 37.6253 32.2063L38.2083 31.6228L37.612 31.026L37.029 31.6095C36.7243 31.9145 36.2341 31.9676 35.8498 31.7156C35.2271 31.2912 34.3129 30.8801 33.5709 30.7475C33.1071 30.6945 32.7494 30.2966 32.7494 29.8325V28.9837H32.7361Z" fill="#4A83E7"/>
</svg>
