<svg width="67" height="71" viewBox="0 0 67 71" fill="none" xmlns="http://www.w3.org/2000/svg">
<path d="M54.4366 45.2494C56.7221 45.2494 58.5798 47.1085 58.5798 49.3925C58.5798 50.2217 59.2507 50.8927 60.0799 50.8927C60.9092 50.8927 61.5801 50.2217 61.5801 49.3925C61.5801 45.9685 59.1562 43.1058 55.9368 42.4137V41.1149C55.9368 40.2857 55.2658 39.6147 54.4366 39.6147C53.6074 39.6147 52.9364 40.2857 52.9364 41.1149V42.4137C49.717 43.1058 47.2931 45.9685 47.2931 49.3925C47.2931 53.332 50.4987 56.5375 54.4366 56.5375C56.7221 56.5375 58.5798 58.3967 58.5798 60.6807C58.5798 62.9662 56.7221 64.8252 54.4366 64.8252C52.1511 64.8252 50.2935 62.966 50.2935 60.6807L50.2993 60.4302C50.3432 59.6026 49.7103 58.8963 48.8811 58.8509C48.0752 58.8318 47.3486 59.4442 47.3047 60.2691L47.293 60.6807C47.293 64.1047 49.7168 66.9687 52.9363 67.6609V68.9582C52.9363 69.7874 53.6073 70.4583 54.4365 70.4583C55.2657 70.4583 55.9366 69.7874 55.9366 68.9582V67.6609C59.1561 66.9687 61.58 64.1047 61.58 60.6807C61.58 56.7412 58.3744 53.5372 54.4365 53.5372C52.151 53.5372 50.2933 51.678 50.2933 49.3925C50.2935 47.1084 52.1511 45.2494 54.4366 45.2494Z" fill="#4A83E7"/>
<path d="M33.4812 0.275391C15.2238 0.275391 0.368164 15.1295 0.368164 33.3869C0.368164 51.6443 15.2238 66.4984 33.4812 66.4984C36.3292 66.4984 39.1568 66.1365 41.8906 65.4216C42.6905 65.2106 43.171 64.3916 42.96 63.5902C42.749 62.7889 41.9403 62.3127 41.1287 62.5178C39.1286 63.0421 37.0618 63.2996 34.9814 63.4023V58.7952C34.9814 57.966 34.3104 57.2951 33.4812 57.2951C32.652 57.2951 31.981 57.966 31.981 58.7952V63.4221C16.5754 62.6578 4.20903 50.2916 3.44465 34.8872H8.07436C8.90357 34.8872 9.57452 34.2163 9.57452 33.387C9.57452 32.5578 8.90357 31.8869 8.07436 31.8869H3.44465C4.20903 16.4824 16.5754 4.11625 31.981 3.35203V7.97883C31.981 8.80805 32.652 9.479 33.4812 9.479C34.3104 9.479 34.9814 8.80805 34.9814 7.97883V3.35172C50.387 4.11595 62.7533 16.4821 63.5177 31.8866H58.888C58.0588 31.8866 57.3878 32.5575 57.3878 33.3867C57.3878 34.2159 58.0588 34.8869 58.888 34.8869H63.4873C63.3699 37.2495 63.0457 39.5934 62.3836 41.8605C62.1521 42.6561 62.6091 43.4896 63.4063 43.7211C64.1916 43.954 65.0324 43.4954 65.2639 42.7014C66.1459 39.679 66.5942 36.5452 66.5942 33.3866C66.5942 15.1295 51.7386 0.275391 33.4812 0.275391Z" fill="#4A83E7"/>
<path d="M16.841 50.574C17.1311 50.8554 17.5091 50.9959 17.8842 50.9959C18.2768 50.9959 18.6664 50.8436 18.9625 50.5389L31.3525 37.7426C31.9979 38.0588 32.7138 38.2523 33.4813 38.2523C36.1681 38.2523 38.3463 36.074 38.3463 33.3872C38.3463 31.2272 36.9292 29.4174 34.9813 28.7824V18.2096C34.9813 17.3804 34.3103 16.7095 33.4811 16.7095C32.6519 16.7095 31.9809 17.3804 31.9809 18.2096V28.7824C30.0332 29.4177 28.6161 31.2274 28.6161 33.3872C28.6161 34.2096 28.8395 34.9725 29.1997 35.652L16.806 48.4526C16.2288 49.0474 16.2462 49.9968 16.841 50.574Z" fill="#4A83E7"/>
</svg>
