<svg width="32" height="41" viewBox="0 0 32 41" fill="none" xmlns="http://www.w3.org/2000/svg">
<path d="M15.897 0C19.4335 0 22.3004 2.80615 22.3004 6.26762C22.3004 9.7291 19.4335 12.5352 15.897 12.5352C12.3605 12.5352 9.49356 9.7291 9.49356 6.26762C9.49356 2.80615 12.3605 0 15.897 0ZM5.5794 23.491C5.5794 23.0205 5.88841 22.7012 6.38627 22.7012C6.88412 22.7012 7.19313 23.0037 7.19313 23.491V41H24.7897V23.491C24.7897 23.0205 25.0987 22.7012 25.5966 22.7012C26.0773 22.7012 26.4034 23.0037 26.4034 23.491V41H32V21.9115C32 17.593 28.3948 14.0811 24 14.0811H22.3863L17.6824 21.2393L17.1159 15.8791L17.8884 14.0643H14.4206L15.1931 15.8791L14.5923 21.2729L9.88841 14.0811H8C3.58798 14.0811 0 17.6098 0 21.9115V41H5.59657V23.491H5.5794Z" fill="url(#paint0_linear_1410_5022)"/>
<defs>
<linearGradient id="paint0_linear_1410_5022" x1="6" y1="8" x2="25" y2="38.5" gradientUnits="userSpaceOnUse">
<stop stop-color="#4A83E7"/>
<stop offset="1" stop-color="#5B7DE7"/>
</linearGradient>
</defs>
</svg>
