<svg width="55" height="55" viewBox="0 0 55 55" fill="none" xmlns="http://www.w3.org/2000/svg">
<path d="M17.3649 23.2482L27.8535 12.7596L38.3421 23.2579L44.4433 17.1567L27.8535 0.557129L11.2637 17.1469L17.3649 23.2482Z" fill="white"/>
<path d="M0.855469 27.5522L6.95619 21.4513L13.0571 27.552L6.95641 33.653L0.855469 27.5522Z" fill="white"/>
<path d="M17.3649 31.8662L27.8535 42.3548L38.3421 31.8564L44.4531 37.9577H44.4433L27.8535 54.5573L11.2637 37.9674L11.2539 37.9577L17.3649 31.8662Z" fill="white"/>
<path d="M42.6484 27.5625L48.7492 21.4616L54.8501 27.5623L48.7494 33.6632L42.6484 27.5625Z" fill="white"/>
<path d="M34.0428 27.5571L27.8534 21.3579L23.28 25.9412L22.7511 26.4602L21.6641 27.5473L21.6543 27.5571L21.6641 27.5668L27.8534 33.7562L34.0428 27.5571Z" fill="white"/>
</svg>
